<svg xmlns="http://www.w3.org/2000/svg" viewBox="0 0 361 170" fill="none">
<rect width="360" height="170" transform="translate(0.402344)" fill="url(#paint0_radial_3961_9009)"/>
<g filter="url(#filter0_d_3961_9009)">
<g clip-path="url(#clip0_3961_9009)">
<rect x="188" y="91.5146" width="63.8535" height="82.5184" rx="6.82" transform="rotate(-36.884 188 91.5146)" fill="#E9FFD5"/>
<path d="M205.392 98.2078L207.971 101.645L207.622 101.907L206.289 100.131L205.844 100.465L207.045 102.065L206.711 102.315L204.315 99.1233L204.649 98.8728L205.619 100.166L206.064 99.8318L205.042 98.4698L205.392 98.2078ZM204.156 99.7824L204.378 100.078L203.453 100.772L204.648 102.364C205.067 102.043 205.371 101.785 205.688 101.44L205.939 101.719C205.588 102.114 205.247 102.394 204.747 102.775L204.517 102.948L202.867 100.75L204.156 99.7824ZM208.033 96.7712L208.252 97.0627L206.203 98.6001L205.985 98.3085L206.829 97.6752L206.555 97.3107L206.92 97.0372L207.193 97.4017L208.033 96.7712ZM207.343 97.9849C207.841 97.6173 208.363 97.6095 208.645 97.9855C208.927 98.3615 208.776 98.8643 208.281 99.2356C207.783 99.6099 207.258 99.6139 206.976 99.2379C206.694 98.8619 206.847 98.363 207.343 97.9849ZM207.553 98.265C207.262 98.4838 207.167 98.7649 207.329 98.973C207.486 99.1907 207.777 99.1705 208.068 98.9517C208.36 98.7329 208.461 98.4595 208.303 98.2418C208.141 98.0336 207.845 98.0462 207.553 98.265ZM208.42 95.9355L209.119 96.8678L209.618 96.4935L209.846 96.7966L209.347 97.1709L210.032 98.084L209.667 98.3575L208.055 96.209L208.42 95.9355ZM210.164 98.2605L210.999 99.3731L210.635 99.6466L210.022 98.8294L208.115 100.26L207.893 99.9648L210.164 98.2605ZM210.543 95.3739C210.825 95.7499 211.352 95.9483 211.923 95.7832L211.942 96.2072C211.529 96.3248 211.129 96.2592 210.793 96.0674C210.907 96.4828 210.88 96.938 210.655 97.329L210.242 97.1948C210.554 96.6431 210.478 96.0224 210.19 95.6388L209.856 95.1937L210.209 94.9288L210.543 95.3739ZM211.93 93.3071L213.517 95.4211L213.171 95.6802L212.48 94.7594L212.078 95.0617L212.688 95.8751L212.35 96.1285L210.891 94.1833L211.228 93.9299L211.853 94.7625L212.256 94.4602L211.585 93.5662L211.93 93.3071ZM212.415 96.35C213.132 95.8117 213.757 95.7089 214.054 96.0973C214.344 96.4916 214.071 97.0624 213.35 97.597C212.636 98.1392 212.011 98.242 211.721 97.8477C211.424 97.4593 211.697 96.8884 212.415 96.35ZM212.625 96.6301C212.126 97.0044 211.914 97.3613 212.082 97.5771C212.242 97.7987 212.644 97.695 213.14 97.3169C213.642 96.9464 213.85 96.5924 213.69 96.3708C213.522 96.155 213.124 96.2559 212.625 96.6301Z" fill="#99D85F"/>
<path d="M211.052 104.82L211.562 105.499L209.362 107.149L210.097 108.128L212.048 106.664L212.538 107.317L210.587 108.781L211.429 109.903C212.334 109.214 213.038 108.635 213.768 107.883L214.351 108.496C213.521 109.333 212.685 110.001 211.615 110.804L211.106 111.186L208.031 107.088L211.052 104.82ZM212.33 103.097L216.786 109.036L215.944 109.667L211.488 103.729L212.33 103.097ZM218.075 99.6427L218.608 100.354C219.221 101.17 219.828 101.979 220.533 103.368L219.637 103.928C219.002 102.619 218.366 101.771 217.78 100.976L217.745 100.93L214.384 103.452L213.885 102.787L218.075 99.6427ZM221.688 103.072L222.203 103.757L216.786 107.822L216.272 107.137L221.688 103.072ZM223.624 94.6221L228.08 100.561L227.29 101.153L225.052 98.171L224.478 98.6019L226.5 101.297L225.737 101.87L221.569 96.3164L222.333 95.7435L223.978 97.9363L224.553 97.5053L222.834 95.2146L223.624 94.6221ZM221.384 97.3739L221.888 98.0461L220.511 99.0794L222.411 101.612C222.983 101.177 223.47 100.766 223.966 100.231L224.534 100.865C223.912 101.546 223.294 102.04 222.516 102.635L222.105 102.943L219.171 99.034L221.384 97.3739ZM227.983 92.1768L228.478 92.8359L224.954 95.4804L224.459 94.8212L225.81 93.8075L225.389 93.2463L226.218 92.6244L226.639 93.1856L227.983 92.1768ZM226.858 94.3474C227.719 93.701 228.653 93.6942 229.143 94.3468C229.632 94.9995 229.365 95.8938 228.503 96.5402C227.642 97.1866 226.695 97.2032 226.206 96.5505C225.716 95.8979 225.996 94.9938 226.858 94.3474ZM227.328 94.9739C226.93 95.2726 226.785 95.6366 227.022 95.9384C227.24 96.2435 227.625 96.1994 228.023 95.9006C228.422 95.6019 228.578 95.2396 228.353 94.9394C228.123 94.6327 227.726 94.6752 227.328 94.9739ZM228.774 90.7569L229.93 92.2971L230.733 91.6947L231.242 92.3734L230.439 92.9758L231.571 94.4833L230.735 95.1102L227.939 91.3837L228.774 90.7569ZM231.757 94.7313L233.231 96.6957L232.395 97.3225L231.421 96.0238L228.256 98.3989L227.756 97.7332L231.757 94.7313ZM234.952 86.9274L235.388 87.5082C235.925 88.2375 236.537 89.0532 237.218 90.4091L236.348 90.9495C235.728 89.716 235.128 88.9018 234.611 88.2133L231.054 90.8823L230.56 90.2231L234.952 86.9274ZM238.458 90.5802L238.967 91.2589L233.551 95.3235L233.041 94.6448L234.196 93.778L232.796 91.9115L233.625 91.2896L235.025 93.1561L235.678 92.6663L234.277 90.7999L235.1 90.1828L236.5 92.0493L238.458 90.5802Z" fill="#99D85F"/>
<circle cx="218.49" cy="78.9566" r="2.31445" transform="rotate(-36.884 218.49 78.9566)" fill="#1C7FFF"/>
<rect x="249.754" y="116.22" width="9.7832" height="16.3628" transform="rotate(-36.884 249.754 116.22)" fill="white"/>
<rect x="250.454" y="116.32" width="8.7832" height="15.3628" transform="rotate(-36.884 250.454 116.32)" stroke="#99D85F" stroke-opacity="0.6"/>
<path d="M259.076 123.426C258.492 122.649 258.65 121.546 259.427 120.962C260.204 120.379 261.308 120.536 261.891 121.314L264.294 124.517L261.479 126.629L259.076 123.426Z" fill="#99D85F" fill-opacity="0.6"/>
<rect x="234.646" y="113.612" width="9.7832" height="27.5172" transform="rotate(-36.884 234.646 113.612)" fill="white"/>
<rect x="235.347" y="113.712" width="8.7832" height="26.5172" transform="rotate(-36.884 235.347 113.712)" stroke="#99D85F" stroke-opacity="0.6"/>
<rect x="251.475" y="100.984" width="9.7832" height="27.5172" transform="rotate(-36.884 251.475 100.984)" fill="white"/>
<rect x="252.175" y="101.084" width="8.7832" height="26.5172" transform="rotate(-36.884 252.175 101.084)" stroke="#99D85F" stroke-opacity="0.6"/>
<path d="M267.49 117.112C266.906 116.335 267.064 115.232 267.841 114.648C268.619 114.065 269.722 114.222 270.305 115L272.708 118.203L269.893 120.315L267.49 117.112Z" fill="#99D85F" fill-opacity="0.6"/>
<path d="M250.664 129.739C250.08 128.962 250.238 127.859 251.015 127.275C251.792 126.692 252.895 126.849 253.479 127.627L255.882 130.83L253.067 132.942L250.664 129.739Z" fill="#99D85F" fill-opacity="0.6"/>
<path d="M249.949 108.89C249.998 108.638 250.229 108.464 250.485 108.488L259.692 109.333C260.148 109.375 260.313 109.956 259.947 110.231L248.977 118.462C248.611 118.737 248.099 118.416 248.186 117.967L249.949 108.89Z" fill="#99D85F" fill-opacity="0.6"/>
<rect x="262.547" y="114.437" width="8.57422" height="1.92915" transform="rotate(-36.884 262.547 114.437)" fill="#99D85F" fill-opacity="0.6"/>
<rect x="253.988" y="120.859" width="8.57422" height="1.92915" transform="rotate(-36.884 253.988 120.859)" fill="#99D85F" fill-opacity="0.6"/>
<rect x="260.695" y="111.968" width="8.57422" height="1.92915" transform="rotate(-36.884 260.695 111.968)" fill="#99D85F" fill-opacity="0.6"/>
<rect x="245.578" y="127.171" width="8.57422" height="1.92915" transform="rotate(-36.884 245.578 127.171)" fill="#99D85F" fill-opacity="0.6"/>
<rect x="243.725" y="124.703" width="8.57422" height="1.92915" transform="rotate(-36.884 243.725 124.703)" fill="#99D85F" fill-opacity="0.6"/>
<rect x="253.502" y="102.382" width="8.57422" height="1.92915" transform="rotate(-36.884 253.502 102.382)" fill="#99D85F" fill-opacity="0.6"/>
<rect x="236.531" y="115.116" width="8.57422" height="1.92915" transform="rotate(-36.884 236.531 115.116)" fill="#99D85F" fill-opacity="0.6"/>
<rect x="242.066" y="117.182" width="2.19922" height="3.96407" transform="rotate(-36.884 242.066 117.182)" fill="#99D85F" fill-opacity="0.6"/>
<rect x="241.727" y="137.745" width="4.95312" height="3.96407" transform="rotate(-36.884 241.727 137.745)" fill="#99D85F" fill-opacity="0.6"/>
<rect x="237.176" y="141.16" width="4.95312" height="3.96407" transform="rotate(-36.884 237.176 141.16)" fill="#99D85F" fill-opacity="0.6"/>
<rect x="281.547" y="107.864" width="4.95312" height="3.96407" transform="rotate(-36.884 281.547 107.864)" fill="#99D85F" fill-opacity="0.6"/>
<rect x="276.996" y="111.279" width="4.95312" height="3.96407" transform="rotate(-36.884 276.996 111.279)" fill="#99D85F" fill-opacity="0.6"/>
<rect x="232.625" y="144.575" width="4.95312" height="3.96407" transform="rotate(-36.884 232.625 144.575)" fill="#99D85F" fill-opacity="0.6"/>
<rect x="228.074" y="147.989" width="4.95312" height="3.96407" transform="rotate(-36.884 228.074 147.989)" fill="#99D85F" fill-opacity="0.6"/>
<rect x="259.037" y="104.448" width="2.19922" height="3.96407" transform="rotate(-36.884 259.037 104.448)" fill="#99D85F" fill-opacity="0.6"/>
</g>
</g>
<g filter="url(#filter1_d_3961_9009)">
<g clip-path="url(#clip1_3961_9009)">
<rect x="210.441" y="36.4874" width="63.8535" height="82.5184" rx="6.82" transform="rotate(-7.19043 210.441 36.4874)" fill="#FFEAD5"/>
<path d="M222.235 50.917L222.773 55.181L222.34 55.2356L222.062 53.0322L221.51 53.1019L221.76 55.0864L221.346 55.1386L220.847 51.1791L221.261 51.1269L221.463 52.7307L222.015 52.661L221.802 50.9716L222.235 50.917ZM220.382 51.6729L220.428 52.0393L219.281 52.184L219.53 54.159C220.053 54.0882 220.445 54.0146 220.891 53.8713L220.971 54.2383C220.471 54.4078 220.035 54.4821 219.412 54.5655L219.127 54.6015L218.783 51.8746L220.382 51.6729ZM225.241 50.9776L225.287 51.3393L222.746 51.6599L222.7 51.2982L223.747 51.1661L223.69 50.714L224.142 50.657L224.199 51.1091L225.241 50.9776ZM224.04 51.69C224.655 51.6173 225.112 51.869 225.171 52.3354C225.23 52.8018 224.85 53.1639 224.236 53.2414C223.617 53.3194 223.16 53.0629 223.101 52.5966C223.042 52.1302 223.422 51.7728 224.04 51.69ZM224.084 52.0374C223.723 52.083 223.501 52.2802 223.539 52.5413C223.568 52.8084 223.83 52.9349 224.192 52.8892C224.553 52.8436 224.776 52.6559 224.747 52.3888C224.71 52.1277 224.446 51.9917 224.084 52.0374ZM225.991 50.4431L226.137 51.5995L226.756 51.5215L226.803 51.8974L226.184 51.9755L226.327 53.1081L225.875 53.1651L225.539 50.5001L225.991 50.4431ZM226.355 53.327L226.529 54.7071L226.077 54.7642L225.949 53.7505L223.584 54.0489L223.538 53.6825L226.355 53.327ZM228.113 51.0069C228.172 51.4733 228.532 51.9066 229.11 52.0463L228.916 52.4238C228.499 52.3216 228.184 52.0664 227.988 51.7335C227.881 52.1507 227.632 52.5326 227.242 52.7606L226.95 52.4397C227.494 52.1148 227.736 51.538 227.676 51.0621L227.606 50.5101L228.044 50.4549L228.113 51.0069ZM230.343 49.8989L230.674 52.5211L230.245 52.5751L230.101 51.433L229.601 51.496L229.729 52.5049L229.31 52.5578L229.006 50.145L229.424 50.0921L229.555 51.1248L230.054 51.0618L229.914 49.953L230.343 49.8989ZM229.256 52.7821C230.146 52.6699 230.739 52.8899 230.805 53.3747C230.862 53.8607 230.342 54.2213 229.451 54.3288C228.562 54.4458 227.968 54.2258 227.912 53.7398C227.846 53.2549 228.366 52.8944 229.256 52.7821ZM229.3 53.1295C228.681 53.2076 228.32 53.4127 228.359 53.6833C228.389 53.9552 228.789 54.0642 229.407 53.9814C230.027 53.9081 230.383 53.7036 230.353 53.4318C230.314 53.1611 229.919 53.0515 229.3 53.1295Z" fill="#FFAC5A"/>
<path d="M223.876 59.4654L223.982 60.3073L221.254 60.6515L221.407 61.8657L223.827 61.5603L223.929 62.3698L221.509 62.6752L221.685 64.0675C222.813 63.917 223.71 63.7626 224.718 63.471L224.92 64.2926C223.784 64.6086 222.728 64.7748 221.4 64.9423L220.769 65.0219L220.128 59.9383L223.876 59.4654ZM225.839 58.6009L226.768 65.9674L225.724 66.0991L224.795 58.7327L225.839 58.6009ZM232.541 58.4462L232.652 59.3286C232.78 60.3405 232.906 61.3443 232.831 62.8998L231.776 62.9425C231.872 61.4912 231.739 60.4388 231.624 59.4583L231.617 59.4016L227.448 59.9276L227.344 59.1019L232.541 58.4462ZM233.981 63.2153L234.088 64.0652L227.369 64.9129L227.262 64.0629L233.981 63.2153ZM239.848 56.8336L240.777 64.2L239.798 64.3236L239.331 60.6242L238.619 60.714L239.04 64.0573L238.093 64.1768L237.224 57.2879L238.171 57.1684L238.514 59.8884L239.227 59.7985L238.868 56.9571L239.848 56.8336ZM236.539 58.1145L236.644 58.9483L234.936 59.1638L235.332 62.3046C236.044 62.2107 236.671 62.0946 237.367 61.8753L237.546 62.7079C236.669 62.9913 235.887 63.1146 234.916 63.2453L234.406 63.3096L233.795 58.4607L236.539 58.1145ZM244.846 56.8691L244.95 57.6867L240.578 58.2381L240.475 57.4206L242.151 57.2092L242.063 56.513L243.091 56.3833L243.179 57.0795L244.846 56.8691ZM242.794 58.1972C243.862 58.0624 244.676 58.5189 244.778 59.3284C244.881 60.1379 244.205 60.7823 243.137 60.9171C242.068 61.0519 241.238 60.5974 241.136 59.7879C241.034 58.9784 241.725 58.332 242.794 58.1972ZM242.892 58.9743C242.398 59.0366 242.091 59.2808 242.148 59.6603C242.186 60.0337 242.543 60.1861 243.037 60.1238C243.53 60.0615 243.846 59.8243 243.799 59.4519C243.751 59.0715 243.385 58.912 242.892 58.9743ZM246.237 56.0275L246.478 57.9379L247.474 57.8123L247.58 58.6542L246.584 58.7798L246.82 60.6498L245.784 60.7805L245.201 56.1582L246.237 56.0275ZM246.859 60.9574L247.166 63.394L246.13 63.5247L245.927 61.9138L242.001 62.4091L241.897 61.5834L246.859 60.9574ZM253.5 55.7609L253.591 56.4813C253.696 57.3809 253.824 58.3928 253.744 59.9078L252.721 59.9465C252.793 58.568 252.675 57.5632 252.567 56.7092L248.155 57.2658L248.052 56.4482L253.5 55.7609ZM254.736 60.6708L254.843 61.5127L248.124 62.3603L248.018 61.5184L249.45 61.3377L249.158 59.0225L250.186 58.8928L250.478 61.208L251.288 61.1058L250.996 58.7907L252.016 58.662L252.308 60.9772L254.736 60.6708Z" fill="#FFAC5A"/>
<circle cx="243.15" cy="40.6826" r="2.31445" transform="rotate(-7.19043 243.15 40.6826)" fill="#1C7FFF"/>
<rect x="251.85" y="88.5396" width="9.7832" height="16.3628" transform="rotate(-7.19043 251.85 88.5396)" fill="white"/>
<rect x="252.408" y="88.9731" width="8.7832" height="15.3628" transform="rotate(-7.19043 252.408 88.9731)" stroke="#FF6B00" stroke-opacity="0.6"/>
<path d="M256.377 99.4168C256.255 98.4525 256.938 97.5722 257.902 97.4506C258.866 97.3289 259.747 98.012 259.868 98.9762L260.37 102.949L256.878 103.39L256.377 99.4168Z" fill="#FF6B00" fill-opacity="0.6"/>
<rect x="240.016" y="78.7896" width="9.7832" height="27.5172" transform="rotate(-7.19043 240.016 78.7896)" fill="white"/>
<rect x="240.574" y="79.2231" width="8.7832" height="26.5172" transform="rotate(-7.19043 240.574 79.2231)" stroke="#FF6B00" stroke-opacity="0.6"/>
<rect x="260.889" y="76.1562" width="9.7832" height="27.5172" transform="rotate(-7.19043 260.889 76.1562)" fill="white"/>
<rect x="261.447" y="76.5897" width="8.7832" height="26.5172" transform="rotate(-7.19043 261.447 76.5897)" stroke="#FF6B00" stroke-opacity="0.6"/>
<path d="M266.814 98.1001C266.692 97.1358 267.375 96.2555 268.34 96.1339C269.304 96.0122 270.184 96.6953 270.306 97.6595L270.807 101.632L267.315 102.073L266.814 98.1001Z" fill="#FF6B00" fill-opacity="0.6"/>
<path d="M245.941 100.733C245.819 99.7691 246.502 98.8888 247.467 98.7671C248.431 98.6455 249.311 99.3286 249.433 100.293L249.934 104.266L246.442 104.706L245.941 100.733Z" fill="#FF6B00" fill-opacity="0.6"/>
<path d="M255.648 82.2682C255.815 82.0735 256.103 82.0372 256.313 82.1842L263.893 87.4793C264.268 87.7414 264.123 88.328 263.669 88.3853L250.063 90.1019C249.609 90.1592 249.323 89.627 249.621 89.2799L255.648 82.2682Z" fill="#FF6B00" fill-opacity="0.6"/>
<rect x="263.846" y="93.3279" width="8.57422" height="1.92915" transform="rotate(-7.19043 263.846 93.3279)" fill="#FF6B00" fill-opacity="0.6"/>
<rect x="253.229" y="94.6673" width="8.57422" height="1.92915" transform="rotate(-7.19043 253.229 94.6673)" fill="#FF6B00" fill-opacity="0.6"/>
<rect x="263.459" y="90.2655" width="8.57422" height="1.92915" transform="rotate(-7.19043 263.459 90.2655)" fill="#FF6B00" fill-opacity="0.6"/>
<rect x="242.795" y="95.9836" width="8.57422" height="1.92915" transform="rotate(-7.19043 242.795 95.9836)" fill="#FF6B00" fill-opacity="0.6"/>
<rect x="242.408" y="92.9212" width="8.57422" height="1.92915" transform="rotate(-7.19043 242.408 92.9212)" fill="#FF6B00" fill-opacity="0.6"/>
<rect x="261.959" y="78.3745" width="8.57422" height="1.92915" transform="rotate(-7.19043 261.959 78.3745)" fill="#FF6B00" fill-opacity="0.6"/>
<rect x="240.908" y="81.0301" width="8.57422" height="1.92915" transform="rotate(-7.19043 240.908 81.0301)" fill="#FF6B00" fill-opacity="0.6"/>
<rect x="244.693" y="85.5672" width="2.19922" height="3.96407" transform="rotate(-7.19043 244.693 85.5672)" fill="#FF6B00" fill-opacity="0.6"/>
<rect x="234.213" y="103.262" width="4.95312" height="3.96407" transform="rotate(-7.19043 234.213 103.262)" fill="#FF6B00" fill-opacity="0.6"/>
<rect x="228.568" y="103.974" width="4.95312" height="3.96407" transform="rotate(-7.19043 228.568 103.974)" fill="#FF6B00" fill-opacity="0.6"/>
<rect x="283.605" y="97.0301" width="4.95312" height="3.96407" transform="rotate(-7.19043 283.605 97.0301)" fill="#FF6B00" fill-opacity="0.6"/>
<rect x="277.961" y="97.7422" width="4.95312" height="3.96407" transform="rotate(-7.19043 277.961 97.7422)" fill="#FF6B00" fill-opacity="0.6"/>
<rect x="222.924" y="104.686" width="4.95312" height="3.96407" transform="rotate(-7.19043 222.924 104.686)" fill="#FF6B00" fill-opacity="0.6"/>
<rect x="217.279" y="105.398" width="4.95312" height="3.96407" transform="rotate(-7.19043 217.279 105.398)" fill="#FF6B00" fill-opacity="0.6"/>
<rect x="265.744" y="82.9116" width="2.19922" height="3.96407" transform="rotate(-7.19043 265.744 82.9116)" fill="#FF6B00" fill-opacity="0.6"/>
</g>
</g>
<rect x="20.4023" y="20" width="50" height="19" rx="9.5" fill="white"/>
<path d="M30.7148 25.6328V32.6953H29.8867V29.0938H29.0898V32.3359H28.293V25.7656H29.0898V28.3984H29.8867V25.6328H30.7148ZM27.4961 26.4688V27.1719H25.7305V30.3125C26.5 30.3047 27.1328 30.2656 27.8477 30.1328L27.9102 30.8438C27.0586 31.0156 26.3164 31.0391 25.332 31.0469H24.8555V26.4688H27.4961ZM35.4261 26.3125V27H31.2386V26.3125H32.9027V25.6016H33.7698V26.3125H35.4261ZM33.3323 27.2734C34.3558 27.2734 35.0511 27.7891 35.0589 28.5625C35.0511 29.3359 34.3558 29.8516 33.3323 29.8516C32.3089 29.8516 31.598 29.3359 31.598 28.5625C31.598 27.7891 32.3089 27.2734 33.3323 27.2734ZM33.3323 27.9297C32.7933 27.9297 32.4417 28.1641 32.4417 28.5625C32.4417 28.9609 32.7933 29.1875 33.3323 29.1797C33.8714 29.1875 34.2308 28.9609 34.2308 28.5625C34.2308 28.1641 33.8714 27.9297 33.3323 27.9297ZM36.8011 25.6328V27.5078H37.7855V28.2188H36.8011V30.0547H35.9339V25.6328H36.8011ZM36.8011 30.3828V32.6953H35.9339V31.0781H32.098V30.3828H36.8011ZM40.028 26.9453C40.028 27.7109 40.4733 28.4766 41.403 28.8281L40.942 29.4922C40.3131 29.25 39.8756 28.8008 39.6217 28.25C39.3639 28.8828 38.903 29.4219 38.2311 29.7031L37.7623 29.0391C38.7311 28.6094 39.1842 27.7266 39.192 26.9453V26.0703H40.028V26.9453ZM43.8639 25.6406V29.9688H43.0358V28.1328H42.3327V29.75H41.5202V25.7734H42.3327V27.4219H43.0358V25.6406H43.8639ZM41.4811 30.0859C42.9577 30.0859 43.8952 30.5703 43.903 31.3828C43.8952 32.1953 42.9577 32.6875 41.4811 32.6875C39.9889 32.6875 39.0592 32.1953 39.0592 31.3828C39.0592 30.5703 39.9889 30.0859 41.4811 30.0859ZM41.4811 30.7422C40.5045 30.7422 39.9264 30.9688 39.9264 31.3828C39.9264 31.8047 40.5045 32.0234 41.4811 32.0234C42.4498 32.0234 43.028 31.8047 43.028 31.3828C43.028 30.9688 42.4498 30.7422 41.4811 30.7422ZM51.8723 25.6328V32.7031H50.9973V25.6328H51.8723ZM48.0677 26.1484C49.1302 26.1484 49.9036 27.1172 49.9114 28.6406C49.9036 30.1797 49.1302 31.1406 48.0677 31.1406C46.9973 31.1406 46.2239 30.1797 46.2239 28.6406C46.2239 27.1172 46.9973 26.1484 48.0677 26.1484ZM48.0677 26.9297C47.4661 26.9297 47.0598 27.5625 47.0598 28.6406C47.0598 29.7266 47.4661 30.3594 48.0677 30.3594C48.6614 30.3594 49.0677 29.7266 49.0677 28.6406C49.0677 27.5625 48.6614 26.9297 48.0677 26.9297ZM58.6305 25.6328V30.9766H57.8023V25.6328H58.6305ZM57.2242 25.7578V30.7578H56.4039V28.3203H55.6539V29.7109H52.8648V26.1875H53.6852V27.3047H54.8492V26.1875H55.6539V27.6172H56.4039V25.7578H57.2242ZM53.6852 29.0078H54.8492V27.9688H53.6852V29.0078ZM58.8258 31.8516V32.5547H53.9039V30.2656H54.7711V31.8516H58.8258ZM64.9277 29.3359V30.0234H59.9745V26.1875H64.8652V26.8906H60.8573V27.7422H64.7011V28.4219H60.8573V29.3359H64.9277ZM65.6386 31.125V31.8359H59.1855V31.125H65.6386Z" fill="#1168DB"/>
<path d="M28.7324 143.965V144.736H20.7246V143.965H24.25V141.943H21.6426V137.783H27.7754V141.943H25.168V143.965H28.7324ZM22.541 138.525V141.211H26.8672V138.525H22.541ZM37.0555 141.465V142.207H29.0672V141.465H37.0555ZM36.157 139.824V140.586H30.0633V137.441H36.0691V138.184H30.991V139.824H36.157ZM36.2156 144.883V145.645H30.073V143.066H30.991V144.883H36.2156ZM43.9945 138.32C43.9945 139.746 45.518 141.094 47.1977 141.396L46.768 142.168C45.3715 141.865 44.0824 140.947 43.516 139.717C42.9398 140.938 41.6557 141.855 40.2543 142.168L39.8441 141.396C41.5043 141.084 43.018 139.746 43.018 138.32V137.656H43.9945V138.32ZM47.559 143.906V144.678H39.5512V143.906H47.559ZM55.9016 143.994V144.785H47.8937V143.994H51.4094V142.129H48.5969V141.396H49.9055V138.643H48.5773V137.891H55.1691V138.643H53.8312V141.396H55.1398V142.129H52.3273V143.994H55.9016ZM50.8234 141.396H52.923V138.643H50.8234V141.396ZM64.2441 143.975V144.736H56.2363V143.975H64.2441ZM63.502 138.428V139.18H60.6992C60.7383 140.493 62.0225 141.577 63.8145 141.865L63.4434 142.607C61.9932 142.349 60.792 141.606 60.2305 140.537C59.6592 141.606 58.458 142.349 57.0176 142.607L56.6562 141.865C58.4287 141.577 59.7129 140.493 59.7617 139.18H56.959V138.428H59.7715V137.266H60.6895V138.428H63.502ZM74.7086 141.338V142.08H66.7203V141.338H70.2652V140.41H67.7164V137.48H73.7223V138.213H68.6344V139.668H73.7809V140.41H71.1637V141.338H74.7086ZM70.7047 142.646C72.5895 142.646 73.7223 143.223 73.7223 144.238C73.7223 145.254 72.5895 145.82 70.7047 145.83C68.8102 145.82 67.6676 145.254 67.6676 144.238C67.6676 143.223 68.8102 142.646 70.7047 142.646ZM70.7047 143.369C69.3668 143.369 68.6051 143.682 68.6051 144.238C68.6051 144.795 69.3668 145.107 70.7047 145.098C72.023 145.107 72.7945 144.795 72.7945 144.238C72.7945 143.682 72.023 143.369 70.7047 143.369ZM77.4066 137.734C78.7152 137.734 79.643 138.926 79.6527 140.801C79.643 142.686 78.7152 143.877 77.4066 143.877C76.098 143.877 75.1605 142.686 75.1703 140.801C75.1605 138.926 76.098 137.734 77.4066 137.734ZM77.4066 138.564C76.6059 138.564 76.059 139.424 76.059 140.801C76.059 142.188 76.6059 143.047 77.4066 143.047C78.2172 143.047 78.7641 142.188 78.7641 140.801C78.7641 139.424 78.2172 138.564 77.4066 138.564ZM81.8793 137.08V140.508H83.2855V141.289H81.8793V145.83H80.9516V137.08H81.8793ZM90.6711 137.08V145.85H89.7434V137.08H90.6711ZM87.9953 137.871V141.064H84.8508V142.979C86.2668 142.974 87.507 142.91 88.9719 142.666L89.0598 143.428C87.507 143.691 86.1887 143.75 84.6457 143.75H83.9035V140.322H87.048V138.623H83.8937V137.871H87.9953ZM101.126 137.08V145.83H100.198V137.08H101.126ZM93.9383 143.447C94.6561 143.442 95.4812 143.438 96.3406 143.408V142.539C95.3152 142.407 94.6512 141.807 94.6609 140.947C94.6512 139.961 95.5105 139.307 96.7801 139.307C98.0594 139.307 98.9383 139.961 98.9383 140.947C98.9383 141.797 98.2742 142.393 97.2586 142.529V143.379C98.0691 143.345 98.8895 143.281 99.6609 143.184L99.7293 143.877C97.7859 144.199 95.6668 144.219 94.0652 144.219L93.9383 143.447ZM99.4656 138.125V138.867H94.1238V138.125H96.3406V137.1H97.2684V138.125H99.4656ZM96.7801 140.029C96.0477 140.029 95.5301 140.391 95.5398 140.947C95.5301 141.504 96.0477 141.846 96.7801 141.846C97.532 141.846 98.0496 141.504 98.0496 140.947C98.0496 140.391 97.532 140.029 96.7801 140.029ZM109.507 137.09V143.721H108.58V142.881H106.822V142.227H108.58V137.09H109.507ZM109.722 144.893V145.645H103.404V143.076H104.322V144.893H109.722ZM102.193 141.084C103.814 141.074 105.992 141.055 107.857 140.82L107.916 141.484C107.169 141.606 106.382 141.689 105.611 141.738V143.447H104.683V141.787C103.834 141.826 103.018 141.831 102.31 141.826L102.193 141.084ZM105.054 137.422C106.334 137.422 107.222 138.037 107.222 138.965C107.222 139.893 106.334 140.488 105.054 140.488C103.755 140.488 102.877 139.893 102.877 138.965C102.877 138.037 103.755 137.422 105.054 137.422ZM105.054 138.115C104.273 138.105 103.746 138.438 103.755 138.965C103.746 139.482 104.273 139.805 105.054 139.805C105.806 139.805 106.334 139.482 106.343 138.965C106.334 138.438 105.806 138.105 105.054 138.115ZM118.104 137.08V145.83H117.215V137.08H118.104ZM116.327 137.246V145.4H115.438V141.182H114.452C114.373 142.891 113.641 143.955 112.557 143.945C111.414 143.955 110.672 142.754 110.672 140.859C110.672 138.965 111.414 137.773 112.557 137.783C113.621 137.773 114.344 138.784 114.452 140.43H115.438V137.246H116.327ZM112.557 138.652C111.922 138.652 111.532 139.463 111.532 140.859C111.532 142.256 111.922 143.066 112.557 143.066C113.202 143.066 113.602 142.256 113.602 140.859C113.602 139.463 113.202 138.652 112.557 138.652ZM126.437 137.08V145.83H125.558V137.08H126.437ZM124.591 137.305V145.4H123.712V141.338H122.003C121.481 142.354 120.651 143.242 119.415 143.965L118.888 143.301C120.743 142.197 121.637 140.728 121.798 138.926H119.298V138.164H122.716C122.711 139.019 122.594 139.834 122.325 140.596H123.712V137.305H124.591ZM136.93 137.08V145.83H136.042V137.08H136.93ZM135.251 137.256V145.41H134.391V142.754H133.21C132.927 143.462 132.297 143.906 131.511 143.906C130.446 143.906 129.655 143.066 129.665 141.855C129.655 140.645 130.446 139.805 131.511 139.805C132.595 139.805 133.376 140.645 133.376 141.855V142.012H134.391V140.762H133.249V140H134.391V137.256H135.251ZM133.679 138.525V139.277H129.382V138.525H131.071V137.305H131.999V138.525H133.679ZM131.511 140.596C130.905 140.605 130.475 141.094 130.475 141.855C130.475 142.607 130.905 143.105 131.511 143.105C132.126 143.105 132.565 142.607 132.575 141.855C132.565 141.094 132.126 140.605 131.511 140.596ZM141.523 137.705V138.457H138.994V139.434H141.425V140.146H138.994V141.211C140.166 141.201 140.937 141.157 141.836 140.986L141.923 141.748C140.898 141.943 140.068 141.982 138.671 141.973H138.105V137.705H141.523ZM145.205 137.09V142.402H144.326V140.068H143.252V142.334H142.382V137.246H143.252V139.316H144.326V137.09H145.205ZM145.205 142.822V145.83H144.287V143.574H139.257V142.822H145.205ZM150.071 137.227C152.043 137.227 153.196 137.754 153.196 138.73C153.196 139.707 152.043 140.244 150.071 140.244C148.098 140.244 146.946 139.707 146.946 138.73C146.946 137.754 148.098 137.227 150.071 137.227ZM150.071 137.91C148.674 137.91 147.903 138.213 147.912 138.73C147.903 139.268 148.674 139.551 150.071 139.551C151.467 139.551 152.239 139.268 152.239 138.73C152.239 138.213 151.467 137.91 150.071 137.91ZM154.065 140.781V141.523H146.086V140.781H154.065ZM153.059 142.197V144.248H147.961V145.029H153.303V145.742H147.053V143.574H152.141V142.891H147.043V142.197H153.059ZM156.04 137.93L155.952 142.959H154.986L154.898 137.93H156.04ZM155.474 145.068C155.093 145.068 154.771 144.756 154.78 144.375C154.771 143.994 155.093 143.682 155.474 143.682C155.845 143.682 156.167 143.994 156.167 144.375C156.167 144.756 155.845 145.068 155.474 145.068Z" fill="white" fill-opacity="0.7"/>
<path d="M34.3594 54.6387V66.3105H32.127V60.5801H29.5078V58.7695H32.127V54.6387H34.3594ZM34.7461 68.543V70.3359H23.7422V65.291H25.9922V68.543H34.7461ZM26.9238 57.7676C26.9238 59.6133 28.0488 61.5996 30.5977 62.4258L29.4902 64.2012C27.7148 63.6299 26.502 62.4609 25.7988 61.002C25.0957 62.6191 23.8213 63.9023 21.9316 64.5352L20.7891 62.707C23.4258 61.8809 24.6211 59.7891 24.6387 57.75V57.5039H21.4219V55.7109H30.1055V57.5039H26.9238V57.7676ZM48.9759 55.3242V56.5723C48.9759 57.75 48.9759 59.1035 48.6595 60.8262H50.7162V62.6191H44.4935V64.9219H48.9935V70.6172H46.7435V66.6797H37.5502V64.9219H42.2435V62.6191H36.0736V60.8262H46.392C46.6908 59.332 46.7347 58.1543 46.7435 57.0996H37.8666V55.3242H48.9759ZM68.8927 54.6211V70.6172H66.7657V62.584H65.2188V69.8438H63.1622V54.8848H65.2188V60.791H66.7657V54.6211H68.8927ZM61.4747 56.4668V58.2773H57.7657V65.0977C59.3126 65.0889 60.6837 65.0098 62.2305 64.7285L62.3887 66.5566C60.4376 66.9258 58.7325 66.9785 56.6231 66.9961H55.5157V56.4668H61.4747ZM79.7475 56.0449V57.8203H70.2553V56.0449H73.894V54.5332H76.1264V56.0449H79.7475ZM75.0014 58.3301C77.3217 58.3301 78.9389 59.5254 78.9389 61.2832C78.9389 63.041 77.3217 64.2363 75.0014 64.2363C72.6811 64.2363 71.0288 63.041 71.0288 61.2832C71.0288 59.5254 72.6811 58.3301 75.0014 58.3301ZM75.0014 60.0176C73.9291 60.0176 73.2084 60.457 73.226 61.2832C73.2084 62.0918 73.9291 62.5137 75.0014 62.5137C76.0737 62.5137 76.812 62.0918 76.812 61.2832C76.812 60.457 76.0737 60.0176 75.0014 60.0176ZM82.9467 54.6211V58.7695H85.1088V60.5977H82.9467V64.6582H80.6967V54.6211H82.9467ZM82.9467 65.3262V70.6172H80.6967V67.1191H72.1713V65.3262H82.9467ZM103.865 62.1797V63.9375H89.2404V62.1797H95.463V60.8086H91.0158V55.3242H102.108V57.0645H93.2482V59.0508H102.195V60.8086H97.6603V62.1797H103.865ZM96.5177 64.7461C99.9806 64.7461 102.072 65.8008 102.09 67.6992C102.072 69.5625 99.9806 70.6348 96.5177 70.6348C93.0197 70.6348 90.9103 69.5625 90.9103 67.6992C90.9103 65.8008 93.0197 64.7461 96.5177 64.7461ZM96.5177 66.4512C94.3029 66.4512 93.1779 66.873 93.1955 67.6992C93.1779 68.543 94.3029 68.9297 96.5177 68.9297C98.6798 68.9297 99.8224 68.543 99.84 67.6992C99.8224 66.873 98.6798 66.4512 96.5177 66.4512ZM108.744 55.7461C111.187 55.7461 112.945 57.9609 112.962 61.4414C112.945 64.957 111.187 67.1543 108.744 67.1543C106.3 67.1543 104.507 64.957 104.525 61.4414C104.507 57.9609 106.3 55.7461 108.744 55.7461ZM108.744 57.7676C107.513 57.7676 106.687 59.0684 106.687 61.4414C106.687 63.832 107.513 65.1152 108.744 65.1152C109.992 65.1152 110.8 63.832 110.818 61.4414C110.8 59.0684 109.992 57.7676 108.744 57.7676ZM117.058 54.6211V60.6504H119.414V62.5137H117.058V70.6172H114.808V54.6211H117.058ZM133.046 54.6211V70.6523H130.813V54.6211H133.046ZM128.089 55.957V62.127H122.815V65.0625C125.25 65.0537 127.324 64.9131 129.671 64.5352L129.864 66.3457C127.227 66.8027 124.854 66.9082 121.936 66.9082H120.495V60.3516H125.804V57.7676H120.477V55.957H128.089ZM26.0801 93.1758C23.4258 93.1758 21.4922 91.6113 21.4395 89.4141H24.0059C24.0586 90.416 24.9727 91.084 26.0801 91.084C27.3984 91.084 28.3301 90.1523 28.3301 88.834C28.3301 87.4805 27.3809 86.5488 26.0449 86.5312C25.0957 86.5312 24.4277 86.8828 24.041 87.6035H21.6504L22.3359 80.2734H30.1758V82.4355H24.5156L24.1641 85.6523H24.2695C24.7441 85.0195 25.6934 84.5801 26.8184 84.5801C29.1562 84.5801 30.8965 86.3203 30.8965 88.7637C30.8965 91.3301 28.9453 93.1758 26.0801 93.1758ZM39.9584 79.9395V87.6211H32.2767V79.9395H39.9584ZM34.4916 81.7324V85.8633H37.7435V81.7324H34.4916ZM44.4935 78.6211V83.2266H46.6556V85.0723H44.4935V90.293H42.2435V78.6211H44.4935ZM45.0736 92.543V94.3359H34.1224V89.1504H36.3548V92.543H45.0736ZM60.5515 78.6387V90.7148H58.3015V89.4492H55.2429V87.9199H58.3015V78.6387H60.5515ZM60.903 92.543V94.3359H48.9851V89.5547H51.2175V87.4277C49.7849 87.4893 48.4226 87.498 47.2097 87.498L46.946 85.7227C49.8816 85.7051 53.8366 85.6699 57.2116 85.248L57.3347 86.8477C56.0691 87.0586 54.7595 87.208 53.4675 87.3047V90.3457H51.2175V92.543H60.903ZM52.1491 79.1836C54.4695 79.166 56.1394 80.3438 56.1394 82.0488C56.1394 83.7539 54.4695 84.8613 52.1491 84.8613C49.7761 84.8613 48.1238 83.7539 48.1238 82.0488C48.1238 80.3438 49.7585 79.166 52.1491 79.1836ZM52.1491 80.8184C51.0066 80.8184 50.2331 81.2578 50.2507 82.0488C50.2331 82.8223 51.0066 83.2441 52.1491 83.2441C53.2214 83.2441 53.9948 82.8223 54.0124 82.0488C53.9948 81.2578 53.2214 80.8184 52.1491 80.8184ZM78.6752 78.5859V82.0664H80.8373V83.8594H78.6752V87.252H76.4252V78.5859H78.6752ZM78.6752 87.9023V91.9453H70.2905V92.8594H79.1323V94.5117H68.0932V90.416H76.4428V89.5195H68.058V87.9023H78.6752ZM75.476 79.8164V81.5215H65.9838V79.8164H69.6225V78.5156H71.8549V79.8164H75.476ZM70.7299 81.9082C73.1205 81.9082 74.6674 82.9277 74.6674 84.5273C74.6674 86.1621 73.1205 87.1465 70.7299 87.1465C68.3393 87.1465 66.7573 86.1621 66.7573 84.5273C66.7573 82.9277 68.3393 81.9082 70.7299 81.9082ZM70.7299 83.4902C69.6225 83.4902 68.937 83.8594 68.9545 84.5273C68.937 85.2129 69.6225 85.5469 70.7299 85.5469C71.8373 85.5469 72.5405 85.2129 72.5405 84.5273C72.5405 83.8594 71.8373 83.4902 70.7299 83.4902ZM94.575 78.6387V90.1348H92.325V78.6387H94.575ZM94.9969 92.543V94.3359H83.8523V88.9746H86.1199V92.543H94.9969ZM85.8035 79.6582C88.2645 79.6582 90.1805 81.3457 90.1805 83.6836C90.1805 86.0742 88.2645 87.7441 85.8035 87.7441C83.3426 87.7441 81.4266 86.0742 81.4266 83.6836C81.4266 81.3457 83.3426 79.6582 85.8035 79.6582ZM85.8035 81.6094C84.5555 81.5918 83.6063 82.3828 83.6238 83.6836C83.6063 85.0195 84.5555 85.793 85.8035 85.793C87.0164 85.793 87.9656 85.0195 87.9656 83.6836C87.9656 82.3828 87.0164 81.5918 85.8035 81.6094Z" fill="white"/>
<g filter="url(#filter2_d_3961_9009)">
<g clip-path="url(#clip2_3961_9009)">
<rect x="242.869" y="15.4531" width="63.8535" height="82.5184" rx="6.82" transform="rotate(6.61557 242.869 15.4531)" fill="#CBF0FF"/>
<path d="M250.877 32.28L250.382 36.5492L249.948 36.4989L250.204 34.2928L249.651 34.2287L249.421 36.2156L249.006 36.1675L249.466 32.2033L249.881 32.2513L249.695 33.8571L250.247 33.9212L250.443 32.2297L250.877 32.28ZM248.897 32.5719L248.855 32.9387L247.706 32.8056L247.477 34.7829C248.002 34.839 248.4 34.861 248.867 34.8283L248.858 35.2038C248.331 35.249 247.89 35.2172 247.265 35.1495L246.98 35.1164L247.296 32.3862L248.897 32.5719ZM253.782 33.0563L253.74 33.4185L251.196 33.1234L251.238 32.7612L252.286 32.8828L252.339 32.4302L252.791 32.4827L252.739 32.9353L253.782 33.0563ZM252.446 33.4615C253.06 33.5376 253.444 33.8911 253.39 34.3581C253.336 34.825 252.88 35.0861 252.266 35.0148C251.646 34.943 251.263 34.5846 251.317 34.1177C251.371 33.6507 251.826 33.3944 252.446 33.4615ZM252.406 33.8093C252.043 33.7673 251.781 33.9059 251.756 34.1685C251.72 34.4348 251.945 34.6202 252.307 34.6622C252.669 34.7042 252.93 34.5752 252.966 34.3089C252.991 34.0463 252.768 33.8513 252.406 33.8093ZM254.638 32.7161L254.503 33.874L255.123 33.9458L255.079 34.3222L254.46 34.2504L254.328 35.3844L253.876 35.3319L254.185 32.6636L254.638 32.7161ZM254.303 35.6036L254.143 36.9854L253.69 36.9329L253.808 35.918L251.44 35.6433L251.482 35.2764L254.303 35.6036ZM256.564 33.7701C256.51 34.2371 256.756 34.7436 257.284 35.0174L257.005 35.3376C256.625 35.1389 256.38 34.816 256.269 34.4457C256.065 34.8253 255.732 35.1368 255.3 35.2653L255.093 34.8839C255.699 34.6983 256.071 34.1958 256.126 33.7193L256.19 33.1666L256.628 33.2174L256.564 33.7701ZM258.994 33.2261L258.689 35.8515L258.26 35.8018L258.393 34.6582L257.893 34.6002L257.775 35.6104L257.356 35.5617L257.636 33.146L258.056 33.1946L257.936 34.2286L258.436 34.2866L258.565 33.1764L258.994 33.2261ZM257.25 35.7667C258.141 35.8701 258.665 36.2254 258.613 36.7119C258.552 37.1974 257.961 37.4234 257.071 37.3153C256.179 37.2167 255.655 36.8614 255.716 36.376C255.768 35.8894 256.359 35.6634 257.25 35.7667ZM257.21 36.1146C256.59 36.0427 256.191 36.1558 256.164 36.4279C256.128 36.6989 256.491 36.9004 257.111 36.9675C257.73 37.0441 258.124 36.9305 258.161 36.6594C258.187 36.3873 257.829 36.1864 257.21 36.1146Z" fill="#236FD2"/>
<path d="M250.433 40.9733L250.335 41.8162L247.604 41.4994L247.463 42.7151L249.886 42.9962L249.792 43.8067L247.369 43.5256L247.207 44.9197C248.338 45.0427 249.247 45.107 250.295 45.0643L250.295 45.9103C249.117 45.9461 248.051 45.8554 246.722 45.7012L246.09 45.6279L246.68 40.5381L250.433 40.9733ZM252.546 40.6023L251.69 47.9777L250.645 47.8565L251.5 40.4811L252.546 40.6023ZM259.091 42.0514L258.988 42.9348C258.871 43.9479 258.754 44.9529 258.31 46.4456L257.275 46.2352C257.715 44.8488 257.837 43.7952 257.959 42.8154L257.965 42.7587L253.791 42.2746L253.887 41.4479L259.091 42.0514ZM259.351 47.0263L259.253 47.8774L252.526 47.0972L252.624 46.2462L259.351 47.0263ZM266.572 42.229L265.716 49.6044L264.735 49.4907L265.165 45.7868L264.452 45.7041L264.064 49.0514L263.115 48.9414L263.915 42.0442L264.863 42.1541L264.548 44.8774L265.261 44.9601L265.591 42.1153L266.572 42.229ZM263.053 42.6834L262.956 43.5182L261.246 43.3198L260.881 46.4645C261.595 46.5432 262.231 46.58 262.959 46.5331L262.934 47.3844C262.015 47.4503 261.226 47.3834 260.253 47.2787L259.742 47.2195L260.305 42.3647L263.053 42.6834ZM271.417 43.4564L271.322 44.2749L266.946 43.7674L267.041 42.9488L268.718 43.1433L268.799 42.4463L269.829 42.5657L269.748 43.2627L271.417 43.4564ZM269.107 44.2562C270.177 44.3803 270.858 45.0179 270.764 45.8284C270.67 46.6388 269.861 47.1035 268.791 46.9794C267.721 46.8553 267.023 46.2158 267.117 45.4054C267.211 44.5949 268.037 44.1321 269.107 44.2562ZM269.017 45.0343C268.522 44.9769 268.166 45.141 268.13 45.5229C268.079 45.8947 268.389 46.1278 268.883 46.1851C269.377 46.2425 269.74 46.0874 269.784 45.7146C269.828 45.3337 269.511 45.0916 269.017 45.0343ZM272.968 42.9709L272.747 44.8837L273.744 44.9993L273.646 45.8422L272.649 45.7266L272.432 47.5988L271.394 47.4785L271.931 42.8506L272.968 42.9709ZM272.396 47.9068L272.113 50.3464L271.076 50.226L271.263 48.6132L267.332 48.1573L267.428 47.3306L272.396 47.9068ZM280.085 44.4453L280.002 45.1666C279.889 46.0653 279.772 47.0784 279.332 48.5306L278.33 48.3239C278.729 47.0027 278.854 45.9986 278.953 45.1435L274.536 44.6312L274.631 43.8127L280.085 44.4453ZM280.114 49.5083L280.017 50.3513L273.29 49.5711L273.387 48.7282L274.822 48.8945L275.091 46.5765L276.12 46.6959L275.851 49.0139L276.662 49.1079L276.93 46.7899L277.952 46.9084L277.683 49.2263L280.114 49.5083Z" fill="#236FD2"/>
<circle cx="273.632" cy="27.3324" r="2.31445" transform="rotate(6.61557 273.632 27.3324)" fill="#1C7FFF"/>
<rect x="271.097" y="76.437" width="8.7832" height="15.3628" transform="rotate(6.61557 271.097 76.437)" fill="white" stroke="#236FD2"/>
<path d="M272.459 87.5262C272.571 86.5608 273.445 85.8689 274.41 85.9809C275.376 86.0929 276.067 86.9663 275.955 87.9317L275.494 91.9094L271.998 91.5039L272.459 87.5262Z" fill="#236FD2"/>
<rect x="261.933" y="64.145" width="8.7832" height="26.5172" transform="rotate(6.61557 261.933 64.145)" fill="white" stroke="#236FD2"/>
<rect x="282.832" y="66.5688" width="8.7832" height="26.5172" transform="rotate(6.61557 282.832 66.5688)" fill="white" stroke="#236FD2"/>
<path d="M282.911 88.7381C283.023 87.7727 283.896 87.0809 284.861 87.1928C285.827 87.3048 286.519 88.1782 286.407 89.1436L285.945 93.1213L282.449 92.7158L282.911 88.7381Z" fill="#236FD2"/>
<path d="M262.012 86.3144C262.124 85.349 262.997 84.6571 263.963 84.7691C264.928 84.8811 265.62 85.7544 265.508 86.7199L265.047 90.6976L261.551 90.2921L262.012 86.3144Z" fill="#236FD2"/>
<path d="M275.844 70.6992C276.053 70.55 276.341 70.5834 276.51 70.7764L282.607 77.7273C282.909 78.0714 282.628 78.6064 282.174 78.5537L268.551 76.9737C268.096 76.921 267.945 76.3359 268.318 76.0701L275.844 70.6992Z" fill="#236FD2"/>
<rect x="281.166" y="83.3955" width="8.57422" height="1.92915" transform="rotate(6.61557 281.166 83.3955)" fill="#236FD2"/>
<rect x="270.537" y="82.1628" width="8.57422" height="1.92915" transform="rotate(6.61557 270.537 82.1628)" fill="#236FD2"/>
<rect x="281.521" y="80.3294" width="8.57422" height="1.92915" transform="rotate(6.61557 281.521 80.3294)" fill="#236FD2"/>
<rect x="260.09" y="80.9512" width="8.57422" height="1.92915" transform="rotate(6.61557 260.09 80.9512)" fill="#236FD2"/>
<rect x="260.445" y="77.8851" width="8.57422" height="1.92915" transform="rotate(6.61557 260.445 77.8851)" fill="#236FD2"/>
<rect x="282.902" y="68.4239" width="8.57422" height="1.92915" transform="rotate(6.61557 282.902 68.4239)" fill="#236FD2"/>
<rect x="261.826" y="65.9796" width="8.57422" height="1.92915" transform="rotate(6.61557 261.826 65.9796)" fill="#236FD2"/>
<rect x="264.42" y="71.2889" width="2.19922" height="3.96407" transform="rotate(6.61557 264.42 71.2889)" fill="#236FD2"/>
<rect x="250.02" y="85.9708" width="4.95312" height="3.96407" transform="rotate(6.61557 250.02 85.9708)" fill="#236FD2"/>
<rect x="244.367" y="85.3154" width="4.95312" height="3.96407" transform="rotate(6.61557 244.367 85.3154)" fill="#236FD2"/>
<rect x="299.473" y="91.7064" width="4.95312" height="3.96407" transform="rotate(6.61557 299.473 91.7064)" fill="#236FD2"/>
<rect x="293.82" y="91.0509" width="4.95312" height="3.96407" transform="rotate(6.61557 293.82 91.0509)" fill="#236FD2"/>
<rect x="238.717" y="84.6599" width="4.95312" height="3.96407" transform="rotate(6.61557 238.717 84.6599)" fill="#236FD2"/>
<rect x="233.064" y="84.0044" width="4.95312" height="3.96407" transform="rotate(6.61557 233.064 84.0044)" fill="#236FD2"/>
<rect x="285.496" y="73.7332" width="2.19922" height="3.96407" transform="rotate(6.61557 285.496 73.7332)" fill="#236FD2"/>
</g>
</g>
<defs>
<filter id="filter0_d_3961_9009" x="184" y="53.1899" width="108.602" height="112.327" filterUnits="userSpaceOnUse" color-interpolation-filters="sRGB">
<feFlood flood-opacity="0" result="BackgroundImageFix"/>
<feColorMatrix in="SourceAlpha" type="matrix" values="0 0 0 0 0 0 0 0 0 0 0 0 0 0 0 0 0 0 127 0" result="hardAlpha"/>
<feOffset dy="4"/>
<feGaussianBlur stdDeviation="2"/>
<feComposite in2="hardAlpha" operator="out"/>
<feColorMatrix type="matrix" values="0 0 0 0 0 0 0 0 0 0 0 0 0 0 0 0 0 0 0.25 0"/>
<feBlend mode="normal" in2="BackgroundImageFix" result="effect1_dropShadow_3961_9009"/>
<feBlend mode="normal" in="SourceGraphic" in2="effect1_dropShadow_3961_9009" result="shape"/>
</filter>
<filter id="filter1_d_3961_9009" x="206.441" y="28.495" width="81.6797" height="97.8618" filterUnits="userSpaceOnUse" color-interpolation-filters="sRGB">
<feFlood flood-opacity="0" result="BackgroundImageFix"/>
<feColorMatrix in="SourceAlpha" type="matrix" values="0 0 0 0 0 0 0 0 0 0 0 0 0 0 0 0 0 0 127 0" result="hardAlpha"/>
<feOffset dy="4"/>
<feGaussianBlur stdDeviation="2"/>
<feComposite in2="hardAlpha" operator="out"/>
<feColorMatrix type="matrix" values="0 0 0 0 0 0 0 0 0 0 0 0 0 0 0 0 0 0 0.25 0"/>
<feBlend mode="normal" in2="BackgroundImageFix" result="effect1_dropShadow_3961_9009"/>
<feBlend mode="normal" in="SourceGraphic" in2="effect1_dropShadow_3961_9009" result="shape"/>
</filter>
<filter id="filter2_d_3961_9009" x="229.363" y="15.4531" width="80.9336" height="97.3253" filterUnits="userSpaceOnUse" color-interpolation-filters="sRGB">
<feFlood flood-opacity="0" result="BackgroundImageFix"/>
<feColorMatrix in="SourceAlpha" type="matrix" values="0 0 0 0 0 0 0 0 0 0 0 0 0 0 0 0 0 0 127 0" result="hardAlpha"/>
<feOffset dy="4"/>
<feGaussianBlur stdDeviation="2"/>
<feComposite in2="hardAlpha" operator="out"/>
<feColorMatrix type="matrix" values="0 0 0 0 0 0 0 0 0 0 0 0 0 0 0 0 0 0 0.25 0"/>
<feBlend mode="normal" in2="BackgroundImageFix" result="effect1_dropShadow_3961_9009"/>
<feBlend mode="normal" in="SourceGraphic" in2="effect1_dropShadow_3961_9009" result="shape"/>
</filter>
<radialGradient id="paint0_radial_3961_9009" cx="0" cy="0" r="1" gradientUnits="userSpaceOnUse" gradientTransform="translate(139 73.5) rotate(86.9225) scale(139.701 300.149)">
<stop stop-color="#4B99FF"/>
<stop offset="1" stop-color="#4F9BFF"/>
</radialGradient>
<clipPath id="clip0_3961_9009">
<rect x="188" y="91.5146" width="63.8535" height="82.5184" rx="6.82" transform="rotate(-36.884 188 91.5146)" fill="white"/>
</clipPath>
<clipPath id="clip1_3961_9009">
<rect x="210.441" y="36.4874" width="63.8535" height="82.5184" rx="6.82" transform="rotate(-7.19043 210.441 36.4874)" fill="white"/>
</clipPath>
<clipPath id="clip2_3961_9009">
<rect x="242.869" y="15.4531" width="63.8535" height="82.5184" rx="6.82" transform="rotate(6.61557 242.869 15.4531)" fill="white"/>
</clipPath>
</defs>
</svg>