<svg xmlns="http://www.w3.org/2000/svg" viewBox="0 0 360 170" fill="none">
<g clip-path="url(#clip0_4040_5089)">
<rect width="360" height="170" fill="url(#paint0_linear_4040_5089)"/>
<rect width="374" height="24" transform="translate(94 234.648) rotate(-34.6512)" fill="black" fill-opacity="0.2"/>
<g filter="url(#filter0_b_4040_5089)">
<rect x="-23" y="-12" width="404" height="194" fill="url(#paint1_linear_4040_5089)" fill-opacity="0.4"/>
</g>
<path d="M28.3105 141.338V142.08H20.3223V141.338H23.8672V140.41H21.3184V137.48H27.3242V138.213H22.2363V139.668H27.3828V140.41H24.7656V141.338H28.3105ZM24.3066 142.646C26.1914 142.646 27.3242 143.223 27.3242 144.238C27.3242 145.254 26.1914 145.82 24.3066 145.83C22.4121 145.82 21.2695 145.254 21.2695 144.238C21.2695 143.223 22.4121 142.646 24.3066 142.646ZM24.3066 143.369C22.9688 143.369 22.207 143.682 22.207 144.238C22.207 144.795 22.9688 145.107 24.3066 145.098C25.625 145.107 26.3965 144.795 26.3965 144.238C26.3965 143.682 25.625 143.369 24.3066 143.369ZM36.243 138.311V139.062H29.0457V138.311H32.1902V137.207H33.1082V138.311H36.243ZM36.6727 144.092V144.844H28.6648V144.092H32.1902V142.93C30.657 142.837 29.7293 142.231 29.7293 141.26C29.7293 140.205 30.8426 139.59 32.6492 139.59C34.4363 139.59 35.5594 140.205 35.5594 141.26C35.5594 142.231 34.6268 142.837 33.1082 142.93V144.092H36.6727ZM32.6492 140.322C31.3992 140.322 30.6668 140.654 30.6766 141.26C30.6668 141.865 31.3992 142.197 32.6492 142.207C33.8797 142.197 34.6121 141.865 34.6121 141.26C34.6121 140.654 33.8797 140.322 32.6492 140.322ZM44.2437 137.08V145.83H43.316V137.08H44.2437ZM37.0562 143.447C37.774 143.442 38.5992 143.438 39.4586 143.408V142.539C38.4332 142.407 37.7691 141.807 37.7789 140.947C37.7691 139.961 38.6285 139.307 39.898 139.307C41.1773 139.307 42.0562 139.961 42.0562 140.947C42.0562 141.797 41.3922 142.393 40.3766 142.529V143.379C41.1871 143.345 42.0074 143.281 42.7789 143.184L42.8473 143.877C40.9039 144.199 38.7848 144.219 37.1832 144.219L37.0562 143.447ZM42.5836 138.125V138.867H37.2418V138.125H39.4586V137.1H40.3863V138.125H42.5836ZM39.898 140.029C39.1656 140.029 38.648 140.391 38.6578 140.947C38.648 141.504 39.1656 141.846 39.898 141.846C40.65 141.846 41.1676 141.504 41.1676 140.947C41.1676 140.391 40.65 140.029 39.898 140.029ZM55.0207 137.08V145.83H54.132V137.08H55.0207ZM53.2629 137.246V145.4H52.384V142.578H51.1145C50.802 143.447 50.2209 143.95 49.4738 143.945C48.3312 143.955 47.5891 142.754 47.5891 140.859C47.5891 138.965 48.3312 137.773 49.4738 137.783C50.2209 137.778 50.7971 138.276 51.1145 139.141H52.384V137.246H53.2629ZM49.4738 138.652C48.8293 138.652 48.4387 139.463 48.4387 140.859C48.4387 142.256 48.8293 143.066 49.4738 143.066C50.1184 143.066 50.5285 142.256 50.5285 140.859C50.5285 139.463 50.1184 138.652 49.4738 138.652ZM51.3098 139.893C51.3537 140.19 51.3781 140.513 51.3781 140.859C51.3781 141.201 51.3537 141.523 51.3098 141.816H52.384V139.893H51.3098ZM63.9492 138.359V139.121H62.709V140.234H63.9492V141.016H62.709V142.266H61.7812V137.08H62.709V138.359H63.9492ZM62.709 142.656V145.83H61.7812V143.408H56.9277V142.656H62.709ZM58.2949 137.588C59.6328 137.588 60.6191 138.447 60.6289 139.678C60.6191 140.908 59.6328 141.768 58.2949 141.768C56.957 141.768 55.9609 140.908 55.9707 139.678C55.9609 138.447 56.957 137.588 58.2949 137.588ZM58.2949 138.379C57.4746 138.379 56.8691 138.896 56.8789 139.678C56.8691 140.469 57.4746 140.986 58.2949 140.977C59.1152 140.986 59.7207 140.469 59.7207 139.678C59.7207 138.896 59.1152 138.379 58.2949 138.379ZM72.1746 142.227V142.959H68.6004V145.83H67.6922V142.959H64.1668V142.227H72.1746ZM66.0809 137.432V138.574H70.241V137.432H71.1688V141.23H65.1629V137.432H66.0809ZM66.0809 140.488H70.241V139.316H66.0809V140.488ZM79.8141 137.08V145.85H78.8961V141.074H77.1578V140.312H78.8961V137.08H79.8141ZM77.0113 137.861V138.613H73.857V140.312H76.6402V141.055H73.857V143.008C75.3219 143.003 76.3375 142.969 77.4996 142.764L77.5973 143.516C76.3277 143.721 75.2242 143.77 73.6031 143.779H72.9195V137.861H77.0113ZM90.298 137.08V141.533H89.3703V140.693H87.1535V139.971H89.3703V139.023H87.2609C86.7189 140.381 85.4006 141.274 83.4621 141.729L83.1398 140.967C85.2395 140.503 86.3771 139.531 86.5285 138.242H83.5988V137.48H87.5441C87.5441 137.764 87.5197 138.032 87.4758 138.291H89.3703V137.08H90.298ZM90.298 141.904V144.121H85.5129V145H90.5617V145.742H84.5949V143.418H89.3703V142.637H84.5754V141.904H90.298ZM98.8555 137.08V145.83H97.9668V137.08H98.8555ZM97.0781 137.266V145.391H96.1992V140.938H94.8418V140.176H96.1992V137.266H97.0781ZM93.9824 139.521C93.9824 141.016 94.5879 142.51 95.8184 143.223L95.2617 143.906C94.4268 143.408 93.8506 142.524 93.5527 141.465C93.2354 142.607 92.6396 143.579 91.7852 144.111L91.2188 143.418C92.459 142.666 93.0938 141.074 93.0938 139.521V138.818H91.4824V138.066H95.4863V138.818H93.9824V139.521ZM106.641 137.08V140.635H107.911V141.396H106.641V145.83H105.714V137.08H106.641ZM102.325 138.018C102.325 140.205 101.925 142.197 100.343 143.887L99.6102 143.369C100.889 142.041 101.353 140.532 101.446 138.779H99.9227V138.018H102.325ZM104.737 138.018C104.737 140.234 104.464 142.559 102.852 144.463L102.11 143.955C103.409 142.437 103.8 140.649 103.868 138.779H102.608V138.018H104.737ZM111.254 139.658C111.254 141.123 112.211 142.637 113.558 143.213L113.05 143.936C112.02 143.481 111.2 142.52 110.795 141.348C110.389 142.598 109.564 143.662 108.548 144.16L108.011 143.428C109.33 142.812 110.306 141.162 110.316 139.658V138.73H108.314V137.959H113.246V138.73H111.254V139.658ZM115.277 137.08V145.83H114.349V137.08H115.277ZM117.946 144.326L117.164 147.021H116.334L116.852 144.326H117.946ZM120.822 138.857V137.93H126.301V138.857H124.104V145H123.029V138.857H120.822ZM128.169 137.93V145H127.095V137.93H128.169ZM134.08 140.166C133.816 139.326 133.181 138.818 132.244 138.818C131.052 138.818 130.134 139.756 130.134 141.465C130.134 143.174 131.043 144.111 132.293 144.111C133.421 144.111 134.168 143.398 134.187 142.266H132.449V141.377H135.232V142.178C135.232 143.965 134.002 145.098 132.283 145.098C130.369 145.098 129.07 143.701 129.07 141.465C129.07 139.209 130.408 137.832 132.234 137.832C133.767 137.832 134.939 138.789 135.183 140.166H134.08ZM144.73 137.08V140.625H146.136V141.396H144.73V145.83H143.812V137.08H144.73ZM143.05 138.447V139.209H137.864V138.447H140.023V137.197H140.95V138.447H143.05ZM140.491 139.854C141.741 139.854 142.659 140.693 142.669 141.885C142.659 143.086 141.741 143.916 140.491 143.926C139.232 143.916 138.314 143.086 138.314 141.885C138.314 140.693 139.232 139.854 140.491 139.854ZM140.491 140.615C139.749 140.615 139.193 141.133 139.202 141.885C139.193 142.646 139.749 143.154 140.491 143.145C141.234 143.154 141.78 142.646 141.78 141.885C141.78 141.133 141.234 140.615 140.491 140.615ZM154.43 140.518V141.279H153.072V145.82H152.145V137.08H153.072V140.518H154.43ZM147.506 137.93V142.852C148.727 142.852 150.001 142.749 151.393 142.461L151.5 143.242C150.006 143.545 148.619 143.623 147.311 143.623H146.588V137.93H147.506ZM162.606 144.004V144.785H154.598V144.004H158.124V142.471H155.575V139.688H160.712V138.457H155.555V137.695H161.63V140.43H156.493V141.709H161.835V142.471H159.042V144.004H162.606ZM169.409 138.525V139.277H165.063V138.525H166.782V137.334H167.7V138.525H169.409ZM167.241 139.805C168.354 139.805 169.135 140.635 169.145 141.816C169.135 143.008 168.354 143.848 167.241 143.848C166.147 143.848 165.336 143.008 165.346 141.816C165.336 140.635 166.147 139.805 167.241 139.805ZM167.241 140.576C166.606 140.576 166.166 141.094 166.166 141.816C166.166 142.559 166.606 143.057 167.241 143.057C167.866 143.057 168.325 142.559 168.325 141.816C168.325 141.094 167.866 140.576 167.241 140.576ZM172.573 137.08V145.83H171.694V141.484H170.688V145.42H169.809V137.275H170.688V140.723H171.694V137.08H172.573ZM180.72 137.08V141.533H179.792V140.693H177.575V139.971H179.792V139.023H177.683C177.141 140.381 175.822 141.274 173.884 141.729L173.562 140.967C175.661 140.503 176.799 139.531 176.95 138.242H174.021V137.48H177.966C177.966 137.764 177.942 138.032 177.898 138.291H179.792V137.08H180.72ZM180.72 141.904V144.121H175.935V145H180.984V145.742H175.017V143.418H179.792V142.637H174.997V141.904H180.72Z" fill="white" fill-opacity="0.7"/>
<path d="M35.0996 62.1797V63.9375H20.4746V62.1797H26.6973V60.8086H22.25V55.3242H33.3418V57.0645H24.4824V59.0508H33.4297V60.8086H28.8945V62.1797H35.0996ZM22.1445 67.6992C22.1445 65.8008 24.2539 64.7461 27.752 64.7461C31.2236 64.7461 33.3066 65.8008 33.3242 67.6992C33.3066 69.5713 31.2236 70.6348 27.752 70.6348C24.2539 70.6348 22.1445 69.5713 22.1445 67.6992ZM24.4297 67.6992C24.4209 68.5342 25.5371 68.9297 27.752 68.9297C29.9229 68.9297 31.0654 68.5342 31.0742 67.6992C31.0654 66.873 29.9229 66.4512 27.752 66.4512C25.5371 66.4512 24.4209 66.873 24.4297 67.6992ZM49.6107 56.6426V58.4355H36.3041V56.6426H41.8412V54.7793H44.056V56.6426H49.6107ZM35.6713 68.9824V67.1895H41.8412V65.3525C39.1166 65.1064 37.4642 63.9902 37.4818 62.2324C37.4642 60.29 39.5648 59.1299 42.9486 59.1387C46.2709 59.1299 48.4066 60.29 48.3978 62.2324C48.4066 63.9902 46.7367 65.1064 44.056 65.3438V67.1895H50.3138V68.9824H35.6713ZM39.7845 62.2324C39.7757 63.1816 40.8744 63.6123 42.9486 63.6035C44.9789 63.6123 46.0951 63.1816 46.0951 62.2324C46.0951 61.3184 44.9789 60.8877 42.9486 60.8789C40.8744 60.8877 39.7757 61.3184 39.7845 62.2324ZM64.3152 54.6211V70.6172H62.0827V54.6211H64.3152ZM50.9382 66.0996C52.1599 66.0908 53.5573 66.0908 55.0163 66.0557V64.7021C53.2673 64.3857 52.1247 63.2959 52.1335 61.793C52.1247 60.0088 53.7507 58.7871 56.1062 58.7871C58.4792 58.7871 60.1316 60.0088 60.1316 61.793C60.1316 63.2871 58.989 64.377 57.2312 64.7021V65.9766C58.5759 65.915 59.9206 65.8096 61.2038 65.6426L61.362 67.2949C57.8552 67.9014 54.0847 67.9365 51.237 67.9277L50.9382 66.0996ZM51.2546 58.1543V56.3965H55.0163V54.6914H57.2488V56.3965H60.9753V58.1543H51.2546ZM54.2605 61.793C54.2517 62.6367 55.0163 63.0938 56.1062 63.0938C57.2312 63.0938 57.987 62.6367 57.987 61.793C57.987 60.9668 57.2312 60.501 56.1062 60.4922C55.0163 60.501 54.2517 60.9668 54.2605 61.793ZM83.142 55.0078V56.6602H81.0502V58.6816H83.0366V60.3867H71.2416V58.6816H73.2104V56.6602H71.1362V55.0078H83.142ZM69.853 62.9883V61.2129H84.4428V62.9883H78.2553V64.0254H82.6674V67.9805H73.7553V68.8594H83.0893V70.5117H71.558V66.4512H80.4526V65.6426H71.5405V64.0254H76.0053V62.9883H69.853ZM75.4604 58.6816H78.8002V56.6602H75.4604V58.6816ZM98.9187 54.6211V70.6172H96.7742V62.6016H95.4559V69.8438H93.3465V54.8848H95.4559V60.791H96.7742V54.6211H98.9187ZM84.8738 65.1152H86.2273V58.2422H85.1727V56.4316H92.5555V58.2422H91.5184V64.8867C91.9314 64.8428 92.327 64.7988 92.6961 64.7461L92.8191 66.3809C90.367 66.8994 87.0975 66.9609 85.1199 66.9609L84.8738 65.1152ZM88.2488 65.0801C88.6619 65.0625 89.0926 65.0537 89.5145 65.0273V58.2422H88.2488V65.0801ZM108.983 56.1504C108.965 61.0723 107.611 65.2646 101.565 68.2266L100.387 66.5039C103.024 65.1943 104.676 63.7002 105.643 61.9072L100.791 62.3379L100.51 60.4395L106.363 60.0879C106.557 59.4199 106.671 58.6992 106.741 57.9434H101.336V56.1504H108.983ZM111.426 70.6172V54.6211H113.694V70.6172H111.426ZM121.648 58.9805C121.639 61.5645 122.975 64.333 125.656 65.4492L124.443 67.207C122.562 66.4072 121.261 64.8164 120.541 62.8828C119.82 64.9834 118.493 66.7412 116.603 67.6113L115.32 65.8359C117.974 64.6494 119.345 61.6875 119.345 58.9805V57.9961H115.953V56.168H124.988V57.9961H121.648V58.9805ZM126.57 70.6172V54.6211H128.837V70.6172H126.57Z" fill="#51FFDC"/>
<path d="M25.6777 93.1758C23.0234 93.1758 21.0811 91.6113 21.0371 89.4141H23.6035C23.665 90.4072 24.5703 91.0928 25.6777 91.084C26.9961 91.0928 27.9365 90.1611 27.9277 88.834C27.9365 87.4805 26.9785 86.54 25.6426 86.5312C24.6846 86.5312 24.0166 86.8916 23.6387 87.6035H21.248L21.9336 80.2734H29.7734V82.4355H24.1133L23.7617 85.6523H23.8672C24.333 85.0283 25.2998 84.5713 26.416 84.5801C28.7539 84.5713 30.4941 86.3203 30.4941 88.7637C30.4941 91.3389 28.543 93.1758 25.6777 93.1758ZM39.556 79.9395V87.6211H31.8744V79.9395H39.556ZM33.7201 94.3359V89.1504H35.9525V92.543H44.6713V94.3359H33.7201ZM34.0892 85.8633H37.3412V81.7324H34.0892V85.8633ZM41.8412 90.293V78.6211H44.0912V83.2266H46.2533V85.0723H44.0912V90.293H41.8412ZM60.1491 78.6387V90.7148H57.8991V89.4492H54.8405V87.9199H57.8991V78.6387H60.1491ZM46.5437 85.7227C49.4704 85.7051 53.4255 85.6611 56.8093 85.248L56.9323 86.8477C55.6667 87.0586 54.3571 87.208 53.0652 87.3047V90.3457H50.8152V92.543H60.5007V94.3359H48.5827V89.5547H50.8152V87.4365C49.3825 87.4893 48.0202 87.498 46.8073 87.498L46.5437 85.7227ZM47.7214 82.0488C47.7214 80.3438 49.365 79.1748 51.7468 79.1836C54.0671 79.1748 55.7282 80.3438 55.737 82.0488C55.7282 83.7627 54.0671 84.8701 51.7468 84.8613C49.365 84.8701 47.7214 83.7627 47.7214 82.0488ZM49.8484 82.0488C49.8396 82.8223 50.6042 83.2529 51.7468 83.2441C52.8191 83.2529 53.5925 82.8223 53.6101 82.0488C53.5925 81.2578 52.8191 80.8184 51.7468 80.8184C50.6042 80.8184 49.8396 81.2578 49.8484 82.0488ZM78.2729 78.5859V82.0664H80.435V83.8594H78.2729V87.252H76.0229V78.5859H78.2729ZM65.5815 81.5215V79.8164H69.2202V78.5156H71.4526V79.8164H75.0737V81.5215H65.5815ZM66.3549 84.5273C66.3549 82.9277 67.9457 81.917 70.3276 81.9082C72.727 81.917 74.2651 82.9277 74.2651 84.5273C74.2651 86.1621 72.727 87.1377 70.3276 87.1465C67.9457 87.1377 66.3549 86.1621 66.3549 84.5273ZM67.6557 89.5195V87.9023H78.2729V91.9453H69.8881V92.8594H78.7299V94.5117H67.6909V90.416H76.0405V89.5195H67.6557ZM68.5522 84.5273C68.5434 85.2129 69.2202 85.5381 70.3276 85.5469C71.4438 85.5381 72.1381 85.2129 72.1381 84.5273C72.1381 83.8506 71.4438 83.4814 70.3276 83.4902C69.2202 83.4814 68.5434 83.8506 68.5522 84.5273ZM94.1727 78.6387V90.1348H91.9227V78.6387H94.1727ZM81.0242 83.6836C81.0242 81.3369 82.9402 79.6494 85.4012 79.6582C87.8533 79.6494 89.7693 81.3369 89.7781 83.6836C89.7693 86.0654 87.8533 87.7441 85.4012 87.7441C82.9402 87.7441 81.0242 86.0654 81.0242 83.6836ZM83.2215 83.6836C83.2039 85.0195 84.1443 85.793 85.4012 85.793C86.6141 85.793 87.5545 85.0195 87.5633 83.6836C87.5545 82.3828 86.6141 81.6006 85.4012 81.6094C84.1443 81.6006 83.2039 82.3828 83.2215 83.6836ZM83.45 94.3359V88.9746H85.7176V92.543H94.5945V94.3359H83.45ZM104.07 92.2969V89.0098H100.783V86.8125H104.07V83.5254H106.267V86.8125H109.554V89.0098H106.267V92.2969H104.07ZM128.434 78.6387V94.6172H126.219V78.6387H128.434ZM114.916 87.1465C117.984 87.1289 121.868 87.1465 125.305 86.7598L125.393 88.3945C124.048 88.6055 122.686 88.7461 121.35 88.8252V94.1426H119.117V88.9307C117.729 88.9746 116.393 88.9746 115.162 88.9746L114.916 87.1465ZM116.323 85.5117V79.4824H124.11V81.2402H118.573V83.7012H124.303V85.5117H116.323ZM143.437 79.0078V80.6602H141.345V82.6816H143.332V84.3867H131.537V82.6816H133.505V80.6602H131.431V79.0078H143.437ZM130.148 86.9883V85.2129H144.738V86.9883H138.55V88.0254H142.963V91.9805H134.05V92.8594H143.384V94.5117H131.853V90.4512H140.748V89.6426H131.836V88.0254H136.3V86.9883H130.148ZM135.755 82.6816H139.095V80.6602H135.755V82.6816ZM158.739 78.6211V94.6523H156.472V78.6211H158.739ZM145.819 85.4414C145.811 81.9521 147.595 79.7461 150.056 79.7461C152.464 79.7461 154.257 81.9521 154.257 85.4414C154.257 88.957 152.464 91.1543 150.056 91.1543C147.595 91.1543 145.811 88.957 145.819 85.4414ZM147.981 85.4414C147.973 87.8232 148.808 89.124 150.056 89.1152C151.269 89.124 152.086 87.8232 152.095 85.4414C152.086 83.0684 151.269 81.7676 150.056 81.7676C148.808 81.7676 147.973 83.0684 147.981 85.4414ZM173.356 78.6211V84.8965H175.483V86.7422H173.356V94.6172H171.106V78.6211H173.356ZM160.225 89.9766C162.405 87.6123 163.037 85.2744 163.178 82.084H160.928V80.2559H165.323C165.305 84.6504 164.848 88.0781 161.983 91.2246L160.225 89.9766ZM164.742 91.0137C166.913 88.3418 167.511 85.5996 167.634 82.084H165.85V80.2559H169.752C169.743 84.8174 169.348 88.7812 166.518 92.2617L164.742 91.0137ZM181.943 82.9805C181.934 85.5645 183.27 88.333 185.951 89.4492L184.738 91.207C182.857 90.4072 181.556 88.8164 180.836 86.8828C180.115 88.9834 178.788 90.7412 176.898 91.6113L175.615 89.8359C178.269 88.6494 179.64 85.6875 179.64 82.9805V81.9961H176.248V80.168H185.283V81.9961H181.943V82.9805ZM186.865 94.6172V78.6211H189.133V94.6172H186.865Z" fill="white"/>
<g clip-path="url(#clip1_4040_5089)" filter="url(#filter1_i_4040_5089)">
<rect width="374" height="26.9331" transform="translate(94.1562 -42) rotate(19.8731)" fill="black"/>
<path d="M217.191 11.7498L215.207 17.2382L214.157 16.8587L215.131 14.1641L213.899 13.7189L214.207 12.8676L215.439 13.3127L216.141 11.3703L217.191 11.7498ZM215.009 18.3536L214.704 19.1967L209.53 17.3264L210.388 14.9542L211.446 15.3366L210.893 16.8657L215.009 18.3536ZM213.162 11.9572C212.849 12.8251 213.04 13.9504 214.098 14.7721L213.276 15.4187C212.538 14.8483 212.166 14.0925 212.084 13.2869C211.478 13.9278 210.661 14.3146 209.665 14.291L209.438 13.2372C210.818 13.2968 211.736 12.5164 212.091 11.5606L212.133 11.4448L210.62 10.8981L210.925 10.055L215.008 11.5309L214.703 12.374L213.207 11.8332L213.162 11.9572ZM224.201 14.6483L223.989 15.2351C223.789 15.7889 223.559 16.4254 223.117 17.1816L224.084 17.5312L223.779 18.3743L220.853 17.3166L220.462 18.3994L222.578 19.1643L221.61 21.8424L220.552 21.4599L221.221 19.6084L216.898 18.0459L217.197 17.2193L219.404 18.017L219.795 16.9342L216.894 15.8855L217.199 15.0424L222.051 16.7962C222.445 16.1444 222.666 15.5981 222.85 15.1037L218.675 13.5949L218.977 12.76L224.201 14.6483ZM233.281 21.5751L232.982 22.4017L226.105 19.9159L226.404 19.0893L229.33 20.147L229.563 19.5023L227.472 18.7464L228.404 16.1675L233.62 18.0527L233.324 18.871L229.158 17.3652L228.82 18.2992L233.027 19.82L232.729 20.6466L230.596 19.8757L230.363 20.5205L233.281 21.5751ZM229.39 21.533C231.018 22.1216 231.822 22.9731 231.508 23.8688C231.183 24.7419 230.017 24.8906 228.389 24.302C226.744 23.7075 225.934 22.8447 226.251 21.9686C226.574 21.0759 227.745 20.9385 229.39 21.533ZM229.1 22.3348C228.058 21.9583 227.458 21.9655 227.326 22.357C227.174 22.7507 227.637 23.1238 228.679 23.5003C229.695 23.8678 230.298 23.8801 230.45 23.4863C230.582 23.0949 230.117 22.7023 229.1 22.3348ZM241.299 21.5297L240.995 22.3728L234.738 20.111L235.042 19.2679L237.646 20.2091L237.963 19.3329L239.004 19.7094L238.687 20.5855L241.299 21.5297ZM239.837 26.6086L239.533 27.4517L232.647 24.9629L232.952 24.1198L235.853 25.1685L236.167 24.3006C234.925 23.73 234.339 22.9202 234.646 22.0966C234.966 21.1844 236.158 20.9891 237.742 21.571C239.308 22.1275 240.108 23.0428 239.779 23.952C239.48 24.7786 238.508 25.0252 237.209 24.677L236.895 25.5449L239.837 26.6086ZM237.447 22.3893C236.471 22.0368 235.876 22.0552 235.729 22.488C235.559 22.9314 236.008 23.318 236.984 23.6705C237.934 24.0141 238.535 24.0069 238.696 23.5606C238.852 23.1308 238.397 22.7329 237.447 22.3893ZM248.811 23.1702L246.092 30.692L245.043 30.3125L247.762 22.7908L248.811 23.1702ZM240.57 26.294C241.146 26.4975 241.803 26.735 242.497 26.9624L242.727 26.3259C241.953 25.8825 241.601 25.1758 241.864 24.4721C242.161 23.626 243.136 23.3335 244.243 23.7339C245.359 24.1372 245.93 24.9884 245.625 25.8315C245.371 26.5341 244.649 26.8524 243.768 26.7024L243.55 27.3058C244.189 27.5039 244.843 27.6844 245.475 27.8239L245.269 28.6278C243.522 28.3143 241.739 27.6884 240.4 27.2044L240.57 26.294ZM246.939 23.4374L246.64 24.2639L242.069 22.6117L242.368 21.7851L244.137 22.4245L244.427 21.6228L245.477 22.0022L245.187 22.804L246.939 23.4374ZM243.953 24.5357C243.441 24.3504 242.997 24.4421 242.864 24.8336C242.713 25.2274 242.999 25.5737 243.511 25.759C244.04 25.9502 244.473 25.8638 244.617 25.467C244.757 25.0785 244.482 24.7269 243.953 24.5357ZM251.896 32.0234C250.532 31.5304 249.841 30.3926 250.23 29.2903L251.759 29.843C251.623 30.2705 251.891 30.6665 252.329 30.8248C252.842 31.0101 253.334 30.7861 253.517 30.2541C253.722 29.7116 253.484 29.233 252.972 29.0477C252.561 28.8901 252.239 28.9793 251.983 29.2231L250.586 28.7182L252.13 25.2483L256.106 26.6854L255.652 27.9418L252.974 26.9737L252.363 28.2762L252.396 28.2882C252.714 28.0015 253.295 27.9215 253.89 28.1366C254.964 28.525 255.468 29.6136 255.056 30.7543C254.604 32.0024 253.342 32.5462 251.896 32.0234ZM257.659 34.1065C256.047 33.5239 255.45 32.0465 256.159 30.0876C256.87 28.1204 258.27 27.3743 259.882 27.9569C261.494 28.5395 262.091 30.0169 261.382 31.9758C260.671 33.9431 259.271 34.6891 257.659 34.1065ZM258.116 32.8419C258.698 33.0428 259.294 32.6602 259.754 31.3873C260.202 30.1474 260.003 29.4307 259.425 29.2215C258.846 29.0124 258.243 29.4393 257.787 30.6762C257.327 31.9491 257.541 32.6245 258.116 32.8419ZM262.726 35.1158L261.082 37.2597L260.032 36.8803L261.288 34.5959L262.726 35.1158ZM265.846 37.0658C264.234 36.4832 263.637 35.0058 264.346 33.0469C265.057 31.0797 266.457 30.3336 268.069 30.9162C269.681 31.4988 270.278 32.9762 269.569 34.9351C268.858 36.9024 267.458 37.6484 265.846 37.0658ZM266.303 35.8012C266.885 36.0021 267.481 35.6195 267.941 34.3466C268.389 33.1067 268.19 32.39 267.612 32.1808C267.033 31.9717 266.43 32.3986 265.974 33.6355C265.514 34.9084 265.728 35.5838 266.303 35.8012ZM271.882 39.2476C270.27 38.665 269.673 37.1876 270.381 35.2287C271.093 33.2614 272.493 32.5154 274.105 33.098C275.717 33.6806 276.313 35.158 275.605 37.1169C274.894 39.0841 273.494 39.8302 271.882 39.2476ZM272.339 37.983C272.921 38.1838 273.517 37.8012 273.977 36.5283C274.425 35.2885 274.226 34.5717 273.648 34.3626C273.069 34.1535 272.466 34.5804 272.01 35.8172C271.55 37.0902 271.763 37.7656 272.339 37.983ZM277.918 41.4294C276.306 40.8468 275.709 39.3694 276.417 37.4104C277.128 35.4432 278.529 34.6971 280.141 35.2797C281.753 35.8623 282.349 37.3397 281.641 39.2987C280.93 41.2659 279.53 42.012 277.918 41.4294ZM278.375 40.1647C278.957 40.3656 279.553 39.983 280.013 38.7101C280.461 37.4702 280.262 36.7535 279.684 36.5444C279.105 36.3352 278.502 36.7622 278.046 37.999C277.586 39.2719 277.799 39.9473 278.375 40.1647ZM290.223 38.083L288.144 43.8359L286.821 43.3578L286.997 42.8702L285.609 42.3682L285.928 41.4838L287.317 41.9857L288.9 37.605L290.223 38.083ZM288.052 44.6065L287.669 45.6645L281.793 43.5402L282.629 41.2258L283.662 41.5993L283.994 40.6818C283.357 40.4795 282.75 40.2697 282.205 40.0725L282.43 38.9855C283.832 39.4739 285.706 40.1326 287.385 40.5056L287.11 41.4718C286.525 41.3723 285.935 41.2337 285.355 41.0802L284.844 42.4936L283.811 42.1201L283.506 42.9632L288.052 44.6065ZM286.009 36.8123C287.117 37.2126 287.718 38.084 287.43 38.9053C287.126 39.7206 286.119 39.9734 285.012 39.573C283.879 39.1637 283.275 38.3284 283.57 37.5101C283.866 36.6918 284.877 36.403 286.009 36.8123ZM285.663 37.7711C285.255 37.633 284.937 37.6584 284.827 37.9642C284.722 38.2535 284.95 38.4761 285.355 38.6225C285.744 38.7629 286.061 38.7375 286.166 38.4482C286.276 38.1424 286.048 37.9198 285.663 37.7711ZM299.091 41.279L298.541 42.7999L299.5 43.1465L299.12 44.1962L298.162 43.8496L297.618 45.354L296.287 44.873L297.76 40.798L299.091 41.279ZM297.525 45.6102L296.775 47.6849L292.899 46.2836L292.812 46.5234L296.87 47.9903L296.524 48.9491L291.151 47.0071L291.901 44.9324L295.769 46.3307L295.865 46.0662L291.997 44.6679L292.334 43.7339L297.525 45.6102ZM297.311 41.1871L296.952 42.1789L292.431 40.5447L292.79 39.5528L294.385 40.1294L294.573 39.6087L295.904 40.0897L295.716 40.6104L297.311 41.1871ZM294.658 41.443C295.82 41.8725 296.388 42.6291 296.116 43.3812C295.832 44.1665 294.921 44.3605 293.755 43.9392C292.598 43.5209 291.997 42.7802 292.281 41.9949C292.553 41.2428 293.498 41.0329 294.658 41.443ZM294.326 42.3604C293.929 42.217 293.662 42.2326 293.578 42.464C293.489 42.712 293.696 42.8618 294.09 43.0134C294.506 43.1546 294.77 43.1751 294.86 42.9271C294.943 42.6957 294.739 42.5098 294.326 42.3604ZM306.818 44.0815L304.855 49.5121L303.524 49.031L305.487 43.6005L306.818 44.0815ZM304.664 50.611L304.281 51.669L298.867 49.712L299.82 47.0753L301.159 47.5593L300.589 49.1381L304.664 50.611ZM302.43 43.0094C303.62 43.4397 304.272 44.6098 303.863 45.7422C303.444 46.8994 302.198 47.3741 301.008 46.9439C299.818 46.5136 299.155 45.3488 299.581 44.1945C299.982 43.0592 301.24 42.5792 302.43 43.0094ZM302.015 44.1583C301.527 43.9821 301.065 44.1234 300.871 44.6606C300.667 45.2227 300.935 45.6187 301.423 45.7949C301.886 45.9623 302.345 45.8292 302.548 45.2671C302.743 44.7299 302.478 44.3257 302.015 44.1583ZM316.16 47.4396L313.387 55.1101L312.048 54.6261L314.821 46.9556L316.16 47.4396ZM311.776 46.4343C312.944 46.8473 313.432 48.2385 312.822 49.9247C312.204 51.6357 310.942 52.3853 309.777 51.964C308.587 51.5338 308.088 50.1478 308.706 48.4368C309.316 46.7506 310.588 45.9958 311.776 46.4343ZM311.343 47.6328C310.858 47.4483 310.37 47.8419 309.987 48.8999C309.599 49.9745 309.728 50.5727 310.216 50.749C310.671 50.9133 311.161 50.5392 311.55 49.4646C311.932 48.4066 311.8 47.7889 311.343 47.6328ZM323.717 50.1711L321.631 55.9405L320.375 55.4864L322.46 49.717L323.717 50.1711ZM322.066 49.696L320.109 55.11L318.861 54.6588L319.733 52.2452L319.287 52.0839L318.779 53.4891L315.688 52.3717L317.11 48.4372L318.366 48.8913L317.972 49.9824L318.584 50.2035L318.978 49.1124L320.201 49.5546L319.67 51.0259L320.116 51.1872L320.818 49.2448L322.066 49.696ZM317.324 51.7761L317.935 51.9971L318.225 51.1954L317.613 50.9743L317.324 51.7761ZM321.548 56.7141L321.166 57.7721L315.71 55.8002L316.621 53.2792L317.944 53.7572L317.415 55.2203L321.548 56.7141ZM329.372 56.5609L329.001 57.5859L323.521 55.605L325.099 51.2407L330.537 53.2067L330.152 54.2729L326.061 52.794L325.845 53.3891L329.747 54.7993L329.376 55.8243L325.475 54.4141L325.239 55.067L329.372 56.5609ZM329.406 58.7415L329.021 59.8077L322.036 57.2831L322.422 56.2168L329.406 58.7415Z" fill="#D5FFE2"/>
</g>
<rect width="2.33673" height="4.29028" rx="0.612852" transform="matrix(0.932181 -0.361993 0.361868 0.932229 143 39.8459)" fill="#FFD69A"/>
<rect width="2.33673" height="4.29028" rx="0.612852" transform="matrix(0.932181 -0.361993 0.361868 0.932229 118 40.8459)" fill="#9ABDFF"/>
<rect width="2.33667" height="4.29038" rx="0.612852" transform="matrix(0.993619 0.112789 -0.112744 0.993624 138.484 54)" fill="#8CFF00"/>
<rect width="2.3371" height="4.28961" rx="0.612852" transform="matrix(0.45133 0.892357 -0.892309 0.451425 135.771 44.7095)" fill="#FF66D6"/>
<g filter="url(#filter2_f_4040_5089)">
<path d="M112.001 104.009C126.468 97.4392 139.031 97.1187 150.064 96.7258C157.893 96.447 165.328 97.6775 170.603 99.9818" stroke="#51FFDC" stroke-opacity="0.8" stroke-linecap="round"/>
</g>
<g filter="url(#filter3_f_4040_5089)">
<path d="M117 106C124.757 100.686 141.378 98.2287 158 101.429" stroke="#51FFDC" stroke-opacity="0.5" stroke-linecap="round"/>
</g>
<rect x="152" y="52" width="2" height="2" rx="0.4" fill="#9EFF99"/>
<rect x="129.773" y="34" width="2" height="2" rx="0.4" transform="rotate(22.7717 129.773 34)" fill="#FF7B42"/>
</g>
<defs>
<filter id="filter0_b_4040_5089" x="-28" y="-17" width="414" height="204" filterUnits="userSpaceOnUse" color-interpolation-filters="sRGB">
<feFlood flood-opacity="0" result="BackgroundImageFix"/>
<feGaussianBlur in="BackgroundImageFix" stdDeviation="2.5"/>
<feComposite in2="SourceAlpha" operator="in" result="effect1_backgroundBlur_4040_5089"/>
<feBlend mode="normal" in="SourceGraphic" in2="effect1_backgroundBlur_4040_5089" result="shape"/>
</filter>
<filter id="filter1_i_4040_5089" x="85" y="-42" width="360.883" height="156.466" filterUnits="userSpaceOnUse" color-interpolation-filters="sRGB">
<feFlood flood-opacity="0" result="BackgroundImageFix"/>
<feBlend mode="normal" in="SourceGraphic" in2="BackgroundImageFix" result="shape"/>
<feColorMatrix in="SourceAlpha" type="matrix" values="0 0 0 0 0 0 0 0 0 0 0 0 0 0 0 0 0 0 127 0" result="hardAlpha"/>
<feOffset dy="4"/>
<feGaussianBlur stdDeviation="2"/>
<feComposite in2="hardAlpha" operator="arithmetic" k2="-1" k3="1"/>
<feColorMatrix type="matrix" values="0 0 0 0 1 0 0 0 0 1 0 0 0 0 1 0 0 0 0.17 0"/>
<feBlend mode="normal" in2="shape" result="effect1_innerShadow_4040_5089"/>
</filter>
<filter id="filter2_f_4040_5089" x="110.5" y="95.1868" width="61.6035" height="10.3226" filterUnits="userSpaceOnUse" color-interpolation-filters="sRGB">
<feFlood flood-opacity="0" result="BackgroundImageFix"/>
<feBlend mode="normal" in="SourceGraphic" in2="BackgroundImageFix" result="shape"/>
<feGaussianBlur stdDeviation="0.5" result="effect1_foregroundBlur_4040_5089"/>
</filter>
<filter id="filter3_f_4040_5089" x="115.5" y="98.5" width="44" height="9" filterUnits="userSpaceOnUse" color-interpolation-filters="sRGB">
<feFlood flood-opacity="0" result="BackgroundImageFix"/>
<feBlend mode="normal" in="SourceGraphic" in2="BackgroundImageFix" result="shape"/>
<feGaussianBlur stdDeviation="0.5" result="effect1_foregroundBlur_4040_5089"/>
</filter>
<linearGradient id="paint0_linear_4040_5089" x1="191" y1="-40" x2="345" y2="198.5" gradientUnits="userSpaceOnUse">
<stop stop-color="#181F81"/>
<stop offset="1" stop-color="#9396CA"/>
</linearGradient>
<linearGradient id="paint1_linear_4040_5089" x1="182.5" y1="-21" x2="444.5" y2="255" gradientUnits="userSpaceOnUse">
<stop offset="0.00892847" stop-color="#1A8836"/>
<stop offset="1" stop-color="#1D9368"/>
</linearGradient>
<clipPath id="clip0_4040_5089">
<rect width="360" height="170" fill="white"/>
</clipPath>
<clipPath id="clip1_4040_5089">
<rect width="374" height="26.9331" fill="white" transform="translate(94.1562 -42) rotate(19.8731)"/>
</clipPath>
</defs>
</svg>