<svg xmlns="http://www.w3.org/2000/svg" viewBox="0 0 361 170" fill="none">
<g clip-path="url(#clip0_3906_8967)">
<rect width="360" height="170" transform="translate(0.402344)" fill="black"/>
<g clip-path="url(#clip1_3906_8967)">
<rect x="178.402" y="-47.5" width="169" height="77" rx="6.41667" fill="#FF6B00" fill-opacity="0.38"/>
</g>
<g clip-path="url(#clip2_3906_8967)">
<rect x="178.402" y="46.5" width="169" height="77" rx="6.41667" fill="#FF6B00"/>
<circle cx="351.403" cy="85.2" r="7.7" fill="#010101"/>
<circle cx="174.102" cy="85.2" r="7.7" fill="#010101"/>
<path d="M201.483 72.0442L203.096 66.3735H203.878L203.426 68.5782L201.69 74.5H200.914L201.483 72.0442ZM199.814 66.3735L201.098 71.9326L201.483 74.5H200.713L198.743 66.3735H199.814ZM205.965 71.927L207.221 66.3735H208.298L206.333 74.5H205.563L205.965 71.927ZM203.995 66.3735L205.563 72.0442L206.133 74.5H205.357L203.682 68.5782L203.225 66.3735H203.995ZM214.312 73.6237V74.5H210.009V73.6237H214.312ZM210.227 66.3735V74.5H209.15V66.3735H210.227ZM213.743 69.8675V70.7437H210.009V69.8675H213.743ZM214.257 66.3735V67.2554H210.009V66.3735H214.257ZM220.232 73.6237V74.5H216.168V73.6237H220.232ZM216.381 66.3735V74.5H215.303V66.3735H216.381ZM225.66 71.9158H226.732C226.676 72.4293 226.529 72.8888 226.291 73.2944C226.052 73.7 225.716 74.0219 225.28 74.26C224.845 74.4944 224.302 74.6116 223.651 74.6116C223.174 74.6116 222.741 74.5223 222.35 74.3437C221.963 74.1651 221.63 73.9121 221.351 73.5847C221.072 73.2535 220.856 72.8572 220.704 72.3958C220.555 71.9307 220.48 71.4135 220.48 70.8442V70.0349C220.48 69.4656 220.555 68.9503 220.704 68.4889C220.856 68.0238 221.074 67.6256 221.357 67.2945C221.643 66.9633 221.987 66.7084 222.389 66.5298C222.791 66.3512 223.243 66.2619 223.746 66.2619C224.359 66.2619 224.879 66.3773 225.303 66.608C225.727 66.8387 226.056 67.1587 226.291 67.568C226.529 67.9735 226.676 68.4442 226.732 68.98H225.66C225.608 68.6005 225.511 68.2749 225.37 68.0033C225.228 67.728 225.027 67.5159 224.767 67.367C224.506 67.2182 224.166 67.1438 223.746 67.1438C223.385 67.1438 223.066 67.2126 222.791 67.3503C222.519 67.488 222.291 67.6833 222.105 67.9363C221.922 68.1893 221.785 68.4926 221.692 68.8461C221.599 69.1996 221.552 69.5921 221.552 70.0238V70.8442C221.552 71.2423 221.593 71.6163 221.675 71.9661C221.76 72.3158 221.889 72.6228 222.06 72.887C222.231 73.1512 222.449 73.3595 222.713 73.5121C222.977 73.6609 223.29 73.7354 223.651 73.7354C224.108 73.7354 224.473 73.6628 224.745 73.5177C225.016 73.3726 225.221 73.1642 225.359 72.8926C225.5 72.6209 225.6 72.2954 225.66 71.9158ZM234.113 70.18V70.6935C234.113 71.3037 234.037 71.8507 233.884 72.3344C233.732 72.8182 233.512 73.2293 233.226 73.5679C232.939 73.9065 232.595 74.1651 232.193 74.3437C231.795 74.5223 231.349 74.6116 230.854 74.6116C230.374 74.6116 229.933 74.5223 229.531 74.3437C229.133 74.1651 228.787 73.9065 228.493 73.5679C228.203 73.2293 227.977 72.8182 227.817 72.3344C227.657 71.8507 227.577 71.3037 227.577 70.6935V70.18C227.577 69.5698 227.656 69.0247 227.812 68.5447C227.972 68.061 228.197 67.6498 228.487 67.3112C228.777 66.9689 229.122 66.7084 229.52 66.5298C229.922 66.3512 230.363 66.2619 230.843 66.2619C231.337 66.2619 231.784 66.3512 232.182 66.5298C232.584 66.7084 232.928 66.9689 233.215 67.3112C233.505 67.6498 233.726 68.061 233.879 68.5447C234.035 69.0247 234.113 69.5698 234.113 70.18ZM233.047 70.6935V70.1689C233.047 69.6851 232.997 69.2572 232.896 68.8852C232.8 68.5131 232.656 68.2005 232.467 67.9475C232.277 67.6945 232.044 67.5028 231.769 67.3726C231.497 67.2424 231.189 67.1773 230.843 67.1773C230.508 67.1773 230.204 67.2424 229.933 67.3726C229.665 67.5028 229.434 67.6945 229.241 67.9475C229.051 68.2005 228.904 68.5131 228.8 68.8852C228.696 69.2572 228.643 69.6851 228.643 70.1689V70.6935C228.643 71.181 228.696 71.6126 228.8 71.9884C228.904 72.3605 229.053 72.6749 229.246 72.9316C229.443 73.1847 229.676 73.3763 229.944 73.5065C230.216 73.6367 230.519 73.7019 230.854 73.7019C231.203 73.7019 231.514 73.6367 231.786 73.5065C232.057 73.3763 232.286 73.1847 232.472 72.9316C232.662 72.6749 232.805 72.3605 232.902 71.9884C232.999 71.6126 233.047 71.181 233.047 70.6935ZM235.724 66.3735H236.767L239.43 72.9986L242.087 66.3735H243.136L239.832 74.5H239.017L235.724 66.3735ZM235.383 66.3735H236.304L236.455 71.3298V74.5H235.383V66.3735ZM242.55 66.3735H243.471V74.5H242.399V71.3298L242.55 66.3735ZM250.183 73.6237V74.5H245.879V73.6237H250.183ZM246.097 66.3735V74.5H245.02V66.3735H246.097ZM249.613 69.8675V70.7437H245.879V69.8675H249.613ZM250.127 66.3735V67.2554H245.879V66.3735H250.127Z" fill="black"/>
<path d="M261.162 70.4535V73.4284C261.061 73.5772 260.901 73.7447 260.682 73.9307C260.462 74.113 260.159 74.273 259.772 74.4107C259.389 74.5447 258.894 74.6116 258.287 74.6116C257.792 74.6116 257.337 74.526 256.92 74.3549C256.507 74.18 256.148 73.927 255.843 73.5958C255.541 73.2609 255.307 72.8554 255.139 72.3791C254.976 71.8991 254.894 71.3558 254.894 70.7493V70.1186C254.894 69.5121 254.965 68.9707 255.106 68.4945C255.251 68.0182 255.463 67.6145 255.742 67.2833C256.021 66.9484 256.364 66.6954 256.769 66.5242C257.175 66.3494 257.64 66.2619 258.164 66.2619C258.786 66.2619 259.305 66.3698 259.722 66.5856C260.142 66.7977 260.47 67.0917 260.704 67.4675C260.942 67.8433 261.095 68.2712 261.162 68.7512H260.084C260.036 68.4572 259.939 68.1893 259.794 67.9475C259.653 67.7056 259.45 67.5121 259.186 67.367C258.922 67.2182 258.581 67.1438 258.164 67.1438C257.789 67.1438 257.463 67.2126 257.188 67.3503C256.912 67.488 256.685 67.6852 256.507 67.9419C256.328 68.1986 256.194 68.5093 256.105 68.874C256.019 69.2386 255.977 69.6498 255.977 70.1075V70.7493C255.977 71.2182 256.031 71.6368 256.138 72.0051C256.25 72.3735 256.408 72.6879 256.613 72.9484C256.818 73.2051 257.061 73.4005 257.344 73.5344C257.631 73.6684 257.947 73.7354 258.293 73.7354C258.676 73.7354 258.987 73.7037 259.225 73.6405C259.463 73.5735 259.649 73.4954 259.783 73.4061C259.917 73.313 260.019 73.2256 260.09 73.1437V71.3242H258.209V70.4535H261.162ZM263.76 66.3735V74.5H262.683V66.3735H263.76ZM266.453 66.3735V74.5H265.376V66.3735H266.453ZM269.858 70.0293V70.9112H266.219V70.0293H269.858ZM270.411 66.3735V67.2554H266.219V66.3735H270.411ZM274.466 66.3735V74.5H273.405V66.3735H274.466ZM277.078 66.3735V67.2554H270.799V66.3735H277.078Z" fill="black"/>
<path d="M206.15 104.738C202.359 104.738 199.642 102.641 199.57 99.6371H203.194C203.265 100.924 204.505 101.782 206.173 101.782C207.89 101.782 209.129 100.805 209.106 99.4225C209.129 98.0161 207.866 97.0149 205.84 97.0149H204.243V94.3689H205.84C207.532 94.3689 208.724 93.4392 208.724 92.0805C208.724 90.7694 207.723 89.8635 206.197 89.8635C204.672 89.8635 203.408 90.7217 203.361 92.0328H199.928C199.976 89.053 202.669 87.003 206.197 87.003C209.797 87.003 212.204 89.1246 212.181 91.8659C212.204 93.7968 210.846 95.1794 208.915 95.5131V95.6561C211.442 95.966 212.848 97.5155 212.824 99.6609C212.848 102.617 210.035 104.738 206.15 104.738ZM218.712 102.736L216.662 109.53H214.135L215.327 102.736H218.712ZM227.842 104.738C223.527 104.738 220.905 101.52 220.905 95.8707C220.905 90.2211 223.527 87.003 227.842 87.003C232.157 87.003 234.779 90.2449 234.779 95.8707C234.779 101.544 232.157 104.738 227.842 104.738ZM227.842 101.782C229.845 101.782 231.132 99.8516 231.108 95.8707C231.108 91.9374 229.845 89.935 227.842 89.935C225.84 89.935 224.576 91.9374 224.576 95.8707C224.553 99.8516 225.84 101.782 227.842 101.782ZM243.957 104.738C239.642 104.738 237.02 101.52 237.02 95.8707C237.02 90.2211 239.642 87.003 243.957 87.003C248.271 87.003 250.893 90.2449 250.893 95.8707C250.893 101.544 248.271 104.738 243.957 104.738ZM243.957 101.782C245.959 101.782 247.246 99.8516 247.222 95.8707C247.222 91.9374 245.959 89.935 243.957 89.935C241.954 89.935 240.691 91.9374 240.691 95.8707C240.667 99.8516 241.954 101.782 243.957 101.782ZM260.071 104.738C255.756 104.738 253.134 101.52 253.134 95.8707C253.134 90.2211 255.756 87.003 260.071 87.003C264.386 87.003 267.008 90.2449 267.008 95.8707C267.008 101.544 264.386 104.738 260.071 104.738ZM260.071 101.782C262.073 101.782 263.361 99.8516 263.337 95.8707C263.337 91.9374 262.073 89.935 260.071 89.935C258.069 89.935 256.805 91.9374 256.805 95.8707C256.781 99.8516 258.069 101.782 260.071 101.782Z" fill="black"/>
</g>
<g clip-path="url(#clip3_3906_8967)">
<rect x="178.402" y="140.5" width="169" height="77" rx="6.41667" fill="#FF6B00" fill-opacity="0.38"/>
</g>
<path d="M23.9473 139.658C23.9473 141.123 24.9043 142.637 26.252 143.213L25.7441 143.936C24.7139 143.481 23.8936 142.52 23.4883 141.348C23.083 142.598 22.2578 143.662 21.2422 144.16L20.7051 143.428C22.0234 142.812 23 141.162 23.0098 139.658V138.73H21.0078V137.959H25.9395V138.73H23.9473V139.658ZM27.9707 137.08V145.83H27.043V137.08H27.9707ZM36.0594 137.52V138.184C36.0594 138.872 36.0594 139.653 35.8348 140.713H37.075V141.475H29.0672V140.713H34.8973C35.1316 139.692 35.1414 138.945 35.1414 138.281H30.073V137.52H36.0594ZM36.0691 142.588V145.723H30.0437V142.588H36.0691ZM30.952 143.32V144.971H35.1512V143.32H30.952ZM46.7875 137.08V145.83H45.8598V137.08H46.7875ZM39.6 143.447C40.3178 143.442 41.143 143.438 42.0023 143.408V142.539C40.977 142.407 40.3129 141.807 40.3227 140.947C40.3129 139.961 41.1723 139.307 42.4418 139.307C43.7211 139.307 44.6 139.961 44.6 140.947C44.6 141.797 43.9359 142.393 42.9203 142.529V143.379C43.7309 143.345 44.5512 143.281 45.3227 143.184L45.391 143.877C43.4477 144.199 41.3285 144.219 39.727 144.219L39.6 143.447ZM45.1273 138.125V138.867H39.7855V138.125H42.0023V137.1H42.9301V138.125H45.1273ZM42.4418 140.029C41.7094 140.029 41.1918 140.391 41.2016 140.947C41.1918 141.504 41.7094 141.846 42.4418 141.846C43.1938 141.846 43.7113 141.504 43.7113 140.947C43.7113 140.391 43.1938 140.029 42.4418 140.029ZM55.1691 137.09V143.721H54.2414V142.881H52.4836V142.227H54.2414V137.09H55.1691ZM55.384 144.893V145.645H49.0656V143.076H49.9836V144.893H55.384ZM47.8547 141.084C49.4758 141.074 51.6535 141.055 53.5187 140.82L53.5773 141.484C52.8303 141.606 52.0441 141.689 51.2727 141.738V143.447H50.3449V141.787C49.4953 141.826 48.6799 141.831 47.9719 141.826L47.8547 141.084ZM50.716 137.422C51.9953 137.422 52.884 138.037 52.884 138.965C52.884 139.893 51.9953 140.488 50.716 140.488C49.4172 140.488 48.5383 139.893 48.5383 138.965C48.5383 138.037 49.4172 137.422 50.716 137.422ZM50.716 138.115C49.9348 138.105 49.4074 138.438 49.4172 138.965C49.4074 139.482 49.9348 139.805 50.716 139.805C51.468 139.805 51.9953 139.482 52.0051 138.965C51.9953 138.438 51.468 138.105 50.716 138.115ZM63.0527 137.08V140.566H64.4102V141.338H63.0527V145.82H62.125V137.08H63.0527ZM60.7676 137.998C60.7578 140.527 59.6445 142.783 56.7637 144.209L56.2461 143.486C58.4385 142.393 59.6299 140.811 59.8203 138.77H56.6855V137.998H60.7676ZM71.8348 137.08V141.777H70.907V137.08H71.8348ZM67.0203 142.197V143.184H70.9168V142.197H71.8348V145.723H66.1121V142.197H67.0203ZM67.0203 144.961H70.9168V143.916H67.0203V144.961ZM67.0887 137.48C68.4266 137.48 69.4129 138.311 69.4129 139.512C69.4129 140.713 68.4266 141.543 67.0887 141.533C65.7508 141.543 64.7547 140.713 64.7547 139.512C64.7547 138.311 65.7508 137.48 67.0887 137.48ZM67.0887 138.262C66.2586 138.252 65.6629 138.77 65.6629 139.512C65.6629 140.264 66.2586 140.771 67.0887 140.771C67.909 140.771 68.5047 140.264 68.5047 139.512C68.5047 138.77 67.909 138.252 67.0887 138.262ZM79.7379 137.08V140.625H81.1441V141.396H79.7379V145.83H78.8199V137.08H79.7379ZM78.0582 138.447V139.209H72.8727V138.447H75.0309V137.197H75.9586V138.447H78.0582ZM75.4996 139.854C76.7496 139.854 77.6676 140.693 77.6773 141.885C77.6676 143.086 76.7496 143.916 75.4996 143.926C74.2398 143.916 73.3219 143.086 73.3219 141.885C73.3219 140.693 74.2398 139.854 75.4996 139.854ZM75.4996 140.615C74.7574 140.615 74.2008 141.133 74.2105 141.885C74.2008 142.646 74.7574 143.154 75.4996 143.145C76.2418 143.154 76.7887 142.646 76.7887 141.885C76.7887 141.133 76.2418 140.615 75.4996 140.615ZM88.3441 137.92V138.779C88.3441 139.863 88.3441 141.074 88.0121 142.861L87.0746 142.764C87.4164 141.074 87.4164 139.834 87.4164 138.779V138.672H82.1039V137.92H88.3441ZM89.2426 143.877V144.648H81.2641V143.877H84.3012V140.791H85.2191V143.877H89.2426ZM98.623 137.051V139.102H99.9023V139.863H98.623V141.865H97.6953V137.051H98.623ZM98.623 142.275V144.307H93.8965V145.039H98.9258V145.742H92.9883V143.652H97.7051V142.969H92.9688V142.275H98.623ZM96.9727 137.822V138.555H91.7578V137.822H93.9062V137.002H94.834V137.822H96.9727ZM94.3652 138.887C95.6445 138.887 96.4844 139.434 96.4844 140.322C96.4844 141.211 95.6445 141.748 94.3652 141.748C93.0762 141.748 92.2363 141.211 92.2363 140.322C92.2363 139.434 93.0762 138.887 94.3652 138.887ZM94.3652 139.551C93.6133 139.551 93.125 139.854 93.1348 140.322C93.125 140.791 93.6133 141.074 94.3652 141.074C95.1172 141.074 95.6055 140.791 95.6152 140.322C95.6055 139.854 95.1172 139.551 94.3652 139.551ZM107.346 137.09V143.447H106.419V137.09H107.346ZM107.61 144.893V145.645H101.624V142.803H102.561V144.893H107.61ZM102.6 137.676C103.919 137.676 104.925 138.574 104.925 139.844C104.925 141.133 103.919 142.021 102.6 142.021C101.282 142.021 100.266 141.133 100.266 139.844C100.266 138.574 101.282 137.676 102.6 137.676ZM102.6 138.486C101.78 138.486 101.175 139.043 101.175 139.844C101.175 140.664 101.78 141.211 102.6 141.211C103.401 141.211 104.016 140.664 104.016 139.844C104.016 139.043 103.401 138.486 102.6 138.486ZM115.308 137.08V139.15H116.578V139.922H115.308V142.188H114.38V137.08H115.308ZM109.683 137.578V138.848H111.978V137.578H112.896V141.68H108.775V137.578H109.683ZM109.683 140.947H111.978V139.58H109.683V140.947ZM115.377 142.646V143.389H110.66V144.971H115.533V145.703H109.732V142.646H115.377ZM119.823 139.658C119.823 141.045 120.731 142.588 122.059 143.213L121.532 143.936C120.55 143.462 119.774 142.476 119.383 141.328C118.978 142.583 118.158 143.662 117.157 144.16L116.61 143.428C117.938 142.793 118.905 141.143 118.905 139.658V138.73H116.932V137.959H121.727V138.73H119.823V139.658ZM123.592 137.08V140.547H124.998V141.328H123.592V145.83H122.664V137.08H123.592ZM128.871 137.93L128.783 142.959H127.816L127.729 137.93H128.871ZM128.305 145.068C127.924 145.068 127.602 144.756 127.611 144.375C127.602 143.994 127.924 143.682 128.305 143.682C128.676 143.682 128.998 143.994 128.998 144.375C128.998 144.756 128.676 145.068 128.305 145.068Z" fill="#C2C2C2"/>
<rect x="20.4023" y="20" width="43" height="19" rx="9.5" fill="#FFE2CC"/>
<path d="M30.7305 25.6406V29.7422H29.8945V25.6406H30.7305ZM24.5898 28.1484C25.5352 28.1523 27.082 28.1328 28.2461 27.9609L28.3008 28.5156C27.8672 28.6055 27.3906 28.668 26.918 28.707V29.7344H26.082V28.7578C25.5586 28.7773 25.0664 28.7812 24.6758 28.7812L24.5898 28.1484ZM24.9102 26.8438C24.9102 26.2031 25.5156 25.8281 26.4648 25.8281C27.4062 25.8281 28.0117 26.2031 28.0117 26.8438C28.0117 27.4766 27.4062 27.8594 26.4648 27.8594C25.5156 27.8594 24.9102 27.4766 24.9102 26.8438ZM25.6992 26.8438C25.7031 27.1055 26 27.2656 26.4648 27.2656C26.9336 27.2656 27.2344 27.1055 27.2383 26.8438C27.2344 26.5703 26.9336 26.4062 26.4648 26.4062C26 26.4062 25.7031 26.5703 25.6992 26.8438ZM25.7539 30.5625V29.9531H30.7305V31.5547H26.6289V32.0156H30.9336V32.6328H25.7617V30.9844H29.8633V30.5625H25.7539ZM27.4492 29.4531V28.8906H28.5742V25.75H29.3945V29.6953H28.5742V29.4531H27.4492ZM34.9495 26.0078C34.9456 27.8867 33.9808 29.1797 31.7073 29.8672L31.3714 29.1719C32.4066 28.875 33.0941 28.457 33.512 27.9336L31.4886 28.0859L31.3558 27.3984L33.8714 27.3047C33.9417 27.1133 33.9886 26.9141 34.0159 26.7031H31.7152V26.0078H34.9495ZM32.4964 32.6094V30.0156H37.1448V32.6094H32.4964ZM33.348 31.9062H36.2855V30.7031H33.348V31.9062ZM34.9105 28.1484V27.4297H36.2777V25.6406H37.1448V29.6797H36.2777V28.1484H34.9105ZM45.2783 25.6328V32.7031H44.4033V25.6328H45.2783ZM39.6298 28.6406C39.6259 27.1172 40.4033 26.1484 41.4736 26.1484C42.5322 26.1484 43.3134 27.1172 43.3173 28.6406C43.3134 30.1758 42.5322 31.1406 41.4736 31.1406C40.4033 31.1406 39.6259 30.1758 39.6298 28.6406ZM40.4658 28.6406C40.4658 29.7266 40.8759 30.3555 41.4736 30.3594C42.0673 30.3555 42.4736 29.7266 42.4736 28.6406C42.4736 27.5625 42.0673 26.9297 41.4736 26.9297C40.8759 26.9297 40.4658 27.5625 40.4658 28.6406ZM52.0364 25.6328V30.9766H51.2083V25.6328H52.0364ZM46.2708 29.7109V26.1875H47.0911V27.3047H48.2552V26.1875H49.0598V27.6172H49.8098V25.7578H50.6302V30.7578H49.8098V28.3203H49.0598V29.7109H46.2708ZM47.0911 29.0078H48.2552V27.9688H47.0911V29.0078ZM47.3098 32.5547V30.2656H48.177V31.8516H52.2317V32.5547H47.3098ZM58.3336 29.3359V30.0234H53.3805V26.1875H58.2711V26.8906H54.2633V27.7422H58.107V28.4219H54.2633V29.3359H58.3336ZM52.5914 31.8359V31.125H59.0445V31.8359H52.5914Z" fill="#E05E00"/>
<path d="M34.2715 54.6387V66.3105H32.0215V54.6387H34.2715ZM34.6934 68.543V70.3359H23.5488V65.1855H25.8164V68.543H34.6934ZM27.0117 57.0645C26.9941 59.1738 28.1191 61.248 30.7559 62.0918L29.6133 63.8496C27.8115 63.252 26.5635 62.0566 25.8516 60.5273C25.1396 62.1709 23.8564 63.4893 21.9844 64.1309L20.8242 62.3555C23.5137 61.459 24.6738 59.2266 24.6738 57.0645V55.5176H27.0117V57.0645ZM48.7826 55.5V56.5723C48.7826 57.9082 48.7826 59.7539 48.3607 62.3906H50.6634V64.2012H47.2005V70.6172H44.9681V64.2012H41.6459V70.6172H39.3959V64.2012H36.0736V62.3906H46.0931C46.4974 60.2285 46.5677 58.5674 46.6029 57.3105H37.8138V55.5H48.7826ZM64.7175 54.6211V70.6172H62.4851V54.6211H64.7175ZM51.3405 66.0996C52.5622 66.0908 53.9597 66.0908 55.4187 66.0469V64.6934C53.6609 64.3857 52.5183 63.2959 52.5359 61.793C52.5183 60 54.153 58.7871 56.5085 58.7871C58.8816 58.7871 60.5339 60 60.5339 61.793C60.5339 63.2871 59.3913 64.377 57.6335 64.6934V65.9766C58.9695 65.915 60.323 65.8096 61.6062 65.6426L61.7644 67.2949C58.2663 67.8926 54.487 67.9277 51.6394 67.9277L51.3405 66.0996ZM61.3777 56.3965V58.1543H51.657V56.3965H55.4187V54.6914H57.6511V56.3965H61.3777ZM56.5085 60.4922C55.4187 60.4922 54.6452 60.9668 54.6628 61.793C54.6452 62.6367 55.4187 63.0938 56.5085 63.0938C57.6335 63.0938 58.3894 62.6367 58.3894 61.793C58.3894 60.9668 57.6335 60.4922 56.5085 60.4922ZM80.0196 54.6387V66.7148H77.7696V65.4492H74.711V63.9199H77.7696V54.6387H80.0196ZM80.3712 68.543V70.3359H68.4532V65.5547H70.6856V63.4277C69.253 63.4893 67.8907 63.498 66.6778 63.498L66.4141 61.7227C69.3497 61.7051 73.3048 61.6699 76.6798 61.248L76.8028 62.8477C75.5372 63.0586 74.2276 63.208 72.9356 63.3047V66.3457H70.6856V68.543H80.3712ZM71.6173 55.1836C73.9376 55.166 75.6075 56.3438 75.6075 58.0488C75.6075 59.7539 73.9376 60.8613 71.6173 60.8613C69.2442 60.8613 67.5919 59.7539 67.5919 58.0488C67.5919 56.3438 69.2266 55.166 71.6173 55.1836ZM71.6173 56.8184C70.4747 56.8184 69.7012 57.2578 69.7188 58.0488C69.7012 58.8223 70.4747 59.2441 71.6173 59.2441C72.6895 59.2441 73.463 58.8223 73.4805 58.0488C73.463 57.2578 72.6895 56.8184 71.6173 56.8184ZM26.1152 93.1758C23.3203 93.1758 21.3164 91.6289 21.2637 89.4141H23.9355C23.9883 90.3633 24.9023 90.9961 26.1328 90.9961C27.3984 90.9961 28.3125 90.2754 28.2949 89.2559C28.3125 88.2188 27.3809 87.4805 25.8867 87.4805H24.709V85.5293H25.8867C27.1348 85.5293 28.0137 84.8438 28.0137 83.8418C28.0137 82.875 27.2754 82.207 26.1504 82.207C25.0254 82.207 24.0938 82.8398 24.0586 83.8066H21.5273C21.5625 81.6094 23.5488 80.0977 26.1504 80.0977C28.8047 80.0977 30.5801 81.6621 30.5625 83.6836C30.5801 85.1074 29.5781 86.127 28.1543 86.373V86.4785C30.0176 86.707 31.0547 87.8496 31.0371 89.4316C31.0547 91.6113 28.9805 93.1758 26.1152 93.1758ZM35.0189 91.6992L33.5072 96.709H31.6439L32.5228 91.6992H35.0189ZM41.3913 93.1758C38.2097 93.1758 36.2761 90.8027 36.2761 86.6367C36.2761 82.4707 38.2097 80.0977 41.3913 80.0977C44.573 80.0977 46.5066 82.4883 46.5066 86.6367C46.5066 90.8203 44.573 93.1758 41.3913 93.1758ZM41.3913 90.9961C42.8679 90.9961 43.8171 89.5723 43.7995 86.6367C43.7995 83.7363 42.8679 82.2598 41.3913 82.2598C39.9148 82.2598 38.9831 83.7363 38.9831 86.6367C38.9655 89.5723 39.9148 90.9961 41.3913 90.9961ZM52.9141 93.1758C49.7325 93.1758 47.7989 90.8027 47.7989 86.6367C47.7989 82.4707 49.7325 80.0977 52.9141 80.0977C56.0958 80.0977 58.0294 82.4883 58.0294 86.6367C58.0294 90.8203 56.0958 93.1758 52.9141 93.1758ZM52.9141 90.9961C54.3907 90.9961 55.3399 89.5723 55.3223 86.6367C55.3223 83.7363 54.3907 82.2598 52.9141 82.2598C51.4376 82.2598 50.5059 83.7363 50.5059 86.6367C50.4884 89.5723 51.4376 90.9961 52.9141 90.9961ZM64.437 93.1758C61.2553 93.1758 59.3217 90.8027 59.3217 86.6367C59.3217 82.4707 61.2553 80.0977 64.437 80.0977C67.6186 80.0977 69.5522 82.4883 69.5522 86.6367C69.5522 90.8203 67.6186 93.1758 64.437 93.1758ZM64.437 90.9961C65.9135 90.9961 66.8627 89.5723 66.8452 86.6367C66.8452 83.7363 65.9135 82.2598 64.437 82.2598C62.9604 82.2598 62.0288 83.7363 62.0288 86.6367C62.0112 89.5723 62.9604 90.9961 64.437 90.9961ZM84.0457 78.6387V90.7148H81.7957V89.4492H78.7371V87.9199H81.7957V78.6387H84.0457ZM84.3973 92.543V94.3359H72.4793V89.5547H74.7117V87.4277C73.2791 87.4893 71.9168 87.498 70.7039 87.498L70.4402 85.7227C73.3758 85.7051 77.3309 85.6699 80.7059 85.248L80.8289 86.8477C79.5633 87.0586 78.2537 87.208 76.9617 87.3047V90.3457H74.7117V92.543H84.3973ZM75.6434 79.1836C77.9637 79.166 79.6336 80.3438 79.6336 82.0488C79.6336 83.7539 77.9637 84.8613 75.6434 84.8613C73.2703 84.8613 71.618 83.7539 71.618 82.0488C71.618 80.3438 73.2527 79.166 75.6434 79.1836ZM75.6434 80.8184C74.5008 80.8184 73.7273 81.2578 73.7449 82.0488C73.7273 82.8223 74.5008 83.2441 75.6434 83.2441C76.7156 83.2441 77.4891 82.8223 77.5066 82.0488C77.4891 81.2578 76.7156 80.8184 75.6434 80.8184ZM102.169 78.5859V82.0664H104.332V83.8594H102.169V87.252H99.9195V78.5859H102.169ZM102.169 87.9023V91.9453H93.7847V92.8594H102.626V94.5117H91.5874V90.416H99.937V89.5195H91.5523V87.9023H102.169ZM98.9702 79.8164V81.5215H89.4781V79.8164H93.1167V78.5156H95.3491V79.8164H98.9702ZM94.2241 81.9082C96.6148 81.9082 98.1616 82.9277 98.1616 84.5273C98.1616 86.1621 96.6148 87.1465 94.2241 87.1465C91.8335 87.1465 90.2515 86.1621 90.2515 84.5273C90.2515 82.9277 91.8335 81.9082 94.2241 81.9082ZM94.2241 83.4902C93.1167 83.4902 92.4312 83.8594 92.4488 84.5273C92.4312 85.2129 93.1167 85.5469 94.2241 85.5469C95.3316 85.5469 96.0347 85.2129 96.0347 84.5273C96.0347 83.8594 95.3316 83.4902 94.2241 83.4902ZM118.069 78.6387V90.1348H115.819V78.6387H118.069ZM118.491 92.543V94.3359H107.347V88.9746H109.614V92.543H118.491ZM109.298 79.6582C111.759 79.6582 113.675 81.3457 113.675 83.6836C113.675 86.0742 111.759 87.7441 109.298 87.7441C106.837 87.7441 104.921 86.0742 104.921 83.6836C104.921 81.3457 106.837 79.6582 109.298 79.6582ZM109.298 81.6094C108.05 81.5918 107.1 82.3828 107.118 83.6836C107.1 85.0195 108.05 85.793 109.298 85.793C110.511 85.793 111.46 85.0195 111.46 83.6836C111.46 82.3828 110.511 81.5918 109.298 81.6094ZM136.632 79.5176V80.959C136.615 82.6201 136.615 84.4658 136.088 87.0586H138.25V88.8691H132.08V94.582H129.83V88.8691H123.66V87.0586H133.89C134.084 86.2061 134.215 85.4238 134.295 84.7031L125.119 85.1602L124.855 83.2441L134.453 82.9805C134.47 82.3828 134.479 81.8291 134.488 81.293H125.365V79.5176H136.632ZM152.145 79.2012V81.0117H150.054V83.7715H152.04V85.5117H147.259V87.0059H153.446V88.7637H138.856V87.0059H145.009V85.5117H140.245V83.7715H142.214V81.0117H140.14V79.2012H152.145ZM151.794 92.543V94.3359H140.614V89.8008H142.864V92.543H151.794ZM144.464 83.7715H147.804V81.0117H144.464V83.7715Z" fill="white"/>
</g>
<defs>
<clipPath id="clip0_3906_8967">
<rect width="360" height="170" fill="white" transform="translate(0.402344)"/>
</clipPath>
<clipPath id="clip1_3906_8967">
<rect x="178.402" y="-47.5" width="169" height="77" rx="6.41667" fill="white"/>
</clipPath>
<clipPath id="clip2_3906_8967">
<rect x="178.402" y="46.5" width="169" height="77" rx="6.41667" fill="white"/>
</clipPath>
<clipPath id="clip3_3906_8967">
<rect x="178.402" y="140.5" width="169" height="77" rx="6.41667" fill="white"/>
</clipPath>
</defs>
</svg>