<svg xmlns="http://www.w3.org/2000/svg" width="16" height="16" viewBox="0 0 16 16" fill="none">
<path d="M11.332 3.16649H10.4987V2.33315C10.4987 2.20054 10.446 2.07337 10.3523 1.9796C10.2585 1.88583 10.1313 1.83315 9.9987 1.83315C9.86609 1.83315 9.73891 1.88583 9.64515 1.9796C9.55138 2.07337 9.4987 2.20054 9.4987 2.33315V3.16649H6.4987V2.33315C6.4987 2.20054 6.44602 2.07337 6.35225 1.9796C6.25848 1.88583 6.13131 1.83315 5.9987 1.83315C5.86609 1.83315 5.73891 1.88583 5.64515 1.9796C5.55138 2.07337 5.4987 2.20054 5.4987 2.33315V3.16649H4.66536C4.17913 3.16649 3.71282 3.35964 3.369 3.70346C3.02519 4.04727 2.83203 4.51359 2.83203 4.99982V12.3332C2.83203 12.8194 3.02519 13.2857 3.369 13.6295C3.71282 13.9733 4.17913 14.1665 4.66536 14.1665H11.332C11.8183 14.1665 12.2846 13.9733 12.6284 13.6295C12.9722 13.2857 13.1654 12.8194 13.1654 12.3332V4.99982C13.1654 4.51359 12.9722 4.04727 12.6284 3.70346C12.2846 3.35964 11.8183 3.16649 11.332 3.16649ZM4.66536 4.16649H5.4987V4.99982C5.4987 5.13243 5.55138 5.2596 5.64515 5.35337C5.73891 5.44714 5.86609 5.49982 5.9987 5.49982C6.13131 5.49982 6.25848 5.44714 6.35225 5.35337C6.44602 5.2596 6.4987 5.13243 6.4987 4.99982V4.16649H9.4987V4.99982C9.4987 5.13243 9.55138 5.2596 9.64515 5.35337C9.73891 5.44714 9.86609 5.49982 9.9987 5.49982C10.1313 5.49982 10.2585 5.44714 10.3523 5.35337C10.446 5.2596 10.4987 5.13243 10.4987 4.99982V4.16649H11.332C11.553 4.16649 11.765 4.25428 11.9213 4.41056C12.0776 4.56684 12.1654 4.77881 12.1654 4.99982V6.83315H3.83203V4.99982C3.83203 4.77881 3.91983 4.56684 4.07611 4.41056C4.23239 4.25428 4.44435 4.16649 4.66536 4.16649ZM11.332 13.1665H4.66536C4.44435 13.1665 4.23239 13.0787 4.07611 12.9224C3.91983 12.7661 3.83203 12.5542 3.83203 12.3332V7.83315H12.1654V12.3332C12.1654 12.5542 12.0776 12.7661 11.9213 12.9224C11.765 13.0787 11.553 13.1665 11.332 13.1665Z" fill="#292A2B"/>
<path d="M9.33464 10.1996H6.66797C6.53536 10.1996 6.40818 10.2523 6.31442 10.3461C6.22065 10.4398 6.16797 10.567 6.16797 10.6996C6.16797 10.8322 6.22065 10.9594 6.31442 11.0532C6.40818 11.147 6.53536 11.1996 6.66797 11.1996H9.33464C9.46724 11.1996 9.59442 11.147 9.68819 11.0532C9.78196 10.9594 9.83464 10.8322 9.83464 10.6996C9.83464 10.567 9.78196 10.4398 9.68819 10.3461C9.59442 10.2523 9.46724 10.1996 9.33464 10.1996Z" fill="#292A2B"/>
</svg>