<svg xmlns="http://www.w3.org/2000/svg" width="12" height="12" viewBox="0 0 12 12" fill="none">
<path d="M6 11.9999C4.81331 11.9999 3.65328 11.648 2.66658 10.9887C1.67989 10.3294 0.910851 9.39234 0.456725 8.29598C0.00259968 7.19962 -0.11622 5.99323 0.115291 4.82934C0.346802 3.66545 0.918247 2.59635 1.75736 1.75724C2.59648 0.918125 3.66558 0.34668 4.82946 0.115169C5.99335 -0.116342 7.19975 0.00247761 8.2961 0.456603C9.39246 0.910729 10.3295 1.67976 10.9888 2.66646C11.6481 3.65315 12 4.81319 12 5.99988C12 7.59118 11.3679 9.1173 10.2426 10.2425C9.11742 11.3677 7.5913 11.9999 6 11.9999ZM6 0.999881C5.0111 0.999881 4.0444 1.29313 3.22215 1.84253C2.39991 2.39194 1.75904 3.17283 1.3806 4.08646C1.00217 5.00009 0.90315 6.00543 1.09608 6.97533C1.289 7.94524 1.76521 8.83615 2.46447 9.53541C3.16373 10.2347 4.05465 10.7109 5.02455 10.9038C5.99446 11.0967 6.99979 10.9977 7.91342 10.6193C8.82705 10.2408 9.60794 9.59998 10.1574 8.77773C10.7068 7.95549 11 6.98879 11 5.99988C11 4.6738 10.4732 3.40203 9.53554 2.46435C8.59785 1.52666 7.32609 0.999881 6 0.999881Z" fill="#292A2B"/>
<path d="M8 6.49996H6C5.86793 6.49823 5.74175 6.445 5.64836 6.3516C5.55496 6.25821 5.50173 6.13203 5.5 5.99996V2.66663C5.5 2.53402 5.55268 2.40684 5.64645 2.31307C5.74022 2.2193 5.86739 2.16663 6 2.16663C6.13261 2.16663 6.25979 2.2193 6.35355 2.31307C6.44732 2.40684 6.5 2.53402 6.5 2.66663V5.49996H8C8.13261 5.49996 8.25979 5.55264 8.35355 5.64641C8.44732 5.74017 8.5 5.86735 8.5 5.99996C8.5 6.13257 8.44732 6.25974 8.35355 6.35351C8.25979 6.44728 8.13261 6.49996 8 6.49996Z" fill="#292A2B"/>
</svg>