<svg xmlns="http://www.w3.org/2000/svg" width="16" height="16" viewBox="0 0 16 16" fill="none">
<path fill-rule="evenodd" clip-rule="evenodd" d="M14.3653 3.40845C14.5528 3.59597 14.6581 3.85028 14.6581 4.11545C14.6581 4.38061 14.5528 4.63492 14.3653 4.82245L6.86999 12.3178C6.77093 12.4169 6.65333 12.4954 6.5239 12.5491C6.39447 12.6027 6.25575 12.6303 6.11565 12.6303C5.97556 12.6303 5.83683 12.6027 5.7074 12.5491C5.57797 12.4954 5.46037 12.4169 5.36132 12.3178L1.63732 8.59445C1.54181 8.5022 1.46563 8.39185 1.41322 8.26985C1.36081 8.14785 1.33322 8.01663 1.33207 7.88385C1.33092 7.75107 1.35622 7.61939 1.4065 7.49649C1.45678 7.3736 1.53103 7.26194 1.62492 7.16805C1.71882 7.07416 1.83047 6.99991 1.95337 6.94962C2.07626 6.89934 2.20794 6.87404 2.34072 6.8752C2.4735 6.87635 2.60472 6.90394 2.72672 6.95634C2.84873 7.00875 2.95907 7.08494 3.05132 7.18045L6.11532 10.2444L12.9507 3.40845C13.0435 3.31552 13.1538 3.2418 13.2752 3.19151C13.3965 3.14121 13.5266 3.11533 13.658 3.11533C13.7894 3.11533 13.9195 3.14121 14.0408 3.19151C14.1622 3.2418 14.2725 3.31552 14.3653 3.40845Z" fill="#FF6B00"/>
</svg>