<svg xmlns="http://www.w3.org/2000/svg" width="16" height="16" viewBox="0 0 16 16" fill="none">
<path d="M11.332 3.16646H10.4987V2.33313C10.4987 2.20052 10.446 2.07334 10.3523 1.97958C10.2585 1.88581 10.1313 1.83313 9.9987 1.83313C9.86609 1.83313 9.73891 1.88581 9.64515 1.97958C9.55138 2.07334 9.4987 2.20052 9.4987 2.33313V3.16646H6.4987V2.33313C6.4987 2.20052 6.44602 2.07334 6.35225 1.97958C6.25848 1.88581 6.13131 1.83313 5.9987 1.83313C5.86609 1.83313 5.73891 1.88581 5.64515 1.97958C5.55138 2.07334 5.4987 2.20052 5.4987 2.33313V3.16646H4.66536C4.17913 3.16646 3.71282 3.35962 3.369 3.70343C3.02519 4.04725 2.83203 4.51357 2.83203 4.9998V12.3331C2.83203 12.8194 3.02519 13.2857 3.369 13.6295C3.71282 13.9733 4.17913 14.1665 4.66536 14.1665H11.332C11.8183 14.1665 12.2846 13.9733 12.6284 13.6295C12.9722 13.2857 13.1654 12.8194 13.1654 12.3331V4.9998C13.1654 4.51357 12.9722 4.04725 12.6284 3.70343C12.2846 3.35962 11.8183 3.16646 11.332 3.16646ZM4.66536 4.16646H5.4987V4.9998C5.4987 5.1324 5.55138 5.25958 5.64515 5.35335C5.73891 5.44712 5.86609 5.4998 5.9987 5.4998C6.13131 5.4998 6.25848 5.44712 6.35225 5.35335C6.44602 5.25958 6.4987 5.1324 6.4987 4.9998V4.16646H9.4987V4.9998C9.4987 5.1324 9.55138 5.25958 9.64515 5.35335C9.73891 5.44712 9.86609 5.4998 9.9987 5.4998C10.1313 5.4998 10.2585 5.44712 10.3523 5.35335C10.446 5.25958 10.4987 5.1324 10.4987 4.9998V4.16646H11.332C11.553 4.16646 11.765 4.25426 11.9213 4.41054C12.0776 4.56682 12.1654 4.77878 12.1654 4.9998V6.83313H3.83203V4.9998C3.83203 4.77878 3.91983 4.56682 4.07611 4.41054C4.23239 4.25426 4.44435 4.16646 4.66536 4.16646ZM11.332 13.1665H4.66536C4.44435 13.1665 4.23239 13.0787 4.07611 12.9224C3.91983 12.7661 3.83203 12.5541 3.83203 12.3331V7.83313H12.1654V12.3331C12.1654 12.5541 12.0776 12.7661 11.9213 12.9224C11.765 13.0787 11.553 13.1665 11.332 13.1665Z" fill="#A9AFB3"/>
<path d="M9.33464 10.1996H6.66797C6.53536 10.1996 6.40818 10.2523 6.31442 10.346C6.22065 10.4398 6.16797 10.567 6.16797 10.6996C6.16797 10.8322 6.22065 10.9594 6.31442 11.0531C6.40818 11.1469 6.53536 11.1996 6.66797 11.1996H9.33464C9.46724 11.1996 9.59442 11.1469 9.68819 11.0531C9.78196 10.9594 9.83464 10.8322 9.83464 10.6996C9.83464 10.567 9.78196 10.4398 9.68819 10.346C9.59442 10.2523 9.46724 10.1996 9.33464 10.1996Z" fill="#A9AFB3"/>
</svg>