<svg xmlns="http://www.w3.org/2000/svg" width="36" height="36" viewBox="0 0 36 36" fill="none">
<path d="M2.00012 18C2.00012 9.16344 9.16357 2 18.0001 2C26.8367 2 34.0001 9.16344 34.0001 18C34.0001 26.8366 26.8367 34 18.0001 34C9.16357 34 2.00012 26.8366 2.00012 18Z" fill="#0066FF" fill-opacity="0.14"/>
<g filter="url(#filter0_d_3684_1037)">
<path d="M23.5 18C23.5 21.0376 21.0376 23.5 18 23.5C14.9624 23.5 12.5 21.0376 12.5 18C12.5 14.9624 14.9624 12.5 18 12.5C21.0376 12.5 23.5 14.9624 23.5 18Z" fill="#0047FF"/>
</g>
<g filter="url(#filter1_d_3684_1037)">
<path fill-rule="evenodd" clip-rule="evenodd" d="M25.5 18C25.5 22.1421 22.1421 25.5 18 25.5C13.8579 25.5 10.5 22.1421 10.5 18C10.5 13.8579 13.8579 10.5 18 10.5C22.1421 10.5 25.5 13.8579 25.5 18ZM18 23.5C21.0376 23.5 23.5 21.0376 23.5 18C23.5 14.9624 21.0376 12.5 18 12.5C14.9624 12.5 12.5 14.9624 12.5 18C12.5 21.0376 14.9624 23.5 18 23.5Z" fill="white"/>
</g>
<defs>
<filter id="filter0_d_3684_1037" x="8.5" y="8.5" width="19" height="19" filterUnits="userSpaceOnUse" color-interpolation-filters="sRGB">
<feFlood flood-opacity="0" result="BackgroundImageFix"/>
<feColorMatrix in="SourceAlpha" type="matrix" values="0 0 0 0 0 0 0 0 0 0 0 0 0 0 0 0 0 0 127 0" result="hardAlpha"/>
<feOffset/>
<feGaussianBlur stdDeviation="2"/>
<feComposite in2="hardAlpha" operator="out"/>
<feColorMatrix type="matrix" values="0 0 0 0 0 0 0 0 0 0.278431 0 0 0 0 1 0 0 0 0.25 0"/>
<feBlend mode="normal" in2="BackgroundImageFix" result="effect1_dropShadow_3684_1037"/>
<feBlend mode="normal" in="SourceGraphic" in2="effect1_dropShadow_3684_1037" result="shape"/>
</filter>
<filter id="filter1_d_3684_1037" x="6.5" y="6.5" width="23" height="23" filterUnits="userSpaceOnUse" color-interpolation-filters="sRGB">
<feFlood flood-opacity="0" result="BackgroundImageFix"/>
<feColorMatrix in="SourceAlpha" type="matrix" values="0 0 0 0 0 0 0 0 0 0 0 0 0 0 0 0 0 0 127 0" result="hardAlpha"/>
<feOffset/>
<feGaussianBlur stdDeviation="2"/>
<feComposite in2="hardAlpha" operator="out"/>
<feColorMatrix type="matrix" values="0 0 0 0 0 0 0 0 0 0.278431 0 0 0 0 1 0 0 0 0.25 0"/>
<feBlend mode="normal" in2="BackgroundImageFix" result="effect1_dropShadow_3684_1037"/>
<feBlend mode="normal" in="SourceGraphic" in2="effect1_dropShadow_3684_1037" result="shape"/>
</filter>
</defs>
</svg>