<svg width="61" height="60" viewBox="0 0 61 60" fill="none" xmlns="http://www.w3.org/2000/svg">
<rect x="16.6113" y="5" width="27.7778" height="5.55556" fill="#CED3D6"/>
<rect x="16.6113" y="49.4434" width="27.7778" height="5.55556" fill="#CED3D6"/>
<rect x="55.501" y="16.1113" width="27.7778" height="5.55556" transform="rotate(90 55.501 16.1113)" fill="#CED3D6"/>
<rect x="11.0566" y="16.1113" width="27.7778" height="5.55556" transform="rotate(90 11.0566 16.1113)" fill="#CED3D6"/>
<rect x="16.6113" y="10.5566" width="5.55556" height="5.55556" transform="rotate(90 16.6113 10.5566)" fill="#CED3D6"/>
<rect x="49.9424" y="10.5566" width="5.55556" height="5.55556" transform="rotate(90 49.9424 10.5566)" fill="#CED3D6"/>
<rect x="49.9424" y="43.8887" width="5.55556" height="5.55556" transform="rotate(90 49.9424 43.8887)" fill="#CED3D6"/>
<rect x="16.6113" y="43.8887" width="5.55556" height="5.55556" transform="rotate(90 16.6113 43.8887)" fill="#CED3D6"/>
<rect x="33.2783" y="35.5566" width="5.55556" height="5.55556" transform="rotate(90 33.2783 35.5566)" fill="#CED3D6"/>
<rect x="33.2783" y="18.8887" width="13.8889" height="5.55556" transform="rotate(90 33.2783 18.8887)" fill="#CED3D6"/>
</svg>
