<svg xmlns="http://www.w3.org/2000/svg" width="21" height="21" viewBox="0 0 21 21" fill="none">
<path d="M12.1666 14.8824C12.0845 14.8828 12.0031 14.8667 11.9273 14.8353C11.8514 14.8038 11.7826 14.7575 11.7249 14.699L7.55827 10.5324C7.44123 10.4152 7.37549 10.2563 7.37549 10.0907C7.37549 9.92509 7.44123 9.76623 7.55827 9.64905L11.7249 5.48238C11.8434 5.37198 12.0001 5.31188 12.162 5.31473C12.324 5.31759 12.4784 5.38318 12.593 5.49769C12.7075 5.61221 12.7731 5.76669 12.7759 5.92861C12.7788 6.09053 12.7187 6.24723 12.6083 6.36571L8.88327 10.0907L12.6083 13.8157C12.7253 13.9329 12.7911 14.0918 12.7911 14.2574C12.7911 14.423 12.7253 14.5819 12.6083 14.699C12.5506 14.7575 12.4818 14.8038 12.4059 14.8353C12.3301 14.8667 12.2487 14.8828 12.1666 14.8824Z" fill="#4D5256"/>
</svg>