<svg xmlns="http://www.w3.org/2000/svg" width="21" height="21" viewBox="0 0 21 21" fill="currentColor">
<path d="M8.8334 14.8824C8.91551 14.8828 8.99688 14.8667 9.07272 14.8353C9.14857 14.8038 9.21736 14.7575 9.27506 14.699L13.4417 10.5324C13.5588 10.4152 13.6245 10.2563 13.6245 10.0907C13.6245 9.92509 13.5588 9.76623 13.4417 9.64905L9.27506 5.48238C9.15658 5.37198 8.99988 5.31188 8.83796 5.31473C8.67604 5.31759 8.52155 5.38318 8.40704 5.49769C8.29253 5.61221 8.22694 5.76669 8.22408 5.92861C8.22123 6.09053 8.28133 6.24723 8.39173 6.36571L12.1167 10.0907L8.39173 13.8157C8.27469 13.9329 8.20894 14.0918 8.20894 14.2574C8.20894 14.423 8.27469 14.5819 8.39173 14.699C8.44943 14.7575 8.51822 14.8038 8.59407 14.8353C8.66991 14.8667 8.75128 14.8828 8.8334 14.8824Z" fill="currentColor"/>
</svg>