<svg width="16" height="16" viewBox="0 0 16 16" fill="none" xmlns="http://www.w3.org/2000/svg">
<path d="M12.2664 13.8333H12.1131C10.3856 13.6454 8.72592 13.0564 7.26641 12.1133C5.91052 11.2498 4.75932 10.1008 3.89307 8.74667C2.94784 7.28334 2.35875 5.61882 2.17307 3.88667C2.15184 3.68007 2.1728 3.47131 2.23469 3.27305C2.29657 3.0748 2.39808 2.89118 2.53307 2.73334C2.66436 2.57339 2.82642 2.44141 3.00964 2.34522C3.19286 2.24902 3.39352 2.19058 3.59974 2.17334H5.33307C5.70848 2.17372 6.07138 2.30832 6.35624 2.55283C6.6411 2.79735 6.82914 3.13566 6.88641 3.50667C6.9497 3.98326 7.06828 4.45085 7.23974 4.90001C7.34403 5.18226 7.36556 5.48843 7.30178 5.7825C7.23801 6.07657 7.09159 6.34631 6.87974 6.56001L6.47307 6.96667C7.11335 7.97748 7.97221 8.83178 8.98641 9.46667L9.39307 9.06667C9.60677 8.85483 9.87651 8.7084 10.1706 8.64463C10.4647 8.58085 10.7708 8.60238 11.0531 8.70667C11.5027 8.87656 11.9701 8.99509 12.4464 9.06001C12.8238 9.11673 13.1674 9.30923 13.4129 9.60136C13.6584 9.8935 13.7888 10.2652 13.7797 10.6467V12.2467C13.7797 12.6628 13.6149 13.062 13.3213 13.3568C13.0277 13.6517 12.6292 13.8182 12.2131 13.82L12.2664 13.8333ZM5.33307 3.16667H3.73974C3.6615 3.17185 3.58513 3.19283 3.51523 3.22835C3.44534 3.26387 3.38337 3.31319 3.33307 3.37334C3.28412 3.42968 3.24707 3.49535 3.22416 3.56638C3.20124 3.63741 3.19294 3.71235 3.19974 3.78667C3.3614 5.35786 3.88882 6.86934 4.73974 8.20001C5.52416 9.43113 6.56862 10.4756 7.79974 11.26C9.13124 12.1199 10.6444 12.6585 12.2197 12.8333C12.3017 12.838 12.3837 12.8255 12.4605 12.7968C12.5374 12.7682 12.6075 12.7238 12.6664 12.6667C12.7726 12.5578 12.8323 12.412 12.8331 12.26V10.6667C12.8361 10.5264 12.7875 10.3898 12.6966 10.283C12.6057 10.1761 12.4787 10.1062 12.3397 10.0867C11.789 10.0126 11.248 9.87849 10.7264 9.68667C10.6237 9.64825 10.5121 9.63976 10.4047 9.66218C10.2974 9.6846 10.1985 9.73702 10.1197 9.81334L9.45307 10.48C9.37499 10.5561 9.27443 10.605 9.16633 10.6195C9.05824 10.6339 8.94837 10.613 8.85307 10.56C7.43052 9.75615 6.25305 8.58098 5.44641 7.16001C5.39119 7.06532 5.36908 6.95494 5.38357 6.8463C5.39806 6.73765 5.44831 6.63692 5.52641 6.56001L6.19307 5.89334C6.26952 5.81602 6.32212 5.71834 6.34458 5.61195C6.36704 5.50557 6.35842 5.39496 6.31974 5.29334C6.1272 4.772 5.99305 4.23091 5.91974 3.68001C5.9032 3.53685 5.83396 3.40498 5.7255 3.31008C5.61705 3.21519 5.47716 3.16406 5.33307 3.16667Z" fill="#292A2B"/>
</svg>
