<svg width="16" height="16" viewBox="0 0 16 16" fill="none" xmlns="http://www.w3.org/2000/svg">
<path d="M12.666 3.5H3.33268C3.0238 3.50175 2.72807 3.62523 2.50966 3.84364C2.29124 4.06206 2.16777 4.35779 2.16602 4.66667V11.3333C2.16777 11.6422 2.29124 11.9379 2.50966 12.1564C2.72807 12.3748 3.0238 12.4983 3.33268 12.5H12.666C12.9749 12.4983 13.2706 12.3748 13.489 12.1564C13.7075 11.9379 13.8309 11.6422 13.8327 11.3333V4.66667C13.8309 4.35779 13.7075 4.06206 13.489 3.84364C13.2706 3.62523 12.9749 3.50175 12.666 3.5ZM3.33268 4.5H12.666C12.7102 4.5 12.7526 4.51756 12.7839 4.54882C12.8151 4.58007 12.8327 4.62246 12.8327 4.66667V6.16667H3.16602V4.66667C3.16602 4.62246 3.18358 4.58007 3.21483 4.54882C3.24609 4.51756 3.28848 4.5 3.33268 4.5ZM12.666 11.5H3.33268C3.28848 11.5 3.24609 11.4824 3.21483 11.4512C3.18358 11.4199 3.16602 11.3775 3.16602 11.3333V7.16667H12.8327V11.3333C12.8327 11.3775 12.8151 11.4199 12.7839 11.4512C12.7526 11.4824 12.7102 11.5 12.666 11.5Z" fill="#292A2B"/>
<path d="M6 8.6665H4.66667C4.48986 8.6665 4.32029 8.73674 4.19526 8.86177C4.07024 8.98679 4 9.15636 4 9.33317C4 9.50998 4.07024 9.67955 4.19526 9.80457C4.32029 9.9296 4.48986 9.99984 4.66667 9.99984H6C6.17681 9.99984 6.34638 9.9296 6.4714 9.80457C6.59643 9.67955 6.66667 9.50998 6.66667 9.33317C6.66667 9.15636 6.59643 8.98679 6.4714 8.86177C6.34638 8.73674 6.17681 8.6665 6 8.6665Z" fill="#292A2B"/>
</svg>
