<svg xmlns="http://www.w3.org/2000/svg" width="18" height="18" viewBox="0 0 18 18" fill="none">
<path d="M7.87508 6.18773C7.73258 6.18773 7.59008 6.13523 7.47758 6.02273L6.00008 4.54523L4.52258 6.02273C4.30508 6.24023 3.94508 6.24023 3.72758 6.02273C3.51008 5.80523 3.51008 5.44523 3.72758 5.22773L5.60258 3.35273C5.82008 3.13523 6.18008 3.13523 6.39758 3.35273L8.27258 5.22773C8.49008 5.44523 8.49008 5.80523 8.27258 6.02273C8.16008 6.13523 8.01758 6.18773 7.87508 6.18773Z" fill="#4D5256"/>
<path d="M6 14.8124C5.6925 14.8124 5.4375 14.5574 5.4375 14.2499V3.74991C5.4375 3.44241 5.6925 3.18741 6 3.18741C6.3075 3.18741 6.5625 3.44241 6.5625 3.74991V14.2499C6.5625 14.5574 6.3075 14.8124 6 14.8124Z" fill="#4D5256"/>
<path d="M12.0001 14.8127C11.8576 14.8127 11.7151 14.7602 11.6026 14.6477L9.72758 12.7727C9.51008 12.5552 9.51008 12.1952 9.72758 11.9777C9.94508 11.7602 10.3051 11.7602 10.5226 11.9777L12.0001 13.4552L13.4776 11.9777C13.6951 11.7602 14.0551 11.7602 14.2726 11.9777C14.4901 12.1952 14.4901 12.5552 14.2726 12.7727L12.3976 14.6477C12.2851 14.7602 12.1426 14.8127 12.0001 14.8127Z" fill="#4D5256"/>
<path d="M12 14.8124C11.6925 14.8124 11.4375 14.5574 11.4375 14.2499V3.74991C11.4375 3.44241 11.6925 3.18741 12 3.18741C12.3075 3.18741 12.5625 3.44241 12.5625 3.74991V14.2499C12.5625 14.5574 12.3075 14.8124 12 14.8124Z" fill="#4D5256"/>
</svg>