<svg width="10" height="6" viewBox="0 0 10 6" fill="none" xmlns="http://www.w3.org/2000/svg">
<path d="M5.00056 5.70806C4.91844 5.70845 4.83707 5.69243 4.76123 5.66095C4.68539 5.62947 4.61659 5.58315 4.55889 5.52473L0.392223 1.35806C0.309119 1.23648 0.271617 1.08946 0.286332 0.942925C0.301046 0.796392 0.367032 0.659762 0.472651 0.557133C0.57827 0.454503 0.716737 0.392466 0.863632 0.381963C1.01053 0.371461 1.15641 0.413167 1.27556 0.499727L5.00056 4.19973L8.72556 0.499727C8.84302 0.423568 8.98265 0.38905 9.12207 0.401707C9.26149 0.414363 9.39263 0.47346 9.49446 0.569526C9.59629 0.665592 9.66292 0.793064 9.68367 0.931511C9.70441 1.06996 9.67808 1.21136 9.60889 1.33306L5.44222 5.49973C5.38667 5.56269 5.31884 5.61365 5.24289 5.64948C5.16694 5.6853 5.08448 5.70524 5.00056 5.70806Z" fill="white"/>
</svg>
