<svg xmlns="http://www.w3.org/2000/svg" width="30" height="31" viewBox="0 0 30 31" fill="currentColor">
<path d="M15 26.75C12.775 26.75 10.5999 26.0902 8.74984 24.854C6.89979 23.6179 5.45785 21.8609 4.60636 19.8052C3.75487 17.7495 3.53209 15.4875 3.96617 13.3052C4.40025 11.123 5.47171 9.11839 7.04505 7.54505C8.61839 5.97171 10.623 4.90025 12.8052 4.46617C14.9875 4.03209 17.2495 4.25487 19.3052 5.10636C21.3609 5.95785 23.1179 7.39979 24.354 9.24984C25.5902 11.0999 26.25 13.275 26.25 15.5C26.25 18.4837 25.0647 21.3452 22.955 23.455C20.8452 25.5647 17.9837 26.75 15 26.75ZM15 6.12501C13.1458 6.12501 11.3332 6.67484 9.79153 7.70498C8.24982 8.73512 7.04821 10.1993 6.33863 11.9123C5.62906 13.6254 5.44341 15.5104 5.80514 17.329C6.16688 19.1475 7.05976 20.818 8.37088 22.1291C9.682 23.4402 11.3525 24.3331 13.171 24.6949C14.9896 25.0566 16.8746 24.8709 18.5877 24.1614C20.3007 23.4518 21.7649 22.2502 22.795 20.7085C23.8252 19.1668 24.375 17.3542 24.375 15.5C24.375 13.0136 23.3873 10.629 21.6291 8.87088C19.871 7.11273 17.4864 6.12501 15 6.12501Z" fill="currentColor"/>
<path d="M15 21.4375C14.7524 21.4343 14.5158 21.3344 14.3407 21.1593C14.1655 20.9842 14.0657 20.7476 14.0625 20.5V10.5C14.0625 10.2514 14.1613 10.0129 14.3371 9.83709C14.5129 9.66127 14.7514 9.5625 15 9.5625C15.2486 9.5625 15.4871 9.66127 15.6629 9.83709C15.8387 10.0129 15.9375 10.2514 15.9375 10.5V20.5C15.9343 20.7476 15.8345 20.9842 15.6593 21.1593C15.4842 21.3344 15.2476 21.4343 15 21.4375Z" fill="currentColor"/>
<path d="M20 16.4375H10C9.75136 16.4375 9.5129 16.3387 9.33709 16.1629C9.16127 15.9871 9.0625 15.7486 9.0625 15.5C9.0625 15.2514 9.16127 15.0129 9.33709 14.8371C9.5129 14.6613 9.75136 14.5625 10 14.5625H20C20.2486 14.5625 20.4871 14.6613 20.6629 14.8371C20.8387 15.0129 20.9375 15.2514 20.9375 15.5C20.9375 15.7486 20.8387 15.9871 20.6629 16.1629C20.4871 16.3387 20.2486 16.4375 20 16.4375Z" fill="currentColor"/>
</svg>