<svg width="20" height="20" viewBox="0 0 20 20" fill="none" xmlns="http://www.w3.org/2000/svg">
<path d="M14.167 3.95817H13.1253V2.9165C13.1253 2.75074 13.0595 2.59177 12.9423 2.47456C12.8251 2.35735 12.6661 2.2915 12.5003 2.2915C12.3346 2.2915 12.1756 2.35735 12.0584 2.47456C11.9412 2.59177 11.8753 2.75074 11.8753 2.9165V3.95817H8.12533V2.9165C8.12533 2.75074 8.05948 2.59177 7.94227 2.47456C7.82506 2.35735 7.66609 2.2915 7.50033 2.2915C7.33457 2.2915 7.17559 2.35735 7.05838 2.47456C6.94117 2.59177 6.87533 2.75074 6.87533 2.9165V3.95817H5.83366C5.22587 3.95817 4.64298 4.19961 4.21321 4.62938C3.78343 5.05915 3.54199 5.64205 3.54199 6.24984V15.4165C3.54199 16.0243 3.78343 16.6072 4.21321 17.037C4.64298 17.4667 5.22587 17.7082 5.83366 17.7082H14.167C14.7748 17.7082 15.3577 17.4667 15.7874 17.037C16.2172 16.6072 16.4587 16.0243 16.4587 15.4165V6.24984C16.4587 5.64205 16.2172 5.05915 15.7874 4.62938C15.3577 4.19961 14.7748 3.95817 14.167 3.95817ZM5.83366 5.20817H6.87533V6.24984C6.87533 6.4156 6.94117 6.57457 7.05838 6.69178C7.17559 6.80899 7.33457 6.87484 7.50033 6.87484C7.66609 6.87484 7.82506 6.80899 7.94227 6.69178C8.05948 6.57457 8.12533 6.4156 8.12533 6.24984V5.20817H11.8753V6.24984C11.8753 6.4156 11.9412 6.57457 12.0584 6.69178C12.1756 6.80899 12.3346 6.87484 12.5003 6.87484C12.6661 6.87484 12.8251 6.80899 12.9423 6.69178C13.0595 6.57457 13.1253 6.4156 13.1253 6.24984V5.20817H14.167C14.4433 5.20817 14.7082 5.31792 14.9036 5.51327C15.0989 5.70862 15.2087 5.97357 15.2087 6.24984V8.5415H4.79199V6.24984C4.79199 5.97357 4.90174 5.70862 5.09709 5.51327C5.29244 5.31792 5.55739 5.20817 5.83366 5.20817ZM14.167 16.4582H5.83366C5.55739 16.4582 5.29244 16.3484 5.09709 16.1531C4.90174 15.9577 4.79199 15.6928 4.79199 15.4165V9.7915H15.2087V15.4165C15.2087 15.6928 15.0989 15.9577 14.9036 16.1531C14.7082 16.3484 14.4433 16.4582 14.167 16.4582Z" fill="#292A2B"/>
<path d="M11.6673 12.7495H8.33398C8.16822 12.7495 8.00925 12.8154 7.89204 12.9326C7.77483 13.0498 7.70898 13.2088 7.70898 13.3745C7.70898 13.5403 7.77483 13.6992 7.89204 13.8165C8.00925 13.9337 8.16822 13.9995 8.33398 13.9995H11.6673C11.8331 13.9995 11.992 13.9337 12.1093 13.8165C12.2265 13.6992 12.2923 13.5403 12.2923 13.3745C12.2923 13.2088 12.2265 13.0498 12.1093 12.9326C11.992 12.8154 11.8331 12.7495 11.6673 12.7495Z" fill="#292A2B"/>
</svg>
