<svg xmlns="http://www.w3.org/2000/svg" width="32" height="32" viewBox="0 0 32 32" fill="none">
<rect width="32" height="32" rx="16" fill="#F5F6F7"/>
<path fill-rule="evenodd" clip-rule="evenodd" d="M19.0936 9.62549C18.5435 9.62549 17.9988 9.73387 17.4906 9.94443C16.9825 10.155 16.5207 10.4637 16.1319 10.8527L15.9998 10.9847L15.8677 10.8525C15.0822 10.0671 14.0169 9.62582 12.9061 9.62582C11.7953 9.62582 10.73 10.0671 9.9445 10.8525C9.15904 11.638 8.71777 12.7033 8.71777 13.8141C8.71777 14.9249 9.15904 15.9902 9.9445 16.7757L15.4695 22.3007C15.6102 22.4414 15.8009 22.5204 15.9998 22.5204C16.1987 22.5204 16.3895 22.4414 16.5302 22.3007L22.0552 16.7757C22.4442 16.3869 22.7527 15.9252 22.9633 15.4171C23.1738 14.9089 23.2822 14.3642 23.2822 13.8141C23.2822 13.2641 23.1738 12.7194 22.9633 12.2112C22.7528 11.7031 22.444 11.2412 22.055 10.8524C21.6662 10.4635 21.2046 10.155 20.6965 9.94443C20.1883 9.73387 19.6437 9.62549 19.0936 9.62549Z" fill="#FF6B00"/>
</svg>