<svg xmlns="http://www.w3.org/2000/svg" width="16" height="17" viewBox="0 0 16 17" fill="none">
<path d="M14.0808 6.67714C14.0529 6.58856 14.0005 6.50966 13.9298 6.44951C13.859 6.38936 13.7727 6.35041 13.6808 6.33714L10.0675 5.81047L8.44747 2.53714C8.40137 2.45979 8.33596 2.39573 8.25766 2.35125C8.17936 2.30677 8.09086 2.28339 8.00081 2.28339C7.91076 2.28339 7.82225 2.30677 7.74395 2.35125C7.66565 2.39573 7.60025 2.45979 7.55414 2.53714L5.93414 5.81047L2.32081 6.33714C2.22889 6.35041 2.14259 6.38936 2.07183 6.44951C2.00106 6.50966 1.94872 6.58856 1.92081 6.67714C1.89101 6.76539 1.88646 6.8602 1.90766 6.9509C1.92886 7.0416 1.97498 7.12457 2.04081 7.19047L4.66747 9.73714L4.04747 13.3371C4.03176 13.4298 4.04214 13.5251 4.07746 13.6122C4.11278 13.6993 4.17165 13.7749 4.24747 13.8305C4.32342 13.8846 4.41298 13.9164 4.50605 13.9223C4.59912 13.9282 4.69198 13.9079 4.77414 13.8638L8.00081 12.1638L11.2341 13.8638C11.3057 13.903 11.3859 13.9237 11.4675 13.9238C11.5724 13.9226 11.6745 13.8901 11.7608 13.8305C11.8366 13.7749 11.8955 13.6993 11.9308 13.6122C11.9661 13.5251 11.9765 13.4298 11.9608 13.3371L11.3341 9.73714L13.9541 7.19047C14.0211 7.12529 14.0685 7.04265 14.0909 6.95192C14.1133 6.86118 14.1098 6.76599 14.0808 6.67714Z" fill="#FF6B00"/>
</svg>