<svg xmlns="http://www.w3.org/2000/svg" width="32" height="32" viewBox="0 0 32 33" fill="none">
<rect y="0.0908203" width="32" height="32" rx="16" fill="#F5F6F7"/>
<path fill-rule="evenodd" clip-rule="evenodd" d="M17.4916 10.0355C17.9998 9.82493 18.5445 9.71655 19.0946 9.71655C19.6446 9.71655 20.1893 9.82493 20.6975 10.0355C21.2056 10.246 21.6672 10.5546 22.056 10.9435C22.4449 11.3323 22.7537 11.7942 22.9643 12.3023C23.1748 12.8104 23.2832 13.3551 23.2832 13.9052C23.2832 14.4553 23.1748 15 22.9643 15.5081C22.7537 16.0163 22.4451 16.4779 22.0561 16.8668C22.0561 16.8668 22.0562 16.8667 22.0561 16.8668L16.5311 22.3918C16.3905 22.5324 16.1997 22.6114 16.0008 22.6114C15.8019 22.6114 15.6111 22.5324 15.4705 22.3918L9.94548 16.8668C9.16002 16.0813 8.71875 15.016 8.71875 13.9052C8.71875 12.7944 9.16002 11.7291 9.94548 10.9436C10.7309 10.1582 11.7962 9.71689 12.9071 9.71689C14.0179 9.71689 15.0832 10.1582 15.8686 10.9436L16.0008 11.0758L16.1329 10.9437C16.1328 10.9438 16.1329 10.9437 16.1329 10.9437C16.5217 10.5547 16.9835 10.246 17.4916 10.0355ZM19.0946 11.2166C18.7415 11.2166 18.3919 11.2861 18.0658 11.4212C17.7397 11.5564 17.4433 11.7545 17.1938 12.0041L16.5311 12.6668C16.2382 12.9597 15.7634 12.9597 15.4705 12.6668L14.808 12.0043C14.3038 11.5001 13.62 11.2169 12.9071 11.2169C12.1941 11.2169 11.5103 11.5001 11.0061 12.0043C10.502 12.5084 10.2188 13.1922 10.2188 13.9052C10.2188 14.6182 10.502 15.302 11.0061 15.8061L16.0008 20.8008L20.9955 15.8061C21.2452 15.5565 21.4434 15.2601 21.5785 14.9339C21.7136 14.6078 21.7832 14.2582 21.7832 13.9052C21.7832 13.5522 21.7136 13.2026 21.5785 12.8764C21.4434 12.5503 21.2453 12.254 20.9956 12.0044C20.746 11.7547 20.4495 11.5564 20.1233 11.4212C19.7972 11.2861 19.4476 11.2166 19.0946 11.2166Z" fill="#CED3D6"/>
</svg>