<svg xmlns="http://www.w3.org/2000/svg" width="33" height="25" viewBox="0 0 33 25" fill="none">
<rect width="33" height="25" rx="6" fill="#292A2B"/>
<path d="M14.6367 7.46094V9.92188H16.1719V10.8359H14.6367V13.2383H13.5234V7.46094H14.6367ZM14.6367 13.7305V16.168H8.96484V17.0469H15V17.8906H7.875V15.3828H13.5352V14.5625H7.85156V13.7305H14.6367ZM12.6562 8.38672V9.26562H6.39844V8.38672H8.97656V7.40234H10.0898V8.38672H12.6562ZM9.52734 9.66406C11.0625 9.66406 12.0703 10.3203 12.0703 11.3867C12.0703 12.4531 11.0625 13.0977 9.52734 13.0977C7.98047 13.0977 6.97266 12.4531 6.97266 11.3867C6.97266 10.3203 7.98047 9.66406 9.52734 9.66406ZM9.52734 10.4609C8.625 10.4609 8.03906 10.8242 8.05078 11.3867C8.03906 11.9492 8.625 12.2891 9.52734 12.2891C10.4297 12.2891 11.0156 11.9492 11.0273 11.3867C11.0156 10.8242 10.4297 10.4609 9.52734 10.4609ZM25.2248 7.50781V15.1367H24.1116V7.50781H25.2248ZM25.5413 16.8711V17.7734H18.3577V14.3633H19.4827V16.8711H25.5413ZM19.5295 8.21094C21.1116 8.21094 22.3186 9.28906 22.3186 10.8125C22.3186 12.3594 21.1116 13.4258 19.5295 13.4258C17.9475 13.4258 16.7288 12.3594 16.7288 10.8125C16.7288 9.28906 17.9475 8.21094 19.5295 8.21094ZM19.5295 9.18359C18.5452 9.18359 17.8186 9.85156 17.8186 10.8125C17.8186 11.7969 18.5452 12.4531 19.5295 12.4531C20.4905 12.4531 21.2288 11.7969 21.2288 10.8125C21.2288 9.85156 20.4905 9.18359 19.5295 9.18359Z" fill="#30FF6B"/>
</svg>