<svg xmlns="http://www.w3.org/2000/svg" viewBox="0 0 320 241" fill="none">
<rect width="320" height="240" rx="10" transform="matrix(-1 0 0 1 320 0.0908203)" fill="#F8F9FA"/>
<path d="M173.923 82.0908H146.091V94.3442H173.923V82.0908Z" fill="#CED3D6"/>
<path d="M120 106.59V134.591H132.172V106.59H120Z" fill="#CED3D6"/>
<path d="M187.828 106.59V134.591H200V106.59H187.828Z" fill="#CED3D6"/>
<path d="M187.828 94.3442H173.916V106.598H187.828V94.3442Z" fill="#CED3D6"/>
<path d="M146.084 94.3442H132.172V106.598H146.084V94.3442Z" fill="#CED3D6"/>
<path d="M146.084 159.091H173.916V146.837H146.084V159.091Z" fill="#CED3D6"/>
<path d="M132.178 146.837H146.091V134.584H132.178V146.837Z" fill="#CED3D6"/>
<path d="M173.923 146.837H187.836V134.584H173.923V146.837Z" fill="#CED3D6"/>
<path d="M154.781 103.088V125.84H165.219V103.088H154.781Z" fill="#CED3D6"/>
<path d="M142.617 125.84H165.227V115.341H142.617V125.84Z" fill="#CED3D6"/>
</svg>