<svg xmlns="http://www.w3.org/2000/svg" width="320" height="200" viewBox="0 0 320 200" fill="none">
<g clip-path="url(#clip0_1407_805)">
<rect width="320" height="200" rx="10" fill="url(#paint0_linear_1407_805)"/>
<path d="M275.234 -4H209.632V24.8987H275.234V-4Z" fill="#FFEBC6"/>
<path d="M148.134 53.7802V119.819H176.823V53.7802H148.134Z" fill="#FFEBC6"/>
<path d="M308.01 53.7802V119.819H336.699V53.7802H308.01Z" fill="#FFEBC6"/>
<path d="M308.011 24.8987H275.219V53.7974H308.011V24.8987Z" fill="#FFEBC6"/>
<path d="M209.615 24.8987H176.822V53.7974H209.615V24.8987Z" fill="#FFEBC6"/>
<path d="M209.616 177.599H275.219V148.7H209.616V177.599Z" fill="#FFEBC6"/>
<path d="M176.839 148.701H209.632V119.802H176.839V148.701Z" fill="#FFEBC6"/>
<path d="M275.236 148.701H308.029V119.802H275.236V148.701Z" fill="#FFEBC6"/>
<path d="M230.116 45.52V99.179H254.719V45.52H230.116Z" fill="#FFEBC6"/>
<path d="M201.443 99.179H254.735V74.4187H201.443V99.179Z" fill="#FFEBC6"/>
<path d="M147.759 120.074H82.1567V148.972H147.759V120.074Z" fill="#FFEBC6"/>
<path d="M20.6787 177.854L20.6787 243.893H49.3678V177.854H20.6787Z" fill="#FFEBC6"/>
<path d="M180.535 177.854V243.893H209.224V177.854H180.535Z" fill="#FFEBC6"/>
<path d="M180.536 148.972H147.743V177.871H180.536V148.972Z" fill="#FFEBC6"/>
<path d="M82.1397 148.972H49.3472V177.871H82.1397V148.972Z" fill="#FFEBC6"/>
<path d="M102.64 169.594V223.253H127.243V169.594H102.64Z" fill="#FFEBC6"/>
<path d="M73.968 223.253H127.26V198.492H73.968V223.253Z" fill="#FFEBC6"/>
<g filter="url(#filter0_b_1407_805)">
<rect x="-26.1382" y="-8.31592" width="352.485" height="218.517" fill="white" fill-opacity="0.03"/>
</g>
<path d="M37.4043 33.0449V34.6445H31.375V37.4746H36.7715V39.0215H31.375V42.291C33.9766 42.2822 35.9629 42.1855 38.248 41.8164L38.4414 43.3984C35.9365 43.7939 33.7041 43.873 30.7773 43.873H29.4414V33.0449H37.4043ZM39.8301 47.5645V31.6738H41.7988V47.5645H39.8301ZM56.3627 33.2207V35.0137C56.3627 37.1406 56.3627 39.3291 55.7826 42.6777L53.7963 42.502C54.4115 39.3818 54.4115 37.0791 54.4115 35.0137V34.8027H45.2533V33.2207H56.3627ZM43.724 45.3848V43.7852H58.2084V45.3848H43.724ZM72.6316 31.6738V47.5645H70.7507V31.6738H72.6316ZM59.0788 38.5469C59.0788 35.0488 60.4323 32.8779 62.5066 32.8867C64.4314 32.8779 65.7409 34.6797 65.9695 37.6504H67.4988V31.9551H69.362V46.791H67.4988V39.2324H65.987C65.8025 42.335 64.4753 44.2334 62.5066 44.2246C60.4323 44.2334 59.0788 42.0537 59.0788 38.5469ZM60.8894 38.5469C60.8806 41.0342 61.4958 42.3701 62.5066 42.3613C63.5613 42.3701 64.1853 41.0342 64.1941 38.5469C64.1853 36.0684 63.5613 34.7236 62.5066 34.7324C61.4958 34.7236 60.8806 36.0684 60.8894 38.5469ZM79.9884 35.4883C79.9796 38.4414 81.3946 41.3418 83.9259 42.4492L82.7481 44.0137C80.9552 43.1348 79.6895 41.4473 79.0128 39.3643C78.3184 41.5615 77.0177 43.3896 75.1895 44.3125L73.9591 42.7305C76.5518 41.5176 77.9932 38.459 78.002 35.4883V32.957H79.9884V35.4883ZM82.168 38.3887V36.8066H85.5079V31.6738H87.4415V47.582H85.5079V38.3887H82.168ZM32.8691 57.834C34.3018 57.834 35.4883 58.6338 36.2002 60.0312H39.918V56.6738H41.8516V72.582H39.918V66.5703H36.3408C35.6465 68.1523 34.3984 69.0664 32.8691 69.0664C30.4785 69.0664 28.7822 66.8955 28.791 63.4414C28.7822 60.0137 30.4785 57.834 32.8691 57.834ZM30.6719 63.4414C30.6631 65.8848 31.5596 67.2998 32.8691 67.3086C34.1875 67.2998 35.0752 65.8848 35.084 63.4414C35.0752 61.0156 34.1875 59.5918 32.8691 59.5918C31.5596 59.5918 30.6631 61.0156 30.6719 63.4414ZM36.7539 61.6309C36.8682 62.1846 36.9297 62.791 36.9297 63.4414C36.9297 63.9863 36.8857 64.5049 36.7979 64.9883H39.918V61.6309H36.7539ZM56.1693 56.6738V62.8789H58.5248V64.5137H56.1693V72.5293H54.2181V56.6738H56.1693ZM43.6361 68.1875C47.5033 66.2539 49.5951 63.5645 49.9818 59.9434H44.4974V58.3262H51.9681C51.9593 62.9932 50.0257 67.0977 44.7435 69.6992L43.6361 68.1875ZM68.8438 60.4883C68.8262 63.4062 70.3643 66.3242 72.9395 67.4316L71.7794 68.9961C69.9512 68.1523 68.6153 66.4736 67.877 64.3994C67.1475 66.6318 65.7764 68.46 63.8516 69.3652L62.6563 67.7305C65.3018 66.5879 66.8487 63.5557 66.8575 60.4883V57.957H68.8438V60.4883ZM74.0821 72.582V56.6738H76.0509V72.582H74.0821ZM90.562 56.6738V61.2441H92.7768V62.8789H90.562V68.1348H88.5756V56.6738H90.562ZM77.976 64.9355C81.6147 63.8809 83.768 61.9033 84.102 59.4863H78.644V57.8867H86.2377C86.2465 62.1055 83.4868 65.1201 78.7846 66.4824L77.976 64.9355ZM80.3491 72.248V66.957H82.3354V70.666H91.1596V72.248H80.3491ZM100.45 56.9199C104.071 56.9287 106.172 57.8867 106.18 59.6445C106.172 61.4199 104.071 62.3779 100.45 62.3867C96.8377 62.3779 94.7195 61.4199 94.7195 59.6445C94.7195 57.8867 96.8377 56.9287 100.45 56.9199ZM93.2254 64.7949V63.2305H107.71V64.7949H93.2254ZM94.9305 67.3086V65.8672H105.899V69.752H96.8641V70.9297H106.339V72.4238H94.948V68.3633H103.983V67.3086H94.9305ZM96.7762 59.6445C96.7674 60.5234 98.033 60.9277 100.45 60.9277C102.902 60.9277 104.159 60.5234 104.159 59.6445C104.159 58.8271 102.902 58.3613 100.45 58.3613C98.033 58.3613 96.7674 58.8271 96.7762 59.6445ZM43.0117 89.9531V91.5352H28.5273V89.9531H34.7676V88.5469C31.8584 88.3359 30.0215 87.1758 30.0215 85.3301C30.0215 83.335 32.2803 82.1133 35.752 82.1133C39.2148 82.1133 41.4736 83.335 41.4824 85.3301C41.4736 87.1758 39.6367 88.3359 36.7363 88.5469V89.9531H43.0117ZM30.3203 97.248V92.625H32.2715V95.666H41.377V97.248H30.3203ZM32.0605 85.3301C32.043 86.4287 33.4404 87.0088 35.752 87C38.0723 87.0088 39.4609 86.4287 39.4609 85.3301C39.4609 84.2842 38.0723 83.6689 35.752 83.6602C33.4404 83.6689 32.043 84.2842 32.0605 85.3301ZM57.0306 81.6914V93.293H55.0795V87.4746H52.267V85.8926H55.0795V81.6914H57.0306ZM43.6888 89.8652C46.2201 89.0303 47.5736 86.9561 47.5736 84.8379V84.416H44.2689V82.834H52.847V84.416H49.5599V84.8555C49.5599 86.7627 50.8431 88.7402 53.3041 89.5488L52.3197 91.1133C50.5443 90.5068 49.2875 89.2939 48.5931 87.791C47.8988 89.4609 46.5716 90.7969 44.6908 91.4473L43.6888 89.8652ZM46.6068 97.248V92.2734H48.558V95.666H57.4349V97.248H46.6068ZM72.1394 81.6738V97.5645H70.1706V81.6738H72.1394ZM59.2546 85.6992V84.1348H63.0339V81.8672H65.0202V84.1348H68.782V85.6992H59.2546ZM60.0105 90.4629C60.0105 88.2656 61.7155 86.71 64.0534 86.7188C66.3825 86.71 68.0964 88.2656 68.0964 90.4629C68.0964 92.6514 66.3825 94.1895 64.0534 94.1895C61.7155 94.1895 60.0105 92.6514 60.0105 90.4629ZM61.8738 90.4629C61.8738 91.7549 62.779 92.5811 64.0534 92.5723C65.3191 92.5811 66.2243 91.7549 66.2155 90.4629C66.2243 89.1709 65.3191 88.3184 64.0534 88.3184C62.779 88.3184 61.8738 89.1709 61.8738 90.4629ZM92.5131 88.2305V89.7949H78.0288V88.2305H92.5131ZM78.7319 86.1738C81.6938 85.9805 83.6186 84.9346 84.0317 83.7656H79.3471V82.2188H91.2123V83.7656H86.4838C86.8793 84.9434 88.8305 85.9805 91.8276 86.1738L91.2123 87.6855C88.3647 87.4482 86.2114 86.4902 85.2534 85.0752C84.2954 86.4902 82.1684 87.4482 79.3471 87.6855L78.7319 86.1738ZM79.7338 92.3086V90.8672H90.7026V94.7695H81.6674V95.9297H91.142V97.4238H79.7514V93.3809H88.7866V92.3086H79.7338ZM106.532 81.6738V90.252H104.581V87.0176H101.505V85.4531H104.581V81.6738H106.532ZM93.4012 89.0918C97.1365 88.1865 99.0613 86.4287 99.3689 84.1875H94.2273V82.5879H101.487C101.487 86.7451 98.8943 89.4346 94.1395 90.6387L93.4012 89.0918ZM96.0027 97.3711V90.9727H97.9715V92.6602H104.581V90.9727H106.532V97.3711H96.0027ZM97.9715 95.8066H104.581V94.1895H97.9715V95.8066ZM122.133 81.6738V97.5645H120.27V81.6738H122.133ZM108.299 92.8184C111.586 90.876 113.098 88.3887 113.397 85.1895H109.108V83.6074H115.33C115.33 85.1455 115.137 86.5869 114.706 87.9316H116.912V82.0605H118.758V96.8086H116.912V89.4961H114.065C113.142 91.3154 111.648 92.9062 109.406 94.207L108.299 92.8184Z" fill="#FF6B00"/>
<path d="M90.6248 31.1687H95.8989V26.5208H90.6248V31.1687Z" fill="#FF6B00"/>
<path d="M94.5208 27.2402H99.7949V22.5923H94.5208V27.2402Z" fill="#FF6B00"/>
<path d="M16.344 107.288H21.6182V102.64H16.344V107.288Z" fill="#FF6B00"/>
<path d="M20.2405 103.36H25.5146V98.712H20.2405V103.36Z" fill="#FF6B00"/>
<path d="M127.34 93.9712L129.053 94.1494L130.264 82.5079L128.552 82.3297L127.34 93.9712Z" fill="#FF6B00"/>
<path d="M127.037 96.8893L128.749 97.0674L128.922 95.4033L127.211 95.2252L127.037 96.8893Z" fill="#FF6B00"/>
</g>
<defs>
<filter id="filter0_b_1407_805" x="-30.1382" y="-12.3159" width="360.485" height="226.517" filterUnits="userSpaceOnUse" color-interpolation-filters="sRGB">
<feFlood flood-opacity="0" result="BackgroundImageFix"/>
<feGaussianBlur in="BackgroundImageFix" stdDeviation="2"/>
<feComposite in2="SourceAlpha" operator="in" result="effect1_backgroundBlur_1407_805"/>
<feBlend mode="normal" in="SourceGraphic" in2="effect1_backgroundBlur_1407_805" result="shape"/>
</filter>
<linearGradient id="paint0_linear_1407_805" x1="160" y1="0" x2="160" y2="200" gradientUnits="userSpaceOnUse">
<stop offset="0.531384" stop-color="#FFF6E6"/>
<stop offset="1" stop-color="#FFF6E7"/>
</linearGradient>
<clipPath id="clip0_1407_805">
<rect width="320" height="200" rx="10" fill="white"/>
</clipPath>
</defs>
</svg>