<svg xmlns="http://www.w3.org/2000/svg" width="24" height="24" viewBox="0 0 24 24" fill="none">
<path fill-rule="evenodd" clip-rule="evenodd" d="M13.6972 3.42526C14.3747 3.1445 15.101 3 15.8344 3C16.5678 3 17.2941 3.1445 17.9717 3.42526C18.6491 3.70595 19.2646 4.11733 19.783 4.63592C20.3016 5.15434 20.7133 5.77017 20.994 6.4476C21.2748 7.12517 21.4193 7.85142 21.4193 8.58485C21.4193 9.31829 21.2748 10.0445 20.994 10.7221C20.7133 11.3996 20.3018 12.0152 19.7832 12.5336C19.7831 12.5337 19.7832 12.5336 19.7832 12.5336L12.4165 19.9003C12.229 20.0878 11.9746 20.1932 11.7094 20.1932C11.4442 20.1932 11.1898 20.0878 11.0023 19.9003L3.63564 12.5336C2.58836 11.4863 2 10.0659 2 8.58485C2 7.10378 2.58836 5.68336 3.63564 4.63608C4.68291 3.5888 6.10333 3.00045 7.58441 3.00045C9.06549 3.00045 10.4859 3.5888 11.5332 4.63608L11.7094 4.81231L11.8855 4.63625C11.8854 4.6363 11.8855 4.63619 11.8855 4.63625C12.4039 4.11759 13.0197 3.70598 13.6972 3.42526ZM15.8344 5C15.3637 5 14.8976 5.09274 14.4627 5.27293C14.0279 5.45311 13.6328 5.71721 13.3 6.05013L12.4165 6.93363C12.026 7.32415 11.3928 7.32415 11.0023 6.93363L10.119 6.05029C9.44676 5.37809 8.53505 5.00045 7.58441 5.00045C6.63376 5.00045 5.72206 5.37809 5.04985 6.05029C4.37764 6.7225 4 7.63421 4 8.58485C4 9.5355 4.37764 10.4472 5.04985 11.1194L11.7094 17.779L18.369 11.1194C18.7019 10.7866 18.9661 10.3914 19.1463 9.95652C19.3265 9.52166 19.4193 9.05556 19.4193 8.58485C19.4193 8.11414 19.3265 7.64804 19.1463 7.21318C18.9661 6.77832 18.7021 6.38322 18.3691 6.05046C18.0364 5.71754 17.6409 5.45311 17.2061 5.27293C16.7712 5.09274 16.3051 5 15.8344 5Z" fill="#CED3D6"/>
</svg>