<svg xmlns="http://www.w3.org/2000/svg" width="24" height="24" viewBox="0 0 24 24" fill="none">
<path fill-rule="evenodd" clip-rule="evenodd" d="M15.8344 3C15.101 3 14.3747 3.1445 13.6972 3.42526C13.0197 3.70598 12.4039 4.11759 11.8855 4.63625L11.7094 4.81231L11.5332 4.63608C10.4859 3.5888 9.06549 3.00045 7.58441 3.00045C6.10333 3.00045 4.68291 3.5888 3.63564 4.63608C2.58836 5.68336 2 7.10378 2 8.58485C2 10.0659 2.58836 11.4863 3.63564 12.5336L11.0023 19.9003C11.1898 20.0878 11.4442 20.1932 11.7094 20.1932C11.9746 20.1932 12.229 20.0878 12.4165 19.9003L19.7832 12.5336C20.3018 12.0152 20.7133 11.3996 20.994 10.7221C21.2748 10.0445 21.4193 9.31829 21.4193 8.58485C21.4193 7.85142 21.2748 7.12517 20.994 6.4476C20.7133 5.77017 20.3016 5.15434 19.783 4.63592C19.2646 4.11733 18.6491 3.70595 17.9717 3.42526C17.2941 3.1445 16.5678 3 15.8344 3Z" fill="#FF6B00"/>
</svg>