<svg width="48" height="48" viewBox="0 0 48 48" fill="none" xmlns="http://www.w3.org/2000/svg">
<path d="M31.2394 4.80078H16.7666V11.1762H31.2394V4.80078Z" fill="#FF6B00"/>
<path d="M3.19922 17.5481L3.19922 32.1172H9.52843V17.5481H3.19922Z" fill="#FF6B00"/>
<path d="M38.4697 17.5481V32.1172H44.7989V17.5481H38.4697Z" fill="#FF6B00"/>
<path d="M38.4698 11.1758H31.2354V17.5512H38.4698V11.1758Z" fill="#FF6B00"/>
<path d="M16.7648 11.1758H9.53027V17.5512H16.7648V11.1758Z" fill="#FF6B00"/>
<path d="M16.7625 44.8623H31.2354V38.4869H16.7625V44.8623Z" fill="#FF6B00"/>
<path d="M9.53212 38.4873H16.7666V32.1119H9.53212V38.4873Z" fill="#FF6B00"/>
<path d="M31.2411 38.4873H38.4756V32.1119H31.2411V38.4873Z" fill="#FF6B00"/>
<path d="M27.8687 18.726L19.498 27.0967L23.3361 30.9347L31.7067 22.5641L27.8687 18.726Z" fill="#FF6B00"/>
<path d="M16.299 23.8967L23.335 30.9326L27.1975 27.0701L20.1616 20.0342L16.299 23.8967Z" fill="#FF6B00"/>
</svg>
