<svg width="14" height="15" viewBox="0 0 14 15" fill="none" xmlns="http://www.w3.org/2000/svg">
<path fill-rule="evenodd" clip-rule="evenodd" d="M13.72 7.65838C13.72 7.16202 13.6755 6.68474 13.5927 6.22656H7V8.93429H10.7673C10.605 9.80929 10.1118 10.5507 9.37045 11.047V12.8034H11.6327C12.9564 11.5847 13.72 9.7902 13.72 7.65838Z" fill="#4285F4"/>
<path fill-rule="evenodd" clip-rule="evenodd" d="M7.00057 14.5001C8.89057 14.5001 10.4751 13.8733 11.6333 12.8042L9.37103 11.0478C8.74421 11.4678 7.94239 11.716 7.00057 11.716C5.17739 11.716 3.63421 10.4846 3.08375 8.83008H0.745117V10.6437C1.89694 12.9314 4.26421 14.5001 7.00057 14.5001Z" fill="#34A853"/>
<path fill-rule="evenodd" clip-rule="evenodd" d="M3.08318 8.83106C2.94318 8.41106 2.86364 7.96242 2.86364 7.50106C2.86364 7.0397 2.94318 6.59106 3.08318 6.17106V4.35742H0.744545C0.270454 5.30242 0 6.37151 0 7.50106C0 8.6306 0.270454 9.6997 0.744545 10.6447L3.08318 8.83106Z" fill="#FBBC05"/>
<path fill-rule="evenodd" clip-rule="evenodd" d="M7.00057 3.28409C8.0283 3.28409 8.95103 3.63727 9.67648 4.33091L11.6842 2.32318C10.4719 1.19364 8.88739 0.5 7.00057 0.5C4.26421 0.5 1.89694 2.06864 0.745117 4.35636L3.08375 6.17C3.63421 4.51545 5.17739 3.28409 7.00057 3.28409Z" fill="#EA4335"/>
</svg>
