<svg xmlns="http://www.w3.org/2000/svg" width="18" height="18" viewBox="0 0 18 18" fill="none">
<path d="M13.6581 9.60007H3.54194C3.39821 9.60007 3.26036 9.52632 3.15873 9.39505C3.0571 9.26377 3 9.08572 3 8.90007C3 8.71442 3.0571 8.53637 3.15873 8.4051C3.26036 8.27382 3.39821 8.20007 3.54194 8.20007H13.6581C13.8018 8.20007 13.9396 8.27382 14.0413 8.4051C14.1429 8.53637 14.2 8.71442 14.2 8.90007C14.2 9.08572 14.1429 9.26377 14.0413 9.39505C13.9396 9.52632 13.8018 9.60007 13.6581 9.60007Z" fill="#FF6B00"/>
<path d="M13.6581 5.4H3.54194C3.39821 5.4 3.26036 5.32625 3.15873 5.19497C3.0571 5.0637 3 4.88565 3 4.7C3 4.51435 3.0571 4.3363 3.15873 4.20503C3.26036 4.07375 3.39821 4 3.54194 4H13.6581C13.8018 4 13.9396 4.07375 14.0413 4.20503C14.1429 4.3363 14.2 4.51435 14.2 4.7C14.2 4.88565 14.1429 5.0637 14.0413 5.19497C13.9396 5.32625 13.8018 5.4 13.6581 5.4Z" fill="#FF6B00"/>
<path d="M13.6581 13.8H3.54194C3.39821 13.8 3.26036 13.7263 3.15873 13.595C3.0571 13.4637 3 13.2857 3 13.1C3 12.9144 3.0571 12.7363 3.15873 12.6051C3.26036 12.4738 3.39821 12.4 3.54194 12.4H13.6581C13.8018 12.4 13.9396 12.4738 14.0413 12.6051C14.1429 12.7363 14.2 12.9144 14.2 13.1C14.2 13.2857 14.1429 13.4637 14.0413 13.595C13.9396 13.7263 13.8018 13.8 13.6581 13.8Z" fill="#FF6B00"/>
</svg>