<svg  viewBox="0 0 320 150" fill="none" xmlns="http://www.w3.org/2000/svg">
<g clip-path="url(#clip0_2328_2454)">
<rect width="320" height="150" rx="10" fill="#292A2B"/>
<path d="M39.4043 36.0449V37.6445H33.375V40.4746H38.7715V42.0215H33.375V45.291C35.9766 45.2822 37.9629 45.1943 40.248 44.8164L40.4414 46.3984C37.9453 46.7852 35.7129 46.873 32.7773 46.873H31.4414V36.0449H39.4043ZM43.7988 34.6738V50.5645H41.8301V34.6738H43.7988ZM58.3627 36.2207V38.0137C58.3627 40.1406 58.3627 42.3379 57.7826 45.6777L55.7963 45.502C56.4115 42.373 56.4115 40.0703 56.4115 38.0137V37.8027H47.2533V36.2207H58.3627ZM60.2084 46.7852V48.3848H45.724V46.7852H60.2084ZM74.6316 34.6738V50.5645H72.7507V34.6738H74.6316ZM71.362 34.9551V49.791H69.4988V42.2324H67.987C67.8025 45.3262 66.4753 47.2422 64.5066 47.2246C62.4323 47.2422 61.0788 45.0449 61.0788 41.5469C61.0788 38.0488 62.4323 35.8867 64.5066 35.8867C66.4314 35.8867 67.7409 37.6797 67.9695 40.6504H69.4988V34.9551H71.362ZM64.5066 37.7324C63.5046 37.7148 62.8718 39.0684 62.8894 41.5469C62.8718 44.0254 63.5046 45.3789 64.5066 45.3613C65.5613 45.3789 66.1941 44.0254 66.1941 41.5469C66.1941 39.0684 65.5613 37.7148 64.5066 37.7324ZM81.9884 38.4883C81.9884 41.4414 83.3946 44.3418 85.9259 45.4492L84.7481 47.0137C82.9464 46.1348 81.6807 44.4473 81.004 42.373C80.3096 44.5615 79.0177 46.3809 77.1895 47.3125L75.9591 45.7305C78.543 44.5176 79.9845 41.459 80.002 38.4883V35.957H81.9884V38.4883ZM89.4415 34.6738V50.582H87.5079V41.3887H84.168V39.8066H87.5079V34.6738H89.4415ZM38.7363 61.8535C38.7363 64.3145 41.1445 66.7754 44.4668 67.3555L43.5879 68.9902C40.9248 68.4277 38.7451 66.8193 37.7168 64.6836C36.6621 66.8018 34.4824 68.4189 31.8281 68.9902L30.9668 67.3555C34.2539 66.7578 36.6445 64.2969 36.6621 61.8535V60.6758H38.7363V61.8535ZM45.0469 71.9258V73.543H30.5273V71.9258H45.0469ZM60.2435 72.084V73.7188H45.724V72.084H51.9642V68.9551H46.972V67.4082H49.2045V62.6621H46.9193V61.0801H58.9779V62.6621H56.6576V67.4082H58.9252V68.9551H53.8978V72.084H60.2435ZM51.1556 67.4082H54.724V62.6621H51.1556V67.4082ZM75.4402 72.0488V73.6484H60.9206V72.0488H75.4402ZM74.1394 62.0117V63.5938H69.1823C69.2966 65.7295 71.3532 67.6895 74.7898 68.1992L74.0339 69.7637C71.3005 69.3066 69.2087 67.9971 68.1628 66.1602C67.1081 67.9971 65.0251 69.3066 62.2917 69.7637L61.5534 68.1992C64.9724 67.6895 67.029 65.7295 67.1784 63.5938H62.2038V62.0117H67.196V59.9727H69.1296V62.0117H74.1394ZM93.7397 59.6738V75.5645H91.8588V59.6738H93.7397ZM90.5229 59.9551V74.791H88.6772V69.7812H86.603C86.0141 71.3457 84.9594 72.2334 83.6147 72.2246C81.5405 72.2422 80.187 70.0449 80.187 66.5469C80.187 63.0488 81.5405 60.8867 83.6147 60.8867C84.9594 60.8867 86.0053 61.7656 86.603 63.3125H88.6772V59.9551H90.5229ZM83.6147 62.7324C82.5776 62.7148 81.9623 64.0684 81.9799 66.5469C81.9623 69.0254 82.5776 70.3789 83.6147 70.3613C84.6694 70.3789 85.3198 69.0254 85.3198 66.5469C85.3198 64.0684 84.6694 62.7148 83.6147 62.7324ZM86.9897 64.8945C87.0688 65.4043 87.1127 65.958 87.1127 66.5469C87.1127 67.127 87.0688 67.6719 87.0073 68.1816H88.6772V64.8945H86.9897ZM109.921 61.8887V63.4707H107.759V65.2988H109.921V66.9336H107.759V69.0605H105.807V59.6738H107.759V61.8887H109.921ZM107.759 69.7461V75.5645H105.807V71.3281H97.1766V69.7461H107.759ZM99.6902 60.5879C102.134 60.5703 103.962 62.1699 103.979 64.4023C103.962 66.6699 102.134 68.252 99.6902 68.252C97.2293 68.252 95.3836 66.6699 95.4012 64.4023C95.3836 62.1699 97.2293 60.5703 99.6902 60.5879ZM99.6902 62.2402C98.3191 62.2578 97.2996 63.084 97.3172 64.4023C97.2996 65.7559 98.3191 66.5996 99.6902 66.582C101.044 66.5996 102.063 65.7559 102.063 64.4023C102.063 63.084 101.044 62.2578 99.6902 62.2402ZM117.647 59.9199C121.268 59.9199 123.36 60.8867 123.377 62.6445C123.36 64.4199 121.268 65.3691 117.647 65.3867C114.026 65.3691 111.916 64.4199 111.916 62.6445C111.916 60.8867 114.026 59.9199 117.647 59.9199ZM117.647 61.3613C115.221 61.3613 113.955 61.8184 113.973 62.6445C113.955 63.5234 115.221 63.9277 117.647 63.9277C120.108 63.9277 121.356 63.5234 121.356 62.6445C121.356 61.8184 120.108 61.3613 117.647 61.3613ZM124.906 66.2305V67.7949H110.422V66.2305H124.906ZM123.096 68.8672V72.752H114.061V73.9297H123.535V75.4238H112.145V71.3633H121.18V70.3086H112.127V68.8672H123.096ZM34.9043 94.5176V95.9766H41.8125V94.5176H43.7461V100.371H32.9707V94.5176H34.9043ZM34.9043 98.8066H41.8125V97.4707H34.9043V98.8066ZM43.7461 84.6914V93.832H41.7949V84.6914H43.7461ZM30.5449 91.459C33.5332 91.459 37.4355 91.459 40.8457 91.0195L40.9688 92.4082C39.6768 92.6279 38.3408 92.7686 37.0312 92.8652V94.9043H35.0801V92.9531C33.542 93.0234 32.083 93.0234 30.791 93.0234L30.5449 91.459ZM36.9082 85.7637C36.9082 87.2051 38.2266 88.5059 40.6348 88.9805L39.791 90.457C37.9629 90.0703 36.6445 89.1826 35.9414 87.9785C35.2471 89.2881 33.9111 90.2725 32.0215 90.7031L31.1602 89.209C33.6035 88.6816 34.9043 87.3105 34.9043 85.7637V85.0781H36.9082V85.7637ZM58.6966 86.1328V87.6621C58.6791 89.6309 58.6791 91.8457 58.0638 95.168L56.0951 94.957C56.7103 91.8633 56.7103 89.6045 56.7279 87.6973H47.2357V86.1328H58.6966ZM60.2084 96.9082V98.5078H45.724V96.9082H51.0677V91.3887H53.0013V96.9082H60.2084ZM78.1387 84.6738V96.416H76.1876V92.2676H73.9376V90.6504H76.1876V89.1387H73.9376V87.5566H76.1876V84.6738H78.1387ZM73.7091 85.8691V87.4336H72.3028V92.4961C72.9005 92.4609 73.4805 92.417 74.043 92.3555L74.1309 93.7793C71.1251 94.2715 67.5919 94.3242 65.0606 94.3242L64.8497 92.707L66.6427 92.6895V87.4336H65.254V85.8691H73.7091ZM78.543 98.666V100.248H67.6973V95.502H69.6661V98.666H78.543ZM68.5411 92.6719L70.422 92.6016V87.4336H68.5411V92.6719ZM93.2651 84.6738V100.582H91.3315V84.6738H93.2651ZM88.3784 86.0625V92.0215H82.9116V95.2207C85.4164 95.2031 87.5786 95.0801 90.0483 94.6582L90.2241 96.2578C87.517 96.7324 85.144 96.8203 82.2963 96.8203H80.9077V90.4746H86.392V87.6445H80.8901V86.0625H88.3784ZM107.671 84.6738V91.002H110.114V92.6191H107.671V100.564H105.737V84.6738H107.671ZM104.507 87.1172V88.6816H95.1375V87.1172H98.8992V84.9023H100.85V87.1172H104.507ZM99.8836 89.7188C102.169 89.7188 103.874 91.2656 103.874 93.4629C103.874 95.6602 102.169 97.1895 99.8836 97.1895C97.5633 97.1895 95.8582 95.6602 95.8758 93.4629C95.8582 91.2656 97.5633 89.7188 99.8836 89.7188ZM99.8836 91.3184C98.6355 91.3184 97.7391 92.1621 97.7391 93.4629C97.7391 94.7637 98.6355 95.5898 99.8836 95.5723C101.096 95.5898 101.993 94.7637 102.011 93.4629C101.993 92.1621 101.096 91.3184 99.8836 91.3184ZM124.133 84.6738V100.564H122.27V84.6738H124.133ZM120.758 85.0605V99.8086H118.912V92.4961H116.082C115.151 94.3242 113.656 95.9062 111.406 97.207L110.299 95.8184C113.595 93.876 115.098 91.3887 115.397 88.1895H111.108V86.6074H117.33C117.33 88.1455 117.146 89.5869 116.715 90.9316H118.912V85.0605H120.758ZM128.888 86.2734L128.695 95.2559H126.709L126.498 86.2734H128.888ZM127.71 99.1406C126.955 99.1406 126.339 98.5254 126.339 97.7695C126.339 97.0312 126.955 96.416 127.71 96.416C128.431 96.416 129.064 97.0312 129.064 97.7695C129.064 98.5254 128.431 99.1406 127.71 99.1406Z" fill="white"/>
<mask id="path-3-outside-1_2328_2454" maskUnits="userSpaceOnUse" x="231.326" y="44.3905" width="75.9342" height="75.9342" fill="black">
<rect fill="white" x="231.326" y="44.3905" width="75.9342" height="75.9342"/>
<path fill-rule="evenodd" clip-rule="evenodd" d="M251.3 58.191L273.033 52.3676L273.761 55.0843L279.195 53.6284L280.65 59.0617L286.084 57.6059L287.54 63.0392L292.973 61.5834L300.252 88.75L294.819 90.2059L296.275 95.6392L290.841 97.0951L292.297 102.528L286.864 103.984L287.592 106.701L265.859 112.524L265.131 109.808L259.697 111.264L258.241 105.83L252.808 107.286L251.352 101.853L245.919 103.309L238.64 76.1419L244.073 74.6861L242.617 69.2527L248.05 67.7969L246.595 62.3635L252.028 60.9077L251.3 58.191Z"/>
</mask>
<path fill-rule="evenodd" clip-rule="evenodd" d="M251.3 58.191L273.033 52.3676L273.761 55.0843L279.195 53.6284L280.65 59.0617L286.084 57.6059L287.54 63.0392L292.973 61.5834L300.252 88.75L294.819 90.2059L296.275 95.6392L290.841 97.0951L292.297 102.528L286.864 103.984L287.592 106.701L265.859 112.524L265.131 109.808L259.697 111.264L258.241 105.83L252.808 107.286L251.352 101.853L245.919 103.309L238.64 76.1419L244.073 74.6861L242.617 69.2527L248.05 67.7969L246.595 62.3635L252.028 60.9077L251.3 58.191Z" fill="#FF6B00"/>
<path d="M273.033 52.3676L275.207 51.7853L274.624 49.6119L272.451 50.1943L273.033 52.3676ZM251.3 58.191L250.718 56.0177L248.544 56.6L249.127 58.7734L251.3 58.191ZM273.761 55.0843L271.588 55.6666L272.17 57.8399L274.344 57.2576L273.761 55.0843ZM279.195 53.6284L281.368 53.0461L280.786 50.8727L278.612 51.4551L279.195 53.6284ZM280.65 59.0617L278.477 59.6441L279.059 61.8174L281.233 61.2351L280.65 59.0617ZM286.084 57.6059L288.257 57.0235L287.675 54.8502L285.501 55.4325L286.084 57.6059ZM287.54 63.0392L285.366 63.6216L285.949 65.7949L288.122 65.2125L287.54 63.0392ZM292.973 61.5834L295.146 61.001L294.564 58.8277L292.391 59.41L292.973 61.5834ZM300.252 88.75L300.835 90.9234L303.008 90.341L302.426 88.1677L300.252 88.75ZM294.819 90.2059L294.237 88.0325L292.063 88.6149L292.646 90.7882L294.819 90.2059ZM296.275 95.6392L296.857 97.8125L299.03 97.2302L298.448 95.0569L296.275 95.6392ZM290.841 97.0951L290.259 94.9217L288.086 95.5041L288.668 97.6774L290.841 97.0951ZM292.297 102.528L292.88 104.702L295.053 104.119L294.471 101.946L292.297 102.528ZM286.864 103.984L286.282 101.811L284.108 102.393L284.691 104.567L286.864 103.984ZM287.592 106.701L288.174 108.874L290.348 108.292L289.765 106.119L287.592 106.701ZM265.859 112.524L263.685 113.107L264.268 115.28L266.441 114.698L265.859 112.524ZM265.131 109.808L267.304 109.225L266.722 107.052L264.548 107.634L265.131 109.808ZM259.697 111.264L257.524 111.846L258.106 114.019L260.28 113.437L259.697 111.264ZM258.241 105.83L260.415 105.248L259.832 103.075L257.659 103.657L258.241 105.83ZM252.808 107.286L250.635 107.868L251.217 110.042L253.39 109.459L252.808 107.286ZM251.352 101.853L253.526 101.27L252.943 99.0971L250.77 99.6794L251.352 101.853ZM245.919 103.309L243.746 103.891L244.328 106.064L246.501 105.482L245.919 103.309ZM238.64 76.1419L238.057 73.9686L235.884 74.5509L236.466 76.7243L238.64 76.1419ZM244.073 74.6861L244.655 76.8594L246.829 76.2771L246.246 74.1037L244.073 74.6861ZM242.617 69.2527L242.035 67.0794L239.861 67.6617L240.444 69.8351L242.617 69.2527ZM248.05 67.7969L248.633 69.9702L250.806 69.3879L250.224 67.2145L248.05 67.7969ZM246.595 62.3635L246.012 60.1902L243.839 60.7726L244.421 62.9459L246.595 62.3635ZM252.028 60.9077L252.61 63.081L254.784 62.4987L254.201 60.3253L252.028 60.9077ZM272.451 50.1943L250.718 56.0177L251.882 60.3644L273.616 54.5409L272.451 50.1943ZM275.935 54.5019L275.207 51.7853L270.86 52.9499L271.588 55.6666L275.935 54.5019ZM278.612 51.4551L273.179 52.9109L274.344 57.2576L279.777 55.8017L278.612 51.4551ZM282.824 58.4794L281.368 53.0461L277.021 54.2107L278.477 59.6441L282.824 58.4794ZM285.501 55.4325L280.068 56.8884L281.233 61.2351L286.666 59.7792L285.501 55.4325ZM289.713 62.4569L288.257 57.0235L283.91 58.1882L285.366 63.6216L289.713 62.4569ZM292.391 59.41L286.957 60.8659L288.122 65.2125L293.555 63.7567L292.391 59.41ZM302.426 88.1677L295.146 61.001L290.8 62.1657L298.079 89.3324L302.426 88.1677ZM295.401 92.3792L300.835 90.9234L299.67 86.5767L294.237 88.0325L295.401 92.3792ZM298.448 95.0569L296.992 89.6235L292.646 90.7882L294.101 96.2216L298.448 95.0569ZM291.424 99.2684L296.857 97.8125L295.692 93.4659L290.259 94.9217L291.424 99.2684ZM294.471 101.946L293.015 96.5127L288.668 97.6774L290.124 103.111L294.471 101.946ZM287.446 106.158L292.88 104.702L291.715 100.355L286.282 101.811L287.446 106.158ZM289.765 106.119L289.037 103.402L284.691 104.567L285.419 107.283L289.765 106.119ZM266.441 114.698L288.174 108.874L287.01 104.528L265.276 110.351L266.441 114.698ZM262.957 110.39L263.685 113.107L268.032 111.942L267.304 109.225L262.957 110.39ZM260.28 113.437L265.713 111.981L264.548 107.634L259.115 109.09L260.28 113.437ZM256.068 106.413L257.524 111.846L261.871 110.681L260.415 105.248L256.068 106.413ZM253.39 109.459L258.824 108.004L257.659 103.657L252.226 105.113L253.39 109.459ZM249.179 102.435L250.635 107.868L254.981 106.704L253.526 101.27L249.179 102.435ZM246.501 105.482L251.935 104.026L250.77 99.6794L245.337 101.135L246.501 105.482ZM236.466 76.7243L243.746 103.891L248.092 102.726L240.813 75.5596L236.466 76.7243ZM243.491 72.5127L238.057 73.9686L239.222 78.3153L244.655 76.8594L243.491 72.5127ZM240.444 69.8351L241.9 75.2684L246.246 74.1037L244.79 68.6704L240.444 69.8351ZM247.468 65.6235L242.035 67.0794L243.199 71.4261L248.633 69.9702L247.468 65.6235ZM244.421 62.9459L245.877 68.3792L250.224 67.2145L248.768 61.7812L244.421 62.9459ZM251.446 58.7344L246.012 60.1902L247.177 64.5369L252.61 63.081L251.446 58.7344ZM249.127 58.7734L249.855 61.49L254.201 60.3253L253.473 57.6087L249.127 58.7734Z" fill="white" mask="url(#path-3-outside-1_2328_2454)"/>
<path fill-rule="evenodd" clip-rule="evenodd" d="M273.326 69.7595L277.401 68.6676L278.493 72.7426L281.209 72.0146L284.849 85.598L282.132 86.3259L283.224 90.4009L279.149 91.4928L279.513 92.8511L265.93 96.4908L265.566 95.1324L261.491 96.2243L260.399 92.1493L257.682 92.8773L254.043 79.2939L256.759 78.566L255.668 74.491L259.743 73.3991L259.379 72.0408L272.962 68.4011L273.326 69.7595Z" fill="white"/>
<path fill-rule="evenodd" clip-rule="evenodd" d="M269.979 73.568L264.545 75.0239L265.273 77.7406L262.557 78.4685L263.648 82.5435L266.365 81.8156L267.093 84.5322L264.376 85.2602L265.468 89.3352L268.185 88.6072L268.913 91.3239L274.346 89.868L273.618 87.1514L276.335 86.4234L275.243 82.3484L272.526 83.0764L271.798 80.3597L274.515 79.6318L273.423 75.5568L270.707 76.2847L269.979 73.568ZM270.707 76.2847L271.798 80.3597L266.365 81.8156L265.273 77.7406L270.707 76.2847ZM272.526 83.0764L273.618 87.1514L268.185 88.6072L267.093 84.5322L272.526 83.0764Z" fill="black"/>
<path fill-rule="evenodd" clip-rule="evenodd" d="M287.397 95.1063L290.113 94.3784L289.385 91.6617L286.125 92.5353L286.708 94.7086L283.991 95.4365L284.719 98.1532L287.979 97.2797L287.397 95.1063Z" fill="white"/>
<path d="M198.125 25.125H181.25V42H198.125V25.125Z" fill="white"/>
<mask id="path-9-outside-2_2328_2454" maskUnits="userSpaceOnUse" x="175.438" y="-6" width="54" height="54" fill="black">
<rect fill="white" x="175.438" y="-6" width="54" height="54"/>
<path fill-rule="evenodd" clip-rule="evenodd" d="M200.938 42H198.125V39.1875H195.312V36.375H192.5V33.5625H189.688V30.75H186.875V27.9375H184.062V25.125H181.25V22.3125H178.438V13.875H181.25V8.25H184.062V2.625H186.875V-0.1875H192.5V-3H212.188V-0.1875H217.812V2.625H220.625V8.25H223.438V13.875H226.25V30.75H223.438V33.5625H220.625V36.375H217.812H212.188V44.8125H200.938V42Z"/>
</mask>
<path fill-rule="evenodd" clip-rule="evenodd" d="M200.938 42H198.125V39.1875H195.312V36.375H192.5V33.5625H189.688V30.75H186.875V27.9375H184.062V25.125H181.25V22.3125H178.438V13.875H181.25V8.25H184.062V2.625H186.875V-0.1875H192.5V-3H212.188V-0.1875H217.812V2.625H220.625V8.25H223.438V13.875H226.25V30.75H223.438V33.5625H220.625V36.375H217.812H212.188V44.8125H200.938V42Z" fill="#FF6B00"/>
<path d="M198.125 42H195.875V44.25H198.125V42ZM200.938 42H203.188V39.75H200.938V42ZM198.125 39.1875H200.375V36.9375H198.125V39.1875ZM195.312 39.1875H193.062V41.4375H195.312V39.1875ZM195.312 36.375H197.562V34.125H195.312V36.375ZM192.5 36.375H190.25V38.625H192.5V36.375ZM192.5 33.5625H194.75V31.3125H192.5V33.5625ZM189.688 33.5625H187.438V35.8125H189.688V33.5625ZM189.688 30.75H191.938V28.5H189.688V30.75ZM186.875 30.75H184.625V33H186.875V30.75ZM186.875 27.9375H189.125V25.6875H186.875V27.9375ZM184.062 27.9375H181.812V30.1875H184.062V27.9375ZM184.062 25.125H186.312V22.875H184.062V25.125ZM181.25 25.125H179V27.375H181.25V25.125ZM181.25 22.3125H183.5V20.0625H181.25V22.3125ZM178.438 22.3125H176.188V24.5625H178.438V22.3125ZM178.438 13.875V11.625H176.188V13.875H178.438ZM181.25 13.875V16.125H183.5V13.875H181.25ZM181.25 8.25V6H179V8.25H181.25ZM184.062 8.25V10.5H186.312V8.25H184.062ZM184.062 2.625V0.375H181.812V2.625H184.062ZM186.875 2.625V4.875H189.125V2.625H186.875ZM186.875 -0.1875V-2.4375H184.625V-0.1875H186.875ZM192.5 -0.1875V2.0625H194.75V-0.1875H192.5ZM192.5 -3V-5.25H190.25V-3H192.5ZM212.188 -3H214.438V-5.25H212.188V-3ZM212.188 -0.1875H209.938V2.0625H212.188V-0.1875ZM217.812 -0.1875H220.062V-2.4375H217.812V-0.1875ZM217.812 2.625H215.562V4.875H217.812V2.625ZM220.625 2.625H222.875V0.375H220.625V2.625ZM220.625 8.25H218.375V10.5H220.625V8.25ZM223.438 8.25H225.688V6H223.438V8.25ZM223.438 13.875H221.188V16.125H223.438V13.875ZM226.25 13.875H228.5V11.625H226.25V13.875ZM226.25 30.75V33H228.5V30.75H226.25ZM223.438 30.75V28.5H221.188V30.75H223.438ZM223.438 33.5625V35.8125H225.688V33.5625H223.438ZM220.625 33.5625V31.3125H218.375V33.5625H220.625ZM220.625 36.375V38.625H222.875V36.375H220.625ZM212.188 36.375V34.125H209.938V36.375H212.188ZM212.188 44.8125V47.0625H214.438V44.8125H212.188ZM200.938 44.8125H198.688V47.0625H200.938V44.8125ZM198.125 44.25H200.938V39.75H198.125V44.25ZM195.875 39.1875V42H200.375V39.1875H195.875ZM195.312 41.4375H198.125V36.9375H195.312V41.4375ZM193.062 36.375V39.1875H197.562V36.375H193.062ZM192.5 38.625H195.312V34.125H192.5V38.625ZM190.25 33.5625V36.375H194.75V33.5625H190.25ZM189.688 35.8125H192.5V31.3125H189.688V35.8125ZM187.438 30.75V33.5625H191.938V30.75H187.438ZM186.875 33H189.688V28.5H186.875V33ZM184.625 27.9375V30.75H189.125V27.9375H184.625ZM184.062 30.1875H186.875V25.6875H184.062V30.1875ZM181.812 25.125V27.9375H186.312V25.125H181.812ZM181.25 27.375H184.062V22.875H181.25V27.375ZM179 22.3125V25.125H183.5V22.3125H179ZM178.438 24.5625H181.25V20.0625H178.438V24.5625ZM176.188 13.875V22.3125H180.688V13.875H176.188ZM181.25 11.625H178.438V16.125H181.25V11.625ZM179 8.25V13.875H183.5V8.25H179ZM184.062 6H181.25V10.5H184.062V6ZM181.812 2.625V8.25H186.312V2.625H181.812ZM186.875 0.375H184.062V4.875H186.875V0.375ZM184.625 -0.1875V2.625H189.125V-0.1875H184.625ZM192.5 -2.4375H186.875V2.0625H192.5V-2.4375ZM190.25 -3V-0.1875H194.75V-3H190.25ZM212.188 -5.25H192.5V-0.75H212.188V-5.25ZM214.438 -0.1875V-3H209.938V-0.1875H214.438ZM217.812 -2.4375H212.188V2.0625H217.812V-2.4375ZM220.062 2.625V-0.1875H215.562V2.625H220.062ZM220.625 0.375H217.812V4.875H220.625V0.375ZM222.875 8.25V2.625H218.375V8.25H222.875ZM223.438 6H220.625V10.5H223.438V6ZM225.688 13.875V8.25H221.188V13.875H225.688ZM226.25 11.625H223.438V16.125H226.25V11.625ZM228.5 30.75V13.875H224V30.75H228.5ZM223.438 33H226.25V28.5H223.438V33ZM225.688 33.5625V30.75H221.188V33.5625H225.688ZM220.625 35.8125H223.438V31.3125H220.625V35.8125ZM222.875 36.375V33.5625H218.375V36.375H222.875ZM217.812 38.625H220.625V34.125H217.812V38.625ZM212.188 38.625H217.812V34.125H212.188V38.625ZM214.438 44.8125V36.375H209.938V44.8125H214.438ZM200.938 47.0625H212.188V42.5625H200.938V47.0625ZM198.688 42V44.8125H203.188V42H198.688Z" fill="white" mask="url(#path-9-outside-2_2328_2454)"/>
<path d="M225.125 37.5H213.312V49.3125H225.125V37.5Z" fill="white"/>
<path d="M178.438 44.8125H172.812V50.4375H178.438V44.8125Z" fill="white"/>
<path d="M181.25 42H175.625V47.625H181.25V42Z" fill="white"/>
<path d="M184.062 39.1875H178.438V44.8125H184.062V39.1875Z" fill="white"/>
<path d="M181.25 42H175.625V47.625H181.25V42Z" fill="white"/>
<mask id="path-16-outside-3_2328_2454" maskUnits="userSpaceOnUse" x="167" y="22.125" width="34" height="34" fill="black">
<rect fill="white" x="167" y="22.125" width="34" height="34"/>
<path fill-rule="evenodd" clip-rule="evenodd" d="M178.438 39.1875V25.125H181.25V39.1875H178.438ZM175.625 42V39.1875H178.438V42H175.625ZM172.812 44.8125H175.625V42H172.812V44.8125ZM172.812 50.4375V44.8125H170V50.4375H172.812ZM178.438 50.4375H172.812V53.25H178.438V50.4375ZM181.25 47.625H178.438V50.4375H181.25V47.625ZM184.062 44.8125V47.625H181.25V44.8125H184.062ZM184.062 44.8125V42H198.125V44.8125H184.062Z"/>
</mask>
<path fill-rule="evenodd" clip-rule="evenodd" d="M178.438 39.1875V25.125H181.25V39.1875H178.438ZM175.625 42V39.1875H178.438V42H175.625ZM172.812 44.8125H175.625V42H172.812V44.8125ZM172.812 50.4375V44.8125H170V50.4375H172.812ZM178.438 50.4375H172.812V53.25H178.438V50.4375ZM181.25 47.625H178.438V50.4375H181.25V47.625ZM184.062 44.8125V47.625H181.25V44.8125H184.062ZM184.062 44.8125V42H198.125V44.8125H184.062Z" fill="#FF6B00"/>
<path d="M178.438 25.125V22.875H176.188V25.125H178.438ZM181.25 25.125H183.5V22.875H181.25V25.125ZM181.25 39.1875V41.4375H183.5V39.1875H181.25ZM175.625 39.1875V36.9375H173.375V39.1875H175.625ZM178.438 42V44.25H180.688V42H178.438ZM175.625 44.8125V47.0625H177.875V44.8125H175.625ZM172.812 42V39.75H170.562V42H172.812ZM170 44.8125V42.5625H167.75V44.8125H170ZM170 50.4375H167.75V52.6875H170V50.4375ZM172.812 53.25H170.562V55.5H172.812V53.25ZM178.438 53.25V55.5H180.688V53.25H178.438ZM178.438 47.625V45.375H176.188V47.625H178.438ZM181.25 50.4375V52.6875H183.5V50.4375H181.25ZM184.062 47.625V49.875H186.312V47.625H184.062ZM181.25 44.8125V42.5625H179V44.8125H181.25ZM184.062 42V39.75H181.812V42H184.062ZM198.125 42H200.375V39.75H198.125V42ZM198.125 44.8125V47.0625H200.375V44.8125H198.125ZM176.188 25.125V39.1875H180.688V25.125H176.188ZM181.25 22.875H178.438V27.375H181.25V22.875ZM183.5 39.1875V25.125H179V39.1875H183.5ZM178.438 41.4375H181.25V36.9375H178.438V41.4375ZM177.875 42V39.1875H173.375V42H177.875ZM175.625 41.4375H178.438V36.9375H175.625V41.4375ZM176.188 39.1875V42H180.688V39.1875H176.188ZM178.438 39.75H175.625V44.25H178.438V39.75ZM175.625 42.5625H172.812V47.0625H175.625V42.5625ZM173.375 42V44.8125H177.875V42H173.375ZM172.812 44.25H175.625V39.75H172.812V44.25ZM175.062 44.8125V42H170.562V44.8125H175.062ZM170.562 44.8125V50.4375H175.062V44.8125H170.562ZM170 47.0625H172.812V42.5625H170V47.0625ZM172.25 50.4375V44.8125H167.75V50.4375H172.25ZM172.812 48.1875H170V52.6875H172.812V48.1875ZM172.812 52.6875H178.438V48.1875H172.812V52.6875ZM175.062 53.25V50.4375H170.562V53.25H175.062ZM178.438 51H172.812V55.5H178.438V51ZM176.188 50.4375V53.25H180.688V50.4375H176.188ZM178.438 49.875H181.25V45.375H178.438V49.875ZM180.688 50.4375V47.625H176.188V50.4375H180.688ZM181.25 48.1875H178.438V52.6875H181.25V48.1875ZM179 47.625V50.4375H183.5V47.625H179ZM186.312 47.625V44.8125H181.812V47.625H186.312ZM181.25 49.875H184.062V45.375H181.25V49.875ZM179 44.8125V47.625H183.5V44.8125H179ZM184.062 42.5625H181.25V47.0625H184.062V42.5625ZM181.812 42V44.8125H186.312V42H181.812ZM198.125 39.75H184.062V44.25H198.125V39.75ZM200.375 44.8125V42H195.875V44.8125H200.375ZM184.062 47.0625H198.125V42.5625H184.062V47.0625Z" fill="white" mask="url(#path-16-outside-3_2328_2454)"/>
<path d="M189.688 27.9375H186.875V30.75H189.688V27.9375Z" fill="#FF6B00"/>
<path d="M195.313 33.5625H192.5V36.375H195.313V33.5625Z" fill="#FF6B00"/>
<path d="M215.586 35.805L213.358 33.5776L207.154 39.7825L209.381 42.0099L215.586 35.805Z" fill="#FF6B00"/>
<path d="M210.079 36.9943H207.266V39.8068H210.079V36.9943Z" fill="#FF6B00"/>
<mask id="path-22-outside-4_2328_2454" maskUnits="userSpaceOnUse" x="207.698" y="32.0536" width="23" height="23" fill="black">
<rect fill="white" x="207.698" y="32.0536" width="23" height="23"/>
<path fill-rule="evenodd" clip-rule="evenodd" d="M223.44 37.8661H215.002V39.188H213.51V47.6251H215.001V49.1161H223.44V47.6255H224.76V39.188H223.44V37.8661ZM213.51 50.4376V51.9286H224.76V50.438H226.252V47.6255H227.573V39.188H226.252V36.3755H224.76V35.0536H213.51V36.3755H212.19V39.188H210.698V47.6255H212.188V50.4376H213.51Z"/>
</mask>
<path fill-rule="evenodd" clip-rule="evenodd" d="M223.44 37.8661H215.002V39.188H213.51V47.6251H215.001V49.1161H223.44V47.6255H224.76V39.188H223.44V37.8661ZM213.51 50.4376V51.9286H224.76V50.438H226.252V47.6255H227.573V39.188H226.252V36.3755H224.76V35.0536H213.51V36.3755H212.19V39.188H210.698V47.6255H212.188V50.4376H213.51Z" fill="#FF6B00"/>
<path d="M215.002 37.8661V35.6161H212.752V37.8661H215.002ZM223.44 37.8661H225.69V35.6161H223.44V37.8661ZM215.002 39.188V41.438H217.252V39.188H215.002ZM213.51 39.188V36.938H211.26V39.188H213.51ZM213.51 47.6251H211.26V49.8751H213.51V47.6251ZM215.001 47.6251H217.251V45.3751H215.001V47.6251ZM215.001 49.1161H212.751V51.3661H215.001V49.1161ZM223.44 49.1161V51.3661H225.69V49.1161H223.44ZM223.44 47.6255V45.3755H221.19V47.6255H223.44ZM224.76 47.6255V49.8755H227.01V47.6255H224.76ZM224.76 39.188H227.01V36.938H224.76V39.188ZM223.44 39.188H221.19V41.438H223.44V39.188ZM213.51 50.4376H215.76V48.1876H213.51V50.4376ZM213.51 51.9286H211.26V54.1786H213.51V51.9286ZM224.76 51.9286V54.1786H227.01V51.9286H224.76ZM224.76 50.438V48.188H222.51V50.438H224.76ZM226.252 50.438V52.688H228.502V50.438H226.252ZM226.252 47.6255V45.3755H224.002V47.6255H226.252ZM227.573 47.6255V49.8755H229.823V47.6255H227.573ZM227.573 39.188H229.823V36.938H227.573V39.188ZM226.252 39.188H224.002V41.438H226.252V39.188ZM226.252 36.3755H228.502V34.1255H226.252V36.3755ZM224.76 36.3755H222.51V38.6255H224.76V36.3755ZM224.76 35.0536H227.01V32.8036H224.76V35.0536ZM213.51 35.0536V32.8036H211.26V35.0536H213.51ZM213.51 36.3755V38.6255H215.76V36.3755H213.51ZM212.19 36.3755V34.1255H209.94V36.3755H212.19ZM212.19 39.188V41.438H214.44V39.188H212.19ZM210.698 39.188V36.938H208.448V39.188H210.698ZM210.698 47.6255H208.448V49.8755H210.698V47.6255ZM212.188 47.6255H214.438V45.3755H212.188V47.6255ZM212.188 50.4376H209.938V52.6876H212.188V50.4376ZM215.002 40.1161H223.44V35.6161H215.002V40.1161ZM217.252 39.188V37.8661H212.752V39.188H217.252ZM213.51 41.438H215.002V36.938H213.51V41.438ZM215.76 47.6251V39.188H211.26V47.6251H215.76ZM215.001 45.3751H213.51V49.8751H215.001V45.3751ZM217.251 49.1161V47.6251H212.751V49.1161H217.251ZM223.44 46.8661H215.001V51.3661H223.44V46.8661ZM221.19 47.6255V49.1161H225.69V47.6255H221.19ZM224.76 45.3755H223.44V49.8755H224.76V45.3755ZM222.51 39.188V47.6255H227.01V39.188H222.51ZM223.44 41.438H224.76V36.938H223.44V41.438ZM221.19 37.8661V39.188H225.69V37.8661H221.19ZM211.26 50.4376V51.9286H215.76V50.4376H211.26ZM213.51 54.1786H224.76V49.6786H213.51V54.1786ZM227.01 51.9286V50.438H222.51V51.9286H227.01ZM224.76 52.688H226.252V48.188H224.76V52.688ZM228.502 50.438V47.6255H224.002V50.438H228.502ZM226.252 49.8755H227.573V45.3755H226.252V49.8755ZM229.823 47.6255V39.188H225.323V47.6255H229.823ZM227.573 36.938H226.252V41.438H227.573V36.938ZM228.502 39.188V36.3755H224.002V39.188H228.502ZM226.252 34.1255H224.76V38.6255H226.252V34.1255ZM227.01 36.3755V35.0536H222.51V36.3755H227.01ZM224.76 32.8036H213.51V37.3036H224.76V32.8036ZM211.26 35.0536V36.3755H215.76V35.0536H211.26ZM213.51 34.1255H212.19V38.6255H213.51V34.1255ZM209.94 36.3755V39.188H214.44V36.3755H209.94ZM212.19 36.938H210.698V41.438H212.19V36.938ZM208.448 39.188V47.6255H212.948V39.188H208.448ZM210.698 49.8755H212.188V45.3755H210.698V49.8755ZM209.938 47.6255V50.4376H214.438V47.6255H209.938ZM212.188 52.6876H213.51V48.1876H212.188V52.6876Z" fill="white" mask="url(#path-22-outside-4_2328_2454)"/>
<path d="M223.438 44.8125H220.625V47.625H223.438V44.8125Z" fill="#FF6B00"/>
<path d="M184.062 22.3125H181.25V25.125H184.062V22.3125Z" fill="#FF6B00"/>
<path d="M200.938 39.1875H198.125V42H200.938V39.1875Z" fill="#FF6B00"/>
<path d="M223.438 30.75H220.625V33.5625H223.438V30.75Z" fill="#FF6B00"/>
<path d="M213.508 37.8656H224.758V35.0531H213.508V37.8656Z" fill="#FF6B00"/>
<path d="M210.695 47.625H213.508V39.1875H210.695V47.625Z" fill="#FF6B00"/>
<path d="M212.188 36.375H200.938V44.8125H212.188V36.375Z" fill="#FF6B00"/>
<path d="M212.188 36.375H217.812V-0.1875H212.188V36.375Z" fill="#FF6B00"/>
<path d="M217.812 2.625V36.375H220.625V2.625H217.812Z" fill="#FF6B00"/>
<path d="M215 36.375H212.188V39.1875H215V36.375Z" fill="#FF6B00"/>
<path d="M212.75 31.875H208.812V37.5H212.75V31.875Z" fill="#FF6B00"/>
<path d="M187.002 147.163L189.608 146.106L172.695 104.405L170.089 105.462L187.002 147.163Z" fill="white"/>
<path d="M177.068 145.121L178.125 147.728L219.826 130.815L218.769 128.209L177.068 145.121Z" fill="white"/>
<path d="M175.519 148.785L177.633 153.997L224.547 134.97L222.432 129.758L175.519 148.785Z" fill="white"/>
<path d="M180.24 152.94L181.297 155.547L222.998 138.634L221.941 136.027L180.24 152.94Z" fill="white"/>
<mask id="path-39-outside-5_2328_2454" maskUnits="userSpaceOnUse" x="166.891" y="119.675" width="66.0988" height="44.616" fill="black">
<rect fill="white" x="166.891" y="119.675" width="66.0988" height="44.616"/>
<path fill-rule="evenodd" clip-rule="evenodd" d="M189.043 137.23L190.1 139.836L218.769 128.209L219.826 130.815L222.433 129.758L224.547 134.97L221.94 136.027L222.997 138.634L181.297 155.547L180.24 152.94L177.633 153.998L175.519 148.785L178.126 147.728L177.068 145.122L182.281 143.007L181.224 140.401L176.011 142.515L177.068 145.122L174.462 146.179L175.519 148.785L172.913 149.842L175.027 155.055L177.633 153.998L178.69 156.604L181.297 155.547L182.354 158.153L224.055 141.24L222.997 138.634L225.604 137.577L224.547 134.97L227.153 133.913L225.039 128.701L222.433 129.758L221.376 127.152L218.769 128.209L217.712 125.602L189.043 137.23Z"/>
</mask>
<path fill-rule="evenodd" clip-rule="evenodd" d="M189.043 137.23L190.1 139.836L218.769 128.209L219.826 130.815L222.433 129.758L224.547 134.97L221.94 136.027L222.997 138.634L181.297 155.547L180.24 152.94L177.633 153.998L175.519 148.785L178.126 147.728L177.068 145.122L182.281 143.007L181.224 140.401L176.011 142.515L177.068 145.122L174.462 146.179L175.519 148.785L172.913 149.842L175.027 155.055L177.633 153.998L178.69 156.604L181.297 155.547L182.354 158.153L224.055 141.24L222.997 138.634L225.604 137.577L224.547 134.97L227.153 133.913L225.039 128.701L222.433 129.758L221.376 127.152L218.769 128.209L217.712 125.602L189.043 137.23Z" fill="#FF6B00"/>
<path d="M190.1 139.836L188.015 140.682L188.861 142.767L190.946 141.921L190.1 139.836ZM189.043 137.23L188.197 135.145L186.112 135.991L186.958 138.076L189.043 137.23ZM219.826 130.815L217.741 131.661L218.587 133.746L220.672 132.9L219.826 130.815ZM221.94 136.027L221.095 133.942L219.01 134.788L219.855 136.873L221.94 136.027ZM180.24 152.94L182.325 152.095L181.479 150.01L179.394 150.855L180.24 152.94ZM178.126 147.728L178.971 149.813L181.056 148.967L180.211 146.882L178.126 147.728ZM182.281 143.007L183.127 145.092L185.212 144.247L184.366 142.162L182.281 143.007ZM181.224 140.401L183.309 139.555L182.463 137.47L180.378 138.316L181.224 140.401ZM176.011 142.515L175.166 140.43L173.081 141.276L173.926 143.361L176.011 142.515ZM174.462 146.179L173.617 144.094L171.531 144.939L172.377 147.024L174.462 146.179ZM172.913 149.842L172.067 147.757L169.982 148.603L170.828 150.688L172.913 149.842ZM175.027 155.055L172.942 155.9L173.788 157.985L175.873 157.14L175.027 155.055ZM178.69 156.604L176.605 157.449L177.451 159.534L179.536 158.689L178.69 156.604ZM182.354 158.153L180.269 158.999L181.114 161.084L183.199 160.238L182.354 158.153ZM224.055 141.24L224.9 143.325L226.985 142.479L226.14 140.394L224.055 141.24ZM225.604 137.577L226.449 139.662L228.534 138.816L227.689 136.731L225.604 137.577ZM227.153 133.913L227.999 135.998L230.084 135.153L229.238 133.068L227.153 133.913ZM225.039 128.701L227.124 127.855L226.278 125.77L224.193 126.616L225.039 128.701ZM221.376 127.152L223.461 126.306L222.615 124.221L220.53 125.066L221.376 127.152ZM217.712 125.602L219.797 124.757L218.952 122.672L216.867 123.517L217.712 125.602ZM192.185 138.991L191.128 136.384L186.958 138.076L188.015 140.682L192.185 138.991ZM217.924 126.124L189.254 137.751L190.946 141.921L219.615 130.294L217.924 126.124ZM221.911 129.969L220.854 127.363L216.684 129.054L217.741 131.661L221.911 129.969ZM221.587 127.673L218.981 128.73L220.672 132.9L223.278 131.843L221.587 127.673ZM226.632 134.125L224.518 128.912L220.348 130.603L222.462 135.816L226.632 134.125ZM222.786 138.113L225.392 137.055L223.701 132.885L221.095 133.942L222.786 138.113ZM225.082 137.788L224.025 135.182L219.855 136.873L220.912 139.479L225.082 137.788ZM222.152 136.549L180.451 153.462L182.142 157.632L223.843 140.719L222.152 136.549ZM183.382 154.701L182.325 152.095L178.155 153.786L179.212 156.392L183.382 154.701ZM179.394 150.855L176.788 151.912L178.479 156.083L181.085 155.025L179.394 150.855ZM173.434 149.631L175.548 154.843L179.718 153.152L177.604 147.939L173.434 149.631ZM177.28 145.643L174.674 146.7L176.365 150.87L178.971 149.813L177.28 145.643ZM174.983 145.967L176.041 148.574L180.211 146.882L179.154 144.276L174.983 145.967ZM177.914 147.207L183.127 145.092L181.435 140.922L176.223 143.037L177.914 147.207ZM184.366 142.162L183.309 139.555L179.139 141.247L180.196 143.853L184.366 142.162ZM180.378 138.316L175.166 140.43L176.857 144.6L182.07 142.486L180.378 138.316ZM173.926 143.361L174.983 145.967L179.154 144.276L178.096 141.67L173.926 143.361ZM175.308 148.264L177.914 147.207L176.223 143.037L173.617 144.094L175.308 148.264ZM177.604 147.939L176.547 145.333L172.377 147.024L173.434 149.631L177.604 147.939ZM173.759 151.927L176.365 150.87L174.674 146.7L172.067 147.757L173.759 151.927ZM177.112 154.209L174.998 148.996L170.828 150.688L172.942 155.9L177.112 154.209ZM176.788 151.912L174.181 152.97L175.873 157.14L178.479 156.083L176.788 151.912ZM175.548 154.843L176.605 157.449L180.775 155.758L179.718 153.152L175.548 154.843ZM179.536 158.689L182.142 157.632L180.451 153.462L177.845 154.519L179.536 158.689ZM179.212 156.392L180.269 158.999L184.439 157.307L183.382 154.701L179.212 156.392ZM183.199 160.238L224.9 143.325L223.209 139.155L181.508 156.068L183.199 160.238ZM226.14 140.394L225.082 137.788L220.912 139.479L221.969 142.086L226.14 140.394ZM224.758 135.492L222.152 136.549L223.843 140.719L226.449 139.662L224.758 135.492ZM222.462 135.816L223.519 138.422L227.689 136.731L226.632 134.125L222.462 135.816ZM226.307 131.828L223.701 132.885L225.392 137.055L227.999 135.998L226.307 131.828ZM222.954 129.546L225.068 134.759L229.238 133.068L227.124 127.855L222.954 129.546ZM223.278 131.843L225.885 130.786L224.193 126.616L221.587 127.673L223.278 131.843ZM219.29 127.997L220.348 130.603L224.518 128.912L223.461 126.306L219.29 127.997ZM219.615 130.294L222.221 129.237L220.53 125.066L217.924 126.124L219.615 130.294ZM215.627 126.448L216.684 129.054L220.854 127.363L219.797 124.757L215.627 126.448ZM189.889 139.315L218.558 127.687L216.867 123.517L188.197 135.145L189.889 139.315Z" fill="white" mask="url(#path-39-outside-5_2328_2454)"/>
<mask id="path-41-outside-6_2328_2454" maskUnits="userSpaceOnUse" x="171.394" y="88.9169" width="43.1584" height="41.5059" fill="black">
<rect fill="white" x="171.394" y="88.9169" width="43.1584" height="41.5059"/>
<path fill-rule="evenodd" clip-rule="evenodd" d="M175.301 103.348L180.514 101.234L181.571 103.84L186.784 101.726L185.726 99.1199L190.939 97.0058L191.996 99.6121L197.209 97.4979L198.266 100.104L200.872 99.0472L201.929 101.653L204.535 100.596L206.65 105.809L204.043 106.866L205.1 109.472L202.494 110.529L203.34 112.614L200.733 113.672L199.888 111.586L197.281 112.644L194.675 113.701L195.732 116.307L193.126 117.364L194.183 119.97L191.577 121.027L192.634 123.634L184.815 126.805L183.758 124.199L175.301 103.348Z"/>
</mask>
<path fill-rule="evenodd" clip-rule="evenodd" d="M175.301 103.348L180.514 101.234L181.571 103.84L186.784 101.726L185.726 99.1199L190.939 97.0058L191.996 99.6121L197.209 97.4979L198.266 100.104L200.872 99.0472L201.929 101.653L204.535 100.596L206.65 105.809L204.043 106.866L205.1 109.472L202.494 110.529L203.34 112.614L200.733 113.672L199.888 111.586L197.281 112.644L194.675 113.701L195.732 116.307L193.126 117.364L194.183 119.97L191.577 121.027L192.634 123.634L184.815 126.805L183.758 124.199L175.301 103.348Z" fill="#FF6B00"/>
<path d="M180.514 101.234L182.599 100.388L181.753 98.3033L179.668 99.149L180.514 101.234ZM175.301 103.348L174.456 101.263L172.371 102.109L173.216 104.194L175.301 103.348ZM181.571 103.84L179.486 104.686L180.332 106.771L182.417 105.925L181.571 103.84ZM186.784 101.726L187.629 103.811L189.714 102.966L188.869 100.881L186.784 101.726ZM185.726 99.1199L184.881 97.0349L182.796 97.8805L183.641 99.9655L185.726 99.1199ZM190.939 97.0058L193.024 96.1601L192.178 94.0751L190.093 94.9207L190.939 97.0058ZM191.996 99.6121L189.911 100.458L190.757 102.543L192.842 101.697L191.996 99.6121ZM197.209 97.4979L199.294 96.6523L198.448 94.5673L196.363 95.4129L197.209 97.4979ZM198.266 100.104L196.181 100.95L197.026 103.035L199.111 102.189L198.266 100.104ZM200.872 99.0472L202.957 98.2015L202.111 96.1165L200.026 96.9621L200.872 99.0472ZM201.929 101.653L199.844 102.499L200.69 104.584L202.775 103.739L201.929 101.653ZM204.535 100.596L206.62 99.7508L205.775 97.6657L203.69 98.5114L204.535 100.596ZM206.65 105.809L207.495 107.894L209.58 107.048L208.735 104.963L206.65 105.809ZM204.043 106.866L203.198 104.781L201.113 105.627L201.958 107.712L204.043 106.866ZM205.1 109.472L205.946 111.557L208.031 110.712L207.185 108.627L205.1 109.472ZM202.494 110.529L201.648 108.444L199.563 109.29L200.409 111.375L202.494 110.529ZM203.34 112.614L204.185 114.699L206.27 113.854L205.425 111.769L203.34 112.614ZM200.733 113.672L198.648 114.517L199.494 116.602L201.579 115.757L200.733 113.672ZM199.888 111.586L201.973 110.741L201.127 108.656L199.042 109.501L199.888 111.586ZM194.675 113.701L193.829 111.616L191.744 112.461L192.59 114.546L194.675 113.701ZM195.732 116.307L196.578 118.392L198.663 117.546L197.817 115.461L195.732 116.307ZM193.126 117.364L192.28 115.279L190.195 116.125L191.041 118.21L193.126 117.364ZM194.183 119.97L195.029 122.055L197.114 121.21L196.268 119.125L194.183 119.97ZM191.577 121.027L190.731 118.942L188.646 119.788L189.492 121.873L191.577 121.027ZM192.634 123.634L193.479 125.719L195.564 124.873L194.719 122.788L192.634 123.634ZM184.815 126.805L182.73 127.65L183.575 129.735L185.66 128.89L184.815 126.805ZM179.668 99.149L174.456 101.263L176.147 105.433L181.36 103.319L179.668 99.149ZM183.656 102.995L182.599 100.388L178.429 102.08L179.486 104.686L183.656 102.995ZM185.938 99.6412L180.725 101.755L182.417 105.925L187.629 103.811L185.938 99.6412ZM183.641 99.9655L184.698 102.572L188.869 100.881L187.811 98.2742L183.641 99.9655ZM190.093 94.9207L184.881 97.0349L186.572 101.205L191.785 99.0908L190.093 94.9207ZM194.081 98.7664L193.024 96.1601L188.854 97.8514L189.911 100.458L194.081 98.7664ZM196.363 95.4129L191.15 97.527L192.842 101.697L198.054 99.583L196.363 95.4129ZM200.351 99.2586L199.294 96.6523L195.124 98.3436L196.181 100.95L200.351 99.2586ZM200.026 96.9621L197.42 98.0192L199.111 102.189L201.718 101.132L200.026 96.9621ZM204.014 100.808L202.957 98.2015L198.787 99.8928L199.844 102.499L204.014 100.808ZM203.69 98.5114L201.083 99.5684L202.775 103.739L205.381 102.681L203.69 98.5114ZM208.735 104.963L206.62 99.7508L202.45 101.442L204.564 106.655L208.735 104.963ZM204.889 108.951L207.495 107.894L205.804 103.724L203.198 104.781L204.889 108.951ZM207.185 108.627L206.128 106.02L201.958 107.712L203.015 110.318L207.185 108.627ZM203.34 112.614L205.946 111.557L204.255 107.387L201.648 108.444L203.34 112.614ZM205.425 111.769L204.579 109.684L200.409 111.375L201.255 113.46L205.425 111.769ZM201.579 115.757L204.185 114.699L202.494 110.529L199.888 111.586L201.579 115.757ZM197.803 112.432L198.648 114.517L202.818 112.826L201.973 110.741L197.803 112.432ZM198.127 114.729L200.733 113.672L199.042 109.501L196.436 110.559L198.127 114.729ZM195.521 115.786L198.127 114.729L196.436 110.559L193.829 111.616L195.521 115.786ZM197.817 115.461L196.76 112.855L192.59 114.546L193.647 117.153L197.817 115.461ZM193.972 119.449L196.578 118.392L194.887 114.222L192.28 115.279L193.972 119.449ZM196.268 119.125L195.211 116.518L191.041 118.21L192.098 120.816L196.268 119.125ZM192.422 123.112L195.029 122.055L193.337 117.885L190.731 118.942L192.422 123.112ZM194.719 122.788L193.662 120.182L189.492 121.873L190.549 124.479L194.719 122.788ZM185.66 128.89L193.479 125.719L191.788 121.549L183.969 124.72L185.66 128.89ZM181.673 125.044L182.73 127.65L186.9 125.959L185.843 123.353L181.673 125.044ZM173.216 104.194L181.673 125.044L185.843 123.353L177.386 102.502L173.216 104.194Z" fill="white" mask="url(#path-41-outside-6_2328_2454)"/>
<mask id="path-43-outside-7_2328_2454" maskUnits="userSpaceOnUse" x="162.518" y="96.9986" width="32.1416" height="52.5226" fill="black">
<rect fill="white" x="162.518" y="96.9986" width="32.1416" height="52.5226"/>
<path fill-rule="evenodd" clip-rule="evenodd" d="M170.089 105.462L172.695 104.405L188.551 143.5L191.157 142.443L175.301 103.348L172.695 104.405L171.638 101.799L169.032 102.856L170.089 105.462ZM170.089 105.462L185.945 144.557L183.338 145.614L167.482 106.519L170.089 105.462Z"/>
</mask>
<path fill-rule="evenodd" clip-rule="evenodd" d="M170.089 105.462L172.695 104.405L188.551 143.5L191.157 142.443L175.301 103.348L172.695 104.405L171.638 101.799L169.032 102.856L170.089 105.462ZM170.089 105.462L185.945 144.557L183.338 145.614L167.482 106.519L170.089 105.462Z" fill="#FF6B00"/>
<path d="M188.551 143.5L186.466 144.345L187.311 146.43L189.397 145.585L188.551 143.5ZM191.157 142.443L192.003 144.528L194.088 143.682L193.242 141.597L191.157 142.443ZM175.301 103.348L177.386 102.502L176.541 100.417L174.456 101.263L175.301 103.348ZM171.638 101.799L173.723 100.953L172.877 98.8682L170.792 99.7138L171.638 101.799ZM169.032 102.856L168.186 100.771L166.101 101.617L166.947 103.702L169.032 102.856ZM185.945 144.557L186.79 146.642L188.875 145.796L188.03 143.711L185.945 144.557ZM183.338 145.614L181.253 146.459L182.099 148.544L184.184 147.699L183.338 145.614ZM167.482 106.519L166.637 104.434L164.552 105.28L165.397 107.365L167.482 106.519ZM171.849 102.32L169.243 103.377L170.934 107.547L173.541 106.49L171.849 102.32ZM170.61 105.251L186.466 144.345L190.636 142.654L174.78 103.559L170.61 105.251ZM189.397 145.585L192.003 144.528L190.312 140.357L187.705 141.415L189.397 145.585ZM193.242 141.597L177.386 102.502L173.216 104.194L189.072 143.288L193.242 141.597ZM174.456 101.263L171.849 102.32L173.541 106.49L176.147 105.433L174.456 101.263ZM169.553 102.644L170.61 105.251L174.78 103.559L173.723 100.953L169.553 102.644ZM169.877 104.941L172.484 103.884L170.792 99.7138L168.186 100.771L169.877 104.941ZM172.174 104.617L171.117 102.01L166.947 103.702L168.004 106.308L172.174 104.617ZM188.03 143.711L172.174 104.617L168.004 106.308L183.86 145.402L188.03 143.711ZM184.184 147.699L186.79 146.642L185.099 142.472L182.493 143.529L184.184 147.699ZM165.397 107.365L181.253 146.459L185.423 144.768L169.567 105.674L165.397 107.365ZM169.243 103.377L166.637 104.434L168.328 108.604L170.934 107.547L169.243 103.377Z" fill="white" mask="url(#path-43-outside-7_2328_2454)"/>
<rect x="175.301" y="103.348" width="2.8125" height="25.3125" transform="rotate(-22.0765 175.301 103.348)" fill="#FF6B00"/>
<path d="M194.821 143.992L181.789 149.277L182.846 151.883L195.878 146.598L194.821 143.992Z" fill="#FF6B00"/>
<path d="M185.945 144.557L180.732 146.671L181.789 149.277L187.002 147.163L185.945 144.557Z" fill="#FF6B00"/>
<path d="M193.763 141.386L188.551 143.5L189.608 146.106L194.82 143.992L193.763 141.386Z" fill="#FF6B00"/>
<path d="M181.224 140.401L176.011 142.515L177.068 145.122L182.281 143.007L181.224 140.401Z" fill="#FF6B00"/>
<path d="M194.256 135.116L189.043 137.23L190.1 139.836L195.313 137.722L194.256 135.116Z" fill="#FF6B00"/>
</g>
<defs>
<clipPath id="clip0_2328_2454">
<rect width="320" height="150" rx="10" fill="white"/>
</clipPath>
</defs>
</svg>
