<svg viewBox="0 0 320 150" fill="none" xmlns="http://www.w3.org/2000/svg">
<g clip-path="url(#clip0_2337_2691)">
<rect width="320" height="150" rx="10" fill="#292A2B"/>
<path d="M34.4492 29.6055V31.3828H27.75V34.5273H33.7461V36.2461H27.75V39.8789C30.6406 39.8691 32.8477 39.7715 35.3867 39.3516L35.6016 41.1094C32.8281 41.5391 30.3477 41.6367 27.0859 41.6367H25.6016V29.6055H34.4492ZM39.332 28.082V45.7383H37.1445V28.082H39.332ZM55.5141 29.8008V31.793C55.5141 34.1562 55.5141 36.5977 54.8695 40.3086L52.6625 40.1133C53.3461 36.6367 53.3461 34.0781 53.3461 31.793V31.5586H43.1703V29.8008H55.5141ZM57.5648 41.5391V43.3164H41.4711V41.5391H57.5648ZM73.5906 28.082V45.7383H71.5008V28.082H73.5906ZM69.9578 28.3945V44.8789H67.8875V36.4805H66.2078C66.0027 39.918 64.5281 42.0469 62.3406 42.0273C60.0359 42.0469 58.532 39.6055 58.532 35.7188C58.532 31.832 60.0359 29.4297 62.3406 29.4297C64.4793 29.4297 65.9344 31.4219 66.1883 34.7227H67.8875V28.3945H69.9578ZM62.3406 31.4805C61.2273 31.4609 60.5242 32.9648 60.5438 35.7188C60.5242 38.4727 61.2273 39.9766 62.3406 39.957C63.5125 39.9766 64.2156 38.4727 64.2156 35.7188C64.2156 32.9648 63.5125 31.4609 62.3406 31.4805ZM81.7648 32.3203C81.7648 35.6016 83.3273 38.8242 86.1398 40.0547L84.8312 41.793C82.8293 40.8164 81.423 38.9414 80.6711 36.6367C79.8996 39.0684 78.4641 41.0898 76.4328 42.125L75.0656 40.3672C77.9367 39.0195 79.5383 35.6211 79.5578 32.3203V29.5078H81.7648V32.3203ZM90.0461 28.082V45.7578H87.8977V35.543H84.1867V33.7852H87.8977V28.082H90.0461ZM29.4102 55.3711C31.0117 55.3711 32.3301 56.2598 33.1211 57.8125H37.2422V54.082H39.3906V71.7578H37.2422V65.0781H33.2773C32.5156 66.8359 31.1191 67.8516 29.4102 67.8516C26.7539 67.8516 24.8789 65.4492 24.8789 61.6016C24.8789 57.793 26.7539 55.3711 29.4102 55.3711ZM29.4102 57.3242C27.9453 57.3242 26.9492 58.9062 26.9688 61.6016C26.9492 64.3164 27.9453 65.8984 29.4102 65.8984C30.875 65.8984 31.8516 64.3164 31.8711 61.6016C31.8516 58.9062 30.875 57.3242 29.4102 57.3242ZM33.7266 59.5898C33.8535 60.2051 33.9219 60.8789 33.9219 61.6016C33.9219 62.2168 33.873 62.7832 33.7852 63.3203H37.2422V59.5898H33.7266ZM55.2992 54.082V60.9766H57.9164V62.793H55.2992V71.6992H53.1313V54.082H55.2992ZM50.6313 55.918C50.6313 61.1133 48.4828 65.6641 42.6039 68.5547L41.3734 66.875C45.6703 64.7363 47.9945 61.7285 48.4438 57.7148H42.3305V55.918H50.6313ZM65.0359 58.3203C65.0164 61.5625 66.7156 64.8047 69.5867 66.0352L68.2977 67.7734C66.2664 66.8359 64.7723 64.9609 63.9617 62.6562C63.1512 65.1465 61.6375 67.1777 59.4891 68.1836L58.1609 66.3672C61.1102 65.0977 62.8289 61.7188 62.8289 58.3203V55.5078H65.0359V58.3203ZM73.0438 54.082V71.7578H70.8563V54.082H73.0438ZM89.1672 54.082V59.1602H91.6281V60.9766H89.1672V66.8164H86.9602V54.082H89.1672ZM84.3625 55.4297C84.3625 60.1172 81.3156 63.457 76.0812 64.9805L75.1828 63.2617C79.216 62.0996 81.6184 59.9023 81.9992 57.207H75.925V55.4297H84.3625ZM89.8312 69.6289V71.3867H77.8195V65.5078H80.0266V69.6289H89.8312ZM100.154 54.3555C104.177 54.3555 106.502 55.4297 106.521 57.3828C106.502 59.3555 104.177 60.4102 100.154 60.4297C96.1305 60.4102 93.7867 59.3555 93.7867 57.3828C93.7867 55.4297 96.1305 54.3555 100.154 54.3555ZM100.154 55.957C97.4586 55.957 96.0523 56.4648 96.0719 57.3828C96.0523 58.3594 97.4586 58.8086 100.154 58.8086C102.888 58.8086 104.275 58.3594 104.275 57.3828C104.275 56.4648 102.888 55.957 100.154 55.957ZM108.22 61.3672V63.1055H92.1266V61.3672H108.22ZM106.209 64.2969V68.6133H96.1695V69.9219H106.697V71.582H94.0406V67.0703H104.08V65.8984H94.0211V64.2969H106.209ZM40.6797 89.2812V91.0391H24.5859V89.2812H31.5195V87.7188C28.2969 87.4844 26.2461 86.1855 26.2461 84.1445C26.2461 81.9375 28.7656 80.5703 32.6133 80.5703C36.4609 80.5703 38.9609 81.9375 38.9805 84.1445C38.9609 86.1855 36.9297 87.4844 33.707 87.7188V89.2812H40.6797ZM38.8633 95.6289V97.3867H26.5781V92.25H28.7461V95.6289H38.8633ZM32.6133 82.2891C30.0547 82.3086 28.4922 82.9727 28.5117 84.1445C28.4922 85.375 30.0547 86 32.6133 86C35.1914 86 36.7344 85.375 36.7344 84.1445C36.7344 82.9727 35.1914 82.3086 32.6133 82.2891ZM56.2563 80.1016V92.9922H54.0883V86.5273H50.9633V84.7695H54.0883V80.1016H56.2563ZM56.7055 95.6289V97.3867H44.6742V91.8594H46.8422V95.6289H56.7055ZM47.9555 83.6172C47.9555 85.7461 49.3813 87.9336 52.1156 88.832L51.0219 90.5703C49.0492 89.8965 47.6527 88.5586 46.8813 86.8789C46.1 88.7441 44.6254 90.2188 42.5453 90.9414L41.432 89.1836C44.2445 88.2656 45.7484 85.9414 45.7484 83.5977V83.1289H42.0766V81.3711H51.6078V83.1289H47.9555V83.6172ZM73.0438 80.082V97.7383H70.8563V80.082H73.0438ZM69.3133 82.8164V84.5547H58.7273V82.8164H62.9266V80.2969H65.1336V82.8164H69.3133ZM64.0594 85.6875C66.6375 85.6875 68.5516 87.4062 68.5516 89.8477C68.5516 92.2891 66.6375 93.9883 64.0594 93.9883C61.4617 93.9883 59.5672 92.2891 59.5672 89.8477C59.5672 87.4062 61.4617 85.6875 64.0594 85.6875ZM64.0594 87.4648C62.6531 87.4648 61.6375 88.4023 61.6375 89.8477C61.6375 91.293 62.6531 92.2109 64.0594 92.1914C65.4656 92.2109 66.4617 91.293 66.4617 89.8477C66.4617 88.4023 65.4656 87.4648 64.0594 87.4648ZM95.6813 87.3672V89.1055H79.5875V87.3672H95.6813ZM93.6695 90.2969V94.6328H83.6305V95.9219H94.1578V97.582H81.5016V93.0898H91.5406V91.8984H81.482V90.2969H93.6695ZM94.2359 80.6875V82.4062H88.982C89.4215 83.7148 91.5992 84.8574 94.9195 85.082L94.2359 86.7617C91.0719 86.5078 88.6793 85.4434 87.6148 83.8711C86.5504 85.4336 84.1871 86.5078 81.0523 86.7617L80.3688 85.082C83.6598 84.8574 85.8082 83.7148 86.2672 82.4062H81.0523V80.6875H94.2359ZM111.258 80.082V89.6133H109.09V86.0195H105.672V84.2812H109.09V80.082H111.258ZM105.652 81.0977C105.652 85.7266 102.781 88.6953 97.4883 90.043L96.668 88.3242C100.818 87.3281 102.967 85.3555 103.309 82.875H97.5859V81.0977H105.652ZM101.746 90.4141V92.2891H109.09V90.4141H111.258V97.5234H99.5586V90.4141H101.746ZM101.746 95.7852H109.09V93.9883H101.746V95.7852ZM128.592 80.082V97.7383H126.522V80.082H128.592ZM124.842 80.5117V96.8984H122.791V88.7734H119.647C118.612 90.8047 116.952 92.5625 114.452 94.0078L113.221 92.4648C116.883 90.3066 118.553 87.543 118.885 83.9883H114.12V82.2305H121.034C121.034 83.9395 120.829 85.541 120.35 87.0352H122.791V80.5117H124.842ZM138.222 81.8594L138.007 91.8398H135.8L135.566 81.8594H138.222ZM136.913 96.1562C136.073 96.1562 135.39 95.4727 135.39 94.6328C135.39 93.8125 136.073 93.1289 136.913 93.1289C137.714 93.1289 138.417 93.8125 138.417 94.6328C138.417 95.4727 137.714 96.1562 136.913 96.1562Z" fill="white"/>
<mask id="path-3-outside-1_2337_2691" maskUnits="userSpaceOnUse" x="231.326" y="44.3905" width="75.9342" height="75.9342" fill="black">
<rect fill="white" x="231.326" y="44.3905" width="75.9342" height="75.9342"/>
<path fill-rule="evenodd" clip-rule="evenodd" d="M251.3 58.191L273.033 52.3676L273.761 55.0843L279.195 53.6284L280.65 59.0617L286.084 57.6059L287.54 63.0392L292.973 61.5834L300.252 88.75L294.819 90.2059L296.275 95.6392L290.841 97.0951L292.297 102.528L286.864 103.984L287.592 106.701L265.859 112.524L265.131 109.808L259.697 111.264L258.241 105.83L252.808 107.286L251.352 101.853L245.919 103.309L238.64 76.1419L244.073 74.6861L242.617 69.2527L248.05 67.7969L246.595 62.3635L252.028 60.9077L251.3 58.191Z"/>
</mask>
<path fill-rule="evenodd" clip-rule="evenodd" d="M251.3 58.191L273.033 52.3676L273.761 55.0843L279.195 53.6284L280.65 59.0617L286.084 57.6059L287.54 63.0392L292.973 61.5834L300.252 88.75L294.819 90.2059L296.275 95.6392L290.841 97.0951L292.297 102.528L286.864 103.984L287.592 106.701L265.859 112.524L265.131 109.808L259.697 111.264L258.241 105.83L252.808 107.286L251.352 101.853L245.919 103.309L238.64 76.1419L244.073 74.6861L242.617 69.2527L248.05 67.7969L246.595 62.3635L252.028 60.9077L251.3 58.191Z" fill="#FF6B00"/>
<path d="M273.033 52.3676L275.207 51.7853L274.624 49.6119L272.451 50.1943L273.033 52.3676ZM251.3 58.191L250.718 56.0177L248.544 56.6L249.127 58.7734L251.3 58.191ZM273.761 55.0843L271.588 55.6666L272.17 57.8399L274.344 57.2576L273.761 55.0843ZM279.195 53.6284L281.368 53.0461L280.786 50.8727L278.612 51.4551L279.195 53.6284ZM280.65 59.0617L278.477 59.6441L279.059 61.8174L281.233 61.2351L280.65 59.0617ZM286.084 57.6059L288.257 57.0235L287.675 54.8502L285.501 55.4325L286.084 57.6059ZM287.54 63.0392L285.366 63.6216L285.949 65.7949L288.122 65.2125L287.54 63.0392ZM292.973 61.5834L295.146 61.001L294.564 58.8277L292.391 59.41L292.973 61.5834ZM300.252 88.75L300.835 90.9234L303.008 90.341L302.426 88.1677L300.252 88.75ZM294.819 90.2059L294.237 88.0325L292.063 88.6149L292.646 90.7882L294.819 90.2059ZM296.275 95.6392L296.857 97.8125L299.03 97.2302L298.448 95.0569L296.275 95.6392ZM290.841 97.0951L290.259 94.9217L288.086 95.5041L288.668 97.6774L290.841 97.0951ZM292.297 102.528L292.88 104.702L295.053 104.119L294.471 101.946L292.297 102.528ZM286.864 103.984L286.282 101.811L284.108 102.393L284.691 104.567L286.864 103.984ZM287.592 106.701L288.174 108.874L290.348 108.292L289.765 106.119L287.592 106.701ZM265.859 112.524L263.685 113.107L264.268 115.28L266.441 114.698L265.859 112.524ZM265.131 109.808L267.304 109.225L266.722 107.052L264.548 107.634L265.131 109.808ZM259.697 111.264L257.524 111.846L258.106 114.019L260.28 113.437L259.697 111.264ZM258.241 105.83L260.415 105.248L259.832 103.075L257.659 103.657L258.241 105.83ZM252.808 107.286L250.635 107.868L251.217 110.042L253.39 109.459L252.808 107.286ZM251.352 101.853L253.526 101.27L252.943 99.0971L250.77 99.6794L251.352 101.853ZM245.919 103.309L243.746 103.891L244.328 106.064L246.501 105.482L245.919 103.309ZM238.64 76.1419L238.057 73.9686L235.884 74.5509L236.466 76.7243L238.64 76.1419ZM244.073 74.6861L244.655 76.8594L246.829 76.2771L246.246 74.1037L244.073 74.6861ZM242.617 69.2527L242.035 67.0794L239.861 67.6617L240.444 69.8351L242.617 69.2527ZM248.05 67.7969L248.633 69.9702L250.806 69.3879L250.224 67.2145L248.05 67.7969ZM246.595 62.3635L246.012 60.1902L243.839 60.7726L244.421 62.9459L246.595 62.3635ZM252.028 60.9077L252.61 63.081L254.784 62.4987L254.201 60.3253L252.028 60.9077ZM272.451 50.1943L250.718 56.0177L251.882 60.3644L273.616 54.5409L272.451 50.1943ZM275.935 54.5019L275.207 51.7853L270.86 52.9499L271.588 55.6666L275.935 54.5019ZM278.612 51.4551L273.179 52.9109L274.344 57.2576L279.777 55.8017L278.612 51.4551ZM282.824 58.4794L281.368 53.0461L277.021 54.2107L278.477 59.6441L282.824 58.4794ZM285.501 55.4325L280.068 56.8884L281.233 61.2351L286.666 59.7792L285.501 55.4325ZM289.713 62.4569L288.257 57.0235L283.91 58.1882L285.366 63.6216L289.713 62.4569ZM292.391 59.41L286.957 60.8659L288.122 65.2125L293.555 63.7567L292.391 59.41ZM302.426 88.1677L295.146 61.001L290.8 62.1657L298.079 89.3324L302.426 88.1677ZM295.401 92.3792L300.835 90.9234L299.67 86.5767L294.237 88.0325L295.401 92.3792ZM298.448 95.0569L296.992 89.6235L292.646 90.7882L294.101 96.2216L298.448 95.0569ZM291.424 99.2684L296.857 97.8125L295.692 93.4659L290.259 94.9217L291.424 99.2684ZM294.471 101.946L293.015 96.5127L288.668 97.6774L290.124 103.111L294.471 101.946ZM287.446 106.158L292.88 104.702L291.715 100.355L286.282 101.811L287.446 106.158ZM289.765 106.119L289.037 103.402L284.691 104.567L285.419 107.283L289.765 106.119ZM266.441 114.698L288.174 108.874L287.01 104.528L265.276 110.351L266.441 114.698ZM262.957 110.39L263.685 113.107L268.032 111.942L267.304 109.225L262.957 110.39ZM260.28 113.437L265.713 111.981L264.548 107.634L259.115 109.09L260.28 113.437ZM256.068 106.413L257.524 111.846L261.871 110.681L260.415 105.248L256.068 106.413ZM253.39 109.459L258.824 108.004L257.659 103.657L252.226 105.113L253.39 109.459ZM249.179 102.435L250.635 107.868L254.981 106.704L253.526 101.27L249.179 102.435ZM246.501 105.482L251.935 104.026L250.77 99.6794L245.337 101.135L246.501 105.482ZM236.466 76.7243L243.746 103.891L248.092 102.726L240.813 75.5596L236.466 76.7243ZM243.491 72.5127L238.057 73.9686L239.222 78.3153L244.655 76.8594L243.491 72.5127ZM240.444 69.8351L241.9 75.2684L246.246 74.1037L244.79 68.6704L240.444 69.8351ZM247.468 65.6235L242.035 67.0794L243.199 71.4261L248.633 69.9702L247.468 65.6235ZM244.421 62.9459L245.877 68.3792L250.224 67.2145L248.768 61.7812L244.421 62.9459ZM251.446 58.7344L246.012 60.1902L247.177 64.5369L252.61 63.081L251.446 58.7344ZM249.127 58.7734L249.855 61.49L254.201 60.3253L253.473 57.6087L249.127 58.7734Z" fill="white" mask="url(#path-3-outside-1_2337_2691)"/>
<path fill-rule="evenodd" clip-rule="evenodd" d="M273.326 69.7595L277.401 68.6676L278.493 72.7426L281.209 72.0146L284.849 85.598L282.132 86.3259L283.224 90.4009L279.149 91.4928L279.513 92.8511L265.93 96.4908L265.566 95.1324L261.491 96.2243L260.399 92.1493L257.682 92.8773L254.043 79.2939L256.759 78.566L255.668 74.491L259.743 73.3991L259.379 72.0408L272.962 68.4011L273.326 69.7595Z" fill="white"/>
<path fill-rule="evenodd" clip-rule="evenodd" d="M269.979 73.568L264.545 75.0239L265.273 77.7406L262.557 78.4685L263.648 82.5435L266.365 81.8156L267.093 84.5322L264.376 85.2602L265.468 89.3352L268.185 88.6072L268.913 91.3239L274.346 89.868L273.618 87.1514L276.335 86.4234L275.243 82.3484L272.526 83.0764L271.798 80.3597L274.515 79.6318L273.423 75.5568L270.707 76.2847L269.979 73.568ZM270.707 76.2847L271.798 80.3597L266.365 81.8156L265.273 77.7406L270.707 76.2847ZM272.526 83.0764L273.618 87.1514L268.185 88.6072L267.093 84.5322L272.526 83.0764Z" fill="black"/>
<path fill-rule="evenodd" clip-rule="evenodd" d="M287.397 95.1063L290.113 94.3784L289.385 91.6617L286.125 92.5353L286.708 94.7086L283.991 95.4365L284.719 98.1532L287.979 97.2797L287.397 95.1063Z" fill="white"/>
<path d="M198.125 25.125H181.25V42H198.125V25.125Z" fill="white"/>
<mask id="path-9-outside-2_2337_2691" maskUnits="userSpaceOnUse" x="175.438" y="-6" width="54" height="54" fill="black">
<rect fill="white" x="175.438" y="-6" width="54" height="54"/>
<path fill-rule="evenodd" clip-rule="evenodd" d="M200.938 42H198.125V39.1875H195.312V36.375H192.5V33.5625H189.688V30.75H186.875V27.9375H184.062V25.125H181.25V22.3125H178.438V13.875H181.25V8.25H184.062V2.625H186.875V-0.1875H192.5V-3H212.188V-0.1875H217.812V2.625H220.625V8.25H223.438V13.875H226.25V30.75H223.438V33.5625H220.625V36.375H217.812H212.188V44.8125H200.938V42Z"/>
</mask>
<path fill-rule="evenodd" clip-rule="evenodd" d="M200.938 42H198.125V39.1875H195.312V36.375H192.5V33.5625H189.688V30.75H186.875V27.9375H184.062V25.125H181.25V22.3125H178.438V13.875H181.25V8.25H184.062V2.625H186.875V-0.1875H192.5V-3H212.188V-0.1875H217.812V2.625H220.625V8.25H223.438V13.875H226.25V30.75H223.438V33.5625H220.625V36.375H217.812H212.188V44.8125H200.938V42Z" fill="#FF6B00"/>
<path d="M198.125 42H195.875V44.25H198.125V42ZM200.938 42H203.188V39.75H200.938V42ZM198.125 39.1875H200.375V36.9375H198.125V39.1875ZM195.312 39.1875H193.062V41.4375H195.312V39.1875ZM195.312 36.375H197.562V34.125H195.312V36.375ZM192.5 36.375H190.25V38.625H192.5V36.375ZM192.5 33.5625H194.75V31.3125H192.5V33.5625ZM189.688 33.5625H187.438V35.8125H189.688V33.5625ZM189.688 30.75H191.938V28.5H189.688V30.75ZM186.875 30.75H184.625V33H186.875V30.75ZM186.875 27.9375H189.125V25.6875H186.875V27.9375ZM184.062 27.9375H181.812V30.1875H184.062V27.9375ZM184.062 25.125H186.312V22.875H184.062V25.125ZM181.25 25.125H179V27.375H181.25V25.125ZM181.25 22.3125H183.5V20.0625H181.25V22.3125ZM178.438 22.3125H176.188V24.5625H178.438V22.3125ZM178.438 13.875V11.625H176.188V13.875H178.438ZM181.25 13.875V16.125H183.5V13.875H181.25ZM181.25 8.25V6H179V8.25H181.25ZM184.062 8.25V10.5H186.312V8.25H184.062ZM184.062 2.625V0.375H181.812V2.625H184.062ZM186.875 2.625V4.875H189.125V2.625H186.875ZM186.875 -0.1875V-2.4375H184.625V-0.1875H186.875ZM192.5 -0.1875V2.0625H194.75V-0.1875H192.5ZM192.5 -3V-5.25H190.25V-3H192.5ZM212.188 -3H214.438V-5.25H212.188V-3ZM212.188 -0.1875H209.938V2.0625H212.188V-0.1875ZM217.812 -0.1875H220.062V-2.4375H217.812V-0.1875ZM217.812 2.625H215.562V4.875H217.812V2.625ZM220.625 2.625H222.875V0.375H220.625V2.625ZM220.625 8.25H218.375V10.5H220.625V8.25ZM223.438 8.25H225.688V6H223.438V8.25ZM223.438 13.875H221.188V16.125H223.438V13.875ZM226.25 13.875H228.5V11.625H226.25V13.875ZM226.25 30.75V33H228.5V30.75H226.25ZM223.438 30.75V28.5H221.188V30.75H223.438ZM223.438 33.5625V35.8125H225.688V33.5625H223.438ZM220.625 33.5625V31.3125H218.375V33.5625H220.625ZM220.625 36.375V38.625H222.875V36.375H220.625ZM212.188 36.375V34.125H209.938V36.375H212.188ZM212.188 44.8125V47.0625H214.438V44.8125H212.188ZM200.938 44.8125H198.688V47.0625H200.938V44.8125ZM198.125 44.25H200.938V39.75H198.125V44.25ZM195.875 39.1875V42H200.375V39.1875H195.875ZM195.312 41.4375H198.125V36.9375H195.312V41.4375ZM193.062 36.375V39.1875H197.562V36.375H193.062ZM192.5 38.625H195.312V34.125H192.5V38.625ZM190.25 33.5625V36.375H194.75V33.5625H190.25ZM189.688 35.8125H192.5V31.3125H189.688V35.8125ZM187.438 30.75V33.5625H191.938V30.75H187.438ZM186.875 33H189.688V28.5H186.875V33ZM184.625 27.9375V30.75H189.125V27.9375H184.625ZM184.062 30.1875H186.875V25.6875H184.062V30.1875ZM181.812 25.125V27.9375H186.312V25.125H181.812ZM181.25 27.375H184.062V22.875H181.25V27.375ZM179 22.3125V25.125H183.5V22.3125H179ZM178.438 24.5625H181.25V20.0625H178.438V24.5625ZM176.188 13.875V22.3125H180.688V13.875H176.188ZM181.25 11.625H178.438V16.125H181.25V11.625ZM179 8.25V13.875H183.5V8.25H179ZM184.062 6H181.25V10.5H184.062V6ZM181.812 2.625V8.25H186.312V2.625H181.812ZM186.875 0.375H184.062V4.875H186.875V0.375ZM184.625 -0.1875V2.625H189.125V-0.1875H184.625ZM192.5 -2.4375H186.875V2.0625H192.5V-2.4375ZM190.25 -3V-0.1875H194.75V-3H190.25ZM212.188 -5.25H192.5V-0.75H212.188V-5.25ZM214.438 -0.1875V-3H209.938V-0.1875H214.438ZM217.812 -2.4375H212.188V2.0625H217.812V-2.4375ZM220.062 2.625V-0.1875H215.562V2.625H220.062ZM220.625 0.375H217.812V4.875H220.625V0.375ZM222.875 8.25V2.625H218.375V8.25H222.875ZM223.438 6H220.625V10.5H223.438V6ZM225.688 13.875V8.25H221.188V13.875H225.688ZM226.25 11.625H223.438V16.125H226.25V11.625ZM228.5 30.75V13.875H224V30.75H228.5ZM223.438 33H226.25V28.5H223.438V33ZM225.688 33.5625V30.75H221.188V33.5625H225.688ZM220.625 35.8125H223.438V31.3125H220.625V35.8125ZM222.875 36.375V33.5625H218.375V36.375H222.875ZM217.812 38.625H220.625V34.125H217.812V38.625ZM212.188 38.625H217.812V34.125H212.188V38.625ZM214.438 44.8125V36.375H209.938V44.8125H214.438ZM200.938 47.0625H212.188V42.5625H200.938V47.0625ZM198.688 42V44.8125H203.188V42H198.688Z" fill="white" mask="url(#path-9-outside-2_2337_2691)"/>
<path d="M225.125 37.5H213.312V49.3125H225.125V37.5Z" fill="white"/>
<path d="M178.438 44.8125H172.812V50.4375H178.438V44.8125Z" fill="white"/>
<path d="M181.25 42H175.625V47.625H181.25V42Z" fill="white"/>
<path d="M184.062 39.1875H178.438V44.8125H184.062V39.1875Z" fill="white"/>
<path d="M181.25 42H175.625V47.625H181.25V42Z" fill="white"/>
<mask id="path-16-outside-3_2337_2691" maskUnits="userSpaceOnUse" x="167" y="22.125" width="34" height="34" fill="black">
<rect fill="white" x="167" y="22.125" width="34" height="34"/>
<path fill-rule="evenodd" clip-rule="evenodd" d="M178.438 39.1875V25.125H181.25V39.1875H178.438ZM175.625 42V39.1875H178.438V42H175.625ZM172.812 44.8125H175.625V42H172.812V44.8125ZM172.812 50.4375V44.8125H170V50.4375H172.812ZM178.438 50.4375H172.812V53.25H178.438V50.4375ZM181.25 47.625H178.438V50.4375H181.25V47.625ZM184.062 44.8125V47.625H181.25V44.8125H184.062ZM184.062 44.8125V42H198.125V44.8125H184.062Z"/>
</mask>
<path fill-rule="evenodd" clip-rule="evenodd" d="M178.438 39.1875V25.125H181.25V39.1875H178.438ZM175.625 42V39.1875H178.438V42H175.625ZM172.812 44.8125H175.625V42H172.812V44.8125ZM172.812 50.4375V44.8125H170V50.4375H172.812ZM178.438 50.4375H172.812V53.25H178.438V50.4375ZM181.25 47.625H178.438V50.4375H181.25V47.625ZM184.062 44.8125V47.625H181.25V44.8125H184.062ZM184.062 44.8125V42H198.125V44.8125H184.062Z" fill="#FF6B00"/>
<path d="M178.438 25.125V22.875H176.188V25.125H178.438ZM181.25 25.125H183.5V22.875H181.25V25.125ZM181.25 39.1875V41.4375H183.5V39.1875H181.25ZM175.625 39.1875V36.9375H173.375V39.1875H175.625ZM178.438 42V44.25H180.688V42H178.438ZM175.625 44.8125V47.0625H177.875V44.8125H175.625ZM172.812 42V39.75H170.562V42H172.812ZM170 44.8125V42.5625H167.75V44.8125H170ZM170 50.4375H167.75V52.6875H170V50.4375ZM172.812 53.25H170.562V55.5H172.812V53.25ZM178.438 53.25V55.5H180.688V53.25H178.438ZM178.438 47.625V45.375H176.188V47.625H178.438ZM181.25 50.4375V52.6875H183.5V50.4375H181.25ZM184.062 47.625V49.875H186.312V47.625H184.062ZM181.25 44.8125V42.5625H179V44.8125H181.25ZM184.062 42V39.75H181.812V42H184.062ZM198.125 42H200.375V39.75H198.125V42ZM198.125 44.8125V47.0625H200.375V44.8125H198.125ZM176.188 25.125V39.1875H180.688V25.125H176.188ZM181.25 22.875H178.438V27.375H181.25V22.875ZM183.5 39.1875V25.125H179V39.1875H183.5ZM178.438 41.4375H181.25V36.9375H178.438V41.4375ZM177.875 42V39.1875H173.375V42H177.875ZM175.625 41.4375H178.438V36.9375H175.625V41.4375ZM176.188 39.1875V42H180.688V39.1875H176.188ZM178.438 39.75H175.625V44.25H178.438V39.75ZM175.625 42.5625H172.812V47.0625H175.625V42.5625ZM173.375 42V44.8125H177.875V42H173.375ZM172.812 44.25H175.625V39.75H172.812V44.25ZM175.062 44.8125V42H170.562V44.8125H175.062ZM170.562 44.8125V50.4375H175.062V44.8125H170.562ZM170 47.0625H172.812V42.5625H170V47.0625ZM172.25 50.4375V44.8125H167.75V50.4375H172.25ZM172.812 48.1875H170V52.6875H172.812V48.1875ZM172.812 52.6875H178.438V48.1875H172.812V52.6875ZM175.062 53.25V50.4375H170.562V53.25H175.062ZM178.438 51H172.812V55.5H178.438V51ZM176.188 50.4375V53.25H180.688V50.4375H176.188ZM178.438 49.875H181.25V45.375H178.438V49.875ZM180.688 50.4375V47.625H176.188V50.4375H180.688ZM181.25 48.1875H178.438V52.6875H181.25V48.1875ZM179 47.625V50.4375H183.5V47.625H179ZM186.312 47.625V44.8125H181.812V47.625H186.312ZM181.25 49.875H184.062V45.375H181.25V49.875ZM179 44.8125V47.625H183.5V44.8125H179ZM184.062 42.5625H181.25V47.0625H184.062V42.5625ZM181.812 42V44.8125H186.312V42H181.812ZM198.125 39.75H184.062V44.25H198.125V39.75ZM200.375 44.8125V42H195.875V44.8125H200.375ZM184.062 47.0625H198.125V42.5625H184.062V47.0625Z" fill="white" mask="url(#path-16-outside-3_2337_2691)"/>
<path d="M189.688 27.9375H186.875V30.75H189.688V27.9375Z" fill="#FF6B00"/>
<path d="M195.313 33.5625H192.5V36.375H195.313V33.5625Z" fill="#FF6B00"/>
<path d="M215.586 35.805L213.358 33.5776L207.154 39.7825L209.381 42.0099L215.586 35.805Z" fill="#FF6B00"/>
<path d="M210.079 36.9943H207.266V39.8068H210.079V36.9943Z" fill="#FF6B00"/>
<mask id="path-22-outside-4_2337_2691" maskUnits="userSpaceOnUse" x="207.698" y="32.0536" width="23" height="23" fill="black">
<rect fill="white" x="207.698" y="32.0536" width="23" height="23"/>
<path fill-rule="evenodd" clip-rule="evenodd" d="M223.44 37.8661H215.002V39.188H213.51V47.6251H215.001V49.1161H223.44V47.6255H224.76V39.188H223.44V37.8661ZM213.51 50.4376V51.9286H224.76V50.438H226.252V47.6255H227.573V39.188H226.252V36.3755H224.76V35.0536H213.51V36.3755H212.19V39.188H210.698V47.6255H212.188V50.4376H213.51Z"/>
</mask>
<path fill-rule="evenodd" clip-rule="evenodd" d="M223.44 37.8661H215.002V39.188H213.51V47.6251H215.001V49.1161H223.44V47.6255H224.76V39.188H223.44V37.8661ZM213.51 50.4376V51.9286H224.76V50.438H226.252V47.6255H227.573V39.188H226.252V36.3755H224.76V35.0536H213.51V36.3755H212.19V39.188H210.698V47.6255H212.188V50.4376H213.51Z" fill="#FF6B00"/>
<path d="M215.002 37.8661V35.6161H212.752V37.8661H215.002ZM223.44 37.8661H225.69V35.6161H223.44V37.8661ZM215.002 39.188V41.438H217.252V39.188H215.002ZM213.51 39.188V36.938H211.26V39.188H213.51ZM213.51 47.6251H211.26V49.8751H213.51V47.6251ZM215.001 47.6251H217.251V45.3751H215.001V47.6251ZM215.001 49.1161H212.751V51.3661H215.001V49.1161ZM223.44 49.1161V51.3661H225.69V49.1161H223.44ZM223.44 47.6255V45.3755H221.19V47.6255H223.44ZM224.76 47.6255V49.8755H227.01V47.6255H224.76ZM224.76 39.188H227.01V36.938H224.76V39.188ZM223.44 39.188H221.19V41.438H223.44V39.188ZM213.51 50.4376H215.76V48.1876H213.51V50.4376ZM213.51 51.9286H211.26V54.1786H213.51V51.9286ZM224.76 51.9286V54.1786H227.01V51.9286H224.76ZM224.76 50.438V48.188H222.51V50.438H224.76ZM226.252 50.438V52.688H228.502V50.438H226.252ZM226.252 47.6255V45.3755H224.002V47.6255H226.252ZM227.573 47.6255V49.8755H229.823V47.6255H227.573ZM227.573 39.188H229.823V36.938H227.573V39.188ZM226.252 39.188H224.002V41.438H226.252V39.188ZM226.252 36.3755H228.502V34.1255H226.252V36.3755ZM224.76 36.3755H222.51V38.6255H224.76V36.3755ZM224.76 35.0536H227.01V32.8036H224.76V35.0536ZM213.51 35.0536V32.8036H211.26V35.0536H213.51ZM213.51 36.3755V38.6255H215.76V36.3755H213.51ZM212.19 36.3755V34.1255H209.94V36.3755H212.19ZM212.19 39.188V41.438H214.44V39.188H212.19ZM210.698 39.188V36.938H208.448V39.188H210.698ZM210.698 47.6255H208.448V49.8755H210.698V47.6255ZM212.188 47.6255H214.438V45.3755H212.188V47.6255ZM212.188 50.4376H209.938V52.6876H212.188V50.4376ZM215.002 40.1161H223.44V35.6161H215.002V40.1161ZM217.252 39.188V37.8661H212.752V39.188H217.252ZM213.51 41.438H215.002V36.938H213.51V41.438ZM215.76 47.6251V39.188H211.26V47.6251H215.76ZM215.001 45.3751H213.51V49.8751H215.001V45.3751ZM217.251 49.1161V47.6251H212.751V49.1161H217.251ZM223.44 46.8661H215.001V51.3661H223.44V46.8661ZM221.19 47.6255V49.1161H225.69V47.6255H221.19ZM224.76 45.3755H223.44V49.8755H224.76V45.3755ZM222.51 39.188V47.6255H227.01V39.188H222.51ZM223.44 41.438H224.76V36.938H223.44V41.438ZM221.19 37.8661V39.188H225.69V37.8661H221.19ZM211.26 50.4376V51.9286H215.76V50.4376H211.26ZM213.51 54.1786H224.76V49.6786H213.51V54.1786ZM227.01 51.9286V50.438H222.51V51.9286H227.01ZM224.76 52.688H226.252V48.188H224.76V52.688ZM228.502 50.438V47.6255H224.002V50.438H228.502ZM226.252 49.8755H227.573V45.3755H226.252V49.8755ZM229.823 47.6255V39.188H225.323V47.6255H229.823ZM227.573 36.938H226.252V41.438H227.573V36.938ZM228.502 39.188V36.3755H224.002V39.188H228.502ZM226.252 34.1255H224.76V38.6255H226.252V34.1255ZM227.01 36.3755V35.0536H222.51V36.3755H227.01ZM224.76 32.8036H213.51V37.3036H224.76V32.8036ZM211.26 35.0536V36.3755H215.76V35.0536H211.26ZM213.51 34.1255H212.19V38.6255H213.51V34.1255ZM209.94 36.3755V39.188H214.44V36.3755H209.94ZM212.19 36.938H210.698V41.438H212.19V36.938ZM208.448 39.188V47.6255H212.948V39.188H208.448ZM210.698 49.8755H212.188V45.3755H210.698V49.8755ZM209.938 47.6255V50.4376H214.438V47.6255H209.938ZM212.188 52.6876H213.51V48.1876H212.188V52.6876Z" fill="white" mask="url(#path-22-outside-4_2337_2691)"/>
<path d="M223.438 44.8125H220.625V47.625H223.438V44.8125Z" fill="#FF6B00"/>
<path d="M184.062 22.3125H181.25V25.125H184.062V22.3125Z" fill="#FF6B00"/>
<path d="M200.938 39.1875H198.125V42H200.938V39.1875Z" fill="#FF6B00"/>
<path d="M223.438 30.75H220.625V33.5625H223.438V30.75Z" fill="#FF6B00"/>
<path d="M213.508 37.8656H224.758V35.0531H213.508V37.8656Z" fill="#FF6B00"/>
<path d="M210.695 47.625H213.508V39.1875H210.695V47.625Z" fill="#FF6B00"/>
<path d="M212.188 36.375H200.938V44.8125H212.188V36.375Z" fill="#FF6B00"/>
<path d="M212.188 36.375H217.812V-0.1875H212.188V36.375Z" fill="#FF6B00"/>
<path d="M217.812 2.625V36.375H220.625V2.625H217.812Z" fill="#FF6B00"/>
<path d="M215 36.375H212.188V39.1875H215V36.375Z" fill="#FF6B00"/>
<path d="M212.75 31.875H208.812V37.5H212.75V31.875Z" fill="#FF6B00"/>
<rect x="174.73" y="146.001" width="50" height="11" transform="rotate(-22.08 174.73 146.001)" fill="white"/>
<path d="M184.866 141.89L187.473 140.833L172.695 104.403L170.088 105.46L184.866 141.89Z" fill="white"/>
<mask id="path-37-outside-5_2337_2691" maskUnits="userSpaceOnUse" x="166.893" y="119.669" width="66.0986" height="44.619" fill="black">
<rect fill="white" x="166.893" y="119.669" width="66.0986" height="44.619"/>
<path fill-rule="evenodd" clip-rule="evenodd" d="M189.044 137.226L190.102 139.833L218.77 128.203L217.713 125.597L189.044 137.226ZM181.299 155.544L182.357 158.15L224.056 141.235L222.999 138.628L181.299 155.544ZM177.636 153.995L180.242 152.938L181.299 155.544L178.693 156.601L177.636 153.995ZM177.636 153.995L175.03 155.052L172.915 149.84L175.522 148.782L177.636 153.995ZM222.434 129.752L219.827 130.81L218.77 128.203L221.376 127.146L222.434 129.752ZM222.434 129.752L225.04 128.695L227.154 133.908L224.548 134.965L225.606 137.571L222.999 138.628L221.942 136.022L224.548 134.965L222.434 129.752ZM177.07 145.119L174.464 146.176L175.521 148.782L178.127 147.725L177.07 145.119ZM176.014 142.513L181.226 140.398L182.283 143.005L177.071 145.119L176.014 142.513Z"/>
</mask>
<path fill-rule="evenodd" clip-rule="evenodd" d="M189.044 137.226L190.102 139.833L218.77 128.203L217.713 125.597L189.044 137.226ZM181.299 155.544L182.357 158.15L224.056 141.235L222.999 138.628L181.299 155.544ZM177.636 153.995L180.242 152.938L181.299 155.544L178.693 156.601L177.636 153.995ZM177.636 153.995L175.03 155.052L172.915 149.84L175.522 148.782L177.636 153.995ZM222.434 129.752L219.827 130.81L218.77 128.203L221.376 127.146L222.434 129.752ZM222.434 129.752L225.04 128.695L227.154 133.908L224.548 134.965L225.606 137.571L222.999 138.628L221.942 136.022L224.548 134.965L222.434 129.752ZM177.07 145.119L174.464 146.176L175.521 148.782L178.127 147.725L177.07 145.119ZM176.014 142.513L181.226 140.398L182.283 143.005L177.071 145.119L176.014 142.513Z" fill="#FF6B00"/>
<path d="M190.102 139.833L188.017 140.678L188.862 142.763L190.947 141.918L190.102 139.833ZM189.044 137.226L188.199 135.141L186.114 135.987L186.959 138.072L189.044 137.226ZM218.77 128.203L219.616 130.288L221.701 129.442L220.855 127.357L218.77 128.203ZM217.713 125.597L219.798 124.751L218.952 122.666L216.867 123.512L217.713 125.597ZM182.357 158.15L180.272 158.996L181.117 161.081L183.202 160.235L182.357 158.15ZM224.056 141.235L224.902 143.32L226.987 142.474L226.141 140.389L224.056 141.235ZM222.999 138.628L225.084 137.783L224.238 135.698L222.153 136.543L222.999 138.628ZM180.242 152.938L182.327 152.092L181.481 150.007L179.396 150.853L180.242 152.938ZM178.693 156.601L176.608 157.447L177.454 159.532L179.539 158.686L178.693 156.601ZM175.03 155.052L172.945 155.898L173.791 157.983L175.876 157.137L175.03 155.052ZM172.915 149.84L172.07 147.755L169.985 148.6L170.83 150.685L172.915 149.84ZM175.522 148.782L177.607 147.937L176.761 145.852L174.676 146.697L175.522 148.782ZM219.827 130.81L217.742 131.655L218.588 133.74L220.673 132.895L219.827 130.81ZM218.77 128.203L217.924 126.118L215.839 126.964L216.685 129.049L218.77 128.203ZM221.376 127.146L223.461 126.3L222.616 124.215L220.531 125.061L221.376 127.146ZM225.04 128.695L227.125 127.849L226.279 125.764L224.194 126.61L225.04 128.695ZM227.154 133.908L228 135.993L230.085 135.147L229.239 133.062L227.154 133.908ZM224.548 134.965L223.703 132.88L221.618 133.726L222.463 135.811L224.548 134.965ZM225.606 137.571L226.451 139.656L228.536 138.81L227.691 136.725L225.606 137.571ZM222.999 138.628L220.914 139.474L221.76 141.559L223.845 140.713L222.999 138.628ZM221.942 136.022L221.096 133.937L219.011 134.783L219.857 136.868L221.942 136.022ZM224.548 134.965L225.394 137.05L227.479 136.204L226.633 134.119L224.548 134.965ZM174.464 146.176L173.618 144.091L171.533 144.937L172.379 147.022L174.464 146.176ZM177.07 145.119L179.155 144.273L178.309 142.188L176.224 143.034L177.07 145.119ZM175.521 148.782L173.436 149.628L174.282 151.713L176.367 150.867L175.521 148.782ZM178.127 147.725L178.973 149.81L181.058 148.964L180.212 146.879L178.127 147.725ZM181.226 140.398L183.311 139.553L182.465 137.468L180.38 138.314L181.226 140.398ZM176.014 142.513L175.168 140.428L173.083 141.274L173.929 143.359L176.014 142.513ZM182.283 143.005L183.129 145.09L185.214 144.244L184.368 142.159L182.283 143.005ZM177.071 145.119L174.986 145.965L175.832 148.05L177.917 147.204L177.071 145.119ZM192.187 138.987L191.129 136.381L186.959 138.072L188.017 140.678L192.187 138.987ZM217.924 126.118L189.256 137.748L190.947 141.918L219.616 130.288L217.924 126.118ZM215.628 126.443L216.685 129.049L220.855 127.357L219.798 124.751L215.628 126.443ZM189.89 139.311L218.559 127.682L216.867 123.512L188.199 135.141L189.89 139.311ZM184.442 157.304L183.384 154.698L179.214 156.39L180.272 158.996L184.442 157.304ZM223.211 139.15L181.511 156.065L183.202 160.235L224.902 143.32L223.211 139.15ZM220.914 139.474L221.971 142.08L226.141 140.389L225.084 137.783L220.914 139.474ZM182.145 157.629L223.845 140.713L222.153 136.543L180.454 153.459L182.145 157.629ZM179.396 150.853L176.79 151.91L178.482 156.08L181.088 155.023L179.396 150.853ZM183.384 154.698L182.327 152.092L178.157 153.783L179.214 156.39L183.384 154.698ZM179.539 158.686L182.145 157.629L180.454 153.459L177.847 154.516L179.539 158.686ZM175.551 154.841L176.608 157.447L180.778 155.755L179.721 153.149L175.551 154.841ZM175.876 157.137L178.482 156.08L176.79 151.91L174.184 152.967L175.876 157.137ZM170.83 150.685L172.945 155.898L177.115 154.206L175 148.994L170.83 150.685ZM174.676 146.697L172.07 147.755L173.761 151.925L176.367 150.867L174.676 146.697ZM179.721 153.149L177.607 147.937L173.437 149.628L175.551 154.841L179.721 153.149ZM220.673 132.895L223.279 131.837L221.588 127.667L218.982 128.725L220.673 132.895ZM216.685 129.049L217.742 131.655L221.912 129.964L220.855 127.358L216.685 129.049ZM220.531 125.061L217.924 126.118L219.616 130.288L222.222 129.231L220.531 125.061ZM224.519 128.907L223.461 126.3L219.292 127.992L220.349 130.598L224.519 128.907ZM224.194 126.61L221.588 127.667L223.279 131.837L225.886 130.78L224.194 126.61ZM229.239 133.062L227.125 127.849L222.955 129.541L225.069 134.753L229.239 133.062ZM225.394 137.05L228 135.993L226.309 131.823L223.703 132.88L225.394 137.05ZM227.691 136.725L226.633 134.119L222.463 135.811L223.521 138.417L227.691 136.725ZM223.845 140.713L226.451 139.656L224.76 135.486L222.154 136.543L223.845 140.713ZM219.857 136.868L220.914 139.474L225.084 137.782L224.027 135.176L219.857 136.868ZM223.702 132.88L221.096 133.937L222.788 138.107L225.394 137.05L223.702 132.88ZM220.349 130.598L222.463 135.811L226.633 134.119L224.519 128.907L220.349 130.598ZM175.31 148.261L177.916 147.204L176.224 143.034L173.618 144.091L175.31 148.261ZM177.606 147.936L176.549 145.33L172.379 147.022L173.436 149.628L177.606 147.936ZM177.282 145.64L174.675 146.697L176.367 150.867L178.973 149.81L177.282 145.64ZM174.985 145.965L176.042 148.571L180.212 146.879L179.155 144.273L174.985 145.965ZM180.38 138.314L175.168 140.428L176.86 144.598L182.072 142.483L180.38 138.314ZM184.368 142.159L183.311 139.553L179.141 141.244L180.198 143.85L184.368 142.159ZM177.917 147.204L183.129 145.09L181.438 140.92L176.225 143.034L177.917 147.204ZM173.929 143.359L174.986 145.965L179.156 144.273L178.099 141.667L173.929 143.359Z" fill="white" mask="url(#path-37-outside-5_2337_2691)"/>
<path d="M194.822 143.988L181.791 149.274L182.848 151.88L195.879 146.594L194.822 143.988Z" fill="#FF6B00"/>
<mask id="path-40-outside-6_2337_2691" maskUnits="userSpaceOnUse" x="162.517" y="86.4707" width="58.0907" height="63.0475" fill="black">
<rect fill="white" x="162.517" y="86.4707" width="58.0907" height="63.0475"/>
<path fill-rule="evenodd" clip-rule="evenodd" d="M172.694 104.402L170.088 105.46L169.031 102.853L171.637 101.796L172.694 104.402ZM188.553 143.496L191.159 142.439L175.301 103.345L172.694 104.402L188.553 143.496ZM183.34 145.611L185.946 144.553L170.088 105.46L167.482 106.517L183.34 145.611ZM180.513 101.231L175.301 103.345L183.759 124.195L183.759 124.195L184.816 126.801L192.635 123.63L191.577 121.024L194.184 119.967L193.126 117.36L187.914 119.475L187.914 119.474L193.126 117.36L186.783 101.723L181.57 103.837L180.513 101.231ZM190.938 97.0019L185.725 99.1163L191.012 112.148L196.224 110.033L196.224 110.033L198.83 108.976L198.83 108.976L193.618 111.09L194.675 113.697L199.887 111.582L200.944 114.188L203.551 113.131L201.436 107.919L201.436 107.919L199.322 102.706L201.928 101.649L200.871 99.043L198.265 100.1L197.207 97.4936L191.995 99.608L190.938 97.0019ZM201.929 101.649L199.322 102.706L202.494 110.525L205.1 109.468L204.043 106.862L206.649 105.804L204.535 100.592L201.929 101.649ZM191.012 112.148L193.618 111.09L195.732 116.303L193.126 117.36L191.012 112.148Z"/>
</mask>
<path fill-rule="evenodd" clip-rule="evenodd" d="M172.694 104.402L170.088 105.46L169.031 102.853L171.637 101.796L172.694 104.402ZM188.553 143.496L191.159 142.439L175.301 103.345L172.694 104.402L188.553 143.496ZM183.34 145.611L185.946 144.553L170.088 105.46L167.482 106.517L183.34 145.611ZM180.513 101.231L175.301 103.345L183.759 124.195L183.759 124.195L184.816 126.801L192.635 123.63L191.577 121.024L194.184 119.967L193.126 117.36L187.914 119.475L187.914 119.474L193.126 117.36L186.783 101.723L181.57 103.837L180.513 101.231ZM190.938 97.0019L185.725 99.1163L191.012 112.148L196.224 110.033L196.224 110.033L198.83 108.976L198.83 108.976L193.618 111.09L194.675 113.697L199.887 111.582L200.944 114.188L203.551 113.131L201.436 107.919L201.436 107.919L199.322 102.706L201.928 101.649L200.871 99.043L198.265 100.1L197.207 97.4936L191.995 99.608L190.938 97.0019ZM201.929 101.649L199.322 102.706L202.494 110.525L205.1 109.468L204.043 106.862L206.649 105.804L204.535 100.592L201.929 101.649ZM191.012 112.148L193.618 111.09L195.732 116.303L193.126 117.36L191.012 112.148Z" fill="#FF6B00"/>
<path d="M170.088 105.46L168.003 106.305L168.849 108.39L170.934 107.545L170.088 105.46ZM172.694 104.402L173.54 106.487L175.625 105.642L174.779 103.557L172.694 104.402ZM169.031 102.853L168.185 100.768L166.1 101.614L166.946 103.699L169.031 102.853ZM171.637 101.796L173.722 100.95L172.876 98.8655L170.791 99.7113L171.637 101.796ZM191.159 142.439L192.005 144.524L194.09 143.678L193.244 141.593L191.159 142.439ZM188.553 143.496L186.468 144.342L187.314 146.427L189.399 145.581L188.553 143.496ZM175.301 103.345L177.386 102.499L176.54 100.414L174.455 101.26L175.301 103.345ZM172.694 104.402L171.849 102.317L169.764 103.163L170.609 105.248L172.694 104.402ZM185.946 144.553L186.792 146.638L188.877 145.793L188.031 143.708L185.946 144.553ZM183.34 145.611L181.255 146.456L182.101 148.541L184.186 147.696L183.34 145.611ZM170.088 105.46L172.173 104.614L171.327 102.529L169.242 103.375L170.088 105.46ZM167.482 106.517L166.636 104.432L164.551 105.278L165.397 107.363L167.482 106.517ZM175.301 103.345L174.455 101.26L172.37 102.106L173.216 104.191L175.301 103.345ZM180.513 101.231L182.598 100.385L181.753 98.3002L179.668 99.1459L180.513 101.231ZM183.759 124.195L181.674 125.041L182.519 127.126L184.604 126.28L183.759 124.195ZM183.759 124.195L185.844 123.349L184.998 121.264L182.913 122.11L183.759 124.195ZM184.816 126.801L182.731 127.647L183.577 129.732L185.662 128.886L184.816 126.801ZM192.635 123.63L193.48 125.715L195.565 124.869L194.72 122.784L192.635 123.63ZM191.577 121.024L190.732 118.939L188.647 119.784L189.493 121.869L191.577 121.024ZM194.184 119.967L195.029 122.052L197.114 121.206L196.269 119.121L194.184 119.967ZM193.126 117.36L195.211 116.515L194.366 114.43L192.281 115.275L193.126 117.36ZM187.914 119.475L185.829 120.321L186.675 122.406L188.76 121.56L187.914 119.475ZM187.914 119.474L187.068 117.389L184.983 118.235L185.829 120.32L187.914 119.474ZM193.126 117.36L193.972 119.445L196.057 118.599L195.211 116.514L193.126 117.36ZM186.783 101.723L188.868 100.877L188.022 98.7918L185.937 99.6376L186.783 101.723ZM181.57 103.837L179.485 104.683L180.331 106.768L182.416 105.922L181.57 103.837ZM185.725 99.1163L184.88 97.0314L182.795 97.8771L183.64 99.9621L185.725 99.1163ZM190.938 97.0019L193.023 96.1561L192.177 94.0711L190.092 94.9169L190.938 97.0019ZM191.012 112.148L188.927 112.993L189.772 115.078L191.857 114.232L191.012 112.148ZM196.224 110.033L197.07 112.118L199.155 111.272L198.309 109.187L196.224 110.033ZM196.224 110.033L195.378 107.948L193.293 108.794L194.139 110.879L196.224 110.033ZM198.83 108.976L200.915 108.13L200.069 106.045L197.984 106.891L198.83 108.976ZM198.83 108.976L199.676 111.061L201.761 110.215L200.915 108.13L198.83 108.976ZM193.618 111.09L192.772 109.005L190.687 109.851L191.533 111.936L193.618 111.09ZM194.675 113.697L192.59 114.542L193.436 116.627L195.521 115.782L194.675 113.697ZM199.887 111.582L201.972 110.737L201.127 108.652L199.042 109.497L199.887 111.582ZM200.944 114.188L198.859 115.034L199.705 117.119L201.79 116.273L200.944 114.188ZM203.551 113.131L204.396 115.216L206.481 114.37L205.636 112.285L203.551 113.131ZM201.436 107.919L200.59 105.834L198.505 106.679L199.351 108.764L201.436 107.919ZM201.436 107.919L202.282 110.004L204.367 109.158L203.521 107.073L201.436 107.919ZM199.322 102.706L198.476 100.621L196.391 101.467L197.237 103.552L199.322 102.706ZM201.928 101.649L202.774 103.734L204.859 102.888L204.013 100.803L201.928 101.649ZM200.871 99.043L202.956 98.1972L202.11 96.1123L200.025 96.958L200.871 99.043ZM198.265 100.1L196.18 100.946L197.026 103.031L199.111 102.185L198.265 100.1ZM197.207 97.4936L199.292 96.6478L198.447 94.5628L196.362 95.4086L197.207 97.4936ZM191.995 99.608L189.91 100.454L190.756 102.539L192.841 101.693L191.995 99.608ZM199.322 102.706L198.477 100.621L196.392 101.467L197.237 103.552L199.322 102.706ZM202.494 110.525L200.409 111.371L201.255 113.456L203.34 112.61L202.494 110.525ZM205.1 109.468L205.946 111.553L208.031 110.707L207.185 108.622L205.1 109.468ZM204.043 106.862L203.197 104.777L201.112 105.622L201.958 107.707L204.043 106.862ZM206.649 105.804L207.495 107.889L209.58 107.044L208.734 104.959L206.649 105.804ZM204.535 100.592L206.62 99.7461L205.774 97.6611L203.689 98.5069L204.535 100.592ZM193.618 111.09L195.703 110.245L194.857 108.16L192.772 109.005L193.618 111.09ZM191.012 112.148L190.166 110.063L188.081 110.908L188.927 112.993L191.012 112.148ZM195.732 116.303L196.578 118.388L198.663 117.542L197.817 115.457L195.732 116.303ZM193.126 117.36L191.041 118.206L191.887 120.291L193.972 119.445L193.126 117.36ZM170.934 107.545L173.54 106.487L171.848 102.317L169.242 103.375L170.934 107.545ZM166.946 103.699L168.003 106.305L172.173 104.614L171.116 102.008L166.946 103.699ZM170.791 99.7113L168.185 100.768L169.877 104.938L172.483 103.881L170.791 99.7113ZM174.779 103.557L173.722 100.95L169.552 102.642L170.609 105.248L174.779 103.557ZM190.313 140.354L187.707 141.411L189.399 145.581L192.005 144.524L190.313 140.354ZM173.216 104.191L189.074 143.284L193.244 141.593L177.386 102.499L173.216 104.191ZM173.54 106.487L176.146 105.43L174.455 101.26L171.849 102.317L173.54 106.487ZM190.638 142.65L174.779 103.557L170.609 105.248L186.468 144.342L190.638 142.65ZM185.1 142.468L182.494 143.526L184.186 147.696L186.792 146.638L185.1 142.468ZM168.003 106.306L183.861 145.399L188.031 143.708L172.173 104.614L168.003 106.306ZM168.327 108.602L170.934 107.545L169.242 103.375L166.636 104.432L168.327 108.602ZM185.425 144.765L169.567 105.671L165.397 107.363L181.255 146.456L185.425 144.765ZM176.147 105.43L181.359 103.316L179.668 99.1459L174.455 101.26L176.147 105.43ZM185.844 123.349L177.386 102.5L173.216 104.191L181.674 125.041L185.844 123.349ZM182.913 122.11L182.913 122.11L184.604 126.28L184.604 126.28L182.913 122.11ZM186.901 125.955L185.844 123.349L181.674 125.041L182.731 127.647L186.901 125.955ZM191.789 121.545L183.97 124.716L185.662 128.886L193.48 125.715L191.789 121.545ZM189.493 121.869L190.55 124.475L194.72 122.784L193.662 120.178L189.493 121.869ZM193.338 117.882L190.732 118.939L192.423 123.109L195.029 122.052L193.338 117.882ZM191.041 118.206L192.099 120.812L196.269 119.121L195.211 116.515L191.041 118.206ZM188.76 121.56L193.972 119.445L192.281 115.275L187.068 117.39L188.76 121.56ZM185.829 120.32L185.829 120.321L189.999 118.629L189.999 118.629L185.829 120.32ZM192.28 115.275L187.068 117.389L188.76 121.559L193.972 119.445L192.28 115.275ZM184.698 102.568L191.041 118.206L195.211 116.514L188.868 100.877L184.698 102.568ZM182.416 105.922L187.628 103.808L185.937 99.6376L180.725 101.752L182.416 105.922ZM178.428 102.077L179.485 104.683L183.655 102.991L182.598 100.385L178.428 102.077ZM186.571 101.201L191.784 99.0869L190.092 94.9169L184.88 97.0314L186.571 101.201ZM193.097 111.302L187.81 98.2706L183.64 99.9621L188.927 112.993L193.097 111.302ZM195.378 107.948L190.166 110.063L191.857 114.232L197.07 112.118L195.378 107.948ZM194.139 110.879L194.139 110.879L198.309 109.187L198.309 109.187L194.139 110.879ZM197.984 106.891L195.378 107.948L197.07 112.118L199.676 111.061L197.984 106.891ZM200.915 108.13L200.915 108.13L196.745 109.822L196.745 109.822L200.915 108.13ZM194.464 113.175L199.676 111.061L197.984 106.891L192.772 109.005L194.464 113.175ZM196.76 112.851L195.703 110.245L191.533 111.936L192.59 114.542L196.76 112.851ZM199.042 109.497L193.83 111.612L195.521 115.782L200.733 113.667L199.042 109.497ZM203.029 113.342L201.972 110.737L197.802 112.428L198.859 115.034L203.029 113.342ZM202.705 111.046L200.099 112.103L201.79 116.273L204.396 115.216L202.705 111.046ZM199.351 108.764L201.466 113.977L205.636 112.285L203.521 107.073L199.351 108.764ZM200.591 105.834L200.59 105.834L202.282 110.004L202.282 110.004L200.591 105.834ZM197.237 103.552L199.351 108.764L203.521 107.073L201.407 101.861L197.237 103.552ZM201.082 99.5643L198.476 100.621L200.168 104.791L202.774 103.734L201.082 99.5643ZM198.786 99.8888L199.843 102.495L204.013 100.803L202.956 98.1972L198.786 99.8888ZM199.111 102.185L201.717 101.128L200.025 96.958L197.419 98.0151L199.111 102.185ZM195.122 98.3394L196.18 100.946L200.35 99.2543L199.292 96.6478L195.122 98.3394ZM192.841 101.693L198.053 99.5786L196.362 95.4086L191.149 97.523L192.841 101.693ZM188.853 97.8477L189.91 100.454L194.08 98.7622L193.023 96.1561L188.853 97.8477ZM200.168 104.791L202.774 103.734L201.083 99.5641L198.477 100.621L200.168 104.791ZM204.579 109.679L201.407 101.861L197.237 103.552L200.409 111.371L204.579 109.679ZM204.254 107.383L201.648 108.44L203.34 112.61L205.946 111.553L204.254 107.383ZM201.958 107.707L203.015 110.314L207.185 108.622L206.128 106.016L201.958 107.707ZM204.889 108.947L207.495 107.889L205.803 103.719L203.197 104.777L204.889 108.947ZM208.734 104.959L206.62 99.7461L202.45 101.438L204.564 106.65L208.734 104.959ZM203.689 98.5069L201.083 99.5641L202.774 103.734L205.381 102.677L203.689 98.5069ZM192.772 109.005L190.166 110.063L191.857 114.233L194.464 113.175L192.772 109.005ZM197.817 115.457L195.703 110.245L191.533 111.936L193.647 117.149L197.817 115.457ZM193.972 119.445L196.578 118.388L194.886 114.218L192.28 115.275L193.972 119.445ZM188.927 112.993L191.041 118.206L195.211 116.514L193.097 111.302L188.927 112.993Z" fill="white" mask="url(#path-40-outside-6_2337_2691)"/>
<path d="M185.947 144.553L180.734 146.668L181.792 149.274L187.004 147.16L185.947 144.553Z" fill="#FF6B00"/>
<path d="M193.765 141.382L188.553 143.496L189.61 146.103L194.822 143.988L193.765 141.382Z" fill="#FF6B00"/>
</g>
<defs>
<clipPath id="clip0_2337_2691">
<rect width="320" height="150" rx="10" fill="white"/>
</clipPath>
</defs>
</svg>
