<svg viewBox="0 0 320 150" fill="none" xmlns="http://www.w3.org/2000/svg">
<g clip-path="url(#clip0_2337_2691)">
<rect width="320" height="150" rx="10" fill="#292A2B"/>
<mask id="path-2-outside-1_2337_2691" maskUnits="userSpaceOnUse" x="231.326" y="44.3905" width="75.9342" height="75.9342" fill="black">
<rect fill="white" x="231.326" y="44.3905" width="75.9342" height="75.9342"/>
<path fill-rule="evenodd" clip-rule="evenodd" d="M251.3 58.191L273.033 52.3676L273.761 55.0843L279.195 53.6284L280.65 59.0617L286.084 57.6059L287.54 63.0392L292.973 61.5834L300.252 88.75L294.819 90.2059L296.275 95.6392L290.841 97.0951L292.297 102.528L286.864 103.984L287.592 106.701L265.859 112.524L265.131 109.808L259.697 111.264L258.241 105.83L252.808 107.286L251.352 101.853L245.919 103.309L238.64 76.1419L244.073 74.6861L242.617 69.2527L248.05 67.7969L246.595 62.3635L252.028 60.9077L251.3 58.191Z"/>
</mask>
<path fill-rule="evenodd" clip-rule="evenodd" d="M251.3 58.191L273.033 52.3676L273.761 55.0843L279.195 53.6284L280.65 59.0617L286.084 57.6059L287.54 63.0392L292.973 61.5834L300.252 88.75L294.819 90.2059L296.275 95.6392L290.841 97.0951L292.297 102.528L286.864 103.984L287.592 106.701L265.859 112.524L265.131 109.808L259.697 111.264L258.241 105.83L252.808 107.286L251.352 101.853L245.919 103.309L238.64 76.1419L244.073 74.6861L242.617 69.2527L248.05 67.7969L246.595 62.3635L252.028 60.9077L251.3 58.191Z" fill="#FF6B00"/>
<path d="M273.033 52.3676L275.207 51.7853L274.624 49.6119L272.451 50.1943L273.033 52.3676ZM251.3 58.191L250.718 56.0177L248.544 56.6L249.127 58.7734L251.3 58.191ZM273.761 55.0843L271.588 55.6666L272.17 57.8399L274.344 57.2576L273.761 55.0843ZM279.195 53.6284L281.368 53.0461L280.786 50.8727L278.612 51.4551L279.195 53.6284ZM280.65 59.0617L278.477 59.6441L279.059 61.8174L281.233 61.2351L280.65 59.0617ZM286.084 57.6059L288.257 57.0235L287.675 54.8502L285.501 55.4325L286.084 57.6059ZM287.54 63.0392L285.366 63.6216L285.949 65.7949L288.122 65.2125L287.54 63.0392ZM292.973 61.5834L295.146 61.001L294.564 58.8277L292.391 59.41L292.973 61.5834ZM300.252 88.75L300.835 90.9234L303.008 90.341L302.426 88.1677L300.252 88.75ZM294.819 90.2059L294.237 88.0325L292.063 88.6149L292.646 90.7882L294.819 90.2059ZM296.275 95.6392L296.857 97.8125L299.03 97.2302L298.448 95.0569L296.275 95.6392ZM290.841 97.0951L290.259 94.9217L288.086 95.5041L288.668 97.6774L290.841 97.0951ZM292.297 102.528L292.88 104.702L295.053 104.119L294.471 101.946L292.297 102.528ZM286.864 103.984L286.282 101.811L284.108 102.393L284.691 104.567L286.864 103.984ZM287.592 106.701L288.174 108.874L290.348 108.292L289.765 106.119L287.592 106.701ZM265.859 112.524L263.685 113.107L264.268 115.28L266.441 114.698L265.859 112.524ZM265.131 109.808L267.304 109.225L266.722 107.052L264.548 107.634L265.131 109.808ZM259.697 111.264L257.524 111.846L258.106 114.019L260.28 113.437L259.697 111.264ZM258.241 105.83L260.415 105.248L259.832 103.075L257.659 103.657L258.241 105.83ZM252.808 107.286L250.635 107.868L251.217 110.042L253.39 109.459L252.808 107.286ZM251.352 101.853L253.526 101.27L252.943 99.0971L250.77 99.6794L251.352 101.853ZM245.919 103.309L243.746 103.891L244.328 106.064L246.501 105.482L245.919 103.309ZM238.64 76.1419L238.057 73.9686L235.884 74.5509L236.466 76.7243L238.64 76.1419ZM244.073 74.6861L244.655 76.8594L246.829 76.2771L246.246 74.1037L244.073 74.6861ZM242.617 69.2527L242.035 67.0794L239.861 67.6617L240.444 69.8351L242.617 69.2527ZM248.05 67.7969L248.633 69.9702L250.806 69.3879L250.224 67.2145L248.05 67.7969ZM246.595 62.3635L246.012 60.1902L243.839 60.7726L244.421 62.9459L246.595 62.3635ZM252.028 60.9077L252.61 63.081L254.784 62.4987L254.201 60.3253L252.028 60.9077ZM272.451 50.1943L250.718 56.0177L251.882 60.3644L273.616 54.5409L272.451 50.1943ZM275.935 54.5019L275.207 51.7853L270.86 52.9499L271.588 55.6666L275.935 54.5019ZM278.612 51.4551L273.179 52.9109L274.344 57.2576L279.777 55.8017L278.612 51.4551ZM282.824 58.4794L281.368 53.0461L277.021 54.2107L278.477 59.6441L282.824 58.4794ZM285.501 55.4325L280.068 56.8884L281.233 61.2351L286.666 59.7792L285.501 55.4325ZM289.713 62.4569L288.257 57.0235L283.91 58.1882L285.366 63.6216L289.713 62.4569ZM292.391 59.41L286.957 60.8659L288.122 65.2125L293.555 63.7567L292.391 59.41ZM302.426 88.1677L295.146 61.001L290.8 62.1657L298.079 89.3324L302.426 88.1677ZM295.401 92.3792L300.835 90.9234L299.67 86.5767L294.237 88.0325L295.401 92.3792ZM298.448 95.0569L296.992 89.6235L292.646 90.7882L294.101 96.2216L298.448 95.0569ZM291.424 99.2684L296.857 97.8125L295.692 93.4659L290.259 94.9217L291.424 99.2684ZM294.471 101.946L293.015 96.5127L288.668 97.6774L290.124 103.111L294.471 101.946ZM287.446 106.158L292.88 104.702L291.715 100.355L286.282 101.811L287.446 106.158ZM289.765 106.119L289.037 103.402L284.691 104.567L285.419 107.283L289.765 106.119ZM266.441 114.698L288.174 108.874L287.01 104.528L265.276 110.351L266.441 114.698ZM262.957 110.39L263.685 113.107L268.032 111.942L267.304 109.225L262.957 110.39ZM260.28 113.437L265.713 111.981L264.548 107.634L259.115 109.09L260.28 113.437ZM256.068 106.413L257.524 111.846L261.871 110.681L260.415 105.248L256.068 106.413ZM253.39 109.459L258.824 108.004L257.659 103.657L252.226 105.113L253.39 109.459ZM249.179 102.435L250.635 107.868L254.981 106.704L253.526 101.27L249.179 102.435ZM246.501 105.482L251.935 104.026L250.77 99.6794L245.337 101.135L246.501 105.482ZM236.466 76.7243L243.746 103.891L248.092 102.726L240.813 75.5596L236.466 76.7243ZM243.491 72.5127L238.057 73.9686L239.222 78.3153L244.655 76.8594L243.491 72.5127ZM240.444 69.8351L241.9 75.2684L246.246 74.1037L244.79 68.6704L240.444 69.8351ZM247.468 65.6235L242.035 67.0794L243.199 71.4261L248.633 69.9702L247.468 65.6235ZM244.421 62.9459L245.877 68.3792L250.224 67.2145L248.768 61.7812L244.421 62.9459ZM251.446 58.7344L246.012 60.1902L247.177 64.5369L252.61 63.081L251.446 58.7344ZM249.127 58.7734L249.855 61.49L254.201 60.3253L253.473 57.6087L249.127 58.7734Z" fill="white" mask="url(#path-2-outside-1_2337_2691)"/>
<path fill-rule="evenodd" clip-rule="evenodd" d="M273.326 69.7595L277.401 68.6676L278.493 72.7426L281.209 72.0146L284.849 85.598L282.132 86.3259L283.224 90.4009L279.149 91.4928L279.513 92.8511L265.93 96.4908L265.566 95.1324L261.491 96.2243L260.399 92.1493L257.682 92.8773L254.043 79.2939L256.759 78.566L255.668 74.491L259.743 73.3991L259.379 72.0408L272.962 68.4011L273.326 69.7595Z" fill="white"/>
<path fill-rule="evenodd" clip-rule="evenodd" d="M269.979 73.568L264.545 75.0239L265.273 77.7406L262.557 78.4685L263.648 82.5435L266.365 81.8156L267.093 84.5322L264.376 85.2602L265.468 89.3352L268.185 88.6072L268.913 91.3239L274.346 89.868L273.618 87.1514L276.335 86.4234L275.243 82.3484L272.526 83.0764L271.798 80.3597L274.515 79.6318L273.423 75.5568L270.707 76.2847L269.979 73.568ZM270.707 76.2847L271.798 80.3597L266.365 81.8156L265.273 77.7406L270.707 76.2847ZM272.526 83.0764L273.618 87.1514L268.185 88.6072L267.093 84.5322L272.526 83.0764Z" fill="black"/>
<path fill-rule="evenodd" clip-rule="evenodd" d="M287.397 95.1063L290.113 94.3784L289.385 91.6617L286.125 92.5353L286.708 94.7086L283.991 95.4365L284.719 98.1532L287.979 97.2797L287.397 95.1063Z" fill="white"/>
<path d="M198.125 25.125H181.25V42H198.125V25.125Z" fill="white"/>
<mask id="path-8-outside-2_2337_2691" maskUnits="userSpaceOnUse" x="175.438" y="-6" width="54" height="54" fill="black">
<rect fill="white" x="175.438" y="-6" width="54" height="54"/>
<path fill-rule="evenodd" clip-rule="evenodd" d="M200.938 42H198.125V39.1875H195.312V36.375H192.5V33.5625H189.688V30.75H186.875V27.9375H184.062V25.125H181.25V22.3125H178.438V13.875H181.25V8.25H184.062V2.625H186.875V-0.1875H192.5V-3H212.188V-0.1875H217.812V2.625H220.625V8.25H223.438V13.875H226.25V30.75H223.438V33.5625H220.625V36.375H217.812H212.188V44.8125H200.938V42Z"/>
</mask>
<path fill-rule="evenodd" clip-rule="evenodd" d="M200.938 42H198.125V39.1875H195.312V36.375H192.5V33.5625H189.688V30.75H186.875V27.9375H184.062V25.125H181.25V22.3125H178.438V13.875H181.25V8.25H184.062V2.625H186.875V-0.1875H192.5V-3H212.188V-0.1875H217.812V2.625H220.625V8.25H223.438V13.875H226.25V30.75H223.438V33.5625H220.625V36.375H217.812H212.188V44.8125H200.938V42Z" fill="#FF6B00"/>
<path d="M198.125 42H195.875V44.25H198.125V42ZM200.938 42H203.188V39.75H200.938V42ZM198.125 39.1875H200.375V36.9375H198.125V39.1875ZM195.312 39.1875H193.062V41.4375H195.312V39.1875ZM195.312 36.375H197.562V34.125H195.312V36.375ZM192.5 36.375H190.25V38.625H192.5V36.375ZM192.5 33.5625H194.75V31.3125H192.5V33.5625ZM189.688 33.5625H187.438V35.8125H189.688V33.5625ZM189.688 30.75H191.938V28.5H189.688V30.75ZM186.875 30.75H184.625V33H186.875V30.75ZM186.875 27.9375H189.125V25.6875H186.875V27.9375ZM184.062 27.9375H181.812V30.1875H184.062V27.9375ZM184.062 25.125H186.312V22.875H184.062V25.125ZM181.25 25.125H179V27.375H181.25V25.125ZM181.25 22.3125H183.5V20.0625H181.25V22.3125ZM178.438 22.3125H176.188V24.5625H178.438V22.3125ZM178.438 13.875V11.625H176.188V13.875H178.438ZM181.25 13.875V16.125H183.5V13.875H181.25ZM181.25 8.25V6H179V8.25H181.25ZM184.062 8.25V10.5H186.312V8.25H184.062ZM184.062 2.625V0.375H181.812V2.625H184.062ZM186.875 2.625V4.875H189.125V2.625H186.875ZM186.875 -0.1875V-2.4375H184.625V-0.1875H186.875ZM192.5 -0.1875V2.0625H194.75V-0.1875H192.5ZM192.5 -3V-5.25H190.25V-3H192.5ZM212.188 -3H214.438V-5.25H212.188V-3ZM212.188 -0.1875H209.938V2.0625H212.188V-0.1875ZM217.812 -0.1875H220.062V-2.4375H217.812V-0.1875ZM217.812 2.625H215.562V4.875H217.812V2.625ZM220.625 2.625H222.875V0.375H220.625V2.625ZM220.625 8.25H218.375V10.5H220.625V8.25ZM223.438 8.25H225.688V6H223.438V8.25ZM223.438 13.875H221.188V16.125H223.438V13.875ZM226.25 13.875H228.5V11.625H226.25V13.875ZM226.25 30.75V33H228.5V30.75H226.25ZM223.438 30.75V28.5H221.188V30.75H223.438ZM223.438 33.5625V35.8125H225.688V33.5625H223.438ZM220.625 33.5625V31.3125H218.375V33.5625H220.625ZM220.625 36.375V38.625H222.875V36.375H220.625ZM212.188 36.375V34.125H209.938V36.375H212.188ZM212.188 44.8125V47.0625H214.438V44.8125H212.188ZM200.938 44.8125H198.688V47.0625H200.938V44.8125ZM198.125 44.25H200.938V39.75H198.125V44.25ZM195.875 39.1875V42H200.375V39.1875H195.875ZM195.312 41.4375H198.125V36.9375H195.312V41.4375ZM193.062 36.375V39.1875H197.562V36.375H193.062ZM192.5 38.625H195.312V34.125H192.5V38.625ZM190.25 33.5625V36.375H194.75V33.5625H190.25ZM189.688 35.8125H192.5V31.3125H189.688V35.8125ZM187.438 30.75V33.5625H191.938V30.75H187.438ZM186.875 33H189.688V28.5H186.875V33ZM184.625 27.9375V30.75H189.125V27.9375H184.625ZM184.062 30.1875H186.875V25.6875H184.062V30.1875ZM181.812 25.125V27.9375H186.312V25.125H181.812ZM181.25 27.375H184.062V22.875H181.25V27.375ZM179 22.3125V25.125H183.5V22.3125H179ZM178.438 24.5625H181.25V20.0625H178.438V24.5625ZM176.188 13.875V22.3125H180.688V13.875H176.188ZM181.25 11.625H178.438V16.125H181.25V11.625ZM179 8.25V13.875H183.5V8.25H179ZM184.062 6H181.25V10.5H184.062V6ZM181.812 2.625V8.25H186.312V2.625H181.812ZM186.875 0.375H184.062V4.875H186.875V0.375ZM184.625 -0.1875V2.625H189.125V-0.1875H184.625ZM192.5 -2.4375H186.875V2.0625H192.5V-2.4375ZM190.25 -3V-0.1875H194.75V-3H190.25ZM212.188 -5.25H192.5V-0.75H212.188V-5.25ZM214.438 -0.1875V-3H209.938V-0.1875H214.438ZM217.812 -2.4375H212.188V2.0625H217.812V-2.4375ZM220.062 2.625V-0.1875H215.562V2.625H220.062ZM220.625 0.375H217.812V4.875H220.625V0.375ZM222.875 8.25V2.625H218.375V8.25H222.875ZM223.438 6H220.625V10.5H223.438V6ZM225.688 13.875V8.25H221.188V13.875H225.688ZM226.25 11.625H223.438V16.125H226.25V11.625ZM228.5 30.75V13.875H224V30.75H228.5ZM223.438 33H226.25V28.5H223.438V33ZM225.688 33.5625V30.75H221.188V33.5625H225.688ZM220.625 35.8125H223.438V31.3125H220.625V35.8125ZM222.875 36.375V33.5625H218.375V36.375H222.875ZM217.812 38.625H220.625V34.125H217.812V38.625ZM212.188 38.625H217.812V34.125H212.188V38.625ZM214.438 44.8125V36.375H209.938V44.8125H214.438ZM200.938 47.0625H212.188V42.5625H200.938V47.0625ZM198.688 42V44.8125H203.188V42H198.688Z" fill="white" mask="url(#path-8-outside-2_2337_2691)"/>
<path d="M225.125 37.5H213.312V49.3125H225.125V37.5Z" fill="white"/>
<path d="M178.438 44.8125H172.812V50.4375H178.438V44.8125Z" fill="white"/>
<path d="M181.25 42H175.625V47.625H181.25V42Z" fill="white"/>
<path d="M184.062 39.1875H178.438V44.8125H184.062V39.1875Z" fill="white"/>
<path d="M181.25 42H175.625V47.625H181.25V42Z" fill="white"/>
<mask id="path-15-outside-3_2337_2691" maskUnits="userSpaceOnUse" x="167" y="22.125" width="34" height="34" fill="black">
<rect fill="white" x="167" y="22.125" width="34" height="34"/>
<path fill-rule="evenodd" clip-rule="evenodd" d="M178.438 39.1875V25.125H181.25V39.1875H178.438ZM175.625 42V39.1875H178.438V42H175.625ZM172.812 44.8125H175.625V42H172.812V44.8125ZM172.812 50.4375V44.8125H170V50.4375H172.812ZM178.438 50.4375H172.812V53.25H178.438V50.4375ZM181.25 47.625H178.438V50.4375H181.25V47.625ZM184.062 44.8125V47.625H181.25V44.8125H184.062ZM184.062 44.8125V42H198.125V44.8125H184.062Z"/>
</mask>
<path fill-rule="evenodd" clip-rule="evenodd" d="M178.438 39.1875V25.125H181.25V39.1875H178.438ZM175.625 42V39.1875H178.438V42H175.625ZM172.812 44.8125H175.625V42H172.812V44.8125ZM172.812 50.4375V44.8125H170V50.4375H172.812ZM178.438 50.4375H172.812V53.25H178.438V50.4375ZM181.25 47.625H178.438V50.4375H181.25V47.625ZM184.062 44.8125V47.625H181.25V44.8125H184.062ZM184.062 44.8125V42H198.125V44.8125H184.062Z" fill="#FF6B00"/>
<path d="M178.438 25.125V22.875H176.188V25.125H178.438ZM181.25 25.125H183.5V22.875H181.25V25.125ZM181.25 39.1875V41.4375H183.5V39.1875H181.25ZM175.625 39.1875V36.9375H173.375V39.1875H175.625ZM178.438 42V44.25H180.688V42H178.438ZM175.625 44.8125V47.0625H177.875V44.8125H175.625ZM172.812 42V39.75H170.562V42H172.812ZM170 44.8125V42.5625H167.75V44.8125H170ZM170 50.4375H167.75V52.6875H170V50.4375ZM172.812 53.25H170.562V55.5H172.812V53.25ZM178.438 53.25V55.5H180.688V53.25H178.438ZM178.438 47.625V45.375H176.188V47.625H178.438ZM181.25 50.4375V52.6875H183.5V50.4375H181.25ZM184.062 47.625V49.875H186.312V47.625H184.062ZM181.25 44.8125V42.5625H179V44.8125H181.25ZM184.062 42V39.75H181.812V42H184.062ZM198.125 42H200.375V39.75H198.125V42ZM198.125 44.8125V47.0625H200.375V44.8125H198.125ZM176.188 25.125V39.1875H180.688V25.125H176.188ZM181.25 22.875H178.438V27.375H181.25V22.875ZM183.5 39.1875V25.125H179V39.1875H183.5ZM178.438 41.4375H181.25V36.9375H178.438V41.4375ZM177.875 42V39.1875H173.375V42H177.875ZM175.625 41.4375H178.438V36.9375H175.625V41.4375ZM176.188 39.1875V42H180.688V39.1875H176.188ZM178.438 39.75H175.625V44.25H178.438V39.75ZM175.625 42.5625H172.812V47.0625H175.625V42.5625ZM173.375 42V44.8125H177.875V42H173.375ZM172.812 44.25H175.625V39.75H172.812V44.25ZM175.062 44.8125V42H170.562V44.8125H175.062ZM170.562 44.8125V50.4375H175.062V44.8125H170.562ZM170 47.0625H172.812V42.5625H170V47.0625ZM172.25 50.4375V44.8125H167.75V50.4375H172.25ZM172.812 48.1875H170V52.6875H172.812V48.1875ZM172.812 52.6875H178.438V48.1875H172.812V52.6875ZM175.062 53.25V50.4375H170.562V53.25H175.062ZM178.438 51H172.812V55.5H178.438V51ZM176.188 50.4375V53.25H180.688V50.4375H176.188ZM178.438 49.875H181.25V45.375H178.438V49.875ZM180.688 50.4375V47.625H176.188V50.4375H180.688ZM181.25 48.1875H178.438V52.6875H181.25V48.1875ZM179 47.625V50.4375H183.5V47.625H179ZM186.312 47.625V44.8125H181.812V47.625H186.312ZM181.25 49.875H184.062V45.375H181.25V49.875ZM179 44.8125V47.625H183.5V44.8125H179ZM184.062 42.5625H181.25V47.0625H184.062V42.5625ZM181.812 42V44.8125H186.312V42H181.812ZM198.125 39.75H184.062V44.25H198.125V39.75ZM200.375 44.8125V42H195.875V44.8125H200.375ZM184.062 47.0625H198.125V42.5625H184.062V47.0625Z" fill="white" mask="url(#path-15-outside-3_2337_2691)"/>
<path d="M189.688 27.9375H186.875V30.75H189.688V27.9375Z" fill="#FF6B00"/>
<path d="M195.313 33.5625H192.5V36.375H195.313V33.5625Z" fill="#FF6B00"/>
<path d="M215.586 35.805L213.358 33.5776L207.154 39.7825L209.381 42.0099L215.586 35.805Z" fill="#FF6B00"/>
<path d="M210.079 36.9943H207.266V39.8068H210.079V36.9943Z" fill="#FF6B00"/>
<mask id="path-21-outside-4_2337_2691" maskUnits="userSpaceOnUse" x="207.698" y="32.0536" width="23" height="23" fill="black">
<rect fill="white" x="207.698" y="32.0536" width="23" height="23"/>
<path fill-rule="evenodd" clip-rule="evenodd" d="M223.44 37.8661H215.002V39.188H213.51V47.6251H215.001V49.1161H223.44V47.6255H224.76V39.188H223.44V37.8661ZM213.51 50.4376V51.9286H224.76V50.438H226.252V47.6255H227.573V39.188H226.252V36.3755H224.76V35.0536H213.51V36.3755H212.19V39.188H210.698V47.6255H212.188V50.4376H213.51Z"/>
</mask>
<path fill-rule="evenodd" clip-rule="evenodd" d="M223.44 37.8661H215.002V39.188H213.51V47.6251H215.001V49.1161H223.44V47.6255H224.76V39.188H223.44V37.8661ZM213.51 50.4376V51.9286H224.76V50.438H226.252V47.6255H227.573V39.188H226.252V36.3755H224.76V35.0536H213.51V36.3755H212.19V39.188H210.698V47.6255H212.188V50.4376H213.51Z" fill="#FF6B00"/>
<path d="M215.002 37.8661V35.6161H212.752V37.8661H215.002ZM223.44 37.8661H225.69V35.6161H223.44V37.8661ZM215.002 39.188V41.438H217.252V39.188H215.002ZM213.51 39.188V36.938H211.26V39.188H213.51ZM213.51 47.6251H211.26V49.8751H213.51V47.6251ZM215.001 47.6251H217.251V45.3751H215.001V47.6251ZM215.001 49.1161H212.751V51.3661H215.001V49.1161ZM223.44 49.1161V51.3661H225.69V49.1161H223.44ZM223.44 47.6255V45.3755H221.19V47.6255H223.44ZM224.76 47.6255V49.8755H227.01V47.6255H224.76ZM224.76 39.188H227.01V36.938H224.76V39.188ZM223.44 39.188H221.19V41.438H223.44V39.188ZM213.51 50.4376H215.76V48.1876H213.51V50.4376ZM213.51 51.9286H211.26V54.1786H213.51V51.9286ZM224.76 51.9286V54.1786H227.01V51.9286H224.76ZM224.76 50.438V48.188H222.51V50.438H224.76ZM226.252 50.438V52.688H228.502V50.438H226.252ZM226.252 47.6255V45.3755H224.002V47.6255H226.252ZM227.573 47.6255V49.8755H229.823V47.6255H227.573ZM227.573 39.188H229.823V36.938H227.573V39.188ZM226.252 39.188H224.002V41.438H226.252V39.188ZM226.252 36.3755H228.502V34.1255H226.252V36.3755ZM224.76 36.3755H222.51V38.6255H224.76V36.3755ZM224.76 35.0536H227.01V32.8036H224.76V35.0536ZM213.51 35.0536V32.8036H211.26V35.0536H213.51ZM213.51 36.3755V38.6255H215.76V36.3755H213.51ZM212.19 36.3755V34.1255H209.94V36.3755H212.19ZM212.19 39.188V41.438H214.44V39.188H212.19ZM210.698 39.188V36.938H208.448V39.188H210.698ZM210.698 47.6255H208.448V49.8755H210.698V47.6255ZM212.188 47.6255H214.438V45.3755H212.188V47.6255ZM212.188 50.4376H209.938V52.6876H212.188V50.4376ZM215.002 40.1161H223.44V35.6161H215.002V40.1161ZM217.252 39.188V37.8661H212.752V39.188H217.252ZM213.51 41.438H215.002V36.938H213.51V41.438ZM215.76 47.6251V39.188H211.26V47.6251H215.76ZM215.001 45.3751H213.51V49.8751H215.001V45.3751ZM217.251 49.1161V47.6251H212.751V49.1161H217.251ZM223.44 46.8661H215.001V51.3661H223.44V46.8661ZM221.19 47.6255V49.1161H225.69V47.6255H221.19ZM224.76 45.3755H223.44V49.8755H224.76V45.3755ZM222.51 39.188V47.6255H227.01V39.188H222.51ZM223.44 41.438H224.76V36.938H223.44V41.438ZM221.19 37.8661V39.188H225.69V37.8661H221.19ZM211.26 50.4376V51.9286H215.76V50.4376H211.26ZM213.51 54.1786H224.76V49.6786H213.51V54.1786ZM227.01 51.9286V50.438H222.51V51.9286H227.01ZM224.76 52.688H226.252V48.188H224.76V52.688ZM228.502 50.438V47.6255H224.002V50.438H228.502ZM226.252 49.8755H227.573V45.3755H226.252V49.8755ZM229.823 47.6255V39.188H225.323V47.6255H229.823ZM227.573 36.938H226.252V41.438H227.573V36.938ZM228.502 39.188V36.3755H224.002V39.188H228.502ZM226.252 34.1255H224.76V38.6255H226.252V34.1255ZM227.01 36.3755V35.0536H222.51V36.3755H227.01ZM224.76 32.8036H213.51V37.3036H224.76V32.8036ZM211.26 35.0536V36.3755H215.76V35.0536H211.26ZM213.51 34.1255H212.19V38.6255H213.51V34.1255ZM209.94 36.3755V39.188H214.44V36.3755H209.94ZM212.19 36.938H210.698V41.438H212.19V36.938ZM208.448 39.188V47.6255H212.948V39.188H208.448ZM210.698 49.8755H212.188V45.3755H210.698V49.8755ZM209.938 47.6255V50.4376H214.438V47.6255H209.938ZM212.188 52.6876H213.51V48.1876H212.188V52.6876Z" fill="white" mask="url(#path-21-outside-4_2337_2691)"/>
<path d="M223.438 44.8125H220.625V47.625H223.438V44.8125Z" fill="#FF6B00"/>
<path d="M184.062 22.3125H181.25V25.125H184.062V22.3125Z" fill="#FF6B00"/>
<path d="M200.938 39.1875H198.125V42H200.938V39.1875Z" fill="#FF6B00"/>
<path d="M223.438 30.75H220.625V33.5625H223.438V30.75Z" fill="#FF6B00"/>
<path d="M213.508 37.8656H224.758V35.0531H213.508V37.8656Z" fill="#FF6B00"/>
<path d="M210.695 47.625H213.508V39.1875H210.695V47.625Z" fill="#FF6B00"/>
<path d="M212.188 36.375H200.938V44.8125H212.188V36.375Z" fill="#FF6B00"/>
<path d="M212.188 36.375H217.812V-0.1875H212.188V36.375Z" fill="#FF6B00"/>
<path d="M217.812 2.625V36.375H220.625V2.625H217.812Z" fill="#FF6B00"/>
<path d="M215 36.375H212.188V39.1875H215V36.375Z" fill="#FF6B00"/>
<path d="M212.75 31.875H208.812V37.5H212.75V31.875Z" fill="#FF6B00"/>
<rect x="174.73" y="146.001" width="50" height="11" transform="rotate(-22.08 174.73 146.001)" fill="white"/>
<path d="M184.866 141.89L187.473 140.833L172.695 104.403L170.088 105.46L184.866 141.89Z" fill="white"/>
<mask id="path-36-outside-5_2337_2691" maskUnits="userSpaceOnUse" x="152.092" y="83.1815" width="80.7588" height="80.7588" fill="black">
<rect fill="white" x="152.092" y="83.1815" width="80.7588" height="80.7588"/>
<path fill-rule="evenodd" clip-rule="evenodd" d="M172.694 104.402L170.088 105.46L169.031 102.853L171.637 101.796L172.694 104.402ZM175.301 103.345L180.513 101.231L181.57 103.837L186.783 101.723L193.126 117.36L187.914 119.474L187.914 119.475L193.126 117.36L194.184 119.967L191.577 121.024L192.635 123.63L184.816 126.801L183.759 124.195L183.759 124.195L175.301 103.345ZM185.725 99.1163L190.938 97.0019L191.995 99.608L197.207 97.4936L198.265 100.1L200.871 99.043L201.928 101.649L199.322 102.706L201.436 107.919L201.436 107.919L203.551 113.131L200.944 114.188L199.887 111.582L194.675 113.697L193.618 111.09L198.83 108.976L198.83 108.976L196.224 110.033L196.224 110.033L191.012 112.148L185.725 99.1163ZM199.322 102.706L201.929 101.649L204.535 100.592L206.649 105.804L204.043 106.862L205.1 109.468L202.494 110.525L199.322 102.706ZM193.618 111.09L191.012 112.148L193.126 117.36L195.732 116.303L193.618 111.09ZM185.946 144.553L183.34 145.611L182.283 143.005L177.071 145.119L176.014 142.513L181.226 140.399L167.482 106.517L170.088 105.46L185.946 144.553ZM188.553 143.496L191.159 142.439L190.102 139.833L218.77 128.203L217.713 125.597L189.045 137.226L175.301 103.345L172.694 104.402L188.553 143.496ZM181.299 155.544L182.357 158.15L224.056 141.235L222.999 138.628L181.299 155.544ZM177.636 153.995L180.242 152.938L181.299 155.544L178.693 156.601L177.636 153.995ZM177.636 153.995L175.03 155.052L172.915 149.84L175.522 148.782L177.636 153.995ZM222.434 129.752L219.827 130.81L218.77 128.203L221.376 127.146L222.434 129.752ZM222.434 129.752L225.04 128.695L227.154 133.908L224.548 134.965L225.606 137.571L222.999 138.628L221.942 136.022L224.548 134.965L222.434 129.752ZM177.07 145.119L174.464 146.176L175.521 148.782L178.127 147.725L177.07 145.119ZM181.792 149.274L181.791 149.274L182.848 151.88L195.879 146.594L194.822 143.988L194.822 143.988L193.765 141.382L188.553 143.496L189.61 146.102L187.004 147.159L185.947 144.553L180.734 146.668L181.792 149.274Z"/>
</mask>
<path fill-rule="evenodd" clip-rule="evenodd" d="M172.694 104.402L170.088 105.46L169.031 102.853L171.637 101.796L172.694 104.402ZM175.301 103.345L180.513 101.231L181.57 103.837L186.783 101.723L193.126 117.36L187.914 119.474L187.914 119.475L193.126 117.36L194.184 119.967L191.577 121.024L192.635 123.63L184.816 126.801L183.759 124.195L183.759 124.195L175.301 103.345ZM185.725 99.1163L190.938 97.0019L191.995 99.608L197.207 97.4936L198.265 100.1L200.871 99.043L201.928 101.649L199.322 102.706L201.436 107.919L201.436 107.919L203.551 113.131L200.944 114.188L199.887 111.582L194.675 113.697L193.618 111.09L198.83 108.976L198.83 108.976L196.224 110.033L196.224 110.033L191.012 112.148L185.725 99.1163ZM199.322 102.706L201.929 101.649L204.535 100.592L206.649 105.804L204.043 106.862L205.1 109.468L202.494 110.525L199.322 102.706ZM193.618 111.09L191.012 112.148L193.126 117.36L195.732 116.303L193.618 111.09ZM185.946 144.553L183.34 145.611L182.283 143.005L177.071 145.119L176.014 142.513L181.226 140.399L167.482 106.517L170.088 105.46L185.946 144.553ZM188.553 143.496L191.159 142.439L190.102 139.833L218.77 128.203L217.713 125.597L189.045 137.226L175.301 103.345L172.694 104.402L188.553 143.496ZM181.299 155.544L182.357 158.15L224.056 141.235L222.999 138.628L181.299 155.544ZM177.636 153.995L180.242 152.938L181.299 155.544L178.693 156.601L177.636 153.995ZM177.636 153.995L175.03 155.052L172.915 149.84L175.522 148.782L177.636 153.995ZM222.434 129.752L219.827 130.81L218.77 128.203L221.376 127.146L222.434 129.752ZM222.434 129.752L225.04 128.695L227.154 133.908L224.548 134.965L225.606 137.571L222.999 138.628L221.942 136.022L224.548 134.965L222.434 129.752ZM177.07 145.119L174.464 146.176L175.521 148.782L178.127 147.725L177.07 145.119ZM181.792 149.274L181.791 149.274L182.848 151.88L195.879 146.594L194.822 143.988L194.822 143.988L193.765 141.382L188.553 143.496L189.61 146.102L187.004 147.159L185.947 144.553L180.734 146.668L181.792 149.274Z" fill="#FF6B00"/>
<path d="M170.088 105.46L168.003 106.305L168.849 108.39L170.934 107.545L170.088 105.46ZM172.694 104.402L173.54 106.487L175.625 105.642L174.779 103.557L172.694 104.402ZM169.031 102.853L168.185 100.768L166.1 101.614L166.946 103.699L169.031 102.853ZM171.637 101.796L173.722 100.95L172.876 98.8655L170.791 99.7113L171.637 101.796ZM180.513 101.231L182.598 100.385L181.753 98.3002L179.668 99.1459L180.513 101.231ZM175.301 103.345L174.455 101.26L172.37 102.106L173.216 104.191L175.301 103.345ZM181.57 103.837L179.485 104.683L180.331 106.768L182.416 105.922L181.57 103.837ZM186.783 101.723L188.868 100.877L188.022 98.7918L185.937 99.6376L186.783 101.723ZM193.126 117.36L193.972 119.445L196.057 118.599L195.211 116.514L193.126 117.36ZM187.914 119.474L187.068 117.389L184.983 118.235L185.829 120.32L187.914 119.474ZM187.914 119.475L185.829 120.321L186.675 122.406L188.76 121.56L187.914 119.475ZM193.126 117.36L195.211 116.515L194.366 114.43L192.281 115.275L193.126 117.36ZM194.184 119.967L195.029 122.052L197.114 121.206L196.269 119.121L194.184 119.967ZM191.577 121.024L190.732 118.939L188.647 119.784L189.493 121.869L191.577 121.024ZM192.635 123.63L193.48 125.715L195.565 124.869L194.72 122.784L192.635 123.63ZM184.816 126.801L182.731 127.647L183.577 129.732L185.662 128.886L184.816 126.801ZM183.759 124.195L185.844 123.349L184.998 121.264L182.913 122.11L183.759 124.195ZM183.759 124.195L181.674 125.041L182.519 127.126L184.604 126.28L183.759 124.195ZM190.938 97.0019L193.023 96.1561L192.177 94.0711L190.092 94.9169L190.938 97.0019ZM185.725 99.1163L184.88 97.0314L182.795 97.8771L183.64 99.9621L185.725 99.1163ZM191.995 99.608L189.91 100.454L190.756 102.539L192.841 101.693L191.995 99.608ZM197.207 97.4936L199.292 96.6478L198.447 94.5628L196.362 95.4086L197.207 97.4936ZM198.265 100.1L196.18 100.946L197.026 103.031L199.111 102.185L198.265 100.1ZM200.871 99.043L202.956 98.1972L202.11 96.1123L200.025 96.958L200.871 99.043ZM201.928 101.649L202.774 103.734L204.859 102.888L204.013 100.803L201.928 101.649ZM199.322 102.706L198.476 100.621L196.391 101.467L197.237 103.552L199.322 102.706ZM201.436 107.919L202.282 110.004L204.367 109.158L203.521 107.073L201.436 107.919ZM201.436 107.919L200.59 105.834L198.505 106.679L199.351 108.764L201.436 107.919ZM203.551 113.131L204.396 115.216L206.481 114.37L205.636 112.285L203.551 113.131ZM200.944 114.188L198.859 115.034L199.705 117.119L201.79 116.273L200.944 114.188ZM199.887 111.582L201.972 110.737L201.127 108.652L199.042 109.497L199.887 111.582ZM194.675 113.697L192.59 114.542L193.436 116.627L195.521 115.782L194.675 113.697ZM193.618 111.09L192.772 109.005L190.687 109.851L191.533 111.936L193.618 111.09ZM198.83 108.976L199.676 111.061L201.761 110.215L200.915 108.13L198.83 108.976ZM198.83 108.976L200.915 108.13L200.069 106.045L197.984 106.891L198.83 108.976ZM196.224 110.033L195.378 107.948L193.293 108.794L194.139 110.879L196.224 110.033ZM196.224 110.033L197.07 112.118L199.155 111.272L198.309 109.187L196.224 110.033ZM191.012 112.148L188.927 112.993L189.772 115.078L191.857 114.232L191.012 112.148ZM201.929 101.649L201.083 99.5641L201.929 101.649ZM199.322 102.706L198.477 100.621L196.392 101.467L197.237 103.552L199.322 102.706ZM204.535 100.592L206.62 99.7461L205.774 97.6611L203.689 98.5069L204.535 100.592ZM206.649 105.804L207.495 107.889L209.58 107.044L208.734 104.959L206.649 105.804ZM204.043 106.862L203.197 104.777L201.112 105.622L201.958 107.707L204.043 106.862ZM205.1 109.468L205.946 111.553L208.031 110.707L207.185 108.622L205.1 109.468ZM202.494 110.525L200.409 111.371L201.255 113.456L203.34 112.61L202.494 110.525ZM191.012 112.148L190.166 110.063L188.081 110.908L188.927 112.993L191.012 112.148ZM193.618 111.09L195.703 110.245L194.857 108.16L192.772 109.005L193.618 111.09ZM193.126 117.36L191.041 118.206L191.887 120.291L193.972 119.445L193.126 117.36ZM195.732 116.303L196.578 118.388L198.663 117.542L197.817 115.457L195.732 116.303ZM183.34 145.611L181.255 146.456L182.101 148.541L184.186 147.696L183.34 145.611ZM185.946 144.553L186.792 146.638L188.877 145.793L188.031 143.708L185.946 144.553ZM182.283 143.005L184.368 142.159L183.522 140.074L181.437 140.92L182.283 143.005ZM177.071 145.119L174.986 145.965L175.832 148.05L177.917 147.204L177.071 145.119ZM176.014 142.513L175.168 140.428L173.083 141.274L173.929 143.359L176.014 142.513ZM181.226 140.399L182.071 142.484L184.156 141.638L183.311 139.553L181.226 140.399ZM167.482 106.517L166.636 104.432L164.551 105.278L165.397 107.363L167.482 106.517ZM170.088 105.46L172.173 104.614L171.327 102.529L169.242 103.375L170.088 105.46ZM191.159 142.439L192.005 144.524L194.09 143.678L193.244 141.593L191.159 142.439ZM188.553 143.496L186.468 144.342L187.314 146.427L189.399 145.581L188.553 143.496ZM190.102 139.833L189.256 137.748L187.171 138.593L188.017 140.678L190.102 139.833ZM218.77 128.203L219.616 130.288L221.701 129.442L220.855 127.357L218.77 128.203ZM217.713 125.597L219.798 124.751L218.952 122.666L216.867 123.512L217.713 125.597ZM189.045 137.226L186.96 138.072L187.805 140.157L189.89 139.311L189.045 137.226ZM175.301 103.345L177.386 102.499L176.54 100.414L174.455 101.26L175.301 103.345ZM172.694 104.402L171.849 102.317L169.764 103.163L170.609 105.248L172.694 104.402ZM182.357 158.15L180.272 158.996L181.117 161.081L183.202 160.235L182.357 158.15ZM224.056 141.235L224.902 143.32L226.987 142.474L226.141 140.389L224.056 141.235ZM222.999 138.628L225.084 137.783L224.238 135.698L222.153 136.543L222.999 138.628ZM180.242 152.938L182.327 152.092L181.481 150.007L179.396 150.853L180.242 152.938ZM178.693 156.601L176.608 157.447L177.454 159.532L179.539 158.686L178.693 156.601ZM175.03 155.052L172.945 155.898L173.791 157.983L175.876 157.137L175.03 155.052ZM172.915 149.84L172.07 147.755L169.985 148.6L170.83 150.685L172.915 149.84ZM175.522 148.782L177.607 147.937L176.761 145.852L174.676 146.697L175.522 148.782ZM219.827 130.81L217.742 131.655L218.588 133.74L220.673 132.895L219.827 130.81ZM218.77 128.203L217.924 126.118L215.839 126.964L216.685 129.049L218.77 128.203ZM221.376 127.146L223.461 126.3L222.616 124.215L220.531 125.061L221.376 127.146ZM225.04 128.695L227.125 127.849L226.279 125.764L224.194 126.61L225.04 128.695ZM227.154 133.908L228 135.993L230.085 135.147L229.239 133.062L227.154 133.908ZM224.548 134.965L223.703 132.88L221.618 133.726L222.463 135.811L224.548 134.965ZM225.606 137.571L226.451 139.656L228.536 138.81L227.691 136.725L225.606 137.571ZM222.999 138.628L220.914 139.474L221.76 141.559L223.845 140.713L222.999 138.628ZM221.942 136.022L221.096 133.937L219.011 134.783L219.857 136.868L221.942 136.022ZM224.548 134.965L225.394 137.05L227.479 136.204L226.633 134.119L224.548 134.965ZM174.464 146.176L173.618 144.091L171.533 144.937L172.379 147.022L174.464 146.176ZM177.07 145.119L179.155 144.273L178.309 142.188L176.224 143.034L177.07 145.119ZM175.521 148.782L173.436 149.628L174.282 151.713L176.367 150.867L175.521 148.782ZM178.127 147.725L178.973 149.81L181.058 148.964L180.212 146.879L178.127 147.725ZM181.791 149.274L180.945 147.189L178.86 148.035L179.706 150.12L181.791 149.274ZM181.792 149.274L182.637 151.359L184.722 150.513L183.877 148.428L181.792 149.274ZM182.848 151.88L180.763 152.726L181.609 154.811L183.694 153.965L182.848 151.88ZM195.879 146.594L196.725 148.679L198.81 147.834L197.964 145.749L195.879 146.594ZM194.822 143.988L193.976 141.903L191.891 142.749L192.737 144.834L194.822 143.988ZM194.822 143.988L195.668 146.073L197.753 145.227L196.907 143.142L194.822 143.988ZM193.765 141.382L195.85 140.536L195.004 138.451L192.919 139.297L193.765 141.382ZM188.553 143.496L187.707 141.411L185.622 142.257L186.468 144.342L188.553 143.496ZM189.61 146.102L190.456 148.187L192.541 147.342L191.695 145.257L189.61 146.102ZM187.004 147.159L184.919 148.005L185.765 150.09L187.85 149.244L187.004 147.159ZM185.947 144.553L188.032 143.708L187.186 141.623L185.101 142.468L185.947 144.553ZM180.734 146.668L179.889 144.583L177.804 145.429L178.649 147.514L180.734 146.668ZM170.934 107.545L173.54 106.487L171.848 102.317L169.242 103.375L170.934 107.545ZM166.946 103.699L168.003 106.305L172.173 104.614L171.116 102.008L166.946 103.699ZM170.791 99.7113L168.185 100.768L169.877 104.938L172.483 103.881L170.791 99.7113ZM174.779 103.557L173.722 100.95L169.552 102.642L170.609 105.248L174.779 103.557ZM179.668 99.1459L174.455 101.26L176.147 105.43L181.359 103.316L179.668 99.1459ZM183.655 102.991L182.598 100.385L178.428 102.077L179.485 104.683L183.655 102.991ZM185.937 99.6376L180.725 101.752L182.416 105.922L187.628 103.808L185.937 99.6376ZM195.211 116.514L188.868 100.877L184.698 102.568L191.041 118.206L195.211 116.514ZM188.76 121.559L193.972 119.445L192.28 115.275L187.068 117.389L188.76 121.559ZM189.999 118.629L189.999 118.629L185.829 120.32L185.829 120.321L189.999 118.629ZM192.281 115.275L187.068 117.39L188.76 121.56L193.972 119.445L192.281 115.275ZM196.269 119.121L195.211 116.515L191.041 118.206L192.099 120.812L196.269 119.121ZM192.423 123.109L195.029 122.052L193.338 117.882L190.732 118.939L192.423 123.109ZM194.72 122.784L193.662 120.178L189.493 121.869L190.55 124.475L194.72 122.784ZM185.662 128.886L193.48 125.715L191.789 121.545L183.97 124.716L185.662 128.886ZM181.674 125.041L182.731 127.647L186.901 125.955L185.844 123.349L181.674 125.041ZM184.604 126.28L184.604 126.28L182.913 122.11L182.913 122.11L184.604 126.28ZM173.216 104.191L181.674 125.041L185.844 123.349L177.386 102.5L173.216 104.191ZM190.092 94.9169L184.88 97.0314L186.571 101.201L191.784 99.0869L190.092 94.9169ZM194.08 98.7622L193.023 96.1561L188.853 97.8477L189.91 100.454L194.08 98.7622ZM196.362 95.4086L191.149 97.523L192.841 101.693L198.053 99.5786L196.362 95.4086ZM200.35 99.2543L199.292 96.6478L195.122 98.3394L196.18 100.946L200.35 99.2543ZM200.025 96.958L197.419 98.0151L199.111 102.185L201.717 101.128L200.025 96.958ZM204.013 100.803L202.956 98.1972L198.786 99.8888L199.843 102.495L204.013 100.803ZM200.168 104.791L202.774 103.734L201.082 99.5643L198.476 100.621L200.168 104.791ZM203.521 107.073L201.407 101.861L197.237 103.552L199.351 108.764L203.521 107.073ZM202.282 110.004L202.282 110.004L200.591 105.834L200.59 105.834L202.282 110.004ZM205.636 112.285L203.521 107.073L199.351 108.764L201.466 113.977L205.636 112.285ZM201.79 116.273L204.396 115.216L202.705 111.046L200.099 112.103L201.79 116.273ZM197.802 112.428L198.859 115.034L203.029 113.342L201.972 110.737L197.802 112.428ZM195.521 115.782L200.733 113.667L199.042 109.497L193.83 111.612L195.521 115.782ZM191.533 111.936L192.59 114.542L196.76 112.851L195.703 110.245L191.533 111.936ZM197.984 106.891L192.772 109.005L194.464 113.175L199.676 111.061L197.984 106.891ZM196.745 109.822L196.745 109.822L200.915 108.13L200.915 108.13L196.745 109.822ZM197.07 112.118L199.676 111.061L197.984 106.891L195.378 107.948L197.07 112.118ZM198.309 109.187L198.309 109.187L194.139 110.879L194.139 110.879L198.309 109.187ZM191.857 114.232L197.07 112.118L195.378 107.948L190.166 110.063L191.857 114.232ZM183.64 99.9621L188.927 112.993L193.097 111.302L187.81 98.2706L183.64 99.9621ZM201.083 99.5641L198.477 100.621L200.168 104.791L202.774 103.734L201.083 99.5641ZM203.689 98.5069L201.083 99.5641L202.774 103.734L205.381 102.677L203.689 98.5069ZM208.734 104.959L206.62 99.7461L202.45 101.438L204.564 106.65L208.734 104.959ZM204.889 108.947L207.495 107.889L205.803 103.719L203.197 104.777L204.889 108.947ZM207.185 108.622L206.128 106.016L201.958 107.707L203.015 110.314L207.185 108.622ZM203.34 112.61L205.946 111.553L204.254 107.383L201.648 108.44L203.34 112.61ZM197.237 103.552L200.409 111.371L204.579 109.679L201.407 101.861L197.237 103.552ZM191.857 114.233L194.464 113.175L192.772 109.005L190.166 110.063L191.857 114.233ZM195.211 116.514L193.097 111.302L188.927 112.993L191.041 118.206L195.211 116.514ZM194.886 114.218L192.28 115.275L193.972 119.445L196.578 118.388L194.886 114.218ZM191.533 111.936L193.647 117.149L197.817 115.457L195.703 110.245L191.533 111.936ZM184.186 147.696L186.792 146.638L185.1 142.468L182.494 143.526L184.186 147.696ZM180.198 143.851L181.255 146.456L185.425 144.765L184.368 142.159L180.198 143.851ZM177.917 147.204L183.129 145.09L181.437 140.92L176.225 143.034L177.917 147.204ZM173.929 143.359L174.986 145.965L179.156 144.273L178.099 141.667L173.929 143.359ZM180.38 138.314L175.168 140.428L176.86 144.598L182.071 142.484L180.38 138.314ZM165.397 107.363L179.141 141.244L183.311 139.553L169.567 105.671L165.397 107.363ZM169.242 103.375L166.636 104.432L168.327 108.602L170.934 107.545L169.242 103.375ZM188.031 143.708L172.173 104.614L168.003 106.306L183.861 145.399L188.031 143.708ZM190.313 140.354L187.707 141.411L189.399 145.581L192.005 144.524L190.313 140.354ZM188.017 140.678L189.074 143.284L193.244 141.593L192.187 138.987L188.017 140.678ZM217.924 126.118L189.256 137.748L190.948 141.918L219.616 130.288L217.924 126.118ZM215.628 126.443L216.685 129.049L220.855 127.357L219.798 124.751L215.628 126.443ZM189.89 139.311L218.559 127.682L216.867 123.512L188.199 135.141L189.89 139.311ZM173.216 104.191L186.96 138.072L191.13 136.381L177.386 102.499L173.216 104.191ZM173.54 106.487L176.146 105.43L174.455 101.26L171.849 102.317L173.54 106.487ZM190.638 142.65L174.779 103.557L170.609 105.248L186.468 144.342L190.638 142.65ZM184.442 157.304L183.384 154.698L179.214 156.39L180.272 158.996L184.442 157.304ZM223.211 139.15L181.511 156.065L183.202 160.235L224.902 143.32L223.211 139.15ZM220.914 139.474L221.971 142.08L226.141 140.389L225.084 137.783L220.914 139.474ZM182.145 157.629L223.845 140.713L222.153 136.543L180.454 153.459L182.145 157.629ZM179.396 150.853L176.79 151.91L178.482 156.08L181.088 155.023L179.396 150.853ZM183.384 154.698L182.327 152.092L178.157 153.783L179.214 156.39L183.384 154.698ZM179.539 158.686L182.145 157.629L180.454 153.459L177.847 154.516L179.539 158.686ZM175.551 154.841L176.608 157.447L180.778 155.755L179.721 153.149L175.551 154.841ZM175.876 157.137L178.482 156.08L176.79 151.91L174.184 152.967L175.876 157.137ZM170.83 150.685L172.945 155.898L177.115 154.206L175 148.994L170.83 150.685ZM174.676 146.697L172.07 147.755L173.761 151.925L176.367 150.867L174.676 146.697ZM179.721 153.149L177.607 147.937L173.437 149.628L175.551 154.841L179.721 153.149ZM220.673 132.895L223.279 131.837L221.588 127.667L218.982 128.725L220.673 132.895ZM216.685 129.049L217.742 131.655L221.912 129.964L220.855 127.358L216.685 129.049ZM220.531 125.061L217.924 126.118L219.616 130.288L222.222 129.231L220.531 125.061ZM224.519 128.907L223.461 126.3L219.292 127.992L220.349 130.598L224.519 128.907ZM224.194 126.61L221.588 127.667L223.279 131.837L225.886 130.78L224.194 126.61ZM229.239 133.062L227.125 127.849L222.955 129.541L225.069 134.753L229.239 133.062ZM225.394 137.05L228 135.993L226.309 131.823L223.703 132.88L225.394 137.05ZM227.691 136.725L226.633 134.119L222.463 135.811L223.521 138.417L227.691 136.725ZM223.845 140.713L226.451 139.656L224.76 135.486L222.154 136.543L223.845 140.713ZM219.857 136.868L220.914 139.474L225.084 137.782L224.027 135.176L219.857 136.868ZM223.702 132.88L221.096 133.937L222.788 138.107L225.394 137.05L223.702 132.88ZM220.349 130.598L222.463 135.811L226.633 134.119L224.519 128.907L220.349 130.598ZM175.31 148.261L177.916 147.204L176.224 143.034L173.618 144.091L175.31 148.261ZM177.606 147.936L176.549 145.33L172.379 147.022L173.436 149.628L177.606 147.936ZM177.282 145.64L174.675 146.697L176.367 150.867L178.973 149.81L177.282 145.64ZM174.985 145.965L176.042 148.571L180.212 146.879L179.155 144.273L174.985 145.965ZM182.637 151.359L182.637 151.359L180.946 147.189L180.945 147.189L182.637 151.359ZM184.933 151.035L183.876 148.428L179.706 150.12L180.763 152.726L184.933 151.035ZM195.034 144.509L182.002 149.795L183.694 153.965L196.725 148.679L195.034 144.509ZM192.737 144.834L193.794 147.44L197.964 145.749L196.907 143.142L192.737 144.834ZM193.977 141.903L193.976 141.903L195.668 146.073L195.668 146.073L193.977 141.903ZM191.68 142.228L192.737 144.834L196.907 143.142L195.85 140.536L191.68 142.228ZM189.399 145.581L194.611 143.467L192.919 139.297L187.707 141.411L189.399 145.581ZM191.695 145.257L190.638 142.651L186.468 144.342L187.525 146.948L191.695 145.257ZM187.85 149.244L190.456 148.187L188.764 144.017L186.158 145.075L187.85 149.244ZM183.862 145.399L184.919 148.005L189.089 146.314L188.032 143.708L183.862 145.399ZM181.58 148.753L186.793 146.638L185.101 142.468L179.889 144.583L181.58 148.753ZM183.877 148.428L182.819 145.822L178.649 147.514L179.707 150.12L183.877 148.428Z" fill="white" mask="url(#path-36-outside-5_2337_2691)"/>
<path d="M39.4043 36.0449V37.6445H33.375V40.4746H38.7715V42.0215H33.375V45.291C35.9766 45.2822 37.9629 45.1943 40.248 44.8164L40.4414 46.3984C37.9453 46.7852 35.7129 46.873 32.7773 46.873H31.4414V36.0449H39.4043ZM43.7988 34.6738V50.5645H41.8301V34.6738H43.7988ZM58.3627 36.2207V38.0137C58.3627 40.1406 58.3627 42.3379 57.7826 45.6777L55.7963 45.502C56.4115 42.373 56.4115 40.0703 56.4115 38.0137V37.8027H47.2533V36.2207H58.3627ZM60.2084 46.7852V48.3848H45.724V46.7852H60.2084ZM74.6316 34.6738V50.5645H72.7507V34.6738H74.6316ZM71.362 34.9551V49.791H69.4988V42.2324H67.987C67.8025 45.3262 66.4753 47.2422 64.5066 47.2246C62.4323 47.2422 61.0788 45.0449 61.0788 41.5469C61.0788 38.0488 62.4323 35.8867 64.5066 35.8867C66.4314 35.8867 67.7409 37.6797 67.9695 40.6504H69.4988V34.9551H71.362ZM64.5066 37.7324C63.5046 37.7148 62.8718 39.0684 62.8894 41.5469C62.8718 44.0254 63.5046 45.3789 64.5066 45.3613C65.5613 45.3789 66.1941 44.0254 66.1941 41.5469C66.1941 39.0684 65.5613 37.7148 64.5066 37.7324ZM81.9884 38.4883C81.9884 41.4414 83.3946 44.3418 85.9259 45.4492L84.7481 47.0137C82.9464 46.1348 81.6807 44.4473 81.004 42.373C80.3096 44.5615 79.0177 46.3809 77.1895 47.3125L75.9591 45.7305C78.543 44.5176 79.9845 41.459 80.002 38.4883V35.957H81.9884V38.4883ZM89.4415 34.6738V50.582H87.5079V41.3887H84.168V39.8066H87.5079V34.6738H89.4415ZM38.7363 61.8535C38.7363 64.3145 41.1445 66.7754 44.4668 67.3555L43.5879 68.9902C40.9248 68.4277 38.7451 66.8193 37.7168 64.6836C36.6621 66.8018 34.4824 68.4189 31.8281 68.9902L30.9668 67.3555C34.2539 66.7578 36.6445 64.2969 36.6621 61.8535V60.6758H38.7363V61.8535ZM45.0469 71.9258V73.543H30.5273V71.9258H45.0469ZM60.2435 72.084V73.7188H45.724V72.084H51.9642V68.9551H46.972V67.4082H49.2045V62.6621H46.9193V61.0801H58.9779V62.6621H56.6576V67.4082H58.9252V68.9551H53.8978V72.084H60.2435ZM51.1556 67.4082H54.724V62.6621H51.1556V67.4082ZM75.4402 72.0488V73.6484H60.9206V72.0488H75.4402ZM74.1394 62.0117V63.5938H69.1823C69.2966 65.7295 71.3532 67.6895 74.7898 68.1992L74.0339 69.7637C71.3005 69.3066 69.2087 67.9971 68.1628 66.1602C67.1081 67.9971 65.0251 69.3066 62.2917 69.7637L61.5534 68.1992C64.9724 67.6895 67.029 65.7295 67.1784 63.5938H62.2038V62.0117H67.196V59.9727H69.1296V62.0117H74.1394ZM93.7397 59.6738V75.5645H91.8588V59.6738H93.7397ZM90.5229 59.9551V74.791H88.6772V69.7812H86.603C86.0141 71.3457 84.9594 72.2334 83.6147 72.2246C81.5405 72.2422 80.187 70.0449 80.187 66.5469C80.187 63.0488 81.5405 60.8867 83.6147 60.8867C84.9594 60.8867 86.0053 61.7656 86.603 63.3125H88.6772V59.9551H90.5229ZM83.6147 62.7324C82.5776 62.7148 81.9623 64.0684 81.9799 66.5469C81.9623 69.0254 82.5776 70.3789 83.6147 70.3613C84.6694 70.3789 85.3198 69.0254 85.3198 66.5469C85.3198 64.0684 84.6694 62.7148 83.6147 62.7324ZM86.9897 64.8945C87.0688 65.4043 87.1127 65.958 87.1127 66.5469C87.1127 67.127 87.0688 67.6719 87.0073 68.1816H88.6772V64.8945H86.9897ZM109.921 61.8887V63.4707H107.759V65.2988H109.921V66.9336H107.759V69.0605H105.807V59.6738H107.759V61.8887H109.921ZM107.759 69.7461V75.5645H105.807V71.3281H97.1766V69.7461H107.759ZM99.6902 60.5879C102.134 60.5703 103.962 62.1699 103.979 64.4023C103.962 66.6699 102.134 68.252 99.6902 68.252C97.2293 68.252 95.3836 66.6699 95.4012 64.4023C95.3836 62.1699 97.2293 60.5703 99.6902 60.5879ZM99.6902 62.2402C98.3191 62.2578 97.2996 63.084 97.3172 64.4023C97.2996 65.7559 98.3191 66.5996 99.6902 66.582C101.044 66.5996 102.063 65.7559 102.063 64.4023C102.063 63.084 101.044 62.2578 99.6902 62.2402ZM117.647 59.9199C121.268 59.9199 123.36 60.8867 123.377 62.6445C123.36 64.4199 121.268 65.3691 117.647 65.3867C114.026 65.3691 111.916 64.4199 111.916 62.6445C111.916 60.8867 114.026 59.9199 117.647 59.9199ZM117.647 61.3613C115.221 61.3613 113.955 61.8184 113.973 62.6445C113.955 63.5234 115.221 63.9277 117.647 63.9277C120.108 63.9277 121.356 63.5234 121.356 62.6445C121.356 61.8184 120.108 61.3613 117.647 61.3613ZM124.906 66.2305V67.7949H110.422V66.2305H124.906ZM123.096 68.8672V72.752H114.061V73.9297H123.535V75.4238H112.145V71.3633H121.18V70.3086H112.127V68.8672H123.096ZM34.9043 94.5176V95.9766H41.8125V94.5176H43.7461V100.371H32.9707V94.5176H34.9043ZM34.9043 98.8066H41.8125V97.4707H34.9043V98.8066ZM43.7461 84.6914V93.832H41.7949V84.6914H43.7461ZM30.5449 91.459C33.5332 91.459 37.4355 91.459 40.8457 91.0195L40.9688 92.4082C39.6768 92.6279 38.3408 92.7686 37.0312 92.8652V94.9043H35.0801V92.9531C33.542 93.0234 32.083 93.0234 30.791 93.0234L30.5449 91.459ZM36.9082 85.7637C36.9082 87.2051 38.2266 88.5059 40.6348 88.9805L39.791 90.457C37.9629 90.0703 36.6445 89.1826 35.9414 87.9785C35.2471 89.2881 33.9111 90.2725 32.0215 90.7031L31.1602 89.209C33.6035 88.6816 34.9043 87.3105 34.9043 85.7637V85.0781H36.9082V85.7637ZM58.6966 86.1328V87.6621C58.6791 89.6309 58.6791 91.8457 58.0638 95.168L56.0951 94.957C56.7103 91.8633 56.7103 89.6045 56.7279 87.6973H47.2357V86.1328H58.6966ZM60.2084 96.9082V98.5078H45.724V96.9082H51.0677V91.3887H53.0013V96.9082H60.2084ZM78.1387 84.6738V96.416H76.1876V92.2676H73.9376V90.6504H76.1876V89.1387H73.9376V87.5566H76.1876V84.6738H78.1387ZM73.7091 85.8691V87.4336H72.3028V92.4961C72.9005 92.4609 73.4805 92.417 74.043 92.3555L74.1309 93.7793C71.1251 94.2715 67.5919 94.3242 65.0606 94.3242L64.8497 92.707L66.6427 92.6895V87.4336H65.254V85.8691H73.7091ZM78.543 98.666V100.248H67.6973V95.502H69.6661V98.666H78.543ZM68.5411 92.6719L70.422 92.6016V87.4336H68.5411V92.6719ZM93.2651 84.6738V100.582H91.3315V84.6738H93.2651ZM88.3784 86.0625V92.0215H82.9116V95.2207C85.4164 95.2031 87.5786 95.0801 90.0483 94.6582L90.2241 96.2578C87.517 96.7324 85.144 96.8203 82.2963 96.8203H80.9077V90.4746H86.392V87.6445H80.8901V86.0625H88.3784ZM107.671 84.6738V91.002H110.114V92.6191H107.671V100.564H105.737V84.6738H107.671ZM104.507 87.1172V88.6816H95.1375V87.1172H98.8992V84.9023H100.85V87.1172H104.507ZM99.8836 89.7188C102.169 89.7188 103.874 91.2656 103.874 93.4629C103.874 95.6602 102.169 97.1895 99.8836 97.1895C97.5633 97.1895 95.8582 95.6602 95.8758 93.4629C95.8582 91.2656 97.5633 89.7188 99.8836 89.7188ZM99.8836 91.3184C98.6355 91.3184 97.7391 92.1621 97.7391 93.4629C97.7391 94.7637 98.6355 95.5898 99.8836 95.5723C101.096 95.5898 101.993 94.7637 102.011 93.4629C101.993 92.1621 101.096 91.3184 99.8836 91.3184ZM124.133 84.6738V100.564H122.27V84.6738H124.133ZM120.758 85.0605V99.8086H118.912V92.4961H116.082C115.151 94.3242 113.656 95.9062 111.406 97.207L110.299 95.8184C113.595 93.876 115.098 91.3887 115.397 88.1895H111.108V86.6074H117.33C117.33 88.1455 117.146 89.5869 116.715 90.9316H118.912V85.0605H120.758ZM128.888 86.2734L128.695 95.2559H126.709L126.498 86.2734H128.888ZM127.71 99.1406C126.955 99.1406 126.339 98.5254 126.339 97.7695C126.339 97.0312 126.955 96.416 127.71 96.416C128.431 96.416 129.064 97.0312 129.064 97.7695C129.064 98.5254 128.431 99.1406 127.71 99.1406Z" fill="white"/>
</g>
<defs>
<clipPath id="clip0_2337_2691">
<rect width="320" height="150" rx="10" fill="white"/>
</clipPath>
</defs>
</svg>
