<svg xmlns="http://www.w3.org/2000/svg" viewBox="0 0 361 170" fill="none">
<rect width="360" height="170" transform="translate(0.7341)" fill="#121212"/>
<path d="M29.6989 27.3916H24.1042V29.8818H29.0681V31.542H24.1042V34.3975C25.3659 34.3864 26.4782 34.3504 27.4411 34.2896C28.404 34.2287 29.3835 34.1208 30.3796 33.9658L30.5788 35.6758C29.4665 35.8363 28.3515 35.9469 27.2336 36.0078C26.1213 36.0632 24.8126 36.0908 23.3073 36.0908H22.0124V25.665H29.6989V27.3916ZM33.8825 39.5273H31.7409V24.4199H33.8825V39.5273ZM47.9607 27.624C47.9607 28.5426 47.9496 29.3257 47.9275 29.9731C47.9109 30.6206 47.8638 31.3566 47.7863 32.1812C47.7089 33.0057 47.5844 33.9049 47.4128 34.8789L45.2712 34.6963C45.4428 33.8219 45.57 32.9919 45.653 32.2061C45.7361 31.4202 45.7886 30.7119 45.8108 30.0811C45.8329 29.4502 45.8467 28.6921 45.8523 27.8066V27.624V27.5078H37.3025V25.8145H47.9607V27.624ZM49.654 37.5518H35.8747V35.8086H49.654V37.5518ZM63.6657 39.5273H61.6404V24.4199H63.6657V39.5273ZM60.5114 38.8301H58.5193V31.6914H57.299C57.2382 32.6764 57.0611 33.5259 56.7678 34.2397C56.48 34.9536 56.0982 35.5015 55.6223 35.8833C55.1464 36.2651 54.6013 36.4561 53.987 36.4561C53.3285 36.4561 52.7502 36.2347 52.2522 35.792C51.7597 35.3493 51.3778 34.7157 51.1067 33.8911C50.8355 33.061 50.6999 32.0843 50.6999 30.9609C50.6999 29.8431 50.8355 28.8747 51.1067 28.0557C51.3778 27.2311 51.7597 26.6003 52.2522 26.1631C52.7502 25.7204 53.3285 25.499 53.987 25.499C54.5902 25.499 55.1242 25.6789 55.5891 26.0386C56.0595 26.3983 56.4385 26.9185 56.7263 27.5991C57.0196 28.2743 57.205 29.0794 57.2824 30.0146H58.5193V24.6357H60.5114V38.8301ZM53.987 27.4912C53.5554 27.4912 53.2234 27.7845 52.9909 28.3711C52.764 28.9577 52.6534 29.821 52.6589 30.9609C52.6534 32.1064 52.764 32.9725 52.9909 33.5591C53.2234 34.1401 53.5554 34.4251 53.987 34.4141C54.4242 34.4251 54.7618 34.1401 54.9997 33.5591C55.2432 32.9725 55.365 32.1064 55.365 30.9609C55.365 29.821 55.2432 28.9577 54.9997 28.3711C54.7618 27.7845 54.4242 27.4912 53.987 27.4912ZM70.9704 27.8398C70.9704 28.8138 71.1032 29.7435 71.3689 30.6289C71.64 31.5088 72.0495 32.2918 72.5974 32.978C73.1452 33.6587 73.8259 34.1761 74.6394 34.5303L73.3445 36.2236C72.531 35.8252 71.8365 35.269 71.261 34.5552C70.691 33.8358 70.2427 32.9974 69.9162 32.04C69.5787 33.0638 69.1111 33.9575 68.5134 34.7212C67.9213 35.4849 67.2074 36.0742 66.3718 36.4893L65.0437 34.7627C65.8737 34.3919 66.571 33.8468 67.1355 33.1274C67.6999 32.408 68.1205 31.5918 68.3972 30.6787C68.6794 29.7656 68.8233 28.8193 68.8288 27.8398V25.582H70.9704V27.8398ZM78.0095 39.5605H75.9177V30.8779H72.946V29.168H75.9177V24.4199H78.0095V39.5605ZM25.3493 48.4824C26.0245 48.4824 26.6332 48.6595 27.1755 49.0137C27.7234 49.3678 28.1716 49.8714 28.5202 50.5244H31.8405V47.4199H33.9323V62.5605H31.8405V56.8994H28.6779C28.3404 57.652 27.8811 58.2331 27.3 58.6426C26.7245 59.0521 26.0743 59.2568 25.3493 59.2568C24.5857 59.2568 23.905 59.0382 23.3073 58.6011C22.7152 58.1584 22.2531 57.5303 21.9211 56.7168C21.5891 55.8978 21.4258 54.946 21.4314 53.8613C21.4258 52.7822 21.5891 51.8387 21.9211 51.0308C22.2531 50.2173 22.7152 49.5892 23.3073 49.1465C23.905 48.7038 24.5857 48.4824 25.3493 48.4824ZM25.3493 50.3916C24.973 50.3916 24.641 50.5272 24.3532 50.7983C24.0655 51.064 23.8414 51.4596 23.6809 51.9854C23.5259 52.5055 23.4512 53.1309 23.4568 53.8613C23.4512 54.5973 23.5259 55.2254 23.6809 55.7456C23.8414 56.2658 24.0627 56.6615 24.3449 56.9326C24.6327 57.1982 24.9675 57.3311 25.3493 57.3311C25.7312 57.3311 26.0632 57.1982 26.3454 56.9326C26.6332 56.667 26.8545 56.2741 27.0095 55.7539C27.1644 55.2337 27.2419 54.6029 27.2419 53.8613C27.2419 53.1253 27.1644 52.4972 27.0095 51.9771C26.8545 51.4569 26.6332 51.064 26.3454 50.7983C26.0632 50.5272 25.7312 50.3916 25.3493 50.3916ZM29.1096 52.2344C29.2147 52.7601 29.2673 53.3024 29.2673 53.8613C29.2673 54.2764 29.2341 54.7246 29.1677 55.2061H31.8405V52.2344H29.1096ZM47.7946 53.2139H49.9362V54.957H47.7946V62.4941H45.6696V47.4199H47.7946V53.2139ZM43.7605 48.9639C43.7494 51.3711 43.2071 53.4989 42.1335 55.3472C41.0655 57.1899 39.3223 58.7035 36.904 59.8877L35.7087 58.2607C37.5072 57.3587 38.8879 56.2907 39.8508 55.0566C40.8192 53.8226 41.403 52.3672 41.6023 50.6904H36.572V48.9639H43.7605ZM56.4441 50.8398C56.4441 51.7861 56.5879 52.702 56.8757 53.5874C57.1635 54.4673 57.5923 55.2503 58.1623 55.9365C58.7378 56.6172 59.4379 57.1318 60.2624 57.4805L59.0173 59.1738C58.1762 58.792 57.4512 58.2469 56.8425 57.5386C56.2393 56.8247 55.7606 55.9863 55.4065 55.0234C55.0523 56.0749 54.5598 56.988 53.9289 57.7627C53.3036 58.5374 52.5427 59.1296 51.6462 59.5391L50.3679 57.7793C51.2201 57.4196 51.9395 56.8856 52.5261 56.1772C53.1127 55.4634 53.5526 54.6471 53.8459 53.7285C54.1447 52.8099 54.2969 51.847 54.3025 50.8398V48.582H56.4441V50.8398ZM63.2175 62.5605H61.0759V47.4199H63.2175V62.5605ZM77.2458 51.6533H79.2878V53.3965H77.2458V58.2441H75.1042V47.4199H77.2458V51.6533ZM73.1286 48.5488C73.1286 49.8991 72.8519 51.1165 72.2986 52.2012C71.7507 53.2803 70.9483 54.2044 69.8913 54.9736C68.8344 55.7428 67.5505 56.3405 66.0398 56.7666L65.1599 55.0898C66.8256 54.625 68.1371 53.9748 69.0945 53.1392C70.0573 52.3035 70.6246 51.349 70.7961 50.2754H65.8239V48.5488H73.1286ZM77.7605 62.2617H67.4177V57.1318H69.5593V60.5684H77.7605V62.2617ZM86.8415 47.6357C87.9981 47.6357 88.9859 47.7354 89.8049 47.9346C90.6239 48.1338 91.2492 48.4271 91.6809 48.8145C92.1125 49.1963 92.3311 49.6611 92.3366 50.209C92.3311 50.7624 92.1125 51.2327 91.6809 51.6201C91.2492 52.0075 90.6239 52.3008 89.8049 52.5C88.9859 52.6992 87.9981 52.7988 86.8415 52.7988C85.6794 52.7988 84.6861 52.6992 83.8615 52.5C83.037 52.3008 82.4089 52.0075 81.9773 51.6201C81.5456 51.2327 81.3298 50.7624 81.3298 50.209C81.3298 49.6611 81.5456 49.1963 81.9773 48.8145C82.4089 48.4271 83.037 48.1338 83.8615 47.9346C84.6861 47.7354 85.6794 47.6357 86.8415 47.6357ZM86.8415 49.1797C85.7403 49.1797 84.913 49.2682 84.3596 49.4453C83.8117 49.6169 83.5433 49.8714 83.5544 50.209C83.5489 50.5742 83.8117 50.8371 84.343 50.9976C84.8742 51.158 85.7071 51.2383 86.8415 51.2383C87.9815 51.2383 88.8171 51.158 89.3484 50.9976C89.8796 50.8371 90.1452 50.5742 90.1452 50.209C90.1452 49.8714 89.8713 49.6169 89.3235 49.4453C88.7756 49.2682 87.9483 49.1797 86.8415 49.1797ZM93.7312 55.1895H79.9519V53.5127H93.7312V55.1895ZM92.0544 59.9209H83.6374V60.834H92.4529V62.4277H81.5622V58.4434H89.9626V57.6133H81.5456V56.0693H92.0544V59.9209ZM34.9616 79.8994H21.1823V78.2061H26.9929V77.0024C26.0853 76.925 25.2995 76.7507 24.6355 76.4795C23.9714 76.2083 23.4595 75.8542 23.0998 75.417C22.7401 74.9743 22.5603 74.4652 22.5603 73.8896C22.5603 73.2643 22.7872 72.7192 23.2409 72.2544C23.6947 71.7896 24.3366 71.4326 25.1667 71.1836C25.9968 70.929 26.9652 70.8018 28.072 70.8018C29.1677 70.8018 30.1278 70.929 30.9524 71.1836C31.7824 71.4326 32.4244 71.7896 32.8781 72.2544C33.3319 72.7192 33.5616 73.2643 33.5671 73.8896C33.5616 74.4707 33.3762 74.9826 33.011 75.4253C32.6513 75.8625 32.1366 76.2166 31.467 76.4878C30.8029 76.7534 30.0199 76.925 29.1179 77.0024V78.2061H34.9616V79.8994ZM33.4011 85.2617H22.8425V80.8457H24.9675V83.5684H33.4011V85.2617ZM28.072 72.4785C27.0206 72.4785 26.2043 72.603 25.6233 72.8521C25.0477 73.0955 24.7627 73.4414 24.7683 73.8896C24.7627 74.3711 25.045 74.7336 25.615 74.9771C26.1849 75.215 27.004 75.334 28.072 75.334C29.1345 75.334 29.9507 75.215 30.5207 74.9771C31.0907 74.7336 31.3757 74.3711 31.3757 73.8896C31.3757 73.4414 31.0852 73.0955 30.5041 72.8521C29.9286 72.603 29.1179 72.4785 28.072 72.4785ZM48.6081 81.46H46.4997V76.0479H44.0261V74.3379H46.4997V70.4365H48.6081V81.46ZM48.9734 85.2617H38.5808V80.4971H40.7058V83.5684H48.9734V85.2617ZM41.5857 73.3916C41.5857 73.9948 41.7102 74.5841 41.9592 75.1597C42.2138 75.7352 42.6011 76.2554 43.1213 76.7202C43.6415 77.1851 44.2862 77.542 45.0554 77.791L44.0095 79.4678C43.196 79.2077 42.496 78.8175 41.9094 78.2974C41.3283 77.7772 40.8663 77.1629 40.5232 76.4546C40.1801 77.2404 39.7014 77.9183 39.0871 78.4883C38.4784 79.0583 37.7396 79.4899 36.8708 79.7832L35.7917 78.0566C36.5886 77.8076 37.2582 77.4396 37.8005 76.9526C38.3484 76.4657 38.7551 75.915 39.0207 75.3008C39.2863 74.681 39.4219 74.0391 39.4275 73.375V73.1426H36.3894V71.4492H44.5905V73.1426H41.5857V73.3916ZM63.2175 85.5273H61.0759V70.4199H63.2175V85.5273ZM59.9138 74.3877H50.8825V72.6943H54.3191V70.6191H56.4773V72.6943H59.9138V74.3877ZM55.4314 75.2178C56.1674 75.2178 56.8287 75.3727 57.4153 75.6826C58.0074 75.987 58.4722 76.4131 58.8098 76.9609C59.1473 77.5088 59.3161 78.1286 59.3161 78.8203C59.3161 79.512 59.1473 80.1318 58.8098 80.6797C58.4722 81.2275 58.0074 81.6564 57.4153 81.9663C56.8287 82.2707 56.1674 82.4229 55.4314 82.4229C54.6898 82.4229 54.023 82.2707 53.4309 81.9663C52.8388 81.6564 52.3739 81.2275 52.0363 80.6797C51.6988 80.1318 51.53 79.512 51.53 78.8203C51.53 78.1286 51.6988 77.5088 52.0363 76.9609C52.3739 76.4131 52.8388 75.987 53.4309 75.6826C54.023 75.3727 54.6898 75.2178 55.4314 75.2178ZM55.4314 76.9277C55.0606 76.9333 54.7341 77.0135 54.4519 77.1685C54.1696 77.3234 53.9483 77.542 53.7878 77.8242C53.6329 78.1064 53.5554 78.4385 53.5554 78.8203C53.5554 79.2077 53.6329 79.5425 53.7878 79.8247C53.9483 80.1069 54.1696 80.3228 54.4519 80.4722C54.7341 80.616 55.0606 80.6852 55.4314 80.6797C55.7966 80.6852 56.1176 80.616 56.3943 80.4722C56.6765 80.3228 56.8951 80.1069 57.05 79.8247C57.2105 79.5425 57.2907 79.2077 57.2907 78.8203C57.2907 78.4385 57.2105 78.1064 57.05 77.8242C56.8951 77.542 56.6765 77.3234 56.3943 77.1685C56.1176 77.0135 55.7966 76.9333 55.4314 76.9277ZM82.9568 78.2393H69.1775V76.5625H82.9568V78.2393ZM81.28 82.9209H72.863V83.834H81.6784V85.4277H70.7878V81.4434H79.1882V80.6133H70.7712V79.0693H81.28V82.9209ZM81.7116 72.5615H77.4616C77.6221 72.8825 77.9099 73.1813 78.3249 73.458C78.7455 73.7347 79.2961 73.9671 79.9768 74.1553C80.6574 74.3434 81.4515 74.4652 82.3591 74.5205L81.695 76.1475C80.3226 76.0479 79.155 75.7933 78.1921 75.3838C77.2292 74.9688 76.5154 74.4375 76.0505 73.79C75.5857 74.4375 74.8746 74.9688 73.9172 75.3838C72.9654 75.7933 71.8116 76.0479 70.4558 76.1475L69.7917 74.5205C70.6937 74.4652 71.4795 74.3434 72.1491 74.1553C72.8243 73.9671 73.3694 73.7347 73.7844 73.458C74.1994 73.1813 74.49 72.8825 74.656 72.5615H70.4392V70.9014H81.7116V72.5615ZM96.6032 78.5879H94.4948V75.5996H91.7722V73.9062H94.4948V70.4199H96.6032V78.5879ZM91.7556 71.25C91.7556 75.2288 89.4369 77.8076 84.7995 78.9863L84.0193 77.3096C85.7015 76.9111 86.9909 76.3411 87.8874 75.5996C88.7839 74.8525 89.3096 73.9727 89.4646 72.96H84.8161V71.25H91.7556ZM88.6179 80.6963H94.4948V79.2354H96.6032V85.3613H86.4929V79.2354H88.6179V80.6963ZM94.4948 83.6846V82.3398H88.6179V83.6846H94.4948ZM111.661 85.5273H109.669V70.4199H111.661V85.5273ZM108.44 84.8633H106.465V77.9238H103.991C103.548 78.8092 102.964 79.6227 102.239 80.3643C101.515 81.1058 100.626 81.7809 99.5749 82.3896L98.3796 80.8955C99.8737 80.0046 100.989 78.9974 101.725 77.874C102.466 76.7507 102.912 75.4336 103.061 73.9229H99.2097V72.2129H105.17C105.159 73.7458 104.984 75.0905 104.647 76.2471H106.465V70.752H108.44V84.8633ZM120.393 80.3975H118.268L118.052 71.9805H120.609L120.393 80.3975ZM119.347 84.1494C119.093 84.1494 118.858 84.0858 118.642 83.9585C118.426 83.8312 118.254 83.6624 118.127 83.4521C118.005 83.2363 117.947 83.0039 117.953 82.7549C117.947 82.5059 118.005 82.2762 118.127 82.0659C118.254 81.8556 118.426 81.6896 118.642 81.5679C118.858 81.4406 119.093 81.377 119.347 81.377C119.585 81.377 119.809 81.4406 120.02 81.5679C120.236 81.6896 120.407 81.8556 120.534 82.0659C120.662 82.2762 120.725 82.5059 120.725 82.7549C120.725 83.0039 120.662 83.2363 120.534 83.4521C120.407 83.6624 120.236 83.8312 120.02 83.9585C119.809 84.0858 119.585 84.1494 119.347 84.1494Z" fill="white"/>
<path d="M23.7341 121.16H28.7849V120.023H29.6872V123.809H22.82V120.023H23.7341V121.16ZM28.7849 123.059V121.887H23.7341V123.059H28.7849ZM29.6872 119.52H28.7732V113.543H29.6872V119.52ZM21.1677 118.102C22.5935 118.102 23.8454 118.086 24.9236 118.055C26.0056 118.02 27.0505 117.938 28.0583 117.809L28.1169 118.465C27.2732 118.605 26.3161 118.709 25.2458 118.775V120.34H24.3318V118.816C23.6013 118.848 22.5896 118.863 21.2966 118.863L21.1677 118.102ZM25.1521 114.316C25.1521 114.664 25.2595 114.992 25.4743 115.301C25.6931 115.605 25.9958 115.869 26.3825 116.092C26.7732 116.314 27.2185 116.48 27.7185 116.59L27.32 117.293C26.7068 117.156 26.1716 116.934 25.7146 116.625C25.2575 116.312 24.9157 115.939 24.6892 115.506C24.4704 115.971 24.1325 116.373 23.6755 116.713C23.2185 117.049 22.6794 117.297 22.0583 117.457L21.6364 116.73C22.1364 116.613 22.5798 116.436 22.9665 116.197C23.3571 115.959 23.6618 115.678 23.8806 115.354C24.0993 115.029 24.2107 114.684 24.2146 114.316V113.789H25.1521V114.316ZM39.6425 115.629V115.758C39.6347 116.617 39.6074 117.389 39.5605 118.072C39.5175 118.752 39.416 119.539 39.2558 120.434L38.3183 120.328C38.4433 119.711 38.5332 119.129 38.5879 118.582C38.6464 118.035 38.6816 117.549 38.6933 117.123C38.7089 116.697 38.7168 116.199 38.7168 115.629V115.348H32.2949V114.586H39.6425V115.629ZM40.7793 122.473H31.2871V121.711H35.0136V117.984H35.916V121.711H40.7793V122.473ZM52.8266 121.289H51.9008V118.266H50.1196V117.492H51.9008V116.285H50.1196V115.523H51.9008V113.531H52.8266V121.289ZM50.0375 115.137H48.9711V118.787C49.5883 118.744 50.0571 118.703 50.3774 118.664L50.4243 119.355C49.5219 119.496 48.559 119.59 47.5356 119.637C46.5121 119.684 45.4438 119.707 44.3305 119.707L44.2133 118.922L45.561 118.91V115.137H44.5063V114.387H50.0375V115.137ZM53.1079 123.727H46.1118V120.645H47.0375V122.953H53.1079V123.727ZM46.4516 118.893C47.0024 118.881 47.5454 118.863 48.0805 118.84V115.137H46.4516V118.893ZM62.9225 123.973H62.0085V113.531H62.9225V123.973ZM59.7585 118.207H55.8679V120.668C56.8014 120.668 57.6686 120.641 58.4694 120.586C59.2741 120.531 60.1179 120.434 61.0007 120.293L61.0944 121.066C60.1921 121.211 59.3288 121.311 58.5046 121.365C57.6804 121.416 56.778 121.441 55.7975 121.441H54.9304V117.457H58.8327V115.266H54.9069V114.504H59.7585V118.207ZM72.5146 117.832H74.2607V118.594H72.5146V123.949H71.6005V113.531H72.5146V117.832ZM70.5927 115.969H64.3935V115.207H67.0771V113.66H67.9911V115.207H70.5927V115.969ZM67.5458 116.836C68.0341 116.836 68.4716 116.938 68.8583 117.141C69.245 117.344 69.5478 117.627 69.7665 117.99C69.9853 118.354 70.0966 118.766 70.1005 119.227C70.0966 119.688 69.9853 120.1 69.7665 120.463C69.5478 120.826 69.245 121.109 68.8583 121.312C68.4716 121.516 68.0341 121.617 67.5458 121.617C67.0536 121.617 66.6122 121.516 66.2216 121.312C65.8349 121.109 65.5321 120.826 65.3134 120.463C65.0946 120.1 64.9872 119.688 64.9911 119.227C64.9872 118.766 65.0946 118.354 65.3134 117.99C65.5321 117.627 65.8349 117.344 66.2216 117.141C66.6122 116.938 67.0536 116.836 67.5458 116.836ZM67.5458 117.609C67.2255 117.609 66.9364 117.68 66.6786 117.82C66.4247 117.957 66.2255 118.148 66.081 118.395C65.9364 118.641 65.8661 118.918 65.87 119.227C65.8661 119.539 65.9364 119.818 66.081 120.064C66.2255 120.307 66.4247 120.496 66.6786 120.633C66.9364 120.77 67.2255 120.836 67.5458 120.832C67.8622 120.836 68.1474 120.77 68.4013 120.633C68.6552 120.496 68.8544 120.307 68.9989 120.064C69.1435 119.818 69.2177 119.539 69.2216 119.227C69.2177 118.918 69.1435 118.641 68.9989 118.395C68.8544 118.148 68.6552 117.957 68.4013 117.82C68.1474 117.68 67.8622 117.609 67.5458 117.609ZM83.5011 123.949H82.6222V113.531H83.5011V123.949ZM81.3097 123.422H80.4308V118.559H78.2218C77.5578 119.832 76.5285 120.879 75.1339 121.699L74.5949 121.031C75.7082 120.375 76.5597 119.59 77.1496 118.676C77.7433 117.758 78.0832 116.742 78.1691 115.629H75.0402V114.867H79.0832C79.0754 115.93 78.9015 116.91 78.5617 117.809H80.4308V113.812H81.3097V123.422ZM96.4157 123.949H95.525V113.531H96.4157V123.949ZM94.3414 123.422H93.4625V120H91.7985C91.6149 120.523 91.3551 120.93 91.0192 121.219C90.6832 121.508 90.2946 121.652 89.8532 121.652C89.4039 121.652 89.0094 121.506 88.6696 121.213C88.3336 120.916 88.0739 120.494 87.8903 119.947C87.7067 119.4 87.6149 118.762 87.6149 118.031C87.6149 117.301 87.7067 116.662 87.8903 116.115C88.0739 115.568 88.3336 115.148 88.6696 114.855C89.0094 114.559 89.4039 114.41 89.8532 114.41C90.2946 114.41 90.6832 114.555 91.0192 114.844C91.3551 115.133 91.6149 115.539 91.7985 116.062H93.4625V113.754H94.3414V123.422ZM89.8532 115.277C89.5719 115.277 89.3258 115.389 89.1149 115.611C88.9079 115.834 88.7477 116.152 88.6344 116.566C88.525 116.98 88.4704 117.469 88.4704 118.031C88.4704 118.59 88.525 119.076 88.6344 119.49C88.7477 119.904 88.9079 120.223 89.1149 120.445C89.3258 120.668 89.5719 120.777 89.8532 120.773C90.1305 120.777 90.3746 120.668 90.5856 120.445C90.7965 120.223 90.9586 119.904 91.0719 119.49C91.1891 119.076 91.2477 118.59 91.2477 118.031C91.2477 117.473 91.1891 116.986 91.0719 116.572C90.9586 116.154 90.7965 115.834 90.5856 115.611C90.3786 115.389 90.1344 115.277 89.8532 115.277ZM91.9977 116.824C92.068 117.191 92.1032 117.594 92.1032 118.031C92.1032 118.453 92.07 118.852 92.0036 119.227H93.4625V116.824H91.9977ZM107.308 115.898H105.762V117.363H107.308V118.148H105.762V119.73H104.848V113.531H105.762V115.148H107.308V115.898ZM105.762 123.949H104.848V120.973H98.9413V120.211H105.762V123.949ZM100.547 114.164C101.066 114.16 101.533 114.262 101.947 114.469C102.365 114.676 102.691 114.967 102.926 115.342C103.164 115.717 103.285 116.141 103.289 116.613C103.285 117.094 103.164 117.521 102.926 117.896C102.691 118.271 102.367 118.564 101.953 118.775C101.539 118.982 101.07 119.086 100.547 119.086C100.023 119.086 99.5526 118.982 99.1346 118.775C98.7206 118.564 98.3964 118.271 98.162 117.896C97.9276 117.521 97.8124 117.094 97.8163 116.613C97.8124 116.141 97.9276 115.719 98.162 115.348C98.3964 114.973 98.7206 114.682 99.1346 114.475C99.5526 114.264 100.023 114.16 100.547 114.164ZM100.547 114.949C100.199 114.949 99.8846 115.02 99.6034 115.16C99.326 115.301 99.1073 115.498 98.9471 115.752C98.7909 116.002 98.7147 116.289 98.7186 116.613C98.7147 116.941 98.7909 117.234 98.9471 117.492C99.1073 117.746 99.326 117.943 99.6034 118.084C99.8846 118.225 100.199 118.293 100.547 118.289C100.898 118.293 101.213 118.225 101.49 118.084C101.771 117.943 101.99 117.746 102.146 117.492C102.307 117.234 102.387 116.941 102.387 116.613C102.387 116.289 102.307 116.002 102.146 115.752C101.99 115.498 101.771 115.301 101.49 115.16C101.213 115.02 100.898 114.949 100.547 114.949ZM118.653 116.695H120.211V117.469H118.653V120.527H117.727V113.543H118.653V116.695ZM110.473 119.461C111.676 119.461 112.618 119.449 113.297 119.426V118.67C112.895 118.635 112.543 118.551 112.243 118.418C111.942 118.281 111.709 118.104 111.545 117.885C111.385 117.666 111.305 117.414 111.305 117.129C111.305 116.816 111.405 116.545 111.604 116.314C111.807 116.084 112.092 115.906 112.459 115.781C112.83 115.656 113.258 115.594 113.743 115.594C114.231 115.594 114.659 115.656 115.026 115.781C115.397 115.906 115.682 116.084 115.881 116.314C116.084 116.545 116.188 116.816 116.192 117.129C116.188 117.555 116.008 117.904 115.653 118.178C115.301 118.447 114.821 118.609 114.211 118.664V119.391C115.325 119.336 116.282 119.25 117.082 119.133L117.164 119.801C116.168 119.977 115.143 120.09 114.088 120.141C113.037 120.188 111.868 120.211 110.578 120.211L110.473 119.461ZM118.653 123.949H117.727V121.781H111.75V121.043H118.653V123.949ZM116.766 115.195H110.731V114.492H113.297V113.449H114.211V114.492H116.766V115.195ZM113.743 116.25C113.262 116.246 112.881 116.322 112.6 116.479C112.323 116.635 112.184 116.852 112.184 117.129C112.184 117.309 112.246 117.467 112.371 117.604C112.5 117.74 112.682 117.848 112.916 117.926C113.151 118 113.426 118.035 113.743 118.031C114.059 118.035 114.334 118 114.569 117.926C114.807 117.848 114.991 117.74 115.119 117.604C115.248 117.467 115.313 117.309 115.313 117.129C115.313 116.855 115.17 116.639 114.885 116.479C114.604 116.318 114.223 116.242 113.743 116.25ZM129.288 119.742H128.362V117.012H126.264V116.25H128.362V113.531H129.288V119.742ZM125.831 120.07C126.553 120.07 127.176 120.146 127.7 120.299C128.223 120.451 128.624 120.672 128.901 120.961C129.182 121.25 129.323 121.598 129.323 122.004C129.323 122.41 129.182 122.758 128.901 123.047C128.624 123.34 128.223 123.562 127.7 123.715C127.176 123.867 126.553 123.945 125.831 123.949C125.108 123.945 124.485 123.867 123.962 123.715C123.438 123.562 123.036 123.34 122.754 123.047C122.477 122.758 122.338 122.41 122.338 122.004C122.338 121.598 122.477 121.25 122.754 120.961C123.036 120.672 123.438 120.451 123.962 120.299C124.485 120.146 125.108 120.07 125.831 120.07ZM125.831 120.785C125.303 120.785 124.844 120.834 124.454 120.932C124.063 121.029 123.764 121.17 123.557 121.354C123.35 121.537 123.249 121.754 123.253 122.004C123.249 122.25 123.35 122.465 123.557 122.648C123.764 122.828 124.063 122.967 124.454 123.064C124.844 123.162 125.303 123.211 125.831 123.211C126.358 123.211 126.815 123.162 127.202 123.064C127.592 122.967 127.891 122.828 128.098 122.648C128.305 122.465 128.409 122.25 128.409 122.004C128.409 121.754 128.305 121.537 128.098 121.354C127.891 121.17 127.592 121.029 127.202 120.932C126.815 120.834 126.358 120.785 125.831 120.785ZM124.272 115.441C124.272 115.891 124.379 116.326 124.594 116.748C124.809 117.166 125.11 117.539 125.497 117.867C125.887 118.191 126.335 118.441 126.838 118.617L126.358 119.355C125.776 119.145 125.264 118.832 124.823 118.418C124.385 118.004 124.055 117.525 123.833 116.982C123.606 117.592 123.26 118.131 122.796 118.6C122.335 119.064 121.796 119.414 121.178 119.648L120.698 118.91C121.21 118.723 121.667 118.453 122.069 118.102C122.471 117.746 122.784 117.338 123.006 116.877C123.233 116.416 123.346 115.941 123.346 115.453V115.066H120.991V114.293H126.604V115.066H124.272V115.441ZM139.032 117.832H140.614V118.605H139.032V123.949H138.106V113.531H139.032V117.832ZM133.946 114.668C133.938 116.027 133.747 117.287 133.372 118.447C133.001 119.604 132.372 120.652 131.485 121.594L130.747 121.066C131.501 120.297 132.061 119.443 132.429 118.506C132.796 117.564 133.011 116.543 133.073 115.441H131.075V114.668H133.946ZM136.806 114.668C136.798 116.152 136.63 117.535 136.302 118.816C135.973 120.094 135.368 121.25 134.485 122.285L133.735 121.77C134.489 120.918 135.032 119.957 135.364 118.887C135.7 117.816 135.891 116.668 135.938 115.441H134.274V114.668H136.806ZM144.64 116.73C144.64 117.305 144.767 117.877 145.021 118.447C145.274 119.014 145.616 119.52 146.046 119.965C146.48 120.406 146.952 120.738 147.464 120.961L146.948 121.688C146.335 121.406 145.782 120.982 145.29 120.416C144.798 119.846 144.431 119.203 144.189 118.488C143.946 119.254 143.579 119.947 143.087 120.568C142.599 121.186 142.058 121.645 141.464 121.945L140.913 121.219C141.405 120.98 141.864 120.621 142.29 120.141C142.72 119.66 143.064 119.119 143.321 118.518C143.579 117.912 143.71 117.316 143.714 116.73V115.371H141.253V114.609H147.124V115.371H144.64V116.73ZM149.503 123.949H148.577V113.531H149.503V123.949Z" fill="white"/>
<path d="M209.409 42.3044L193.763 39.8264L191.285 55.4723L206.931 57.9504L209.409 42.3044Z" fill="white"/>
<mask id="path-4-outside-1_3628_15801" maskUnits="userSpaceOnUse" x="184.97" y="9.90442" width="57.2061" height="57.2061" fill="black">
<rect fill="white" x="184.97" y="9.90442" width="57.2061" height="57.2061"/>
<path fill-rule="evenodd" clip-rule="evenodd" d="M209.539 58.3634L206.931 57.9504L207.344 55.3428L204.737 54.9297L205.15 52.3221L202.542 51.9091L202.955 49.3014L200.347 48.8884L200.76 46.2807L198.153 45.8677L198.566 43.2601L195.958 42.8471L196.371 40.2394L193.763 39.8264L194.176 37.2187L191.569 36.8057L192.808 28.9827L195.415 29.3958L196.241 24.1804L198.849 24.5935L199.675 19.3781L202.283 19.7911L202.696 17.1835L207.911 18.0095L208.324 15.4019L226.578 18.2929L226.165 20.9006L231.38 21.7266L230.967 24.3343L233.575 24.7473L232.749 29.9626L235.356 30.3756L234.53 35.5909L237.138 36.004L234.66 51.6499L232.052 51.2369L231.639 53.8446L229.032 53.4315L228.618 56.0392L226.011 55.6262L220.796 54.8002L219.556 62.6231L209.126 60.9711L209.539 58.3634Z"/>
</mask>
<path fill-rule="evenodd" clip-rule="evenodd" d="M209.539 58.3634L206.931 57.9504L207.344 55.3428L204.737 54.9297L205.15 52.3221L202.542 51.9091L202.955 49.3014L200.347 48.8884L200.76 46.2807L198.153 45.8677L198.566 43.2601L195.958 42.8471L196.371 40.2394L193.763 39.8264L194.176 37.2187L191.569 36.8057L192.808 28.9827L195.415 29.3958L196.241 24.1804L198.849 24.5935L199.675 19.3781L202.283 19.7911L202.696 17.1835L207.911 18.0095L208.324 15.4019L226.578 18.2929L226.165 20.9006L231.38 21.7266L230.967 24.3343L233.575 24.7473L232.749 29.9626L235.356 30.3756L234.53 35.5909L237.138 36.004L234.66 51.6499L232.052 51.2369L231.639 53.8446L229.032 53.4315L228.618 56.0392L226.011 55.6262L220.796 54.8002L219.556 62.6231L209.126 60.9711L209.539 58.3634Z" fill="#FFBA93"/>
<path d="M206.931 57.9504L204.845 57.62L204.515 59.7061L206.601 60.0365L206.931 57.9504ZM209.539 58.3634L211.625 58.6938L211.955 56.6077L209.869 56.2773L209.539 58.3634ZM207.344 55.3428L209.43 55.6732L209.761 53.587L207.675 53.2566L207.344 55.3428ZM204.737 54.9297L202.65 54.5993L202.32 56.6855L204.406 57.0159L204.737 54.9297ZM205.15 52.3221L207.236 52.6525L207.566 50.5664L205.48 50.236L205.15 52.3221ZM202.542 51.9091L200.456 51.5787L200.125 53.6648L202.212 53.9952L202.542 51.9091ZM202.955 49.3014L205.041 49.6318L205.371 47.5457L203.285 47.2153L202.955 49.3014ZM200.347 48.8884L198.261 48.558L197.931 50.6441L200.017 50.9745L200.347 48.8884ZM200.76 46.2807L202.846 46.6112L203.177 44.525L201.091 44.1946L200.76 46.2807ZM198.153 45.8677L196.066 45.5373L195.736 47.6234L197.822 47.9539L198.153 45.8677ZM198.566 43.2601L200.652 43.5905L200.982 41.5044L198.896 41.1739L198.566 43.2601ZM195.958 42.8471L193.872 42.5167L193.541 44.6028L195.628 44.9332L195.958 42.8471ZM196.371 40.2394L198.457 40.5698L198.788 38.4837L196.701 38.1533L196.371 40.2394ZM193.763 39.8264L191.677 39.496L191.347 41.5821L193.433 41.9125L193.763 39.8264ZM194.176 37.2187L196.262 37.5491L196.593 35.463L194.507 35.1326L194.176 37.2187ZM191.569 36.8057L189.483 36.4753L189.152 38.5614L191.238 38.8918L191.569 36.8057ZM192.808 28.9827L193.138 26.8966L191.052 26.5662L190.722 28.6523L192.808 28.9827ZM195.415 29.3958L195.085 31.4819L197.171 31.8123L197.502 29.7262L195.415 29.3958ZM196.241 24.1804L196.572 22.0943L194.486 21.7639L194.155 23.85L196.241 24.1804ZM198.849 24.5935L198.519 26.6796L200.605 27.01L200.935 24.9239L198.849 24.5935ZM199.675 19.3781L200.005 17.292L197.919 16.9616L197.589 19.0477L199.675 19.3781ZM202.283 19.7911L201.952 21.8773L204.038 22.2077L204.369 20.1216L202.283 19.7911ZM202.696 17.1835L203.026 15.0974L200.94 14.7669L200.61 16.8531L202.696 17.1835ZM207.911 18.0095L207.581 20.0956L209.667 20.426L209.997 18.3399L207.911 18.0095ZM208.324 15.4019L208.654 13.3157L206.568 12.9853L206.238 15.0714L208.324 15.4019ZM226.578 18.2929L228.664 18.6234L228.994 16.5372L226.908 16.2068L226.578 18.2929ZM226.165 20.9006L224.079 20.5702L223.748 22.6563L225.834 22.9867L226.165 20.9006ZM231.38 21.7266L233.466 22.057L233.797 19.9709L231.71 19.6405L231.38 21.7266ZM230.967 24.3343L228.881 24.0039L228.55 26.09L230.637 26.4204L230.967 24.3343ZM233.575 24.7473L235.661 25.0777L235.991 22.9916L233.905 22.6612L233.575 24.7473ZM232.749 29.9626L230.662 29.6322L230.332 31.7183L232.418 32.0487L232.749 29.9626ZM235.356 30.3756L237.442 30.706L237.773 28.6199L235.687 28.2895L235.356 30.3756ZM234.53 35.5909L232.444 35.2605L232.114 37.3467L234.2 37.6771L234.53 35.5909ZM237.138 36.004L239.224 36.3344L239.554 34.2482L237.468 33.9178L237.138 36.004ZM234.66 51.6499L234.329 53.736L236.416 54.0664L236.746 51.9803L234.66 51.6499ZM232.052 51.2369L232.383 49.1508L230.296 48.8204L229.966 50.9065L232.052 51.2369ZM231.639 53.8446L231.309 55.9307L233.395 56.2611L233.725 54.175L231.639 53.8446ZM229.032 53.4315L229.362 51.3454L227.276 51.015L226.945 53.1011L229.032 53.4315ZM228.618 56.0392L228.288 58.1253L230.374 58.4557L230.705 56.3696L228.618 56.0392ZM220.796 54.8002L221.126 52.714L219.04 52.3836L218.709 54.4698L220.796 54.8002ZM219.556 62.6231L219.226 64.7093L221.312 65.0397L221.643 62.9535L219.556 62.6231ZM209.126 60.9711L207.04 60.6407L206.709 62.7268L208.795 63.0572L209.126 60.9711ZM206.601 60.0365L209.208 60.4496L209.869 56.2773L207.262 55.8643L206.601 60.0365ZM205.258 55.0123L204.845 57.62L209.017 58.2808L209.43 55.6732L205.258 55.0123ZM204.406 57.0159L207.014 57.4289L207.675 53.2566L205.067 52.8436L204.406 57.0159ZM203.063 51.9917L202.65 54.5993L206.823 55.2602L207.236 52.6525L203.063 51.9917ZM202.212 53.9952L204.819 54.4082L205.48 50.236L202.872 49.8229L202.212 53.9952ZM200.869 48.971L200.456 51.5787L204.628 52.2395L205.041 49.6318L200.869 48.971ZM200.017 50.9745L202.625 51.3875L203.285 47.2153L200.678 46.8023L200.017 50.9745ZM198.674 45.9503L198.261 48.558L202.433 49.2188L202.846 46.6112L198.674 45.9503ZM197.822 47.9539L200.43 48.3669L201.091 44.1946L198.483 43.7816L197.822 47.9539ZM196.48 42.9297L196.066 45.5373L200.239 46.1981L200.652 43.5905L196.48 42.9297ZM195.628 44.9332L198.235 45.3462L198.896 41.1739L196.288 40.7609L195.628 44.9332ZM194.285 39.909L193.872 42.5167L198.044 43.1775L198.457 40.5698L194.285 39.909ZM193.433 41.9125L196.041 42.3255L196.701 38.1533L194.094 37.7403L193.433 41.9125ZM192.09 36.8883L191.677 39.496L195.849 40.1568L196.262 37.5491L192.09 36.8883ZM191.238 38.8918L193.846 39.3049L194.507 35.1326L191.899 34.7196L191.238 38.8918ZM190.722 28.6523L189.483 36.4753L193.655 37.1361L194.894 29.3132L190.722 28.6523ZM195.746 27.3096L193.138 26.8966L192.477 31.0689L195.085 31.4819L195.746 27.3096ZM194.155 23.85L193.329 29.0653L197.502 29.7262L198.328 24.5108L194.155 23.85ZM199.179 22.5073L196.572 22.0943L195.911 26.2666L198.519 26.6796L199.179 22.5073ZM197.589 19.0477L196.763 24.263L200.935 24.9239L201.761 19.7085L197.589 19.0477ZM202.613 17.705L200.005 17.292L199.345 21.4643L201.952 21.8773L202.613 17.705ZM200.61 16.8531L200.197 19.4607L204.369 20.1216L204.782 17.5139L200.61 16.8531ZM208.241 15.9234L203.026 15.0974L202.365 19.2696L207.581 20.0956L208.241 15.9234ZM206.238 15.0714L205.825 17.6791L209.997 18.3399L210.41 15.7323L206.238 15.0714ZM226.908 16.2068L208.654 13.3157L207.994 17.488L226.247 20.3791L226.908 16.2068ZM228.251 21.231L228.664 18.6234L224.492 17.9625L224.079 20.5702L228.251 21.231ZM231.71 19.6405L226.495 18.8145L225.834 22.9867L231.05 23.8128L231.71 19.6405ZM233.053 24.6647L233.466 22.057L229.294 21.3962L228.881 24.0039L233.053 24.6647ZM233.905 22.6612L231.297 22.2482L230.637 26.4204L233.244 26.8334L233.905 22.6612ZM234.835 30.293L235.661 25.0777L231.489 24.4169L230.662 29.6322L234.835 30.293ZM235.687 28.2895L233.079 27.8765L232.418 32.0487L235.026 32.4618L235.687 28.2895ZM236.616 35.9214L237.442 30.706L233.27 30.0452L232.444 35.2605L236.616 35.9214ZM237.468 33.9178L234.861 33.5048L234.2 37.6771L236.808 38.0901L237.468 33.9178ZM236.746 51.9803L239.224 36.3344L235.052 35.6735L232.574 51.3195L236.746 51.9803ZM231.722 53.323L234.329 53.736L234.99 49.5638L232.383 49.1508L231.722 53.323ZM233.725 54.175L234.138 51.5673L229.966 50.9065L229.553 53.5141L233.725 54.175ZM228.701 55.5177L231.309 55.9307L231.97 51.7584L229.362 51.3454L228.701 55.5177ZM230.705 56.3696L231.118 53.7619L226.945 53.1011L226.532 55.7088L230.705 56.3696ZM225.68 57.7123L228.288 58.1253L228.949 53.9531L226.341 53.5401L225.68 57.7123ZM220.465 56.8863L225.68 57.7123L226.341 53.5401L221.126 52.714L220.465 56.8863ZM221.643 62.9535L222.882 55.1306L218.709 54.4698L217.47 62.2927L221.643 62.9535ZM208.795 63.0572L219.226 64.7093L219.887 60.537L209.456 58.885L208.795 63.0572ZM207.453 58.033L207.04 60.6407L211.212 61.3015L211.625 58.6938L207.453 58.033Z" fill="white" mask="url(#path-4-outside-1_3628_15801)"/>
<path d="M232.625 57.743L221.673 56.0084L219.939 66.9606L230.891 68.6952L232.625 57.743Z" fill="white"/>
<path d="M188.264 57.6669L183.049 56.8409L182.223 62.0562L187.438 62.8823L188.264 57.6669Z" fill="white"/>
<path d="M191.285 55.4723L186.07 54.6463L185.244 59.8616L190.459 60.6876L191.285 55.4723Z" fill="white"/>
<path d="M194.306 53.2777L189.09 52.4516L188.264 57.6669L193.48 58.493L194.306 53.2777Z" fill="white"/>
<path d="M191.285 55.4723L186.07 54.6463L185.244 59.8616L190.459 60.6876L191.285 55.4723Z" fill="white"/>
<mask id="path-11-outside-2_3628_15801" maskUnits="userSpaceOnUse" x="175.833" y="34.742" width="36.6119" height="36.6119" fill="black">
<rect fill="white" x="175.833" y="34.742" width="36.6119" height="36.6119"/>
<path fill-rule="evenodd" clip-rule="evenodd" d="M189.091 52.4517L191.156 39.4134L193.763 39.8264L191.698 52.8647L189.091 52.4517ZM186.07 54.6463L186.483 52.0387L189.091 52.4517L188.678 55.0593L186.07 54.6463ZM183.049 56.841L185.657 57.254L186.07 54.6463L183.462 54.2333L183.049 56.841ZM182.223 62.0563L183.049 56.841L180.442 56.428L179.616 61.6433L182.223 62.0563ZM187.439 62.8823L182.223 62.0563L181.81 64.6639L187.026 65.49L187.439 62.8823ZM190.459 60.6877L187.852 60.2747L187.439 62.8823L190.046 63.2953L190.459 60.6877ZM193.48 58.493L193.067 61.1007L190.459 60.6877L190.872 58.08L193.48 58.493ZM193.48 58.493L193.893 55.8854L206.931 57.9504L206.518 60.5581L193.48 58.493Z"/>
</mask>
<path fill-rule="evenodd" clip-rule="evenodd" d="M189.091 52.4517L191.156 39.4134L193.763 39.8264L191.698 52.8647L189.091 52.4517ZM186.07 54.6463L186.483 52.0387L189.091 52.4517L188.678 55.0593L186.07 54.6463ZM183.049 56.841L185.657 57.254L186.07 54.6463L183.462 54.2333L183.049 56.841ZM182.223 62.0563L183.049 56.841L180.442 56.428L179.616 61.6433L182.223 62.0563ZM187.439 62.8823L182.223 62.0563L181.81 64.6639L187.026 65.49L187.439 62.8823ZM190.459 60.6877L187.852 60.2747L187.439 62.8823L190.046 63.2953L190.459 60.6877ZM193.48 58.493L193.067 61.1007L190.459 60.6877L190.872 58.08L193.48 58.493ZM193.48 58.493L193.893 55.8854L206.931 57.9504L206.518 60.5581L193.48 58.493Z" fill="#FFBA93"/>
<path d="M191.156 39.4134L191.486 37.3273L189.4 36.9968L189.07 39.083L191.156 39.4134ZM193.763 39.8264L195.849 40.1568L196.18 38.0707L194.094 37.7403L193.763 39.8264ZM191.698 52.8647L191.368 54.9508L193.454 55.2812L193.784 53.1951L191.698 52.8647ZM186.483 52.0387L186.813 49.9525L184.727 49.6221L184.397 51.7083L186.483 52.0387ZM188.678 55.0593L188.347 57.1455L190.433 57.4759L190.764 55.3897L188.678 55.0593ZM185.657 57.254L185.327 59.3401L187.413 59.6705L187.743 57.5844L185.657 57.254ZM183.462 54.2333L183.793 52.1472L181.707 51.8168L181.376 53.9029L183.462 54.2333ZM180.442 56.428L180.772 54.3418L178.686 54.0114L178.355 56.0975L180.442 56.428ZM179.616 61.6433L177.529 61.3129L177.199 63.399L179.285 63.7294L179.616 61.6433ZM181.81 64.6639L179.724 64.3335L179.394 66.4197L181.48 66.7501L181.81 64.6639ZM187.026 65.49L186.695 67.5761L188.781 67.9065L189.112 65.8204L187.026 65.49ZM187.852 60.2747L188.182 58.1885L186.096 57.8581L185.765 59.9442L187.852 60.2747ZM190.046 63.2953L189.716 65.3815L191.802 65.7119L192.132 63.6257L190.046 63.2953ZM193.067 61.1007L192.736 63.1868L194.823 63.5172L195.153 61.4311L193.067 61.1007ZM190.872 58.08L191.203 55.9939L189.117 55.6635L188.786 57.7496L190.872 58.08ZM193.893 55.8854L194.223 53.7992L192.137 53.4688L191.807 55.555L193.893 55.8854ZM206.931 57.9504L209.017 58.2808L209.348 56.1947L207.262 55.8643L206.931 57.9504ZM206.518 60.5581L206.188 62.6442L208.274 62.9746L208.604 60.8885L206.518 60.5581ZM189.07 39.083L187.004 52.1213L191.177 52.7821L193.242 39.7438L189.07 39.083ZM194.094 37.7403L191.486 37.3273L190.825 41.4995L193.433 41.9125L194.094 37.7403ZM193.784 53.1951L195.849 40.1568L191.677 39.496L189.612 52.5343L193.784 53.1951ZM188.76 54.5378L191.368 54.9508L192.029 50.7786L189.421 50.3656L188.76 54.5378ZM188.156 54.9767L188.569 52.3691L184.397 51.7083L183.984 54.3159L188.156 54.9767ZM186.153 54.1248L188.76 54.5378L189.421 50.3656L186.813 49.9525L186.153 54.1248ZM187.004 52.1213L186.591 54.7289L190.764 55.3897L191.177 52.7821L187.004 52.1213ZM189.008 52.9732L186.4 52.5602L185.74 56.7324L188.347 57.1455L189.008 52.9732ZM185.987 55.1679L183.38 54.7548L182.719 58.9271L185.327 59.3401L185.987 55.1679ZM183.984 54.3159L183.571 56.9236L187.743 57.5844L188.156 54.9767L183.984 54.3159ZM183.132 56.3194L185.74 56.7324L186.4 52.5602L183.793 52.1472L183.132 56.3194ZM185.135 57.1714L185.548 54.5637L181.376 53.9029L180.963 56.5106L185.135 57.1714ZM180.963 56.5106L180.137 61.7259L184.309 62.3867L185.135 57.1714L180.963 56.5106ZM180.111 58.5141L182.719 58.9271L183.38 54.7548L180.772 54.3418L180.111 58.5141ZM181.702 61.9737L182.528 56.7584L178.355 56.0975L177.529 61.3129L181.702 61.9737ZM182.554 59.9702L179.946 59.5571L179.285 63.7294L181.893 64.1424L182.554 59.9702ZM181.893 64.1424L187.108 64.9684L187.769 60.7962L182.554 59.9702L181.893 64.1424ZM183.896 64.9944L184.309 62.3867L180.137 61.7259L179.724 64.3335L183.896 64.9944ZM187.356 63.4038L182.141 62.5778L181.48 66.7501L186.695 67.5761L187.356 63.4038ZM185.352 62.5519L184.939 65.1596L189.112 65.8204L189.525 63.2127L185.352 62.5519ZM187.521 62.3608L190.129 62.7738L190.79 58.6015L188.182 58.1885L187.521 62.3608ZM189.525 63.2127L189.938 60.6051L185.765 59.9442L185.352 62.5519L189.525 63.2127ZM190.377 61.2092L187.769 60.7962L187.108 64.9684L189.716 65.3815L190.377 61.2092ZM188.373 60.3573L187.96 62.9649L192.132 63.6257L192.545 61.0181L188.373 60.3573ZM195.153 61.4311L195.566 58.8234L191.394 58.1626L190.981 60.7703L195.153 61.4311ZM190.129 62.7738L192.736 63.1868L193.397 59.0146L190.79 58.6015L190.129 62.7738ZM188.786 57.7496L188.373 60.3573L192.545 61.0181L192.958 58.4104L188.786 57.7496ZM193.81 56.4069L191.203 55.9939L190.542 60.1661L193.149 60.5791L193.81 56.4069ZM191.807 55.555L191.394 58.1626L195.566 58.8234L195.979 56.2158L191.807 55.555ZM207.262 55.8643L194.223 53.7992L193.563 57.9715L206.601 60.0366L207.262 55.8643ZM208.604 60.8885L209.017 58.2808L204.845 57.62L204.432 60.2277L208.604 60.8885ZM193.149 60.5791L206.188 62.6442L206.849 58.472L193.81 56.4069L193.149 60.5791Z" fill="white" mask="url(#path-11-outside-2_3628_15801)"/>
<path d="M201.174 43.6731L198.566 43.2601L198.153 45.8678L200.761 46.2808L201.174 43.6731Z" fill="#FFBA93"/>
<path d="M205.563 49.7145L202.955 49.3015L202.542 51.9091L205.15 52.3222L205.563 49.7145Z" fill="#FFBA93"/>
<path d="M224.03 54.7707L222.292 52.3784L215.628 57.2202L217.366 59.6125L224.03 54.7707Z" fill="#FFBA93"/>
<path d="M218.749 55.0646L216.142 54.6516L215.729 57.2593L218.336 57.6723L218.749 55.0646Z" fill="#FFBA93"/>
<mask id="path-17-outside-3_3628_15801" maskUnits="userSpaceOnUse" x="213.829" y="49.9239" width="24.0266" height="24.0266" fill="black">
<rect fill="white" x="213.829" y="49.9239" width="24.0266" height="24.0266"/>
<path fill-rule="evenodd" clip-rule="evenodd" d="M231.009 57.835L223.186 56.596L222.992 57.8216L220.384 57.4086L220.797 54.801L222.022 54.9949L222.216 53.7692L232.647 55.4213L232.453 56.6469L233.836 56.866L233.423 59.4737L230.815 59.0607L231.009 57.835ZM230.169 71.0672L219.738 69.4152L219.957 68.0328L218.731 67.8387L219.144 65.2314L217.762 65.0125L219.001 57.1895L221.609 57.6026L220.37 65.4252L221.752 65.6441L221.533 67.0264L229.357 68.2657L229.576 66.8837L230.8 67.0776L232.039 59.2546L234.647 59.6676L233.408 67.4906L232.184 67.2967L231.771 69.9043L230.387 69.6852L230.169 71.0672Z"/>
</mask>
<path fill-rule="evenodd" clip-rule="evenodd" d="M231.009 57.835L223.186 56.596L222.992 57.8216L220.384 57.4086L220.797 54.801L222.022 54.9949L222.216 53.7692L232.647 55.4213L232.453 56.6469L233.836 56.866L233.423 59.4737L230.815 59.0607L231.009 57.835ZM230.169 71.0672L219.738 69.4152L219.957 68.0328L218.731 67.8387L219.144 65.2314L217.762 65.0125L219.001 57.1895L221.609 57.6026L220.37 65.4252L221.752 65.6441L221.533 67.0264L229.357 68.2657L229.576 66.8837L230.8 67.0776L232.039 59.2546L234.647 59.6676L233.408 67.4906L232.184 67.2967L231.771 69.9043L230.387 69.6852L230.169 71.0672Z" fill="#FFBA93"/>
<path d="M223.186 56.596L223.517 54.5099L221.431 54.1795L221.1 56.2656L223.186 56.596ZM231.009 57.835L233.095 58.1654L233.426 56.0793L231.34 55.7489L231.009 57.835ZM222.992 57.8216L222.662 59.9078L224.748 60.2382L225.078 58.1521L222.992 57.8216ZM220.384 57.4086L218.298 57.0782L217.968 59.1643L220.054 59.4948L220.384 57.4086ZM220.797 54.801L221.128 52.7148L219.042 52.3844L218.711 54.4706L220.797 54.801ZM222.022 54.9949L221.691 57.081L223.778 57.4114L224.108 55.3253L222.022 54.9949ZM222.216 53.7692L222.546 51.6831L220.46 51.3527L220.13 53.4388L222.216 53.7692ZM232.647 55.4213L234.733 55.7517L235.063 53.6656L232.977 53.3352L232.647 55.4213ZM232.453 56.6469L230.366 56.3165L230.036 58.4027L232.122 58.7331L232.453 56.6469ZM233.836 56.866L235.922 57.1964L236.252 55.1103L234.166 54.7799L233.836 56.866ZM233.423 59.4737L233.092 61.5598L235.178 61.8902L235.509 59.8041L233.423 59.4737ZM230.815 59.0607L228.729 58.7303L228.399 60.8164L230.485 61.1468L230.815 59.0607ZM219.738 69.4152L217.652 69.0848L217.321 71.1709L219.408 71.5013L219.738 69.4152ZM230.169 71.0672L229.838 73.1534L231.924 73.4838L232.255 71.3977L230.169 71.0672ZM219.957 68.0328L222.043 68.3632L222.373 66.2771L220.287 65.9467L219.957 68.0328ZM218.731 67.8387L216.645 67.5083L216.315 69.5944L218.401 69.9249L218.731 67.8387ZM219.144 65.2314L221.23 65.5618L221.561 63.4757L219.475 63.1453L219.144 65.2314ZM217.762 65.0125L215.676 64.6821L215.346 66.7682L217.432 67.0986L217.762 65.0125ZM219.001 57.1895L219.332 55.1034L217.245 54.773L216.915 56.8591L219.001 57.1895ZM221.609 57.6026L223.695 57.933L224.025 55.8468L221.939 55.5164L221.609 57.6026ZM220.37 65.4252L218.284 65.0948L217.953 67.1809L220.039 67.5113L220.37 65.4252ZM221.752 65.6441L223.838 65.9745L224.169 63.8884L222.082 63.558L221.752 65.6441ZM221.533 67.0264L219.447 66.696L219.117 68.7822L221.203 69.1126L221.533 67.0264ZM229.357 68.2657L229.027 70.3518L231.113 70.6822L231.443 68.5961L229.357 68.2657ZM229.576 66.8837L229.906 64.7975L227.82 64.4671L227.49 66.5532L229.576 66.8837ZM230.8 67.0776L230.47 69.1637L232.556 69.4941L232.887 67.408L230.8 67.0776ZM232.039 59.2546L232.37 57.1685L230.284 56.8381L229.953 58.9242L232.039 59.2546ZM234.647 59.6676L236.733 59.998L237.064 57.9119L234.978 57.5815L234.647 59.6676ZM233.408 67.4906L233.078 69.5767L235.164 69.9071L235.494 67.821L233.408 67.4906ZM232.184 67.2967L232.514 65.2105L230.428 64.8801L230.098 66.9663L232.184 67.2967ZM231.771 69.9043L231.44 71.9905L233.526 72.3209L233.857 70.2347L231.771 69.9043ZM230.387 69.6852L230.718 67.5991L228.632 67.2687L228.301 69.3548L230.387 69.6852ZM222.856 58.6821L230.679 59.9212L231.34 55.7489L223.517 54.5099L222.856 58.6821ZM225.078 58.1521L225.272 56.9264L221.1 56.2656L220.906 57.4912L225.078 58.1521ZM220.054 59.4948L222.662 59.9078L223.323 55.7355L220.715 55.3225L220.054 59.4948ZM218.711 54.4706L218.298 57.0782L222.471 57.739L222.884 55.1314L218.711 54.4706ZM222.352 52.9088L221.128 52.7148L220.467 56.8871L221.691 57.081L222.352 52.9088ZM220.13 53.4388L219.936 54.6645L224.108 55.3253L224.302 54.0997L220.13 53.4388ZM232.977 53.3352L222.546 51.6831L221.886 55.8554L232.316 57.5074L232.977 53.3352ZM234.539 56.9774L234.733 55.7517L230.561 55.0909L230.366 56.3165L234.539 56.9774ZM234.166 54.7799L232.783 54.5608L232.122 58.7331L233.505 58.9522L234.166 54.7799ZM235.509 59.8041L235.922 57.1964L231.75 56.5356L231.337 59.1433L235.509 59.8041ZM230.485 61.1468L233.092 61.5598L233.753 57.3876L231.146 56.9746L230.485 61.1468ZM228.923 57.5046L228.729 58.7303L232.901 59.3911L233.095 58.1654L228.923 57.5046ZM219.408 71.5013L229.838 73.1534L230.499 68.9811L220.068 67.3291L219.408 71.5013ZM217.871 67.7024L217.652 69.0848L221.824 69.7456L222.043 68.3632L217.871 67.7024ZM218.401 69.9249L219.626 70.119L220.287 65.9467L219.062 65.7526L218.401 69.9249ZM217.058 64.901L216.645 67.5083L220.817 68.1691L221.23 65.5618L217.058 64.901ZM217.432 67.0986L218.814 67.3176L219.475 63.1453L218.093 62.9264L217.432 67.0986ZM216.915 56.8591L215.676 64.6821L219.848 65.3429L221.087 57.52L216.915 56.8591ZM221.939 55.5164L219.332 55.1034L218.671 59.2757L221.278 59.6887L221.939 55.5164ZM222.456 65.7556L223.695 57.933L219.523 57.2721L218.284 65.0948L222.456 65.7556ZM222.082 63.558L220.7 63.339L220.039 67.5113L221.422 67.7302L222.082 63.558ZM223.619 67.3569L223.838 65.9745L219.666 65.3137L219.447 66.696L223.619 67.3569ZM229.688 66.1795L221.863 64.9403L221.203 69.1126L229.027 70.3518L229.688 66.1795ZM227.49 66.5532L227.271 67.9353L231.443 68.5961L231.662 67.2141L227.49 66.5532ZM231.131 64.9915L229.906 64.7975L229.246 68.9698L230.47 69.1637L231.131 64.9915ZM229.953 58.9242L228.714 66.7472L232.887 67.408L234.126 59.585L229.953 58.9242ZM234.978 57.5815L232.37 57.1685L231.709 61.3407L234.317 61.7537L234.978 57.5815ZM235.494 67.821L236.733 59.998L232.561 59.3372L231.322 67.1602L235.494 67.821ZM231.853 69.3828L233.078 69.5767L233.739 65.4045L232.514 65.2105L231.853 69.3828ZM233.857 70.2347L234.27 67.6271L230.098 66.9663L229.685 69.5739L233.857 70.2347ZM230.057 71.7714L231.44 71.9905L232.101 67.8182L230.718 67.5991L230.057 71.7714ZM232.255 71.3977L232.474 70.0156L228.301 69.3548L228.082 70.7368L232.255 71.3977Z" fill="white" mask="url(#path-17-outside-3_3628_15801)"/>
<path d="M229.988 64.2753L227.38 63.8622L226.967 66.4699L229.575 66.8829L229.988 64.2753Z" fill="#FFBA93"/>
<path d="M196.784 37.6317L194.176 37.2187L193.763 39.8263L196.371 40.2394L196.784 37.6317Z" fill="#FFBA93"/>
<path d="M209.952 55.7557L207.344 55.3427L206.931 57.9504L209.539 58.3634L209.952 55.7557Z" fill="#FFBA93"/>
<path d="M232.052 51.2369L229.444 50.8239L229.031 53.4315L231.639 53.8445L232.052 51.2369Z" fill="#FFBA93"/>
<path d="M221.801 56.3761L232.231 58.0281L232.644 55.4204L222.214 53.7684L221.801 56.3761Z" fill="#FFBA93"/>
<path d="M217.76 65.0117L220.368 65.4247L221.607 57.6017L218.999 57.1887L217.76 65.0117Z" fill="#FFBA93"/>
<path d="M220.795 54.8001L210.365 53.1481L209.126 60.971L219.556 62.6231L220.795 54.8001Z" fill="#FFBA93"/>
<path d="M220.795 54.8001L226.011 55.6261L231.38 21.7266L226.164 20.9005L220.795 54.8001Z" fill="#FFBA93"/>
<path d="M230.967 24.3342L226.011 55.6261L228.618 56.0391L233.574 24.7472L230.967 24.3342Z" fill="#FFBA93"/>
<path d="M223.403 55.2131L220.795 54.8001L220.382 57.4078L222.99 57.8208L223.403 55.2131Z" fill="#FFBA93"/>
<path d="M221.978 50.7105L218.327 50.1323L217.501 55.3476L221.152 55.9258L221.978 50.7105Z" fill="#FFBA93"/>
<path fill-rule="evenodd" clip-rule="evenodd" d="M211.072 161.243L209.244 156.737L211.497 155.823L210.584 153.569L213.288 152.473L212.374 150.219L209.67 151.316L210.584 153.569L208.33 154.483L209.244 156.737L206.991 157.651L208.819 162.157L211.072 161.243ZM211.072 161.243L211.072 161.243L213.325 160.329L214.239 162.583L211.986 163.497L211.072 161.243ZM250.293 147.96L251.207 150.213L215.153 164.836L214.239 162.583L250.293 147.96ZM251.633 144.793L252.547 147.046L250.293 147.96L249.379 145.707L251.633 144.793ZM251.633 144.793L249.805 140.286L249.805 140.286L252.058 139.372L253.886 143.879L251.633 144.793ZM247.551 141.2L249.805 140.286L248.891 138.033L246.637 138.947L245.724 136.693L222.739 146.015L223.653 148.269L246.637 138.947L246.638 138.947L247.551 141.2ZM220.048 149.731L218.403 145.675L220.205 144.944L218.012 139.536L216.209 140.267L207.253 118.184L206.802 118.366L205.888 116.113L203.635 117.027L204.549 119.28L202.295 120.194L213.445 147.685L215.248 146.954L216.893 151.01L217.344 150.828L204.549 119.28L206.802 118.366L206.802 118.366L206.802 118.366L219.597 149.914L220.048 149.731ZM207.136 150.244L211.643 148.417L199.762 119.123L202.015 118.209L201.101 115.955L206.96 113.579L207.874 115.833L214.634 113.091L215.548 115.344L216.449 114.979L215.535 112.725L223.647 109.435L224.561 111.689L229.068 109.861L229.982 112.114L232.235 111.2L233.149 113.454L235.403 112.54L238.693 120.652L236.439 121.566L237.353 123.819L235.1 124.733L235.831 126.536L229.972 128.912L229.241 127.109L228.34 127.475L229.254 129.728L227 130.642L227.914 132.895L225.661 133.809L226.575 136.063L219.815 138.804L222.008 144.212L246.795 134.159L247.709 136.413L249.962 135.499L250.876 137.752L253.13 136.838L256.42 144.95L254.166 145.864L255.08 148.118L252.827 149.032L253.741 151.285L214.082 167.37L213.168 165.117L210.914 166.031L210 163.777L207.747 164.691L204.457 156.579L206.71 155.665L205.796 153.412L208.05 152.498L207.136 150.244ZM213.562 115.625L210.858 116.721L219.084 137.002L224.041 134.991L223.127 132.738L225.38 131.824L224.466 129.57L226.72 128.657L225.806 126.403L230.313 124.575L231.044 126.378L233.297 125.464L232.566 123.661L234.819 122.747L233.905 120.494L236.159 119.58L234.331 115.073L232.078 115.987L231.164 113.734L228.91 114.648L227.996 112.395L223.49 114.222L222.576 111.969L218.069 113.797L218.983 116.05L214.476 117.878L213.562 115.625Z" fill="#FFF4ED"/>
<path fill-rule="evenodd" clip-rule="evenodd" d="M206.802 118.366L204.549 119.28L203.635 117.027L205.888 116.113L206.802 118.366ZM220.936 146.746L209.056 117.453L206.802 118.366L220.511 152.167L222.764 151.253L221.85 149L246.638 138.947L247.551 141.2L249.805 140.286L251.633 144.793L249.379 145.707L250.293 147.96L214.239 162.583L213.325 160.329L211.072 161.243L209.244 156.737L211.498 155.823L210.584 153.569L215.09 151.741L216.004 153.995L213.751 154.909L214.665 157.162L215.579 159.415L226.846 154.846L225.932 152.593L225.932 152.593L225.018 150.339L220.511 152.167L221.425 154.42L219.172 155.334L218.258 153.081L204.549 119.28L202.295 120.194L214.176 149.488L209.67 151.316L210.584 153.569L208.33 154.483L209.244 156.737L206.991 157.651L208.819 162.157L211.072 161.243L211.986 163.497L214.239 162.583L215.153 164.836L251.207 150.213L250.293 147.96L252.547 147.046L251.633 144.793L253.886 143.879L252.058 139.372L249.805 140.286L248.891 138.033L246.638 138.947L245.724 136.693L225.443 144.918L220.936 146.746ZM211.309 116.539L213.562 115.625L214.476 117.878L218.983 116.05L218.069 113.797L222.576 111.969L223.49 114.222L227.996 112.395L228.91 114.648L231.164 113.734L232.078 115.987L234.331 115.073L236.159 119.58L233.905 120.494L234.819 122.747L232.566 123.661L233.297 125.464L231.044 126.378L230.313 124.575L228.059 125.489L225.806 126.403L226.72 128.656L224.466 129.57L225.38 131.824L223.127 132.738L224.041 134.991L219.534 136.819L217.281 137.733L216.367 135.479L209.056 117.453L211.309 116.539Z" fill="#FFA667"/>
<rect x="169" y="7" width="103" height="163" fill="url(#paint0_linear_3628_15801)"/>
<mask id="path-33-outside-4_3628_15801" maskUnits="userSpaceOnUse" x="236.343" y="36.1732" width="97.9796" height="97.9796" fill="black">
<rect fill="white" x="236.343" y="36.1732" width="97.9796" height="97.9796"/>
<path fill-rule="evenodd" clip-rule="evenodd" d="M261.439 53.2601L290.001 45.6068L290.958 49.1771L298.098 47.2638L311.491 97.2478L311.491 97.2478L300.012 54.4044L307.152 52.4911L309.065 59.6316L316.206 57.7183L325.773 93.4211L318.632 95.3345L320.545 102.475L313.405 104.388L315.318 111.529L308.177 113.442L306.264 106.302L306.264 106.302L307.221 109.872L309.134 117.012L280.572 124.666L278.659 117.525L279.615 121.095L272.475 123.009L270.561 115.868L263.421 117.781L261.507 110.641L268.648 108.728L255.255 58.7436L262.395 56.8303L261.439 53.2601ZM268.648 108.728L261.507 110.641L254.367 112.554L244.8 76.8514L251.941 74.9381L250.028 67.7975L257.168 65.8842L268.648 108.728Z"/>
</mask>
<path fill-rule="evenodd" clip-rule="evenodd" d="M261.439 53.2601L290.001 45.6068L290.958 49.1771L298.098 47.2638L311.491 97.2478L311.491 97.2478L300.012 54.4044L307.152 52.4911L309.065 59.6316L316.206 57.7183L325.773 93.4211L318.632 95.3345L320.545 102.475L313.405 104.388L315.318 111.529L308.177 113.442L306.264 106.302L306.264 106.302L307.221 109.872L309.134 117.012L280.572 124.666L278.659 117.525L279.615 121.095L272.475 123.009L270.561 115.868L263.421 117.781L261.507 110.641L268.648 108.728L255.255 58.7436L262.395 56.8303L261.439 53.2601ZM268.648 108.728L261.507 110.641L254.367 112.554L244.8 76.8514L251.941 74.9381L250.028 67.7975L257.168 65.8842L268.648 108.728Z" fill="url(#paint1_linear_3628_15801)"/>
<path d="M290.001 45.6068L292.857 44.8415L292.092 41.9853L289.236 42.7506L290.001 45.6068ZM261.439 53.2601L260.673 50.4038L257.817 51.1692L258.583 54.0254L261.439 53.2601ZM290.958 49.1771L288.101 49.9424L288.867 52.7987L291.723 52.0333L290.958 49.1771ZM298.098 47.2638L300.954 46.4985L300.189 43.6422L297.333 44.4076L298.098 47.2638ZM311.491 97.2478L308.635 98.0131L309.334 100.621L311.995 100.162L311.491 97.2478ZM311.491 97.2478L311.995 100.162L315.186 99.6101L314.348 96.4824L311.491 97.2478ZM300.012 54.4044L299.246 51.5481L296.39 52.3135L297.155 55.1697L300.012 54.4044ZM307.152 52.4911L310.008 51.7258L309.243 48.8695L306.387 49.6348L307.152 52.4911ZM309.065 59.6316L306.209 60.3969L306.974 63.2532L309.831 62.4878L309.065 59.6316ZM316.206 57.7183L319.062 56.953L318.297 54.0968L315.441 54.8621L316.206 57.7183ZM325.773 93.4211L326.538 96.2773L329.394 95.512L328.629 92.6558L325.773 93.4211ZM318.632 95.3345L317.867 92.4782L315.01 93.2436L315.776 96.0998L318.632 95.3345ZM320.545 102.475L321.311 105.331L324.167 104.566L323.401 101.71L320.545 102.475ZM313.405 104.388L312.639 101.532L309.783 102.297L310.549 105.154L313.405 104.388ZM315.318 111.529L316.083 114.385L318.94 113.62L318.174 110.764L315.318 111.529ZM308.177 113.442L305.321 114.208L306.087 117.064L308.943 116.298L308.177 113.442ZM306.264 106.302L309.12 105.536L308.355 102.68L305.499 103.445L306.264 106.302ZM306.264 106.302L305.499 103.445L302.643 104.211L303.408 107.067L306.264 106.302ZM307.221 109.872L310.077 109.107L310.077 109.107L307.221 109.872ZM309.134 117.012L309.899 119.869L312.756 119.103L311.99 116.247L309.134 117.012ZM280.572 124.666L277.716 125.431L278.481 128.287L281.337 127.522L280.572 124.666ZM279.615 121.095L280.381 123.952L283.237 123.186L282.471 120.33L279.615 121.095ZM272.475 123.009L269.618 123.774L270.384 126.63L273.24 125.865L272.475 123.009ZM270.561 115.868L273.418 115.103L272.652 112.247L269.796 113.012L270.561 115.868ZM263.421 117.781L260.565 118.547L261.33 121.403L264.186 120.638L263.421 117.781ZM261.507 110.641L260.742 107.785L257.886 108.55L258.651 111.406L261.507 110.641ZM268.648 108.728L269.413 111.584L272.27 110.819L271.504 107.962L268.648 108.728ZM255.255 58.7436L254.49 55.8874L251.633 56.6527L252.399 59.509L255.255 58.7436ZM262.395 56.8303L263.161 59.6866L266.017 58.9212L265.252 56.065L262.395 56.8303ZM261.507 110.641L260.742 107.785L260.742 107.785L261.507 110.641ZM268.648 108.728L269.413 111.584L272.27 110.818L271.504 107.962L268.648 108.728ZM254.367 112.554L251.511 113.32L252.276 116.176L255.132 115.41L254.367 112.554ZM244.8 76.8514L244.035 73.9952L241.179 74.7605L241.944 77.6167L244.8 76.8514ZM251.941 74.9381L252.706 77.7943L255.562 77.029L254.797 74.1728L251.941 74.9381ZM250.028 67.7975L249.262 64.9413L246.406 65.7066L247.171 68.5628L250.028 67.7975ZM257.168 65.8842L260.024 65.1189L259.259 62.2627L256.403 63.028L257.168 65.8842ZM289.236 42.7506L260.673 50.4038L262.204 56.1163L290.766 48.4631L289.236 42.7506ZM293.814 48.4118L292.857 44.8415L287.145 46.3721L288.101 49.9424L293.814 48.4118ZM297.333 44.4076L290.192 46.3209L291.723 52.0333L298.864 50.12L297.333 44.4076ZM314.348 96.4824L300.954 46.4985L295.242 48.0291L308.635 98.0131L314.348 96.4824ZM310.988 94.334L310.988 94.334L311.995 100.162L311.995 100.162L310.988 94.334ZM297.155 55.1697L308.635 98.0131L314.348 96.4824L302.868 53.639L297.155 55.1697ZM306.387 49.6348L299.246 51.5481L300.777 57.2606L307.917 55.3473L306.387 49.6348ZM311.922 58.8663L310.008 51.7258L304.296 53.2564L306.209 60.3969L311.922 58.8663ZM315.441 54.8621L308.3 56.7754L309.831 62.4878L316.971 60.5745L315.441 54.8621ZM328.629 92.6558L319.062 56.953L313.35 58.4836L322.916 94.1864L328.629 92.6558ZM319.397 98.1907L326.538 96.2773L325.007 90.5649L317.867 92.4782L319.397 98.1907ZM323.401 101.71L321.488 94.5691L315.776 96.0998L317.689 103.24L323.401 101.71ZM314.17 107.245L321.311 105.331L319.78 99.6188L312.639 101.532L314.17 107.245ZM318.174 110.764L316.261 103.623L310.549 105.154L312.462 112.294L318.174 110.764ZM308.943 116.298L316.083 114.385L314.553 108.673L307.412 110.586L308.943 116.298ZM303.408 107.067L305.321 114.208L311.034 112.677L309.12 105.536L303.408 107.067ZM307.029 109.158L307.03 109.158L305.499 103.445L305.499 103.445L307.029 109.158ZM310.077 109.107L309.12 105.536L303.408 107.067L304.365 110.637L310.077 109.107ZM311.99 116.247L310.077 109.107L304.365 110.637L306.278 117.778L311.99 116.247ZM281.337 127.522L309.899 119.869L308.369 114.156L279.807 121.809L281.337 127.522ZM275.802 118.29L277.716 125.431L283.428 123.9L281.515 116.76L275.802 118.29ZM282.471 120.33L281.515 116.76L275.802 118.29L276.759 121.861L282.471 120.33ZM273.24 125.865L280.381 123.952L278.85 118.239L271.709 120.153L273.24 125.865ZM267.705 116.633L269.618 123.774L275.331 122.243L273.418 115.103L267.705 116.633ZM264.186 120.638L271.327 118.724L269.796 113.012L262.655 114.925L264.186 120.638ZM258.651 111.406L260.565 118.547L266.277 117.016L264.364 109.876L258.651 111.406ZM267.883 105.871L260.742 107.785L262.273 113.497L269.413 111.584L267.883 105.871ZM252.399 59.509L265.792 109.493L271.504 107.962L258.111 57.9783L252.399 59.509ZM261.63 53.9741L254.49 55.8874L256.02 61.5999L263.161 59.6866L261.63 53.9741ZM258.583 54.0254L259.539 57.5957L265.252 56.065L264.295 52.4947L258.583 54.0254ZM262.273 113.497L269.413 111.584L267.883 105.871L260.742 107.785L262.273 113.497ZM255.132 115.41L262.273 113.497L260.742 107.785L253.602 109.698L255.132 115.41ZM241.944 77.6167L251.511 113.32L257.223 111.789L247.657 76.0861L241.944 77.6167ZM251.176 72.0819L244.035 73.9952L245.566 79.7076L252.706 77.7943L251.176 72.0819ZM247.171 68.5628L249.085 75.7034L254.797 74.1728L252.884 67.0322L247.171 68.5628ZM256.403 63.028L249.262 64.9413L250.793 70.6537L257.933 68.7404L256.403 63.028ZM271.504 107.962L260.024 65.1189L254.312 66.6495L265.792 109.493L271.504 107.962Z" fill="white" mask="url(#path-33-outside-4_3628_15801)"/>
<path fill-rule="evenodd" clip-rule="evenodd" d="M290.386 68.4635L295.741 67.0285L297.176 72.384L300.746 71.4273L305.53 89.2787L301.959 90.2354L303.394 95.5908L298.039 97.0258L298.517 98.8109L280.666 103.594L280.187 101.809L274.832 103.244L273.397 97.8886L269.827 98.8453L265.043 80.9938L268.614 80.0372L267.179 74.6818L272.534 73.2468L272.056 71.4616L289.907 66.6784L290.386 68.4635Z" fill="white"/>
<path fill-rule="evenodd" clip-rule="evenodd" d="M285.987 73.4688L278.846 75.3821L279.803 78.9524L286.943 77.0391L288.378 82.3945L281.238 84.3078L279.803 78.9524L276.233 79.909L277.668 85.2645L281.238 84.3078L282.195 87.8781L289.335 85.9648L290.77 91.3202L283.629 93.2335L282.195 87.8781L278.624 88.8347L280.059 94.1902L283.629 93.2335L284.586 96.8038L291.727 94.8905L290.77 91.3202L294.34 90.3635L292.905 85.0081L289.335 85.9648L288.378 82.3945L291.949 81.4378L290.514 76.0824L286.943 77.0391L285.987 73.4688Z" fill="black"/>
<path fill-rule="evenodd" clip-rule="evenodd" d="M308.878 101.775L312.448 100.818L311.491 97.2478L307.207 98.3958L307.972 101.252L304.402 102.209L305.359 105.779L309.643 104.631L308.878 101.775Z" fill="white"/>
<defs>
<linearGradient id="paint0_linear_3628_15801" x1="220.5" y1="7" x2="220.5" y2="170" gradientUnits="userSpaceOnUse">
<stop stop-color="#121212" stop-opacity="0"/>
<stop offset="0.549266" stop-color="#121212" stop-opacity="0.342747"/>
<stop offset="1" stop-color="#121212"/>
</linearGradient>
<linearGradient id="paint1_linear_3628_15801" x1="275.72" y1="49.4335" x2="294.853" y2="120.839" gradientUnits="userSpaceOnUse">
<stop stop-color="#FFB23E"/>
<stop offset="0.48" stop-color="#FF8B37"/>
<stop offset="0.94" stop-color="#FFAD71"/>
</linearGradient>
</defs>
</svg>