<svg width="16" height="16" viewBox="0 0 16 16" fill="none" xmlns="http://www.w3.org/2000/svg">
<path d="M7.99967 14.1665C7.90166 14.1674 7.80589 14.1371 7.72634 14.0798C7.52634 13.9531 2.83301 10.7998 2.83301 6.96647C2.83301 5.59619 3.37735 4.28202 4.34629 3.31309C5.31523 2.34415 6.62939 1.7998 7.99967 1.7998C9.36996 1.7998 10.6841 2.34415 11.6531 3.31309C12.622 4.28202 13.1663 5.59619 13.1663 6.96647C13.1663 10.7998 8.49967 13.9531 8.27301 14.0798C8.19346 14.1371 8.09769 14.1674 7.99967 14.1665ZM7.99967 2.83314C6.89929 2.82959 5.84247 3.26287 5.06126 4.03783C4.28005 4.81279 3.8383 5.86609 3.83301 6.96647C3.83301 9.77314 7.02634 12.3398 7.99967 13.0531C8.97301 12.3398 12.1663 9.77314 12.1663 6.96647C12.161 5.86609 11.7193 4.81279 10.9381 4.03783C10.1569 3.26287 9.10006 2.82959 7.99967 2.83314Z" fill="#292A2B"/>
<path d="M8.00033 8.49968C7.63773 8.49968 7.28327 8.39215 6.98178 8.1907C6.68029 7.98925 6.44531 7.70293 6.30655 7.36793C6.16779 7.03293 6.13148 6.66431 6.20222 6.30868C6.27296 5.95304 6.44757 5.62638 6.70396 5.36998C6.96036 5.11358 7.28703 4.93898 7.64266 4.86824C7.99829 4.7975 8.36691 4.8338 8.70191 4.97256C9.03691 5.11132 9.32324 5.34631 9.52469 5.6478C9.72614 5.94929 9.83366 6.30374 9.83366 6.66634C9.83366 7.15257 9.64051 7.61889 9.29669 7.9627C8.95287 8.30652 8.48656 8.49968 8.00033 8.49968ZM8.00033 5.83301C7.83551 5.83301 7.67439 5.88188 7.53735 5.97345C7.40031 6.06502 7.2935 6.19517 7.23043 6.34744C7.16735 6.49971 7.15085 6.66727 7.18301 6.82892C7.21516 6.99057 7.29453 7.13905 7.41107 7.2556C7.52761 7.37214 7.6761 7.45151 7.83775 7.48366C7.9994 7.51582 8.16696 7.49931 8.31923 7.43624C8.4715 7.37317 8.60165 7.26636 8.69322 7.12932C8.78479 6.99228 8.83366 6.83116 8.83366 6.66634C8.83366 6.44533 8.74586 6.23337 8.58958 6.07709C8.4333 5.92081 8.22134 5.83301 8.00033 5.83301Z" fill="#292A2B"/>
</svg>
