<svg width="98" height="38" viewBox="0 0 98 38" fill="none" xmlns="http://www.w3.org/2000/svg">
<path d="M70.3591 7.28125H66.5898V33.6659H70.3591V7.28125Z" fill="#FF6B00"/>
<path d="M70.3591 1H66.5898V4.14103H70.3591V1Z" fill="#FF6B00"/>
<path d="M90.4613 33.666H82.9229V36.807H90.4613V33.666Z" fill="#FF6B00"/>
<path d="M90.4613 24.2441H82.9229V27.3852H90.4613V24.2441Z" fill="#FF6B00"/>
<path d="M90.4613 7.28125H82.9229V10.4223H90.4613V7.28125Z" fill="#FF6B00"/>
<path d="M76.0127 13.5651V21.1035H79.1537V13.5651H76.0127Z" fill="#FF6B00"/>
<path d="M94.2307 10.4238H90.4614V13.5649H94.2307V10.4238Z" fill="#FF6B00"/>
<path d="M98.0002 7.28125H94.231V30.5248H98.0002V7.28125Z" fill="#FF6B00"/>
<path d="M82.923 10.4238H79.1538V13.5649H82.923V10.4238Z" fill="#FF6B00"/>
<path d="M94.2307 21.1035H90.4614V24.2445H94.2307V21.1035Z" fill="#FF6B00"/>
<path d="M94.2307 30.5254H90.4614V33.6664H94.2307V30.5254Z" fill="#FF6B00"/>
<path d="M82.923 21.1035H79.1538V24.2445H82.923V21.1035Z" fill="#FF6B00"/>
<path d="M82.923 30.5254H79.1538V33.6664H82.923V30.5254Z" fill="#FF6B00"/>
<path d="M79.154 27.3848H75.3848V30.5258H79.154V27.3848Z" fill="#FF6B00"/>
<path d="M52.7692 4.14062H49V33.6663H52.7692V4.14062Z" fill="#FF6B00"/>
<path d="M62.1921 1H52.769V4.14103H62.1921V1Z" fill="#FF6B00"/>
<path d="M49.0002 1H39.5771V4.14103H49.0002V1Z" fill="#FF6B00"/>
<path d="M22.8633 2.57031H11.0625V7.76871H22.8633V2.57031Z" fill="#FF6B00"/>
<path d="M0 12.9644L0 24.8438H5.16071L5.16071 12.9644H0Z" fill="#FF6B00"/>
<path d="M28.7593 12.9644V24.8438H33.92V12.9644H28.7593Z" fill="#FF6B00"/>
<path d="M28.7592 7.76953H22.8604V12.9679H28.7592V7.76953Z" fill="#FF6B00"/>
<path d="M11.0595 7.76953H5.16064V12.9679H11.0595V7.76953Z" fill="#FF6B00"/>
<path d="M11.0595 35.2363H22.8604V30.0379H11.0595V35.2363Z" fill="#FF6B00"/>
<path d="M5.16365 30.0391H11.0625V24.8407H5.16365L5.16365 30.0391Z" fill="#FF6B00"/>
<path d="M22.8638 30.0391H28.7627V24.8407H22.8638V30.0391Z" fill="#FF6B00"/>
<path d="M14.7471 11.4785V21.1309H19.1728V11.4785H14.7471Z" fill="#FF6B00"/>
<path d="M9.58937 21.1309H19.1758V16.6769H9.58937V21.1309Z" fill="#FF6B00"/>
</svg>
