<svg xmlns="http://www.w3.org/2000/svg" width="40" height="40" viewBox="0 0 40 40" fill="none">
<rect width="40" height="40" rx="20" fill="white"/>
<path fill-rule="evenodd" clip-rule="evenodd" d="M20.5 26.9824C23.9675 26.7377 26.7377 23.9675 26.9824 20.5H25C24.7239 20.5 24.5 20.2761 24.5 20C24.5 19.7239 24.7239 19.5 25 19.5H26.9824C26.7377 16.0325 23.9675 13.2623 20.5 13.0176V15C20.5 15.2761 20.2761 15.5 20 15.5C19.7239 15.5 19.5 15.2761 19.5 15V13.0176C16.0325 13.2623 13.2623 16.0325 13.0176 19.5H15C15.2761 19.5 15.5 19.7239 15.5 20C15.5 20.2761 15.2761 20.5 15 20.5H13.0176C13.2623 23.9675 16.0325 26.7377 19.5 26.9824V25C19.5 24.7239 19.7239 24.5 20 24.5C20.2761 24.5 20.5 24.7239 20.5 25V26.9824ZM28 20C28 24.4183 24.4183 28 20 28C15.5817 28 12 24.4183 12 20C12 15.5817 15.5817 12 20 12C24.4183 12 28 15.5817 28 20ZM20 21C20.5523 21 21 20.5523 21 20C21 19.4477 20.5523 19 20 19C19.4477 19 19 19.4477 19 20C19 20.5523 19.4477 21 20 21Z" fill="#FF6B00"/>
</svg>