<svg xmlns="http://www.w3.org/2000/svg" width="80" height="80" viewBox="0 0 80 80" fill="none">
<g filter="url(#filter0_d_1824_2021)">
<rect x="20" y="15" width="40" height="40" rx="20" fill="white" shape-rendering="crispEdges"/>
<path fill-rule="evenodd" clip-rule="evenodd" d="M40.5 41.9824C43.9675 41.7377 46.7377 38.9675 46.9824 35.5H45C44.7239 35.5 44.5 35.2761 44.5 35C44.5 34.7239 44.7239 34.5 45 34.5H46.9824C46.7377 31.0325 43.9675 28.2623 40.5 28.0176V30C40.5 30.2761 40.2761 30.5 40 30.5C39.7239 30.5 39.5 30.2761 39.5 30V28.0176C36.0325 28.2623 33.2623 31.0325 33.0176 34.5H35C35.2761 34.5 35.5 34.7239 35.5 35C35.5 35.2761 35.2761 35.5 35 35.5H33.0176C33.2623 38.9675 36.0325 41.7377 39.5 41.9824V40C39.5 39.7239 39.7239 39.5 40 39.5C40.2761 39.5 40.5 39.7239 40.5 40V41.9824ZM48 35C48 39.4183 44.4183 43 40 43C35.5817 43 32 39.4183 32 35C32 30.5817 35.5817 27 40 27C44.4183 27 48 30.5817 48 35ZM40 36C40.5523 36 41 35.5523 41 35C41 34.4477 40.5523 34 40 34C39.4477 34 39 34.4477 39 35C39 35.5523 39.4477 36 40 36Z" fill="#FF6B00"/>
</g>
<defs>
<filter id="filter0_d_1824_2021" x="0" y="0" width="80" height="80" filterUnits="userSpaceOnUse" color-interpolation-filters="sRGB">
<feFlood flood-opacity="0" result="BackgroundImageFix"/>
<feColorMatrix in="SourceAlpha" type="matrix" values="0 0 0 0 0 0 0 0 0 0 0 0 0 0 0 0 0 0 127 0" result="hardAlpha"/>
<feOffset dy="5"/>
<feGaussianBlur stdDeviation="10"/>
<feComposite in2="hardAlpha" operator="out"/>
<feColorMatrix type="matrix" values="0 0 0 0 0 0 0 0 0 0 0 0 0 0 0 0 0 0 0.1 0"/>
<feBlend mode="normal" in2="BackgroundImageFix" result="effect1_dropShadow_1824_2021"/>
<feBlend mode="normal" in="SourceGraphic" in2="effect1_dropShadow_1824_2021" result="shape"/>
</filter>
</defs>
</svg>