<svg width="24" height="24" viewBox="0 0 24 24" fill="none" xmlns="http://www.w3.org/2000/svg">
<rect x="6.44434" y="2" width="11.1111" height="2.22222" fill="#30FF6B"/>
<rect x="6.44434" y="19.7773" width="11.1111" height="2.22222" fill="#30FF6B"/>
<rect x="22" y="6.44531" width="11.1111" height="2.22222" transform="rotate(90 22 6.44531)" fill="#30FF6B"/>
<rect x="4.22266" y="6.44531" width="11.1111" height="2.22222" transform="rotate(90 4.22266 6.44531)" fill="#30FF6B"/>
<rect x="6.44434" y="4.22266" width="2.22222" height="2.22222" transform="rotate(90 6.44434 4.22266)" fill="#30FF6B"/>
<rect x="19.7773" y="4.22266" width="2.22222" height="2.22222" transform="rotate(90 19.7773 4.22266)" fill="#30FF6B"/>
<rect x="19.7773" y="17.5547" width="2.22222" height="2.22222" transform="rotate(90 19.7773 17.5547)" fill="#30FF6B"/>
<rect x="6.44434" y="17.5547" width="2.22222" height="2.22222" transform="rotate(90 6.44434 17.5547)" fill="#30FF6B"/>
<path d="M14.007 8.99936L9.66064 13.3457L11.6535 15.3385L15.9998 10.9922L14.007 8.99936Z" fill="#30FF6B"/>
<path d="M8.00001 11.6846L11.6533 15.3379L13.6589 13.3323L10.0056 9.67901L8.00001 11.6846Z" fill="#30FF6B"/>
</svg>
