<svg width="16" height="17" viewBox="0 0 16 17" fill="none" xmlns="http://www.w3.org/2000/svg">
<path d="M2.80682 14.5261C2.74266 14.5267 2.679 14.5147 2.61951 14.4907C2.56001 14.4667 2.50586 14.4311 2.46015 14.3861C2.40776 14.3343 2.36744 14.2716 2.34209 14.2025C2.31673 14.1333 2.30697 14.0594 2.31349 13.9861L2.52015 11.4261C2.52902 11.3072 2.58121 11.1957 2.66682 11.1127L10.0402 3.73941C10.451 3.35468 10.9976 3.14851 11.5602 3.16608C12.1191 3.17041 12.6554 3.38732 13.0602 3.77274C13.4484 4.17141 13.6717 4.70205 13.6853 5.25836C13.6989 5.81467 13.5018 6.35558 13.1335 6.77274L5.75349 14.1794C5.67089 14.2617 5.56273 14.3134 5.44682 14.3261L2.85349 14.5594L2.80682 14.5261ZM3.47349 11.6861L3.33349 13.5127L5.16015 13.3461L12.4268 6.06608C12.5685 5.89839 12.6591 5.69357 12.6878 5.47593C12.7165 5.25829 12.6821 5.03698 12.5887 4.83831C12.4953 4.63963 12.3469 4.47193 12.161 4.35513C11.9752 4.23833 11.7597 4.17734 11.5402 4.17941C11.3959 4.17025 11.2512 4.19033 11.1149 4.23844C10.9786 4.28656 10.8534 4.36172 10.7468 4.45941L3.47349 11.6861Z" fill="#292A2B"/>
</svg>
