<svg width="20" height="20" viewBox="0 0 20 20" fill="none" xmlns="http://www.w3.org/2000/svg">
<path d="M9.99903 10.208C9.38096 10.208 8.77677 10.0247 8.26287 9.68135C7.74896 9.33797 7.34843 8.84991 7.1119 8.27889C6.87538 7.70788 6.81349 7.07954 6.93407 6.47335C7.05465 5.86716 7.35228 5.31034 7.78932 4.8733C8.22636 4.43626 8.78318 4.13863 9.38937 4.01806C9.99556 3.89748 10.6239 3.95936 11.1949 4.19589C11.7659 4.43241 12.254 4.83295 12.5974 5.34685C12.9407 5.86076 13.124 6.46494 13.124 7.08301C13.124 7.91181 12.7948 8.70667 12.2087 9.29272C11.6227 9.87877 10.8278 10.208 9.99903 10.208ZM9.99903 5.20801C9.62819 5.20801 9.26567 5.31798 8.95733 5.524C8.64899 5.73003 8.40867 6.02287 8.26675 6.36548C8.12484 6.70809 8.08771 7.08509 8.16005 7.4488C8.2324 7.81252 8.41098 8.14661 8.6732 8.40883C8.93542 8.67106 9.26952 8.84963 9.63323 8.92198C9.99695 8.99433 10.3739 8.9572 10.7166 8.81528C11.0592 8.67337 11.352 8.43305 11.558 8.1247C11.7641 7.81636 11.874 7.45385 11.874 7.08301C11.874 6.58573 11.6765 6.10881 11.3249 5.75718C10.9732 5.40555 10.4963 5.20801 9.99903 5.20801Z" fill="#292A2B"/>
<path d="M15.8327 16.0413C15.6676 16.0392 15.5099 15.9726 15.3931 15.8559C15.2764 15.7392 15.2098 15.5814 15.2077 15.4163C15.2077 13.7913 14.3243 12.708 9.99935 12.708C5.67435 12.708 4.79102 13.7913 4.79102 15.4163C4.79102 15.5821 4.72517 15.7411 4.60796 15.8583C4.49075 15.9755 4.33178 16.0413 4.16602 16.0413C4.00026 16.0413 3.84128 15.9755 3.72407 15.8583C3.60686 15.7411 3.54102 15.5821 3.54102 15.4163C3.54102 11.458 8.06602 11.458 9.99935 11.458C11.9327 11.458 16.4577 11.458 16.4577 15.4163C16.4555 15.5814 16.389 15.7392 16.2722 15.8559C16.1555 15.9726 15.9978 16.0392 15.8327 16.0413Z" fill="#292A2B"/>
</svg>
