<svg xmlns="http://www.w3.org/2000/svg" width="26" height="27" viewBox="0 0 26 27" fill="none">
<path fill-rule="evenodd" clip-rule="evenodd" d="M18.3977 2.25751H7.56441V4.4772H5.28931V17.8443H7.56441V20.258H9.58614V22.2627H11.045V23.9242H15.052V22.2627H16.4125V20.258H18.3977V17.8443H20.6729V4.4772H18.3977V2.25751ZM22.9485 6.46428H20.6734V15.2308H22.9485V6.46428ZM3.01367 6.46428H5.28878V15.2308H3.01367V6.46428Z" fill="#FF6B00"/>
<rect x="9.81348" y="7.77002" width="6.47196" height="6.47196" fill="white"/>
<rect x="11.8545" y="6.5498" width="2.29097" height="1.2202" fill="white"/>
<rect x="11.8545" y="14.242" width="2.29097" height="1.2202" fill="white"/>
<rect x="17.4775" y="9.86053" width="2.29097" height="1.19167" transform="rotate(90 17.4775 9.86053)" fill="white"/>
<rect x="9.81348" y="9.86053" width="2.29097" height="1.19167" transform="rotate(90 9.81348 9.86053)" fill="white"/>
</svg>