<svg width="20" height="20" viewBox="0 0 20 20" fill="none" xmlns="http://www.w3.org/2000/svg">
<path d="M10 17.5C8.51664 17.5 7.0666 17.0601 5.83323 16.236C4.59986 15.4119 3.63856 14.2406 3.07091 12.8701C2.50325 11.4997 2.35472 9.99168 2.64411 8.53683C2.9335 7.08197 3.64781 5.7456 4.6967 4.6967C5.7456 3.64781 7.08197 2.9335 8.53683 2.64411C9.99168 2.35472 11.4997 2.50325 12.8701 3.07091C14.2406 3.63856 15.4119 4.59986 16.236 5.83323C17.0601 7.0666 17.5 8.51664 17.5 10C17.5 11.9891 16.7098 13.8968 15.3033 15.3033C13.8968 16.7098 11.9891 17.5 10 17.5ZM10 3.75C8.76387 3.75 7.5555 4.11656 6.52769 4.80332C5.49988 5.49008 4.6988 6.46619 4.22576 7.60823C3.75271 8.75027 3.62894 10.0069 3.8701 11.2193C4.11125 12.4317 4.70651 13.5453 5.58059 14.4194C6.45466 15.2935 7.56831 15.8888 8.78069 16.1299C9.99307 16.3711 11.2497 16.2473 12.3918 15.7743C13.5338 15.3012 14.5099 14.5001 15.1967 13.4723C15.8834 12.4445 16.25 11.2361 16.25 10C16.25 8.3424 15.5915 6.75269 14.4194 5.58059C13.2473 4.40848 11.6576 3.75 10 3.75Z" fill="#292A2B"/>
<path d="M12.5 10.6247H10C9.83491 10.6225 9.67719 10.556 9.56045 10.4392C9.4437 10.3225 9.37716 10.1648 9.375 9.99967V5.83301C9.375 5.66725 9.44085 5.50828 9.55806 5.39107C9.67527 5.27386 9.83424 5.20801 10 5.20801C10.1658 5.20801 10.3247 5.27386 10.4419 5.39107C10.5592 5.50828 10.625 5.66725 10.625 5.83301V9.37467H12.5C12.6658 9.37467 12.8247 9.44052 12.9419 9.55773C13.0592 9.67494 13.125 9.83391 13.125 9.99967C13.125 10.1654 13.0592 10.3244 12.9419 10.4416C12.8247 10.5588 12.6658 10.6247 12.5 10.6247Z" fill="#292A2B"/>
</svg>
