<svg width="16" height="15" viewBox="0 0 16 15" fill="none" xmlns="http://www.w3.org/2000/svg">
<path d="M7.52414 0.475527C7.67315 0.0134852 8.32685 0.0134859 8.47586 0.475528L9.89821 4.88583C9.96494 5.09276 10.1578 5.23284 10.3752 5.23236L15.0091 5.22224C15.4946 5.22117 15.6966 5.84289 15.3032 6.12738L11.5483 8.84298C11.3722 8.97039 11.2985 9.19704 11.3661 9.40367L12.8078 13.8077C12.9588 14.2691 12.4299 14.6533 12.0378 14.3671L8.29478 11.6352C8.11916 11.507 7.88084 11.507 7.70522 11.6352L3.96221 14.3671C3.57007 14.6533 3.04121 14.2691 3.19224 13.8077L4.63385 9.40367C4.70149 9.19704 4.62785 8.97039 4.45167 8.84298L0.696751 6.12738C0.30337 5.84289 0.505377 5.22117 0.990852 5.22224L5.62483 5.23236C5.84225 5.23284 6.03506 5.09276 6.10179 4.88583L7.52414 0.475527Z" fill="#FF6B00"/>
</svg>
