<svg xmlns="http://www.w3.org/2000/svg" width="16" height="17" viewBox="0 0 16 17" fill="none">
<path d="M7.18016 12.5727C6.1873 12.5727 5.21673 12.2783 4.3912 11.7267C3.56566 11.1751 2.92224 10.3911 2.54228 9.47379C2.16233 8.5565 2.06292 7.54715 2.25662 6.57336C2.45031 5.59958 2.92842 4.7051 3.63048 4.00304C4.33254 3.30098 5.22702 2.82287 6.2008 2.62918C7.17459 2.43548 8.18394 2.53489 9.10123 2.91484C10.0185 3.29479 10.8025 3.93822 11.3541 4.76375C11.9057 5.58929 12.2002 6.55985 12.2002 7.55272C12.2002 8.21195 12.0703 8.86473 11.818 9.47379C11.5658 10.0828 11.196 10.6362 10.7298 11.1024C10.2637 11.5685 9.71028 11.9383 9.10123 12.1906C8.49217 12.4429 7.83939 12.5727 7.18016 12.5727ZM7.18016 3.53938C6.38903 3.53938 5.61567 3.77398 4.95788 4.21351C4.30008 4.65303 3.78739 5.27775 3.48464 6.00865C3.18189 6.73955 3.10268 7.54382 3.25702 8.31974C3.41136 9.09567 3.79232 9.8084 4.35173 10.3678C4.91114 10.9272 5.62387 11.3082 6.3998 11.4625C7.17572 11.6169 7.97999 11.5377 8.71089 11.2349C9.4418 10.9322 10.0665 10.4195 10.506 9.76166C10.9456 9.10387 11.1802 8.33051 11.1802 7.53938C11.1802 6.47852 10.7587 5.4611 10.0086 4.71096C9.25844 3.96081 8.24102 3.53938 7.18016 3.53938Z" fill="#878D91"/>
<path d="M13.3336 14.2059C13.2679 14.2063 13.2028 14.1934 13.1422 14.1683C13.0815 14.1431 13.0265 14.106 12.9803 14.0593L10.227 11.3059C10.1386 11.2112 10.0906 11.0858 10.0929 10.9563C10.0951 10.8267 10.1476 10.7031 10.2392 10.6115C10.3308 10.5199 10.4544 10.4675 10.584 10.4652C10.7135 10.4629 10.8389 10.511 10.9336 10.5993L13.687 13.3526C13.7806 13.4464 13.8332 13.5734 13.8332 13.7059C13.8332 13.8384 13.7806 13.9655 13.687 14.0593C13.6408 14.106 13.5858 14.1431 13.5251 14.1683C13.4644 14.1934 13.3993 14.2063 13.3336 14.2059Z" fill="#878D91"/>
</svg>