<svg xmlns="http://www.w3.org/2000/svg" width="24" height="25" viewBox="0 0 24 25" fill="none">
<path fill-rule="evenodd" clip-rule="evenodd" d="M8.97549 8.25819C8.75233 8.03503 8.39052 8.03503 8.16737 8.25819C7.94421 8.48135 7.94421 8.84316 8.16737 9.06631L11.1919 12.0908L8.16737 15.1154C7.94421 15.3385 7.94421 15.7003 8.16737 15.9235C8.39052 16.1466 8.75233 16.1466 8.97549 15.9235L12 12.899L15.0245 15.9235C15.2477 16.1466 15.6095 16.1466 15.8326 15.9235C16.0558 15.7003 16.0558 15.3385 15.8326 15.1154L12.8081 12.0908L15.8326 9.06631C16.0558 8.84316 16.0558 8.48135 15.8326 8.25819C15.6095 8.03503 15.2477 8.03503 15.0245 8.25819L12 11.2827L8.97549 8.25819Z" fill="black"/>
</svg>