<svg width="16" height="16" viewBox="0 0 16 16" fill="none" xmlns="http://www.w3.org/2000/svg">
<path d="M11.3335 3.16634H10.5002V2.33301C10.5002 2.2004 10.4475 2.07322 10.3537 1.97945C10.2599 1.88569 10.1328 1.83301 10.0002 1.83301C9.86755 1.83301 9.74038 1.88569 9.64661 1.97945C9.55284 2.07322 9.50016 2.2004 9.50016 2.33301V3.16634H6.50016V2.33301C6.50016 2.2004 6.44748 2.07322 6.35372 1.97945C6.25995 1.88569 6.13277 1.83301 6.00016 1.83301C5.86755 1.83301 5.74038 1.88569 5.64661 1.97945C5.55284 2.07322 5.50016 2.2004 5.50016 2.33301V3.16634H4.66683C4.1806 3.16634 3.71428 3.3595 3.37047 3.70331C3.02665 4.04713 2.8335 4.51344 2.8335 4.99967V12.333C2.8335 12.8192 3.02665 13.2856 3.37047 13.6294C3.71428 13.9732 4.1806 14.1663 4.66683 14.1663H11.3335C11.8197 14.1663 12.286 13.9732 12.6299 13.6294C12.9737 13.2856 13.1668 12.8192 13.1668 12.333V4.99967C13.1668 4.51344 12.9737 4.04713 12.6299 3.70331C12.286 3.3595 11.8197 3.16634 11.3335 3.16634ZM4.66683 4.16634H5.50016V4.99967C5.50016 5.13228 5.55284 5.25946 5.64661 5.35323C5.74038 5.447 5.86755 5.49967 6.00016 5.49967C6.13277 5.49967 6.25995 5.447 6.35372 5.35323C6.44748 5.25946 6.50016 5.13228 6.50016 4.99967V4.16634H9.50016V4.99967C9.50016 5.13228 9.55284 5.25946 9.64661 5.35323C9.74038 5.447 9.86755 5.49967 10.0002 5.49967C10.1328 5.49967 10.2599 5.447 10.3537 5.35323C10.4475 5.25946 10.5002 5.13228 10.5002 4.99967V4.16634H11.3335C11.5545 4.16634 11.7665 4.25414 11.9228 4.41042C12.079 4.5667 12.1668 4.77866 12.1668 4.99967V6.83301H3.8335V4.99967C3.8335 4.77866 3.92129 4.5667 4.07757 4.41042C4.23385 4.25414 4.44582 4.16634 4.66683 4.16634ZM11.3335 13.1663H4.66683C4.44582 13.1663 4.23385 13.0785 4.07757 12.9223C3.92129 12.766 3.8335 12.554 3.8335 12.333V7.83301H12.1668V12.333C12.1668 12.554 12.079 12.766 11.9228 12.9223C11.7665 13.0785 11.5545 13.1663 11.3335 13.1663Z" fill="black"/>
<path d="M9.33366 10.1992H6.66699C6.53438 10.1992 6.40721 10.2519 6.31344 10.3457C6.21967 10.4394 6.16699 10.5666 6.16699 10.6992C6.16699 10.8318 6.21967 10.959 6.31344 11.0528C6.40721 11.1465 6.53438 11.1992 6.66699 11.1992H9.33366C9.46627 11.1992 9.59344 11.1465 9.68721 11.0528C9.78098 10.959 9.83366 10.8318 9.83366 10.6992C9.83366 10.5666 9.78098 10.4394 9.68721 10.3457C9.59344 10.2519 9.46627 10.1992 9.33366 10.1992Z" fill="black"/>
</svg>
