<svg width="16" height="16" viewBox="0 0 16 16" fill="none" xmlns="http://www.w3.org/2000/svg">
<path d="M7.99951 8.16602C7.50506 8.16602 7.02171 8.01939 6.61059 7.74469C6.19946 7.46999 5.87903 7.07954 5.68981 6.62273C5.5006 6.16591 5.45109 5.66324 5.54755 5.17829C5.64401 4.69334 5.88211 4.24788 6.23175 3.89825C6.58138 3.54862 7.02683 3.31052 7.51179 3.21405C7.99674 3.11759 8.49941 3.1671 8.95622 3.35632C9.41304 3.54554 9.80348 3.86597 10.0782 4.27709C10.3529 4.68821 10.4995 5.17156 10.4995 5.66602C10.4995 6.32906 10.2361 6.96494 9.76728 7.43378C9.29844 7.90262 8.66255 8.16602 7.99951 8.16602ZM7.99951 4.16602C7.70284 4.16602 7.41283 4.25399 7.16616 4.41881C6.91948 4.58363 6.72723 4.8179 6.61369 5.09199C6.50016 5.36608 6.47046 5.66768 6.52833 5.95865C6.58621 6.24962 6.72907 6.5169 6.93885 6.72668C7.14863 6.93646 7.41591 7.07932 7.70688 7.13719C7.99785 7.19507 8.29945 7.16537 8.57354 7.05184C8.84763 6.9383 9.0819 6.74605 9.24672 6.49937C9.41154 6.2527 9.49951 5.96269 9.49951 5.66602C9.49951 5.26819 9.34148 4.88666 9.06017 4.60536C8.77887 4.32405 8.39734 4.16602 7.99951 4.16602Z" fill="black"/>
<path d="M12.6663 12.8327C12.5343 12.831 12.4081 12.7777 12.3147 12.6843C12.2213 12.5909 12.1681 12.4648 12.1663 12.3327C12.1663 11.0327 11.4597 10.166 7.99967 10.166C4.53967 10.166 3.83301 11.0327 3.83301 12.3327C3.83301 12.4653 3.78033 12.5925 3.68656 12.6862C3.59279 12.78 3.46562 12.8327 3.33301 12.8327C3.2004 12.8327 3.07322 12.78 2.97945 12.6862C2.88569 12.5925 2.83301 12.4653 2.83301 12.3327C2.83301 9.16602 6.45301 9.16602 7.99967 9.16602C9.54634 9.16602 13.1663 9.16602 13.1663 12.3327C13.1646 12.4648 13.1114 12.5909 13.018 12.6843C12.9246 12.7777 12.7984 12.831 12.6663 12.8327Z" fill="black"/>
</svg>
