<svg width="16" height="16" viewBox="0 0 16 16" fill="none" xmlns="http://www.w3.org/2000/svg">
<path d="M8 14C6.81331 14 5.65328 13.6481 4.66658 12.9888C3.67989 12.3295 2.91085 11.3925 2.45673 10.2961C2.0026 9.19975 1.88378 7.99335 2.11529 6.82946C2.3468 5.66558 2.91825 4.59648 3.75736 3.75736C4.59648 2.91825 5.66558 2.3468 6.82946 2.11529C7.99335 1.88378 9.19975 2.0026 10.2961 2.45673C11.3925 2.91085 12.3295 3.67989 12.9888 4.66658C13.6481 5.65328 14 6.81331 14 8C14 9.5913 13.3679 11.1174 12.2426 12.2426C11.1174 13.3679 9.5913 14 8 14ZM8 3C7.0111 3 6.0444 3.29325 5.22215 3.84265C4.39991 4.39206 3.75904 5.17296 3.3806 6.08659C3.00217 7.00022 2.90315 8.00555 3.09608 8.97545C3.289 9.94536 3.76521 10.8363 4.46447 11.5355C5.16373 12.2348 6.05465 12.711 7.02455 12.9039C7.99446 13.0969 8.99979 12.9978 9.91342 12.6194C10.8271 12.241 11.6079 11.6001 12.1574 10.7779C12.7068 9.95561 13 8.98891 13 8C13 6.67392 12.4732 5.40215 11.5355 4.46447C10.5979 3.52679 9.32609 3 8 3Z" fill="#292A2B"/>
<path d="M10 8.50033H8C7.86793 8.4986 7.74175 8.44537 7.64836 8.35197C7.55496 8.25857 7.50173 8.1324 7.5 8.00033V4.66699C7.5 4.53438 7.55268 4.40721 7.64645 4.31344C7.74022 4.21967 7.86739 4.16699 8 4.16699C8.13261 4.16699 8.25979 4.21967 8.35355 4.31344C8.44732 4.40721 8.5 4.53438 8.5 4.66699V7.50033H10C10.1326 7.50033 10.2598 7.553 10.3536 7.64677C10.4473 7.74054 10.5 7.86772 10.5 8.00033C10.5 8.13293 10.4473 8.26011 10.3536 8.35388C10.2598 8.44765 10.1326 8.50033 10 8.50033Z" fill="#292A2B"/>
</svg>
