<svg width="16" height="16" viewBox="0 0 16 16" fill="none" xmlns="http://www.w3.org/2000/svg">
<path d="M8 2C6.81331 2 5.65328 2.35189 4.66658 3.01118C3.67989 3.67047 2.91085 4.60754 2.45673 5.7039C2.0026 6.80026 1.88378 8.00666 2.11529 9.17054C2.3468 10.3344 2.91825 11.4035 3.75736 12.2426C4.59648 13.0818 5.66557 13.6532 6.82946 13.8847C7.99335 14.1162 9.19975 13.9974 10.2961 13.5433C11.3925 13.0892 12.3295 12.3201 12.9888 11.3334C13.6481 10.3467 14 9.18669 14 8C14 6.4087 13.3679 4.88258 12.2426 3.75736C11.1174 2.63214 9.5913 2 8 2ZM12.9733 7.5H11.1333C10.9005 5.89401 10.2214 4.38566 9.17334 3.14667C10.1785 3.39153 11.0833 3.94136 11.7636 4.72077C12.444 5.50017 12.8665 6.47096 12.9733 7.5ZM5.87334 8.5H10.1267C9.81874 10.0792 9.08311 11.5435 8 12.7333C6.9169 11.5435 6.18127 10.0792 5.87334 8.5ZM5.87334 7.5C6.18127 5.92079 6.9169 4.45645 8 3.26667C9.08311 4.45645 9.81874 5.92079 10.1267 7.5H5.87334ZM6.82667 3.14667C5.77865 4.38566 5.09955 5.89401 4.86667 7.5H3.02667C3.13347 6.47096 3.55602 5.50017 4.23636 4.72077C4.91669 3.94136 5.8215 3.39153 6.82667 3.14667ZM3.02667 8.48H4.86667C5.09955 10.086 5.77865 11.5943 6.82667 12.8333C5.82444 12.5897 4.92176 12.0428 4.24172 11.2673C3.56168 10.4918 3.13737 9.52547 3.02667 8.5V8.48ZM9.17334 12.8333C10.2214 11.5943 10.9005 10.086 11.1333 8.48H12.9733C12.8704 9.5126 12.4497 10.4878 11.769 11.2712C11.0884 12.0545 10.1815 12.6073 9.17334 12.8533V12.8333Z" fill="#292A2B"/>
</svg>
