<svg xmlns="http://www.w3.org/2000/svg" width="16" height="17" viewBox="0 0 16 17" fill="none">
<path d="M10 3.83334V5.16668M10 7.83334V9.16668M10 11.8333V13.1667M3.33333 3.83334H12.6667C13.0203 3.83334 13.3594 3.97382 13.6095 4.22387C13.8595 4.47392 14 4.81305 14 5.16668V7.16668C13.6464 7.16668 13.3072 7.30715 13.0572 7.5572C12.8071 7.80725 12.6667 8.14639 12.6667 8.50001C12.6667 8.85363 12.8071 9.19277 13.0572 9.44282C13.3072 9.69287 13.6464 9.83334 14 9.83334V11.8333C14 12.187 13.8595 12.5261 13.6095 12.7762C13.3594 13.0262 13.0203 13.1667 12.6667 13.1667H3.33333C2.97971 13.1667 2.64057 13.0262 2.39052 12.7762C2.14048 12.5261 2 12.187 2 11.8333V9.83334C2.35362 9.83334 2.69276 9.69287 2.94281 9.44282C3.19286 9.19277 3.33333 8.85363 3.33333 8.50001C3.33333 8.14639 3.19286 7.80725 2.94281 7.5572C2.69276 7.30715 2.35362 7.16668 2 7.16668V5.16668C2 4.81305 2.14048 4.47392 2.39052 4.22387C2.64057 3.97382 2.97971 3.83334 3.33333 3.83334Z" stroke="#292A2B" stroke-width="1.33333" stroke-linecap="round" stroke-linejoin="round"/>
</svg>