<svg width="24" height="24" viewBox="0 0 24 24" fill="none" xmlns="http://www.w3.org/2000/svg">
<path d="M15.6217 2.40625H8.38525V5.59397H15.6217V2.40625Z" fill="#D5FFE2"/>
<path d="M1.60254 8.77794L1.60254 16.0625H4.76714V8.77794H1.60254Z" fill="#D5FFE2"/>
<path d="M19.2368 8.77794V16.0625H22.4014V8.77794H19.2368Z" fill="#D5FFE2"/>
<path d="M19.2374 5.59375H15.6201V8.78147H19.2374V5.59375Z" fill="#D5FFE2"/>
<path d="M8.38482 5.59375H4.76758V8.78147H8.38482V5.59375Z" fill="#D5FFE2"/>
<path d="M8.38371 22.4355H15.6201V19.2478H8.38371V22.4355Z" fill="#D5FFE2"/>
<path d="M4.76801 19.248H8.38525V16.0603H4.76801V19.248Z" fill="#D5FFE2"/>
<path d="M15.6245 19.248H19.2417V16.0603H15.6245V19.248Z" fill="#D5FFE2"/>
<path d="M13.9343 9.3635L9.74902 13.5488L11.668 15.4678L15.8534 11.2825L13.9343 9.3635Z" fill="#D5FFE2"/>
<path d="M8.15001 11.9488L11.668 15.4668L13.5992 13.5355L10.0813 10.0176L8.15001 11.9488Z" fill="#D5FFE2"/>
</svg>
