<svg width="24" height="24" viewBox="0 0 24 24" fill="none" xmlns="http://www.w3.org/2000/svg">
<rect x="6.44434" y="2" width="11.1111" height="2.22222" fill="#F45858"/>
<rect x="6.44434" y="19.7773" width="11.1111" height="2.22222" fill="#F45858"/>
<rect x="22" y="6.44531" width="11.1111" height="2.22222" transform="rotate(90 22 6.44531)" fill="#F45858"/>
<rect x="4.22266" y="6.44531" width="11.1111" height="2.22222" transform="rotate(90 4.22266 6.44531)" fill="#F45858"/>
<rect x="6.44434" y="4.22266" width="2.22222" height="2.22222" transform="rotate(90 6.44434 4.22266)" fill="#F45858"/>
<rect x="19.7773" y="4.22266" width="2.22222" height="2.22222" transform="rotate(90 19.7773 4.22266)" fill="#F45858"/>
<rect x="19.7773" y="17.5547" width="2.22222" height="2.22222" transform="rotate(90 19.7773 17.5547)" fill="#F45858"/>
<rect x="6.44434" y="17.5547" width="2.22222" height="2.22222" transform="rotate(90 6.44434 17.5547)" fill="#F45858"/>
<rect x="13.1113" y="14.2227" width="2.22222" height="2.22222" transform="rotate(90 13.1113 14.2227)" fill="#F45858"/>
<rect x="13.1113" y="7.55469" width="5.55556" height="2.22222" transform="rotate(90 13.1113 7.55469)" fill="#F45858"/>
</svg>
