<svg xmlns="http://www.w3.org/2000/svg" width="16" height="17" viewBox="0 0 16 17" fill="none">
<path d="M11.5668 8.61736C11.4458 8.6178 11.3291 8.57257 11.2401 8.49069C10.3549 7.69796 9.20836 7.25962 8.02008 7.25962C6.8318 7.25962 5.68529 7.69796 4.80008 8.49069C4.75109 8.53453 4.69393 8.56827 4.63187 8.58998C4.56982 8.6117 4.50409 8.62096 4.43846 8.61725C4.37282 8.61353 4.30856 8.59691 4.24935 8.56833C4.19014 8.53975 4.13716 8.49977 4.09342 8.45069C4.00736 8.35014 3.96406 8.21991 3.97278 8.08785C3.9815 7.95579 4.04155 7.83238 4.14008 7.74402C5.20511 6.7855 6.58724 6.25513 8.02008 6.25513C9.45293 6.25513 10.8351 6.7855 11.9001 7.74402C11.9986 7.83238 12.0587 7.95579 12.0674 8.08785C12.0761 8.21991 12.0328 8.35014 11.9468 8.45069C11.898 8.50276 11.8392 8.54438 11.7739 8.57302C11.7085 8.60167 11.6381 8.61676 11.5668 8.61736Z" fill="#292A2B"/>
<path d="M13.333 6.75718C13.207 6.75654 13.0858 6.70901 12.993 6.62384C11.6453 5.3392 9.85489 4.62257 7.99301 4.62257C6.13114 4.62257 4.3407 5.3392 2.99301 6.62384C2.94713 6.6784 2.8901 6.72252 2.82577 6.75324C2.76143 6.78395 2.69127 6.80055 2.61999 6.80193C2.54871 6.8033 2.47797 6.78942 2.41249 6.76121C2.34702 6.733 2.28834 6.69111 2.24038 6.63836C2.19243 6.58561 2.1563 6.52321 2.13444 6.45535C2.11258 6.38749 2.10548 6.31575 2.11362 6.24492C2.12176 6.1741 2.14496 6.10583 2.18165 6.0447C2.21834 5.98358 2.26767 5.931 2.32635 5.89051C3.85686 4.44072 5.88485 3.63269 7.99301 3.63269C10.1012 3.63269 12.1292 4.44072 13.6597 5.89051C13.7326 5.95806 13.7838 6.04581 13.8066 6.14257C13.8294 6.23932 13.8229 6.34068 13.7878 6.4337C13.7527 6.52672 13.6907 6.60717 13.6097 6.66479C13.5287 6.72241 13.4324 6.75458 13.333 6.75718Z" fill="#292A2B"/>
<path d="M6.25273 10.5175C6.17511 10.5175 6.09855 10.4994 6.02912 10.4647C5.9597 10.43 5.8993 10.3796 5.85273 10.3175C5.81247 10.2653 5.78307 10.2055 5.76628 10.1418C5.74949 10.0781 5.74564 10.0116 5.75496 9.94635C5.76428 9.8811 5.78658 9.81837 5.82055 9.76188C5.85452 9.7054 5.89947 9.65629 5.95273 9.61746C6.54125 9.16712 7.26168 8.9231 8.00273 8.9231C8.74378 8.9231 9.46422 9.16712 10.0527 9.61746C10.1053 9.65686 10.1495 9.70621 10.183 9.76271C10.2164 9.81921 10.2384 9.88175 10.2477 9.94675C10.257 10.0117 10.2534 10.0779 10.2371 10.1416C10.2208 10.2052 10.1921 10.2649 10.1527 10.3175C10.0721 10.4221 9.95381 10.4911 9.82306 10.5098C9.6923 10.5284 9.55942 10.4953 9.45273 10.4175C9.03597 10.1001 8.52658 9.92821 8.00273 9.92821C7.47888 9.92821 6.9695 10.1001 6.55273 10.4175C6.46554 10.4811 6.36069 10.5161 6.25273 10.5175Z" fill="#292A2B"/>
<path d="M8 12.5903C7.86739 12.5903 7.74021 12.5377 7.64645 12.4439C7.55268 12.3501 7.5 12.2229 7.5 12.0903C7.5 11.9577 7.55268 11.8305 7.64645 11.7368C7.74021 11.643 7.86739 11.5903 8 11.5903C8.13261 11.5903 8.25978 11.643 8.35355 11.7368C8.44732 11.8305 8.5 11.9577 8.5 12.0903C8.5 12.2229 8.44732 12.3501 8.35355 12.4439C8.25978 12.5377 8.13261 12.5903 8 12.5903Z" fill="#292A2B"/>
</svg>