<svg width="18" height="17" viewBox="0 0 18 17" fill="none" xmlns="http://www.w3.org/2000/svg">
<path d="M8.52413 0.475528C8.67315 0.0134867 9.32685 0.0134859 9.47586 0.475528L11.1216 5.57841C11.1883 5.78533 11.3811 5.92541 11.5985 5.92494L16.9602 5.91322C17.4457 5.91216 17.6477 6.53387 17.2543 6.81837L12.9097 9.9604C12.7336 10.0878 12.6599 10.3145 12.7275 10.5211L14.3955 15.6167C14.5466 16.0781 14.0177 16.4624 13.6256 16.1761L9.29478 13.0152C9.11916 12.887 8.88084 12.887 8.70522 13.0152L4.37442 16.1761C3.98229 16.4624 3.45343 16.0781 3.60446 15.6167L5.27245 10.5211C5.34009 10.3145 5.26645 10.0878 5.09027 9.9604L0.745695 6.81837C0.352314 6.53387 0.554321 5.91216 1.0398 5.91322L6.40147 5.92494C6.61889 5.92541 6.8117 5.78533 6.87843 5.57841L8.52413 0.475528Z" fill="#CED3D6"/>
</svg>
