<svg xmlns="http://www.w3.org/2000/svg" width="20" height="20" viewBox="0 0 20 20" fill="none">
<path d="M1.42773 10C1.42773 14.7336 5.26559 18.5714 9.99916 18.5714C14.7327 18.5714 18.5706 14.7336 18.5706 10C18.5706 5.26643 14.7327 1.42857 9.99916 1.42857C5.26559 1.42857 1.42773 5.26643 1.42773 10ZM10.892 5.71429C10.892 5.95109 10.798 6.17819 10.6305 6.34563C10.4631 6.51307 10.236 6.60714 9.99916 6.60714C9.76236 6.60714 9.53526 6.51307 9.36782 6.34563C9.20037 6.17819 9.10631 5.95109 9.10631 5.71429C9.10631 5.47749 9.20037 5.25038 9.36782 5.08294C9.53526 4.9155 9.76236 4.82143 9.99916 4.82143C10.236 4.82143 10.4631 4.9155 10.6305 5.08294C10.798 5.25038 10.892 5.47749 10.892 5.71429ZM9.99916 7.85714C10.1886 7.85714 10.3703 7.9324 10.5042 8.06635C10.6382 8.20031 10.7134 8.38199 10.7134 8.57143V14.2857C10.7134 14.4752 10.6382 14.6568 10.5042 14.7908C10.3703 14.9247 10.1886 15 9.99916 15C9.80972 15 9.62804 14.9247 9.49409 14.7908C9.36013 14.6568 9.28488 14.4752 9.28488 14.2857V8.57143C9.28488 8.38199 9.36013 8.20031 9.49409 8.06635C9.62804 7.9324 9.80972 7.85714 9.99916 7.85714Z" fill="#878D91"/>
</svg>