<svg xmlns="http://www.w3.org/2000/svg" width="60" height="60" viewBox="0 0 60 60" fill="none">
<rect width="60" height="60" rx="30" fill="#FFF0D3"/>
<g clip-path="url(#clip0_3684_240)">
<path fill-rule="evenodd" clip-rule="evenodd" d="M38.2588 13.4824H21.7412V37.3412H16.2355V46.5177H21.7412V48.353H38.2588V46.5177H43.7646V37.3412H38.2588V37.3412H40.0941H40.0942H41.9295V32.753H40.0942V28.1647H38.2588V13.4824ZM19.9058 28.1647H21.7411V37.3412H19.906H19.9058H18.0706V32.753H19.9058V28.1647Z" fill="white"/>
<path fill-rule="evenodd" clip-rule="evenodd" d="M27.2471 11.6471H32.753V13.4824H27.2471V11.6471ZM32.7529 13.4824H34.5882V18.9883H32.7529V13.4824ZM27.2471 13.4824H25.4118V18.9883H27.2471V13.4824ZM27.2471 18.9883H28.3483H29.0824H30.9176H32.0189H32.7529V24.4942H32.0189V24.4942H28.3483V24.4942H27.2471V18.9883ZM29.0824 22.6589H30.9176V20.8236H29.0824V22.6589ZM26.5129 24.4941H27.2471V30.9177H25.4118V26.3294H23.5765V26.3294H21.7412V20.8236H23.5765V20.8236H26.5129V22.6589H23.5765V24.4941H25.4118H26.5129ZM25.4118 30.9177H23.5765V35.5059H25.4118V30.9177ZM21.7412 35.5059H23.5765V44.6824H21.7412V35.5059ZM25.4118 44.6824H23.5765V46.5177L25.4117 46.5177V48.353H34.5882V46.5177L25.4118 46.5177V44.6824ZM32.7529 24.4941V30.9177H34.5882V26.3294H36.4235V26.3295H38.2588V20.8236H37.1577H36.4235H33.4871V22.6589H36.4235V24.4941L34.5882 24.4941H32.7529ZM36.4235 35.5059H34.5882V30.9177H36.4235V35.5059ZM36.4235 44.6824H38.2588V35.5059H36.4235V44.6824ZM36.4235 46.5177H34.5882V44.6824H36.4235V46.5177ZM38.2588 13.4824H36.4235V15.3177H38.2588V13.4824ZM38.2588 15.3177H40.0941V20.8236H38.2588V15.3177ZM41.9294 32.753H40.0941V28.1647H41.9294V32.753ZM41.9294 37.3412H43.7647V32.753H41.9294V37.3412ZM45.6 44.6824H43.7647V37.3412H45.6V44.6824ZM41.9294 48.353V46.5177H38.2588V48.353H41.9294ZM23.5765 15.3177H21.7412V13.4824H23.5765V15.3177ZM19.9059 20.8236H21.7412V15.3177H19.9059L19.9059 20.8236ZM19.9059 28.1647H18.0706V32.753H19.9059V28.1647ZM16.2353 32.753H18.0706V37.3412H16.2353V32.753ZM16.2353 37.3412H14.4V44.6824H16.2353V37.3412ZM18.0706 46.5177H21.7412V48.353H18.0706V46.5177ZM38.2588 28.1647H40.0941V26.3295H38.2588V28.1647ZM19.9059 26.3294H21.7412V28.1647H19.9059V26.3294ZM41.9294 46.5177H43.7647V44.6824H41.9294V46.5177ZM16.2353 44.6824H18.0706V46.5177H16.2353V44.6824ZM27.6142 40.2777H25.0448V42.8471H26.513V44.3153H29.0824V41.7459H27.6142V40.2777Z" fill="#FF6B00"/>
</g>
<defs>
<clipPath id="clip0_3684_240">
<rect width="31.2" height="36.7059" fill="white" transform="translate(14.4 11.6471)"/>
</clipPath>
</defs>
</svg>