<svg width="60" height="60" viewBox="0 0 60 60" fill="none" xmlns="http://www.w3.org/2000/svg">
<rect width="60" height="60" rx="30" fill="#F5F6F7"/>
<g clip-path="url(#clip0_3699_2969)">
<path fill-rule="evenodd" clip-rule="evenodd" d="M38.2587 13.4824H21.7411V37.3412H16.2354V46.5177H21.7411V48.353H38.2587V46.5177H43.7645V37.3412H38.2587V37.3412H40.094H40.094H41.9293V32.753H40.094V28.1647H38.2587V13.4824ZM19.9057 28.1647H21.741V37.3412H19.9058H19.9057H18.0705V32.753H19.9057V28.1647Z" fill="white"/>
<path fill-rule="evenodd" clip-rule="evenodd" d="M27.247 11.6471H32.7529V13.4824H27.247V11.6471ZM32.7528 13.4824H34.5881V18.9883H32.7528V13.4824ZM27.247 13.4824H25.4117V18.9883H27.247V13.4824ZM27.247 18.9883H28.3481H29.0823H30.9175H32.0187H32.7528V24.4942H32.0187V24.4942H28.3481V24.4942H27.247V18.9883ZM30.9175 20.8236H29.0823V22.6589H30.9175V20.8236ZM26.5128 24.4941H27.247V30.9177H25.4117V26.3294H23.5764V26.3294H21.7411V20.8236H23.5764V20.8236H26.5128V22.6589H23.5764V24.4941H25.4117H26.5128ZM25.4117 30.9177H23.5764V35.5059H25.4117V30.9177ZM21.7411 35.5059H23.5764V44.6824H21.7411V35.5059ZM25.4117 44.6824H23.5764V46.5177L25.4116 46.5177V48.353H34.5881V46.5177L25.4117 46.5177V44.6824ZM34.5881 30.9177V26.3294H36.4234V26.3295H38.2587V20.8236H37.1576H36.4234H33.487V22.6589H36.4234V24.4941L34.5881 24.4941H32.7528V30.9177H34.5881ZM36.4234 35.5059H34.5881V30.9177H36.4234V35.5059ZM36.4234 44.6824H38.2587V35.5059H36.4234V44.6824ZM36.4234 46.5177H34.5881V44.6824H36.4234V46.5177ZM38.2587 13.4824H36.4234V15.3177H38.2587V13.4824ZM38.2587 15.3177H40.094V20.8236H38.2587V15.3177ZM41.9293 32.753H40.094V28.1647H41.9293V32.753ZM41.9293 37.3412H43.7646V32.753H41.9293V37.3412ZM45.5999 44.6824H43.7646V37.3412H45.5999V44.6824ZM41.9293 48.353V46.5177H38.2587V48.353H41.9293ZM23.5764 15.3177H21.7411V13.4824H23.5764V15.3177ZM19.9058 20.8236H21.7411V15.3177H19.9058L19.9058 20.8236ZM19.9058 28.1647H18.0705V32.753H19.9058V28.1647ZM16.2352 32.753H18.0705V37.3412H16.2352V32.753ZM16.2352 37.3412H14.3999V44.6824H16.2352V37.3412ZM18.0705 46.5177H21.7411V48.353H18.0705V46.5177ZM38.2587 28.1647H40.094V26.3295H38.2587V28.1647ZM19.9058 26.3294H21.7411V28.1647H19.9058V26.3294ZM41.9293 46.5177H43.7646V44.6824H41.9293V46.5177ZM16.2352 44.6824H18.0705V46.5177H16.2352V44.6824ZM27.614 40.2777H25.0446V42.8471H26.5128V44.3153H29.0823V41.7459H27.614V40.2777Z" fill="#ED7575"/>
</g>
<defs>
<clipPath id="clip0_3699_2969">
<rect width="31.2" height="36.7059" fill="white" transform="translate(14.3999 11.6471)"/>
</clipPath>
</defs>
</svg>
