<svg width="60" height="60" viewBox="0 0 60 60" fill="none" xmlns="http://www.w3.org/2000/svg">
<rect width="60" height="60" rx="30" fill="#F5F6F7"/>
<g clip-path="url(#clip0_3699_3179)">
<path fill-rule="evenodd" clip-rule="evenodd" d="M37.2 12H22.8V14H19.2L19.2 18H15.6V42H19.2L19.2 46H22.8V48H37.2V46H40.8V42H44.4V39H48V21H44.4V18H40.8V14H37.2V12ZM12 39V21H15.6V39H12Z" fill="#F5A1C9"/>
<path fill-rule="evenodd" clip-rule="evenodd" d="M21.3602 18V20.16H19.2002V18H21.3602ZM40.8002 18V20.16H38.6402V18H40.8002ZM38.6402 22.32V20.16H36.4802V22.32H38.6402ZM38.6402 37.68V39.84H36.4802V37.68H38.6402ZM36.4802 37.68L34.3202 37.68V35.4429H36.4802V33.2829H34.3202V31.08H36.4802V28.92H34.3202V26.7173H36.4802V24.5573H34.3202V22.32H36.4802L36.4802 37.68ZM34.3202 33.2829V35.4429H32.1602V33.2829H34.3202ZM34.3202 31.08V28.92H32.1602V31.08H34.3202ZM34.3202 24.5573V26.7173H32.1602V24.5573H34.3202ZM40.8002 42V39.84H38.6402V42H40.8002ZM23.5202 20.16V22.32H21.3602V20.16H23.5202ZM21.3602 42V39.84H19.2002V42H21.3602ZM23.5202 37.68V39.84H21.3602V37.68H23.5202ZM25.6802 28.92V26.7173H27.8402V24.5573H25.6802V22.32H23.5202V24.5573H25.6802V26.7173H23.5202V28.92H25.6802V31.08H23.5202V33.2829H25.6802V35.4429H23.5202V37.68H25.6802V35.4429H27.8402V33.2829H25.6802V31.08H27.8402V28.92H25.6802Z" fill="white"/>
</g>
<defs>
<clipPath id="clip0_3699_3179">
<rect width="36" height="36" fill="white" transform="translate(12 12)"/>
</clipPath>
</defs>
</svg>
