<svg xmlns="http://www.w3.org/2000/svg" width="60" height="60" viewBox="0 0 60 60" fill="none">
<rect width="60" height="60" rx="30" fill="#FFF0D3"/>
<g clip-path="url(#clip0_3684_594)">
<path fill-rule="evenodd" clip-rule="evenodd" d="M37.2 12H22.8V14H19.2L19.2 18H15.6V42H19.2L19.2 46H22.8V48H37.2V46H40.8V42H44.4V39H48V21H44.4V18H40.8V14H37.2V12ZM12 39V21H15.6V39H12Z" fill="#FF6B00"/>
<path fill-rule="evenodd" clip-rule="evenodd" d="M21.36 18V20.16H19.2V18H21.36ZM40.8001 18V20.16H38.6401V18H40.8001ZM38.6401 22.32V20.16H36.4801V22.32H38.6401ZM38.6401 37.68V39.84H36.4801V37.68H38.6401ZM36.4801 37.68L34.3201 37.68V35.4429H36.48V33.2829H34.3201V31.08H36.48V28.92H34.3201V26.7173H36.48V24.5573H34.3201V22.32H36.4801L36.4801 37.68ZM34.32 33.2829V35.4429H32.16V33.2829H34.32ZM34.32 31.08V28.92H32.16V31.08H34.32ZM34.32 24.5573V26.7173H32.16V24.5573H34.32ZM40.8001 42V39.84H38.6401V42H40.8001ZM23.52 20.16V22.32H21.36V20.16H23.52ZM21.36 42V39.84H19.2V42H21.36ZM23.52 37.68V39.84H21.36V37.68H23.52ZM25.6801 28.92V26.7173H27.8401V24.5573H25.6801V22.32H23.5201V24.5573H25.68V26.7173H23.5201V28.92H25.68V31.08H23.5201V33.2829H25.68V35.4429H23.5201V37.68H25.6801V35.4429H27.8401V33.2829H25.6801V31.08H27.8401V28.92H25.6801Z" fill="white"/>
</g>
<defs>
<clipPath id="clip0_3684_594">
<rect width="36" height="36" fill="white" transform="translate(12 12)"/>
</clipPath>
</defs>
</svg>