<svg width="60" height="60" viewBox="0 0 60 60" fill="none" xmlns="http://www.w3.org/2000/svg">
<rect width="60" height="60" rx="30" fill="#F5F6F7"/>
<g clip-path="url(#clip0_3699_3134)">
<path fill-rule="evenodd" clip-rule="evenodd" d="M37.2 12H22.8V14H19.2V18H15.6V21H12V39H15.6V42H19.2V46H22.8V48H37.2L37.2 46H40.8V42H44.4V39H48V21H44.4V18H40.8V14H37.2L37.2 12Z" fill="#7AA2C8"/>
<path fill-rule="evenodd" clip-rule="evenodd" d="M26.8333 14.2259V16.3859H24.6733V14.2259H26.8333ZM24.6733 16.3859V18.5459H20.6401V16.3859H24.6733ZM22.8001 20.7059V18.5459H20.6401V20.7059H18.4801V22.8659H20.6401V20.7059H22.8001ZM18.4801 25.0259V22.8659H16.3201V25.0259H18.4801ZM20.6401 25.0259V27.1859H14.06V25.0259H20.6401ZM14.06 27.1859V29.3459H20.6401H22.9002V27.1859H20.6401H14.06ZM18.4801 31.5059V29.3459H14.0601V31.5059H14.06V33.6659H16.3201V31.5059H18.4801V33.6659H31.151V31.5059H28.9201V29.3459H20.6401V31.5059H18.4801ZM37.478 35.8259V33.6659H35.318V35.8259H37.478ZM35.3179 40.1459V42.3059H33.2952V40.1459H35.3179ZM33.2952 37.9859L33.2952 40.1459H26.437V42.3059H22.8001V40.1459L20.6401 40.1459V37.9859H33.2952ZM43.8758 33.6659V31.5059H41.7158L41.7158 29.3459H31.151V31.5059H33.2952V33.6659H39.5326V31.5059L41.7158 31.5059V33.6659H43.8758ZM46.0358 33.6659V35.8259H43.8758V33.6659H46.0358ZM46.0358 31.5059V25.0259H43.8758V31.5059H46.0358ZM35.3224 14.2259V16.3859H28.9201V14.2259H35.3224ZM33.2952 20.7059V18.5459H28.9201V20.7059H33.2952V22.8659H39.5326V20.7059H33.2952ZM33.2952 35.8259V33.6659H16.3201V35.8259H33.2952ZM33.2952 42.3059V44.4659L35.3224 44.4659V46.6259H24.6734V44.4659L26.437 44.4659V42.3059H33.2952ZM35.3224 35.8259V37.9859H18.4801V35.8259H35.3224ZM41.7158 22.8659V25.0259H31.151V22.8659H41.7158ZM41.7158 25.0259V27.1859H28.9201V25.0259H41.7158ZM41.7158 29.3459V27.1859H28.9201V29.3459H41.7158ZM37.5834 16.3859V18.5459H26.8333V16.3859H37.5834Z" fill="white"/>
</g>
<defs>
<clipPath id="clip0_3699_3134">
<rect width="36" height="36" fill="white" transform="translate(12 12)"/>
</clipPath>
</defs>
</svg>
