<svg xmlns="http://www.w3.org/2000/svg" width="60" height="60" viewBox="0 0 60 60" fill="none">
<rect width="60" height="60" rx="30" fill="#FFF0D3"/>
<g clip-path="url(#clip0_3684_550)">
<path fill-rule="evenodd" clip-rule="evenodd" d="M37.2 12H22.8V14H19.2V18H15.6V21H12V39H15.6V42H19.2V46H22.8V48H37.2L37.2 46H40.8V42H44.4V39H48V21H44.4V18H40.8V14H37.2L37.2 12Z" fill="#FF6B00"/>
<path fill-rule="evenodd" clip-rule="evenodd" d="M26.8332 14.2259V16.3859H24.6732V14.2259H26.8332ZM24.6732 16.3859V18.5459H20.6399V16.3859H24.6732ZM22.7999 20.7059V18.5459H20.6399V20.7059H18.48V22.8659H20.64V20.7059H22.7999ZM18.48 25.0259V22.8659H16.32V25.0259H18.48ZM20.64 25.0259V27.1859H14.0599V25.0259H20.64ZM14.0599 27.1859V29.3459H20.64H22.9V27.1859H20.64H14.0599ZM18.48 31.5059V29.3459H14.0599V31.5059H14.0599V33.6659H16.32V31.5059H18.4799V33.6659H31.1509V31.5059H28.92V29.3459H20.64V31.5059H18.48ZM37.4778 35.8259V33.6659H35.3178V35.8259H37.4778ZM35.3178 40.1459V42.3059H33.295V40.1459H35.3178ZM33.295 37.9859L33.295 40.1459H26.4369V42.3059H22.7999V40.1459L20.64 40.1459V37.9859H33.295ZM43.8756 33.6659V31.5059H41.7156L41.7156 29.3459H31.1509V31.5059H33.295V33.6659H39.5325V31.5059L41.7156 31.5059V33.6659H43.8756ZM46.0357 33.6659V35.8259H43.8757V33.6659H46.0357ZM46.0357 31.5059V25.0259H43.8757V31.5059H46.0357ZM35.3222 14.2259V16.3859H28.92V14.2259H35.3222ZM33.295 20.7059V18.5459H28.92V20.7059H33.295V22.8659H39.5325V20.7059H33.295ZM33.295 35.8259V33.6659H16.3199V35.8259H33.295ZM33.295 42.3059V44.4659L35.3222 44.4659V46.6259H24.6732V44.4659L26.4369 44.4659V42.3059H33.295ZM35.3222 35.8259V37.9859H18.48V35.8259H35.3222ZM41.7156 22.8659V25.0259H31.1509V22.8659H41.7156ZM41.7156 25.0259V27.1859H28.9199V25.0259H41.7156ZM41.7156 29.3459V27.1859H28.9199V29.3459H41.7156ZM37.5833 16.3859V18.5459H26.8332V16.3859H37.5833Z" fill="white"/>
</g>
<defs>
<clipPath id="clip0_3684_550">
<rect width="36" height="36" fill="white" transform="translate(12 12)"/>
</clipPath>
</defs>
</svg>