<svg xmlns="http://www.w3.org/2000/svg" width="60" height="60" viewBox="0 0 60 60" fill="none">
<rect width="60" height="60" rx="30" fill="#F5F6F7"/>
<path d="M41.3994 47.5H35.3926V45.3154H41.3994V47.5ZM35.3926 45.3154H33.208V43.1309H35.3926V45.3154ZM43.585 45.3154H41.4004V43.1309H43.585V45.3154ZM33.208 43.1309H31.0234V40.9463H33.208V43.1309ZM45.7695 43.1309H43.585V40.9463H45.7695V43.1309ZM46.8613 40.4004H40.8535V38.2158H35.9385V40.4004H26.1074V36.0312H45.2227V38.2158H46.8613V40.4004ZM25.0156 24.5615H26.6533V28.3848H28.292V32.208H30.4766V36.0303H23.9229V32.208H21.7383V28.3848H20.0996V24.5615H18.4619V20.7393H25.0156V24.5615ZM19.5537 16.3691H22.2842V20.7383H15.7305V16.3691H13V12H19.5537V16.3691Z" fill="#00BA6D"/>
<rect width="2.18461" height="2.18461" transform="matrix(-1 0 0 1 29.9297 36.0308)" fill="white"/>
</svg>