<svg xmlns="http://www.w3.org/2000/svg" width="60" height="60" viewBox="0 0 60 60" fill="none">
<rect width="60" height="60" rx="30" fill="#FFF0D3"/>
<path fill-rule="evenodd" clip-rule="evenodd" d="M22.8 42.6H21L21 13.8H22.8V42.6ZM24.6 40.8V39H44.4V40.8L46.2 40.8V44.4L44.4 44.4V46.2H15.6V44.4L13.8 44.4V40.8L15.6 40.8V39H19.2V40.8L17.4 40.8V44.4H26.4V40.8L24.6 40.8Z" fill="white"/>
<path fill-rule="evenodd" clip-rule="evenodd" d="M22.8 13.8H21V12H22.8V13.8ZM40.8 19.2V17.4H39V15.6H35.4V13.8H31.8L31.8 15.6H28.2V13.8L24.6 13.8L22.8 13.8V40.8V42.6H21V40.8V13.8L19.2 13.8L19.2 37.2H15.6V39H13.8V40.8L12 40.8V44.4H13.8V46.2H15.6V48H44.4V46.2H46.2V44.4H48V40.8H46.2V39H44.4V37.2H24.6V30H30V28.2L31.8 28.2V26.4H33.6L33.6 24.6H37.2V26.4H39V24.6H40.8V22.8H42.6V19.2H40.8ZM44.4 39V40.8H46.2V44.4L44.4 44.4L44.4 46.2H15.6V44.4H13.8V40.8H15.6V39H19.2V40.8H17.4V42.6V44.4H26.4V42.6V40.8H24.6V39H44.4Z" fill="#FF6B00"/>
</svg>