<svg xmlns="http://www.w3.org/2000/svg" width="60" height="60" viewBox="0 0 60 60" fill="none">
<rect width="60" height="60" rx="30" fill="#F5F6F7"/>
<path d="M20.5 47H16V44.5H20.5V47ZM43 47H38.5V44.5H43V47ZM16 44.5H13.5V40H16V44.5ZM23 44.5H20.5V40H23V44.5ZM48 40H45.5V44.5H43V40H45V37.5H43V40H38.5V38H36V40H38.5V44.5H36V40.5H34V42.5H27V13H48V40ZM19 31H25V40H23V37.5H20.5V36H16V37.5H13.5V40H11.5V33.5H14V31H16V22H19V31ZM20.5 40H16V37.5H20.5V40ZM38.5 37.5H43V35.5H38.5V37.5ZM32 31H43V20H32V31ZM25 22H19V19H25V22ZM25 17.5H21.5V14.5H25V17.5Z" fill="#FFAF53"/>
</svg>