<svg xmlns="http://www.w3.org/2000/svg" width="60" height="60" viewBox="0 0 60 60" fill="none">
<rect width="60" height="60" rx="30" fill="#F5F6F7"/>
<path d="M33.5 15H37V18.5H40.5V22.5H44V26H47.5V31H44V48.5H16V31H12.5V26H16V22.5H19.5V18.5H23V15H26.5V11.5H33.5V15ZM26.5 22.5H23V26H19.5V30H21.5V32.5H19.5V35H21.5V37.5H19.5V40H21.5V42.5H19.5V45H21.5V42.5H24V45H26.5V42.5H29V45H31.5V42.5H34V45H36.5V42.5H39V45H40.5V42.5H39V40H40.5V37.5H39V35H40.5V32.5H39V30H40.5V26H37V22.5H34V25H31.5V22.5H33.5V20H31.5V22.5H29V20H26.5V22.5ZM26.5 42.5H24V40H26.5V42.5ZM31.5 42.5H29V40H31.5V42.5ZM36.5 42.5H34V40H36.5V42.5ZM24 40H21.5V37.5H24V40ZM29 40H26.5V37.5H29V40ZM34 40H31.5V37.5H34V40ZM39 40H36.5V37.5H39V40ZM26.5 37.5H24V35H26.5V37.5ZM31.5 37.5H29V35H31.5V37.5ZM36.5 37.5H34V35H36.5V37.5ZM24 35H21.5V32.5H24V35ZM29 35H26.5V32.5H29V35ZM34 35H31.5V32.5H34V35ZM39 35H36.5V32.5H39V35ZM26.5 32.5H24V30H26.5V32.5ZM31.5 32.5H29V30H31.5V32.5ZM36.5 32.5H34V30H36.5V32.5ZM24 30H21.5V27.5H24V30ZM29 30H26.5V27.5H29V30ZM34 30H31.5V27.5H34V30ZM39 30H36.5V27.5H39V30ZM26.5 27.5H24V25H26.5V27.5ZM31.5 27.5H29V25H31.5V27.5ZM36.5 27.5H34V25H36.5V27.5ZM29 25H26.5V22.5H29V25Z" fill="#FF8CD1"/>
</svg>