<svg width="60" height="60" viewBox="0 0 60 60" fill="none" xmlns="http://www.w3.org/2000/svg">
<rect width="60" height="60" rx="30" fill="#F5F6F7"/>
<g clip-path="url(#clip0_3699_3215)">
<path fill-rule="evenodd" clip-rule="evenodd" d="M43.4889 13.3715L43.489 13.3715L45.0587 14.9412L45.0587 14.9413L46.6285 16.5111L48.1982 18.0809L46.9302 19.3489L48.5 20.9187L46.9302 22.4885L48.5 24.0582L46.4975 26.0607L48.3653 27.9285L38.2625 38.0313L36.3947 36.1635L33.0447 39.5136L31.4749 37.9438L29.9051 39.5136L29.8962 39.5047V39.5162H20.4864V30.1064H20.498L20.4864 30.0949L22.0562 28.5251L20.4864 26.9554L23.8365 23.6053L21.9798 21.7486L32.0119 11.7165L33.8686 13.5732L35.9418 11.5L37.5115 13.0698L39.0813 11.5L40.6511 13.0698L41.9191 11.8018L43.4889 13.3715ZM18.2664 43.9562L18.2664 43.9546H16.0464V39.5162H18.2664L18.2664 39.5162H20.4864V43.9562H18.2664ZM18.2664 43.9562L18.2664 46.1762H16.0464V43.9562L18.2664 43.9562ZM13.8264 43.9562L13.8264 41.7362H16.0464V48.3962H13.8264L13.8264 46.1762H11.6064V43.9562H13.8264Z" fill="#A1BDF3"/>
<path fill-rule="evenodd" clip-rule="evenodd" d="M32.8902 18.5578V20.7778L30.6702 20.7778V22.9978H28.4502V25.2178L30.6702 25.2178V27.4378L28.4502 27.4378V29.6578H30.6702L30.6702 31.8778H32.8902V29.6578H35.1102L35.1102 31.8778H37.3302V29.6578L35.1102 29.6578V27.4378L37.3302 27.4378V25.2178H35.1102V22.9978H37.3302V20.7778L35.1102 20.7778V18.5578H32.8902ZM32.8902 22.9978H30.6702V25.2178H32.8902V27.4378H30.6702L30.6702 29.6578H32.8902V27.4378L35.1102 27.4378L35.1102 25.2178H32.8902V22.9978ZM32.8902 22.9978V20.7778H35.1102L35.1102 22.9978H32.8902ZM37.3302 27.4378V29.6578H39.5502V27.4378L41.7702 27.4378V25.2178H39.5502V22.9978H41.7702V20.7778H39.5502L39.5502 18.5578H37.3302V20.7778L39.5502 20.7778V22.9978H37.3302V25.2178L39.5502 25.2178L39.5502 27.4378H37.3302Z" fill="white"/>
</g>
<defs>
<clipPath id="clip0_3699_3215">
<rect width="37" height="37" fill="white" transform="translate(11.5 11.5)"/>
</clipPath>
</defs>
</svg>
