<svg xmlns="http://www.w3.org/2000/svg" width="60" height="60" viewBox="0 0 60 60" fill="none">
<rect width="60" height="60" rx="30" fill="#FFF0D3"/>
<path d="M22.5572 33.5191H26.0763L26.0763 14.1642H22.5572L22.5572 33.5191Z" fill="#FF6B00"/>
<path d="M13.7595 42.3167V45.8269H19.0381V42.3167H13.7595Z" fill="white"/>
<path d="M15.519 38.7962V42.3065H20.7976V38.7962H15.519Z" fill="white"/>
<path d="M39.2023 38.7977V44.0763H46.2404V38.7977H39.2023Z" fill="white"/>
<path d="M40.1525 37.9707V38.7976H45.4311V37.9707H40.1525Z" fill="white"/>
<path d="M40.1525 44.0762V45.0088H45.4311V44.0762H40.1525Z" fill="white"/>
<path d="M26.0762 37.0381H38.3929V12.4047H26.0762L26.0762 37.0381Z" fill="#FF6B00"/>
<path d="M13.7595 42.3167H12V45.8358H13.7595V42.3167Z" fill="#FF6B00"/>
<path d="M43.6715 19.4428V33.5191H45.431V19.4428H43.6715Z" fill="#FF6B00"/>
<path d="M45.4311 33.5191H47.1906V22.9619H45.4311V33.5191Z" fill="#FF6B00"/>
<path d="M15.5191 40.5572H13.7595V42.3168H15.5191V40.5572Z" fill="#FF6B00"/>
<path d="M17.2786 38.7977H15.519V40.5572H17.2786V38.7977Z" fill="#FF6B00"/>
<path d="M17.2786 45.8358H13.7595V47.5953H17.2786V45.8358Z" fill="#FF6B00"/>
<path d="M19.0381 44.0763H17.2786V45.8358H19.0381V44.0763Z" fill="#FF6B00"/>
<path d="M20.7977 42.3167H19.0381V44.0763H20.7977V42.3167Z" fill="#FF6B00"/>
<path d="M29.5953 40.5572H20.7976V42.3168H29.5953V40.5572Z" fill="#FF6B00"/>
<path d="M17.2786 30V38.7977H19.0381V30H17.2786Z" fill="#FF6B00"/>
<path d="M19.0381 30V38.7977H20.7977V30H19.0381Z" fill="white"/>
<path d="M20.7977 31.7536V40.5513H22.5573V31.7536H20.7977Z" fill="white"/>
<path d="M22.5572 33.5191V40.5513H24.3167V33.5191H22.5572Z" fill="white"/>
<path d="M24.3168 35.2786V40.5513H26.0763V35.2786H24.3168Z" fill="white"/>
<path d="M26.0763 37.0381V40.5513H27.8358V37.0381H26.0763Z" fill="white"/>
<path d="M27.8358 38.7977V40.5513H29.5953V38.7977H27.8358Z" fill="white"/>
<path d="M22.5571 30H20.7976V31.7595H22.5571V30Z" fill="#FF6B00"/>
<path d="M22.5572 30V15.9238H20.7977V30H22.5572Z" fill="#FF6B00"/>
<path d="M26.0762 33.5191H24.3167V35.2786H26.0762V33.5191Z" fill="#FF6B00"/>
<path d="M29.5953 37.0381H27.8358V38.7977H29.5953V37.0381Z" fill="#FF6B00"/>
<path d="M20.7977 28.2405H19.0381V30H20.7977V28.2405Z" fill="#FF6B00"/>
<path d="M19.0381 22.9619H17.2786V28.2405H19.0381V22.9619Z" fill="#FF6B00"/>
<path d="M43.6716 37.0381H46.2405V36.2112H43.6716V37.0381Z" fill="#FF6B00"/>
<path d="M40.1525 37.9707H45.4311V37.0382H40.1525V37.9707Z" fill="#FF6B00"/>
<path d="M40.1525 45.8358H45.4311V45.0088H40.1525V45.8358Z" fill="#FF6B00"/>
<path d="M39.2024 46.7683H46.2405V45.8358H39.2024V46.7683Z" fill="#FF6B00"/>
<path d="M46.2405 44.0763H48V38.7977H46.2405V44.0763Z" fill="#FF6B00"/>
<path d="M38.393 44.0763H39.2024V38.7977H38.393V44.0763Z" fill="#FF6B00"/>
<path d="M37.4428 44.0763H38.3929V42.3167H37.4428V44.0763Z" fill="#FF6B00"/>
<path d="M31.3549 37.0381H29.5953V40.5572H31.3549V37.0381Z" fill="#FF6B00"/>
<path d="M38.393 37.0381H31.3549V42.3167H38.393V37.0381Z" fill="#FF6B00"/>
<path d="M38.393 37.0381H41.912V14.1642H38.393V37.0381Z" fill="#FF6B00"/>
<path d="M20.7976 28.2405V19.4428H19.0381V28.2405H20.7976Z" fill="#FF6B00"/>
<path d="M41.912 15.9238V37.0381H43.6716V15.9238H41.912Z" fill="#FF6B00"/>
<path d="M43.6715 33.5191V35.2786H45.431V33.5191H43.6715Z" fill="#FF6B00"/>
<path d="M47.1906 44.0763H45.4311V45.8358H47.1906V44.0763Z" fill="#FF6B00"/>
<path d="M47.1906 37.0381H45.4311V38.7977H47.1906V37.0381Z" fill="#FF6B00"/>
<path d="M40.1525 37.0381H38.3929V38.7977H40.1525V37.0381Z" fill="#FF6B00"/>
<path d="M40.1525 44.0763H38.3929V45.8358H40.1525V44.0763Z" fill="#FF6B00"/>
<path d="M45.431 42.3167H43.6715V44.0763H45.431V42.3167Z" fill="#FF6B00"/>
</svg>