<svg width="60" height="60" viewBox="0 0 60 60" fill="none" xmlns="http://www.w3.org/2000/svg">
<rect width="60" height="60" rx="30" fill="#F5F6F7"/>
<path d="M13.7593 42.3167V45.827H19.0379V42.3167H13.7593Z" fill="white"/>
<path d="M15.519 38.7962V42.3065H20.7976V38.7962H15.519Z" fill="white"/>
<path d="M39.2021 38.7977V44.0763H46.2403V38.7977H39.2021Z" fill="white"/>
<path d="M40.1523 37.9707V38.7977H45.431V37.9707H40.1523Z" fill="white"/>
<path d="M40.1523 44.0763V45.0089H45.431V44.0763H40.1523Z" fill="white"/>
<path d="M19.0381 30.0001V38.7977H20.7976V30.0001H19.0381Z" fill="white"/>
<path d="M20.7979 31.7537V40.5513H22.5574V31.7537H20.7979Z" fill="white"/>
<path d="M22.5571 33.5191V40.5513H24.3167V33.5191H22.5571Z" fill="white"/>
<path d="M24.3169 35.2786V40.5513H26.0764V35.2786H24.3169Z" fill="white"/>
<path d="M26.0762 37.0381V40.5513H27.8357V37.0381H26.0762Z" fill="white"/>
<path d="M27.8359 38.7977V40.5513H29.5955V38.7977H27.8359Z" fill="white"/>
<path fill-rule="evenodd" clip-rule="evenodd" d="M27.8358 37.0382H26.0762V33.5191H26.0762V35.2786H24.3167V33.5191H22.5572V30L22.5571 30V31.7596H20.7976V30L20.7977 30V15.9238H22.5572V14.1643H26.0762V12.4048H38.3929V14.1643H41.912V15.9238H43.6715L43.6715 19.4429H45.431L45.431 22.9619H47.1906V33.5191H45.431V35.2786H43.6715L43.6715 37.0382H41.912H40.1525V38.7977L39.2024 38.7977V44.0763H40.1525V45.8358L40.1525 45.8358V45.0088H45.4312V44.0763H46.2405V38.7977L45.4312 38.7977V37.9707H40.1525V37.0382H45.4312L43.6716 37.0382V36.2112H46.2405V37.0382H47.1907V38.7977L48 38.7977V44.0763H47.1907V45.8358L46.2405 45.8358V46.7684H39.2024V45.8358L38.3929 45.8358V44.0763H38.393V38.7977L38.393 38.7977V42.3168L38.3929 42.3168V44.0763H37.4428V42.3168L31.3549 42.3168L31.3549 40.5572H29.5953L29.5953 38.7977H27.8358V37.0382ZM20.7976 30L19.0381 30V28.2405H19.0381V28.2405H17.2786V22.9619H19.0381V19.4429H20.7976L20.7976 28.2405L20.7976 28.2405V30ZM13.7595 42.3168H12V45.8358H13.7595L13.7595 47.5953H17.2786V45.8358L19.0381 45.8358V44.0763L20.7976 44.0763V42.3168L29.5953 42.3168V40.5573H20.7976L20.7976 42.3168H19.0381L19.0381 44.0763H17.2786L17.2786 45.8358L13.7595 45.8358V42.3168ZM13.7595 42.3168L13.7595 40.5573H15.5191V42.3168L13.7595 42.3168ZM17.2786 38.7977H15.519V40.5572H17.2786V38.7977ZM17.2786 38.7977H19.0381V30H17.2786L17.2786 38.7977ZM43.6715 44.0763V42.3168H45.431V44.0763H43.6715Z" fill="#FF8080"/>
</svg>
