<svg xmlns="http://www.w3.org/2000/svg" width="60" height="60" viewBox="0 0 60 60" fill="none">
<rect width="60" height="60" rx="30" fill="#FFF0D3"/>
<g clip-path="url(#clip0_3684_12)">
<path fill-rule="evenodd" clip-rule="evenodd" d="M37.2 12H22.8V14H19.2V18H15.6V21H12V39H15.6V42H19.2V46H22.8V48H37.2L37.2 46H40.8V42H44.4V39H48V21H44.4V18H40.8V14H37.2L37.2 12Z" fill="#FF6B00"/>
<path fill-rule="evenodd" clip-rule="evenodd" d="M17.0401 21.7454H19.2001V19.5854H17.0401V21.7454ZM19.2002 34.5317H21.3602V21.7454H19.2002V34.5317ZM38.5568 34.5317H40.7167V21.7454H38.5567V34.4221H36.3968V36.5821H38.5568V34.5317ZM23.5201 36.6917H21.3601V34.5317H23.5201V36.6917ZM42.8768 21.7454H40.7168V19.5854H42.8768V21.7454ZM23.5202 38.8517H25.6802V36.6917H23.5202V38.8517ZM34.2368 38.7421H36.3968V36.5821H34.2368V38.7421ZM34.2368 41.0117H25.6801V38.8517H34.2368V41.0117Z" fill="white"/>
</g>
<defs>
<clipPath id="clip0_3684_12">
<rect width="36" height="36" fill="white" transform="translate(12 12)"/>
</clipPath>
</defs>
</svg>