<svg width="60" height="60" viewBox="0 0 60 60" fill="none" xmlns="http://www.w3.org/2000/svg">
<rect width="60" height="60" rx="30" fill="#F5F6F7"/>
<g clip-path="url(#clip0_3699_3112)">
<path fill-rule="evenodd" clip-rule="evenodd" d="M37.2 12H22.8V14H19.2V18H15.6V21H12V39H15.6V42H19.2V46H22.8V48H37.2L37.2 46H40.8V42H44.4V39H48V21H44.4V18H40.8V14H37.2L37.2 12Z" fill="#B8E66D"/>
<path fill-rule="evenodd" clip-rule="evenodd" d="M17.04 21.7454H19.2V19.5854H17.04V21.7454ZM19.2 34.5317H21.36V21.7454H19.2V34.5317ZM38.5566 34.5317H40.7166V21.7454H38.5566V34.4221H36.3966V36.5821H38.5566V34.5317ZM23.52 36.6917H21.36V34.5317H23.52V36.6917ZM42.8766 21.7454H40.7166V19.5854H42.8766V21.7454ZM23.52 38.8517H25.68V36.6917H23.52V38.8517ZM34.2366 38.7421H36.3966V36.5821H34.2366V38.7421ZM34.2366 41.0117H25.68V38.8517H34.2366V41.0117Z" fill="white"/>
</g>
<defs>
<clipPath id="clip0_3699_3112">
<rect width="36" height="36" fill="white" transform="translate(12 12)"/>
</clipPath>
</defs>
</svg>
