<svg width="50" height="18" viewBox="0 0 50 18" fill="none" xmlns="http://www.w3.org/2000/svg">
<g clip-path="url(#clip0_2538_2794)">
<path d="M16.6667 9.00033C16.6667 10.6485 16.1779 12.2597 15.2622 13.6301C14.3466 15.0005 13.0451 16.0686 11.5224 16.6993C9.99965 17.33 8.32409 17.4951 6.70758 17.1735C5.09109 16.852 3.60621 16.0583 2.44078 14.8929C1.27534 13.7274 0.481672 12.2426 0.160127 10.6261C-0.161416 9.00957 0.00360825 7.33401 0.634338 5.81129C1.26507 4.28858 2.33318 2.98709 3.70359 2.07141C5.07399 1.15573 6.68515 0.666992 8.33333 0.666992C10.5435 0.666992 12.6631 1.54497 14.2259 3.10777C15.7887 4.67058 16.6667 6.7902 16.6667 9.00033ZM9.72709 5.08366V9.27323L6.81043 5.08366H4.41667V12.9274H6.9375V8.72532L9.85417 12.917H12.2563V5.08366H9.72709Z" fill="#03C75A"/>
<path d="M46.5394 4.62131L44.2359 9.87007L41.6301 4.62131H39.6268L43.317 11.9033L41.7958 15.3155H43.7412L48.4849 4.63166L46.5394 4.62131ZM38.3463 12.7377H36.4422V11.9799C35.7495 12.5871 34.8566 12.9161 33.9359 12.9034C31.6591 12.9034 29.8773 11.0399 29.8773 8.67951C29.8773 6.31914 31.6571 4.45568 33.9359 4.45568C34.8564 4.44242 35.7493 4.77065 36.4422 5.37704V4.62131H38.3463V12.7377ZM36.6657 8.68987C36.6657 7.15977 35.5978 5.9982 34.1821 5.9982C32.7665 5.9982 31.6985 7.15977 31.6985 8.68987C31.6985 10.22 32.7644 11.3815 34.1821 11.3815C35.5998 11.3815 36.6657 10.2096 36.6657 8.68987ZM20.4608 15.3155H22.4477V12.0483C23.1275 12.6138 23.9872 12.9171 24.8713 12.9034C27.1478 12.9034 28.9319 11.0399 28.9319 8.67951C28.9319 6.31914 27.15 4.45568 24.8713 4.45568C23.9483 4.43909 23.0523 4.76765 22.3587 5.37704V4.62131H20.4546L20.4608 15.3155ZM24.6353 5.9982C26.0511 5.9982 27.119 7.15977 27.119 8.68987C27.119 10.22 26.0511 11.3815 24.6353 11.3815C23.2197 11.3815 22.1517 10.22 22.1517 8.68987C22.1517 7.15977 23.2072 5.9982 24.6353 5.9982Z" fill="#03C75A"/>
</g>
<defs>
<clipPath id="clip0_2538_2794">
<rect width="50" height="16.6667" fill="white" transform="translate(0 0.666992)"/>
</clipPath>
</defs>
</svg>
