<svg width="179" height="46" viewBox="0 0 179 46" fill="none" xmlns="http://www.w3.org/2000/svg">
<path d="M32.6983 0H14.2983V41.4H32.6983V0Z" fill="#CED3D6"/>
<path d="M37.2982 2.2998H32.6982V39.0998H37.2982V2.2998Z" fill="#CED3D6"/>
<path d="M37.2994 39.0996H41.8994V34.4996H37.2994V39.0996Z" fill="#CED3D6"/>
<path d="M41.8983 6.90039H37.2983V34.5004H41.8983V6.90039Z" fill="#CED3D6"/>
<path d="M32.6983 43.7002H37.2983V39.1002H32.6983V43.7002Z" fill="#CED3D6"/>
<path d="M32.6983 41.4004H14.2983V46.0004H32.6983V41.4004Z" fill="#CED3D6"/>
<path d="M41.8994 11.5V34.5H46.4994V11.5H41.8994Z" fill="#CED3D6"/>
<path d="M9.69835 39.0996H14.2983L14.2983 2.2996H9.69835L9.69835 39.0996Z" fill="#CED3D6"/>
<path d="M9.69814 34.5H5.09814V39.1H9.69814V34.5Z" fill="#CED3D6"/>
<path d="M5.09825 34.5H9.69824L9.69824 6.9H5.09825L5.09825 34.5Z" fill="#CED3D6"/>
<path d="M14.2982 39.0996H9.69824V43.6996H14.2982V39.0996Z" fill="#CED3D6"/>
<path d="M0.499023 11.5L0.499023 34.5H5.09901L5.09901 11.5H0.499023Z" fill="#CED3D6"/>
<path d="M30.399 28.75H34.999V17.25H30.399V28.75Z" fill="white"/>
<path d="M11.9982 28.75H16.5981V17.25H11.9982L11.9982 28.75Z" fill="white"/>
<path d="M32.6983 13.8004H29.2483V12.6504H17.7483V13.8004H14.2983V32.2004H17.7483V33.3504H29.2483V32.2004H32.6983V13.8004Z" fill="white"/>
<path d="M25.7982 16.0996H21.1982V18.3996H25.7982V16.0996Z" fill="#CED3D6"/>
<path d="M25.7982 21.8496H21.1982V24.1496H25.7982V21.8496Z" fill="#CED3D6"/>
<path d="M25.7982 27.5996H21.1982V29.8996H25.7982V27.5996Z" fill="#CED3D6"/>
<path d="M28.0981 27.6004V24.1504H25.7981V27.6004H28.0981Z" fill="#CED3D6"/>
<path d="M21.1982 27.6004V24.1504H18.8982V27.6004H21.1982Z" fill="#CED3D6"/>
<path d="M28.0981 21.8504V18.4004H25.7981V21.8504H28.0981Z" fill="#CED3D6"/>
<path d="M21.1982 21.8504V18.4004H18.8982V21.8504H21.1982Z" fill="#CED3D6"/>
<path d="M34.5383 36.7998H37.2983V34.4998H34.5383V36.7998Z" fill="white"/>
<path d="M32.239 38.6396H34.999V36.3396H32.239V38.6396Z" fill="white"/>
<path d="M84.4852 31.4756L100.223 31.4756V-0.000465393L84.4852 -0.000465393V31.4756Z" fill="#CED3D6"/>
<path d="M68.7478 38.2217H66.4995V42.7183H68.7478V38.2217Z" fill="#CED3D6"/>
<path d="M106.968 8.99319V26.9795H109.217V8.99319H106.968Z" fill="#CED3D6"/>
<path d="M109.217 26.9795H111.465V13.4898H109.217V26.9795Z" fill="#CED3D6"/>
<path d="M70.9963 35.9727H68.748V38.2209H70.9963V35.9727Z" fill="#CED3D6"/>
<path d="M73.2449 33.7246H70.9966V35.9729H73.2449V33.7246Z" fill="#CED3D6"/>
<path d="M73.2446 42.7178H68.748V44.9661H73.2446V42.7178Z" fill="#CED3D6"/>
<path d="M75.4934 40.4688H73.2451V42.717H75.4934V40.4688Z" fill="#CED3D6"/>
<path d="M77.741 38.2217H75.4927V40.47H77.741V38.2217Z" fill="#CED3D6"/>
<path d="M88.9817 35.9727H77.7402V38.2209H88.9817V35.9727Z" fill="#CED3D6"/>
<path d="M73.2451 22.4832V33.7246H75.4934V22.4832H73.2451Z" fill="#CED3D6"/>
<path d="M79.9885 22.4834H77.7402V24.7317H79.9885V22.4834Z" fill="#CED3D6"/>
<path d="M79.9883 22.4834V4.49707H77.74V22.4834H79.9883Z" fill="#CED3D6"/>
<path d="M82.2366 24.7314H79.9883V26.9797H82.2366V24.7314Z" fill="#CED3D6"/>
<path d="M84.4851 26.9795H82.2368V29.2278H84.4851V26.9795Z" fill="#CED3D6"/>
<path d="M86.7336 29.2275H84.4854V31.4758H86.7336V29.2275Z" fill="#CED3D6"/>
<path d="M88.9822 31.4756H86.7339V33.7239H88.9822V31.4756Z" fill="#CED3D6"/>
<path d="M77.741 20.2344H75.4927V22.4827H77.741V20.2344Z" fill="#CED3D6"/>
<path d="M75.4934 13.4902H73.2451V20.2351H75.4934V13.4902Z" fill="#CED3D6"/>
<path d="M101.258 32.668H110.251V30.4197H101.258V32.668Z" fill="#CED3D6"/>
<path d="M101.258 43.9092H110.251V41.6609H101.258V43.9092Z" fill="#CED3D6"/>
<path d="M110.251 40.4688H112.499V33.7239H110.251V40.4688Z" fill="#CED3D6"/>
<path d="M99.0095 40.4688H101.258V33.7239H99.0095V40.4688Z" fill="#CED3D6"/>
<path d="M91.2307 31.4756H88.9824V35.9722H91.2307V31.4756Z" fill="#CED3D6"/>
<path d="M100.224 31.4756H91.2305V38.2205H100.224V31.4756Z" fill="#CED3D6"/>
<path d="M100.223 31.4756H104.72V2.24783H100.223V31.4756Z" fill="#CED3D6"/>
<path d="M79.9888 26.9795H84.4854V2.24831H79.9888V26.9795Z" fill="#CED3D6"/>
<path d="M77.7402 20.2346V8.99316H75.4919V20.2346H77.7402Z" fill="#CED3D6"/>
<path d="M104.72 4.49612V31.4756H106.968V4.49612H104.72Z" fill="#CED3D6"/>
<path d="M106.968 26.9792V29.2275H109.217V26.9792H106.968Z" fill="#CED3D6"/>
<path d="M102.923 31.0052L101.142 29.2246L96.182 34.1847L97.9625 35.9653L102.923 31.0052Z" fill="#CED3D6"/>
<path d="M98.5388 31.9707H96.2905V34.219H98.5388V31.9707Z" fill="#CED3D6"/>
<path d="M111.465 40.4688H109.217V42.717H111.465V40.4688Z" fill="#CED3D6"/>
<path d="M111.465 31.4756H109.217V33.7239H111.465V31.4756Z" fill="#CED3D6"/>
<path d="M102.471 31.4756H100.223V33.7239H102.471V31.4756Z" fill="#CED3D6"/>
<path d="M102.471 40.4688H100.223V42.717H102.471V40.4688Z" fill="#CED3D6"/>
<path d="M109.217 38.2217H106.968V40.47H109.217V38.2217Z" fill="#CED3D6"/>
<path d="M141.7 36.7998H144V2.2998H141.7V36.7998Z" fill="#CED3D6"/>
<path d="M146.3 36.7998H148.6V2.2998H146.3V36.7998Z" fill="#CED3D6"/>
<path d="M143.999 2.2998L146.299 2.2998V-0.00019598L143.999 -0.00019598V2.2998Z" fill="#CED3D6"/>
<path d="M148.6 32.2V34.5H173.9V32.2H148.6Z" fill="#CED3D6"/>
<path d="M137.1 43.7V46H173.9V43.7H137.1Z" fill="#CED3D6"/>
<path d="M173.9 36.7998H176.2V34.4998H173.9V36.7998Z" fill="#CED3D6"/>
<path d="M178.5 36.7998H176.2V41.3998H178.5V36.7998Z" fill="#CED3D6"/>
<path d="M173.9 43.7002H176.2V41.4002H173.9V43.7002Z" fill="#CED3D6"/>
<path d="M137.099 34.5H134.799V36.8H137.099V34.5Z" fill="#CED3D6"/>
<path d="M132.499 41.4004H134.799V36.8004H132.499V41.4004Z" fill="#CED3D6"/>
<path d="M137.099 41.4004H134.799V43.7004H137.099V41.4004Z" fill="#CED3D6"/>
<path d="M141.7 32.2002H137.1V34.5002H141.7V32.2002Z" fill="#CED3D6"/>
<path d="M150.9 39.0996H139.4V41.3996H150.9V39.0996Z" fill="#CED3D6"/>
<path d="M144 36.7998H139.4V39.0998H144V36.7998Z" fill="#CED3D6"/>
<path d="M150.899 36.7998H146.299V39.0998H150.899V36.7998Z" fill="#CED3D6"/>
<path d="M153.2 2.2998H148.6V20.6998H153.2V2.2998Z" fill="#CED3D6"/>
<path d="M157.8 4.59961H153.2V18.3996H157.8V4.59961Z" fill="#CED3D6"/>
<path d="M162.399 2.2998H157.799V13.7998H162.399V2.2998Z" fill="#CED3D6"/>
<path d="M167 4.59961H162.4V13.7996H167V4.59961Z" fill="#CED3D6"/>
<path d="M169.3 9.2002H167V16.1002H169.3V9.2002Z" fill="#CED3D6"/>
<path d="M167 13.7998H164.7V18.3998H167V13.7998Z" fill="#CED3D6"/>
<path d="M164.7 13.7998H160.1V16.0998H164.7V13.7998Z" fill="#CED3D6"/>
<path d="M160.099 13.7998H157.799V18.3998H160.099V13.7998Z" fill="#CED3D6"/>
<path d="M157.8 18.3994H153.2V20.6994H157.8V18.3994Z" fill="#CED3D6"/>
<path d="M155.5 20.7002H148.6V23.0002H155.5V20.7002Z" fill="#CED3D6"/>
<path d="M169.3 6.89941H167V9.19941H169.3V6.89941Z" fill="#CED3D6"/>
<path d="M171.599 9.2002H169.299V13.8002H171.599V9.2002Z" fill="#CED3D6"/>
</svg>
