<svg xmlns="http://www.w3.org/2000/svg" width="50" height="50" viewBox="0 0 50 50" fill="none">
<rect x="0.5" y="0.5" width="49" height="49" rx="24.5" fill="#F5F6F7"/>
<rect x="0.5" y="0.5" width="49" height="49" rx="24.5" stroke="#FF6B00"/>
<path d="M34.499 39.583H29.4922V37.7627H34.499V39.583ZM29.4922 37.7627H27.6719V35.9424H29.4922V37.7627ZM36.3193 37.7627H34.499V35.9424H36.3193V37.7627ZM27.6719 35.9424H25.8516V34.1221H27.6719V35.9424ZM38.1396 35.9424H36.3193V34.1221H38.1396V35.9424ZM37.6846 31.8457H39.0498V33.666H34.0439V31.8467H29.9473V33.666H21.7549V30.0264H37.6846V31.8457ZM16.2939 13.6406H18.5693V17.2822H20.8447V20.4678H22.21V23.6543H23.5752V26.8389H25.3965V30.0254H19.9346V26.8398H18.1143V23.6543H16.749V20.4678H15.3838V17.2822H13.1074V13.6406H10.832V10H16.2939V13.6406Z" fill="#00BA6D"/>
<rect width="1.82051" height="1.82051" transform="matrix(-1 0 0 1 24.9414 30.026)" fill="white"/>
</svg>