<svg width="50" height="50" viewBox="0 0 50 50" fill="none" xmlns="http://www.w3.org/2000/svg">
<rect x="0.5" y="0.5" width="49" height="49" rx="24.5" fill="#F5F6F7"/>
<rect x="0.5" y="0.5" width="49" height="49" rx="24.5" stroke="#FF6B00"/>
<g clip-path="url(#clip0_3699_2822)">
<path fill-rule="evenodd" clip-rule="evenodd" d="M31 10H19V11.6667H16V15H13V17.5H10V32.5H13V35H16V38.3333H19V40H31V38.3333H34V35H37V32.5H40V17.5H37V15H34V11.6667H31V10Z" fill="#7AA2C8"/>
<path fill-rule="evenodd" clip-rule="evenodd" d="M22.3612 11.8549V13.6549H20.5612V11.8549H22.3612ZM17.2002 17.2549V15.4549V13.6549L20.5612 13.6549V15.4549H19.0002V17.2549H17.2002ZM15.4002 19.0549V17.2549H17.2002V19.0549H15.4002ZM24.1002 24.4549H19.0836V22.6549H17.2002V20.8549H15.4002L15.4002 19.0549L13.6002 19.0549V20.8549H11.7168V22.6549V24.4549V26.2549V28.0549H13.6002V26.2549H15.4002L15.4002 28.0549H13.6002V29.8549H15.4002V31.6549L17.2002 31.6549V33.4549H19.0002V35.2549H22.031V37.0549L20.5612 37.0549V38.8549H29.4354V37.0549L27.7461 37.0549V35.2549H29.4317V33.4549H27.7461V31.6549L29.4354 31.6549V29.8549H31.2317V28.0549H32.944V26.2549H34.7633V28.0549H36.5633V29.8549H38.3633V28.0549H36.5633V26.2549L38.3633 26.2549V20.8549H36.5633V26.2549H34.7633V24.4549V22.6549V20.8549V19.0549L32.944 19.0549V17.2549H27.7461V15.4549H31.3196V13.6549L29.4354 13.6549V11.8549H24.1002V13.6549H22.3612L22.3612 15.4549H24.1002V17.2549H27.7461V19.0549L25.9593 19.0549V20.8549H24.1002V22.6549V24.4549ZM25.9593 26.2549L25.9593 24.4549H24.1002V26.2549H25.9593ZM27.7461 28.0549V26.2549H25.9593V28.0549H27.7461ZM27.7461 28.0549V29.8549H29.4317V28.0549H27.7461ZM27.7461 33.4549V35.2549H22.031V33.4549H27.7461ZM15.4002 26.2549V24.4549H17.2002L17.2002 26.2549H15.4002Z" fill="white"/>
</g>
<defs>
<clipPath id="clip0_3699_2822">
<rect width="30" height="30" fill="white" transform="translate(10 10)"/>
</clipPath>
</defs>
</svg>
