<svg width="50" height="50" viewBox="0 0 50 50" fill="none" xmlns="http://www.w3.org/2000/svg">
<rect x="0.5" y="0.5" width="49" height="49" rx="24.5" fill="#F5F6F7"/>
<rect x="0.5" y="0.5" width="49" height="49" rx="24.5" stroke="#FF6B00"/>
<g clip-path="url(#clip0_3741_16203)">
<path d="M26.6667 11.6667L25 10L23.3333 11.6667L25 13.3333L26.6667 11.6667ZM30 15L28.3333 13.3333L26.6667 15L28.3333 16.6667L30 15ZM15 26.6667L16.6667 28.3333L15 30L13.3333 28.3333L15 26.6667ZM23.3333 15L21.6667 13.3333L20 15L21.6667 16.6667L23.3333 15ZM35 26.6667L36.6667 28.3333L35 30L33.3333 28.3333L35 26.6667ZM20 18.3333L18.3333 16.6667L16.6667 18.3333L18.3333 20L20 18.3333ZM31.6667 30L33.3333 31.6667L31.6667 33.3333L30 31.6667L31.6667 30ZM16.6667 21.6667L15 20L13.3333 21.6667L15 23.3333L16.6667 21.6667ZM28.3333 33.3333L30 35L28.3333 36.6667L26.6667 35L28.3333 33.3333ZM13.3333 25L11.6667 23.3333L10 25L11.6667 26.6667L13.3333 25ZM31.6667 16.6667L33.3333 18.3333L31.6667 20L30 18.3333L31.6667 16.6667ZM20 31.6667L18.3333 30L16.6667 31.6667L18.3333 33.3333L20 31.6667ZM35 20L36.6667 21.6667L35 23.3333L33.3333 21.6667L35 20ZM23.3333 35L21.6667 33.3333L20 35L21.6667 36.6667L23.3333 35ZM38.3333 23.3333L40 25L38.3333 26.6667L36.6667 25L38.3333 23.3333ZM26.6667 38.3333L25 36.6667L23.3333 38.3333L25 40L26.6667 38.3333Z" fill="#FF6B00"/>
<path d="M26.6667 11.6667L25 10L23.3333 11.6667L25 13.3333L26.6667 11.6667ZM30 15L28.3333 13.3333L26.6667 15L28.3333 16.6667L30 15ZM15 26.6667L16.6667 28.3333L15 30L13.3333 28.3333L15 26.6667ZM23.3333 15L21.6667 13.3333L20 15L21.6667 16.6667L23.3333 15ZM35 26.6667L36.6667 28.3333L35 30L33.3333 28.3333L35 26.6667ZM20 18.3333L18.3333 16.6667L16.6667 18.3333L18.3333 20L20 18.3333ZM31.6667 30L33.3333 31.6667L31.6667 33.3333L30 31.6667L31.6667 30ZM16.6667 21.6667L15 20L13.3333 21.6667L15 23.3333L16.6667 21.6667ZM28.3333 33.3333L30 35L28.3333 36.6667L26.6667 35L28.3333 33.3333ZM13.3333 25L11.6667 23.3333L10 25L11.6667 26.6667L13.3333 25ZM31.6667 16.6667L33.3333 18.3333L31.6667 20L30 18.3333L31.6667 16.6667ZM20 31.6667L18.3333 30L16.6667 31.6667L18.3333 33.3333L20 31.6667ZM35 20L36.6667 21.6667L35 23.3333L33.3333 21.6667L35 20ZM23.3333 35L21.6667 33.3333L20 35L21.6667 36.6667L23.3333 35ZM38.3333 23.3333L40 25L38.3333 26.6667L36.6667 25L38.3333 23.3333ZM26.6667 38.3333L25 36.6667L23.3333 38.3333L25 40L26.6667 38.3333Z" fill="#FF6B00"/>
<rect x="25" y="16" width="12.7279" height="12.7279" transform="rotate(45 25 16)" fill="#FF6B00"/>
</g>
<defs>
<clipPath id="clip0_3741_16203">
<rect width="30" height="30" fill="white" transform="translate(10 10)"/>
</clipPath>
</defs>
</svg>
