<svg xmlns="http://www.w3.org/2000/svg" width="50" height="50" viewBox="0 0 50 50" fill="none">
<rect x="0.5" y="0.5" width="49" height="49" rx="24.5" fill="#F5F6F7"/>
<rect x="0.5" y="0.5" width="49" height="49" rx="24.5" stroke="#FF6B00"/>
<path d="M17.082 39.1673H13.332V37.0833H17.082V39.1673ZM35.832 39.1673H32.082V37.0833H35.832V39.1673ZM13.332 37.0833H11.249V33.3333H13.332V37.0833ZM19.165 37.0833H17.082V33.3333H19.165V37.0833ZM39.999 33.3333H37.915V37.0833H35.832V33.3333H37.499V31.2503H35.832V33.3333H32.082V31.6673H29.999V33.3333H32.082V37.0833H29.999V33.7503H28.332V35.4173H22.499V10.8333H39.999V33.3333ZM15.832 25.8333H20.832V33.3333H19.165V31.2503H17.082V30.0003H13.332V31.2503H11.249V33.3333H9.58203V27.9173H11.665V25.8333H13.332V18.3333H15.832V25.8333ZM17.082 33.3333H13.332V31.2503H17.082V33.3333ZM32.082 31.2503H35.832V29.5833H32.082V31.2503ZM26.665 25.8333H35.832V16.6673H26.665V25.8333ZM20.832 18.3333H15.832V15.8333H20.832V18.3333ZM20.832 14.5833H17.915V12.0833H20.832V14.5833Z" fill="#FFAF53"/>
</svg>