<svg width="50" height="50" viewBox="0 0 50 50" fill="none" xmlns="http://www.w3.org/2000/svg">
<rect x="0.5" y="0.5" width="49" height="49" rx="24.5" fill="#F5F6F7"/>
<rect x="0.5" y="0.5" width="49" height="49" rx="24.5" stroke="#FF6B00"/>
<path fill-rule="evenodd" clip-rule="evenodd" d="M19 35.5H17.5V11.5H19V35.5ZM20.5 34V32.5H37V34H38.5V37H37V38.5H13V37H11.5V34H13V32.5H16V34H14.5V37H22V34H20.5Z" fill="white"/>
<path fill-rule="evenodd" clip-rule="evenodd" d="M19 11.5H17.5V10H19V11.5ZM34 16V14.5H32.5V13H29.5V11.5H26.5V13H23.5V11.5H20.5H19V34V35.5H17.5V34V11.5H16V31H13V32.5H11.5V34H10V37H11.5V38.5H13V40H37V38.5H38.5V37H40V34H38.5V32.5H37V31H20.5V25H25V23.5H26.5V22H28V20.5H31V22H32.5V20.5H34V19H35.5V16H34ZM37 32.5V34H38.5V37H37V38.5H13V37H11.5V34H13V32.5H16V34H14.5V35.5V37H22V35.5V34H20.5V32.5H37Z" fill="#71D045"/>
</svg>
