<svg width="50" height="50" viewBox="0 0 50 50" fill="none" xmlns="http://www.w3.org/2000/svg">
<rect x="0.5" y="0.5" width="49" height="49" rx="24.5" fill="#F5F6F7"/>
<rect x="0.5" y="0.5" width="49" height="49" rx="24.5" stroke="#FF6B00"/>
<path d="M11.4663 35.264V38.1892H15.8651V35.264H11.4663Z" fill="white"/>
<path d="M12.9326 32.3302V35.2554H17.3315V32.3302H12.9326Z" fill="white"/>
<path d="M32.6685 32.3314V36.7302H38.5336V32.3314H32.6685Z" fill="white"/>
<path d="M33.4604 31.6423V32.3314H37.8593V31.6423H33.4604Z" fill="white"/>
<path d="M33.4604 36.7302V37.5073H37.8593V36.7302H33.4604Z" fill="white"/>
<path d="M15.8652 25V32.3314H17.3315V25H15.8652Z" fill="white"/>
<path d="M17.3315 26.4615V33.7928H18.7978V26.4615H17.3315Z" fill="white"/>
<path d="M18.7979 27.9326V33.7928H20.2641V27.9326H18.7979Z" fill="white"/>
<path d="M20.2642 29.3989V33.7928H21.7304V29.3989H20.2642Z" fill="white"/>
<path d="M21.73 30.8652V33.7928H23.1963V30.8652H21.73Z" fill="white"/>
<path d="M23.1963 32.3315V33.7928H24.6626V32.3315H23.1963Z" fill="white"/>
<path fill-rule="evenodd" clip-rule="evenodd" d="M23.1965 30.8651H21.7302L21.7302 27.9326H21.7302V29.3989H20.2639V27.9326H18.7977V26.4663H17.3314V25L17.3314 25H15.8651V23.5338H17.3313V23.5338H15.8651V16.2024H17.3313V13.2698H18.7976V25H18.7977V11.8036H21.7302V10.3373H31.9941V11.8035H34.9266V13.2698H36.3929V30.8651H36.3929V30.176H38.5337V30.8651H39.3255V32.3314H37.8593V31.6423H33.4604V32.3314L32.6686 32.3314V36.7302H33.4604V37.5074H37.8593V36.7302H38.5337V32.3314H40V36.7302H39.3255V38.1965L38.5337 38.1965V38.9736H32.6686V38.1965L31.9941 38.1965V36.7302H31.9941H31.2023V35.264L26.129 35.264V30.8651H26.129V33.7977H24.6627V32.3314H23.1965V30.8651ZM11.4663 35.264H10V38.1965H11.4663V35.264ZM36.3929 27.9326V16.2024H37.8592V27.9326V29.3989H36.3929V27.9326ZM37.8593 27.9326H39.3256V19.1349H37.8593V27.9326ZM11.4663 33.7977L12.9325 33.7977V32.3314H14.3988V33.7977L12.9326 33.7977V35.264H11.4663V33.7977ZM11.4663 39.6628V38.1965L14.3988 38.1965V36.7302H15.8651V38.1965L14.3989 38.1965V39.6628H11.4663ZM15.8651 35.264H17.3314V36.7302H15.8651V35.264ZM24.6628 33.7977H17.3314V35.264H24.6628V33.7977ZM14.3988 32.3314V25H15.8651V32.3314H14.3988ZM14.3988 19.1349H15.8651V23.5338H14.3988V19.1349ZM36.3929 35.264H37.8592V36.7302H36.3929V35.264Z" fill="#FF8080"/>
</svg>
