<svg xmlns="http://www.w3.org/2000/svg" width="50" height="50" viewBox="0 0 50 50" fill="none">
<rect x="0.5" y="0.5" width="49" height="49" rx="24.5" fill="#F5F6F7"/>
<rect x="0.5" y="0.5" width="49" height="49" rx="24.5" stroke="#FF6B00"/>
<path d="M27.918 12.5003H30.835V15.4173H33.751V18.7503H36.668V21.6673H39.585V25.8333H36.668V40.4173H13.335V25.8333H10.418V21.6673H13.335V18.7503H16.251V15.4173H19.168V12.5003H22.085V9.58333H27.918V12.5003ZM22.085 18.7503H19.168V21.6673H16.251V25.0003H17.918V27.0833H16.251V29.1673H17.918V31.2503H16.251V33.3333H17.918V35.4173H16.251V37.5003H17.918V35.4173H20.001V37.5003H22.085V35.4173H24.168V37.5003H26.251V35.4173H28.335V37.5003H30.418V35.4173H32.501V37.5003H33.751V35.4173H32.501V33.3333H33.751V31.2503H32.501V29.1673H33.751V27.0833H32.501V25.0003H33.751V21.6673H30.835V18.7503H28.335V20.8333H26.251V18.7503H27.918V16.6673H26.251V18.7503H24.168V16.6673H22.085V18.7503ZM22.085 35.4173H20.001V33.3333H22.085V35.4173ZM26.251 35.4173H24.168V33.3333H26.251V35.4173ZM30.418 35.4173H28.335V33.3333H30.418V35.4173ZM20.001 33.3333H17.918V31.2503H20.001V33.3333ZM24.168 33.3333H22.085V31.2503H24.168V33.3333ZM28.335 33.3333H26.251V31.2503H28.335V33.3333ZM32.501 33.3333H30.418V31.2503H32.501V33.3333ZM22.085 31.2503H20.001V29.1673H22.085V31.2503ZM26.251 31.2503H24.168V29.1673H26.251V31.2503ZM30.418 31.2503H28.335V29.1673H30.418V31.2503ZM20.001 29.1673H17.918V27.0833H20.001V29.1673ZM24.168 29.1673H22.085V27.0833H24.168V29.1673ZM28.335 29.1673H26.251V27.0833H28.335V29.1673ZM32.501 29.1673H30.418V27.0833H32.501V29.1673ZM22.085 27.0833H20.001V25.0003H22.085V27.0833ZM26.251 27.0833H24.168V25.0003H26.251V27.0833ZM30.418 27.0833H28.335V25.0003H30.418V27.0833ZM20.001 25.0003H17.918V22.9173H20.001V25.0003ZM24.168 25.0003H22.085V22.9173H24.168V25.0003ZM28.335 25.0003H26.251V22.9173H28.335V25.0003ZM32.501 25.0003H30.418V22.9173H32.501V25.0003ZM22.085 22.9173H20.001V20.8333H22.085V22.9173ZM26.251 22.9173H24.168V20.8333H26.251V22.9173ZM30.418 22.9173H28.335V20.8333H30.418V22.9173ZM24.168 20.8333H22.085V18.7503H24.168V20.8333Z" fill="#FF8CD1"/>
</svg>