<svg width="50" height="50" viewBox="0 0 50 50" fill="none" xmlns="http://www.w3.org/2000/svg">
<rect x="0.5" y="0.5" width="49" height="49" rx="24.5" fill="#F5F6F7"/>
<rect x="0.5" y="0.5" width="49" height="49" rx="24.5" stroke="#FF6B00"/>
<g clip-path="url(#clip0_3699_2903)">
<path fill-rule="evenodd" clip-rule="evenodd" d="M35.9371 11.5175L35.9371 11.5174L37.2099 12.7902L37.2099 12.7902L38.4827 14.063L39.7554 15.3358L38.7273 16.364L40.0001 17.6368L38.7273 18.9096L40.0001 20.1824L38.3765 21.806L39.8909 23.3204L31.6995 31.5119L30.185 29.9974L27.4688 32.7137L26.196 31.4409L24.9232 32.7137L24.916 32.7065V32.7158H17.2864V25.0863H17.2958L17.2864 25.0769L18.5592 23.8042L17.2864 22.5314L20.0027 19.8151L18.4972 18.3096L26.6314 10.1755L28.1368 11.681L29.8178 10L31.0906 11.2728L32.3634 10L33.6361 11.2728L34.6643 10.2447L35.9371 11.5175ZM15.4864 36.3158L15.4864 36.3145H13.6864V32.7158H15.4864L15.4864 32.7158L17.2864 32.7158L17.2864 36.3158H15.4864ZM15.4864 36.3158L15.4864 38.1158H13.6864V36.3158L15.4864 36.3158ZM11.8864 36.3158L11.8864 34.5158H13.6864V39.9158H11.8864L11.8864 38.1158H10.0864V36.3158H11.8864Z" fill="#A1BDF3"/>
<path fill-rule="evenodd" clip-rule="evenodd" d="M27.3437 15.7225V17.5225L25.5437 17.5225V19.3225H27.3437V17.5225H29.1437L29.1437 19.3225H30.9437V17.5225H32.7437V19.3225H34.5437V17.5225H32.7437V15.7225H30.9437V17.5225L29.1437 17.5225V15.7225H27.3437ZM25.5437 22.9225V21.1225H27.3437V22.9225H25.5437ZM25.5437 24.7225L25.5437 22.9225L23.7437 22.9225V24.7225H25.5437ZM27.3437 24.7225V22.9225L29.1437 22.9225V24.7225H27.3437ZM30.9437 24.7225H29.1437L29.1437 26.5225H30.9437V24.7225ZM30.9437 22.9225V24.7225H32.7437V22.9225L34.5437 22.9225V21.1225H32.7437V19.3225H30.9437V21.1225H29.1437L29.1437 19.3225H27.3437V21.1225H29.1437L29.1437 22.9225H30.9437ZM30.9437 22.9225V21.1225H32.7437V22.9225H30.9437ZM27.3437 24.7225H25.5437L25.5437 26.5225H27.3437V24.7225ZM25.5437 21.1225L25.5437 19.3225H23.7437V21.1225H25.5437Z" fill="white"/>
</g>
<defs>
<clipPath id="clip0_3699_2903">
<rect width="30" height="30" fill="white" transform="translate(10 10)"/>
</clipPath>
</defs>
</svg>
