<svg xmlns="http://www.w3.org/2000/svg" width="50" height="50" viewBox="0 0 50 50" fill="none">
<rect width="50" height="50" rx="25" fill="#F5F6F7"/>
<path d="M21.2471 40H15.4141V27.083H21.2471V40ZM35.8301 40H29.9971V30.833H35.8301V40ZM35.8301 28.75H30.8301V27.083H28.7471V25.417H27.0801V14.167H28.7471V12.917H30.8301V10H35.8301V28.75ZM15.4141 18.333H17.0801V10H19.5801V18.333H21.2471V10H23.7471V20.833H19.5801V22.917H21.2471V25H15.4141V22.917H17.0801V20.833H12.9141V10H15.4141V18.333Z" fill="#CED3D6"/>
<rect x="28.75" y="22.9167" width="1.66667" height="1.25" fill="white"/>
<rect x="30" y="23.75" width="1.66667" height="1.25" fill="white"/>
</svg>