<svg width="50" height="50" viewBox="0 0 50 50" fill="none" xmlns="http://www.w3.org/2000/svg">
<rect width="50" height="50" rx="25" fill="#F5F6F7"/>
<g clip-path="url(#clip0_3699_2345)">
<path fill-rule="evenodd" clip-rule="evenodd" d="M31.8823 11.2354H18.1177V31.1177H13.5295V38.7648H18.1177V40.2942H31.8823V38.7648H36.4705V31.1177H31.8823V31.1177H33.4117H33.4118H34.9412V27.2942H33.4118V23.4706H31.8823V11.2354ZM16.5881 23.4706H18.1176V31.1177H16.5883H16.5881H15.0588V27.2942H16.5881V23.4706Z" fill="white"/>
<path fill-rule="evenodd" clip-rule="evenodd" d="M22.7059 9.70593H27.2942V11.2353H22.7059V9.70593ZM27.2941 11.2354H28.8235V15.8236H27.2941V11.2354ZM22.7059 11.2354H21.1765V15.8236H22.7059V11.2354ZM22.7059 15.8236H23.6235H24.2353H25.7646H26.6824H27.2941V20.4118H26.6824V20.4118H23.6235V20.4118H22.7059V15.8236ZM24.2353 18.8824H25.7646V17.353H24.2353V18.8824ZM22.0941 20.4118H22.7059V25.7647H21.1765V21.9412H19.6471V21.9412H18.1177V17.353H19.6471V17.353H22.0941V18.8824H19.6471V20.4118H21.1765H22.0941ZM21.1765 25.7647H19.6471V29.5883H21.1765V25.7647ZM18.1177 29.5883H19.6471V37.2353H18.1177V29.5883ZM21.1765 37.2354H19.6471V38.7648H21.1764V40.2942H28.8235V38.7647H21.1765V37.2354ZM27.2941 20.4118V25.7647H28.8235V21.9412H30.3529V21.9412H31.8823V17.353H30.9647H30.3529H27.9059V18.8824H30.3529V20.4118L28.8235 20.4118H27.2941ZM30.3529 29.5883H28.8235V25.7648H30.3529V29.5883ZM30.3529 37.2354H31.8823V29.5883H30.3529V37.2354ZM30.3529 38.7647H28.8235V37.2353H30.3529V38.7647ZM31.8823 11.2354H30.3529V12.7648H31.8823V11.2354ZM31.8823 12.7648H33.4117V17.353H31.8823V12.7648ZM34.9412 27.2942H33.4118V23.4706H34.9412V27.2942ZM34.9412 31.1177H36.4706V27.2942H34.9412V31.1177ZM38 37.2354H36.4706V31.1177H38V37.2354ZM34.9412 40.2942V38.7647H31.8823V40.2942H34.9412ZM19.6471 12.7648H18.1177V11.2354H19.6471V12.7648ZM16.5883 17.353H18.1177V12.7648H16.5883V17.353ZM16.5882 23.4706H15.0588V27.2942H16.5882V23.4706ZM13.5294 27.2942H15.0588V31.1177H13.5294V27.2942ZM13.5294 31.1177H12V37.2354H13.5294V31.1177ZM15.0588 38.7647H18.1177V40.2942H15.0588V38.7647ZM31.8823 23.4706H33.4117V21.9412H31.8823V23.4706ZM16.5883 21.9412H18.1177V23.4706H16.5883V21.9412ZM34.9412 38.7647H36.4706V37.2353H34.9412V38.7647ZM13.5294 37.2354H15.0588V38.7648H13.5294V37.2354ZM23.0118 33.5648H20.8706V35.7059H22.0941V36.9295H24.2353V34.7883H23.0118V33.5648Z" fill="#CED3D6"/>
</g>
<defs>
<clipPath id="clip0_3699_2345">
<rect width="26" height="30.5882" fill="white" transform="translate(12 9.70593)"/>
</clipPath>
</defs>
</svg>
