<svg xmlns="http://www.w3.org/2000/svg" width="50" height="50" viewBox="0 0 50 50" fill="none">
<rect width="50" height="50" rx="25" fill="#F5F6F7"/>
<path d="M17.0859 39.1663H13.3359V37.0833H17.0859V39.1663ZM35.8359 39.1663H32.0859V37.0833H35.8359V39.1663ZM13.3359 37.0833H11.2529V33.3333H13.3359V37.0833ZM19.1699 37.0833H17.0859V33.3333H19.1699V37.0833ZM40.0029 33.3333H37.9199V37.0833H35.8359V33.3333H37.5029V31.2503H35.8359V33.3333H32.0859V31.6663H30.0029V33.3333H32.0859V37.0833H30.0029V33.7503H28.3359V35.4163H22.5029V10.8333H40.0029V33.3333ZM15.8359 25.8333H20.8359V33.3333H19.1699V31.2503H17.0859V30.0003H13.3359V31.2503H11.2529V33.3333H9.58594V27.9163H11.6699V25.8333H13.3359V18.3333H15.8359V25.8333ZM17.0859 33.3333H13.3359V31.2503H17.0859V33.3333ZM32.0859 31.2503H35.8359V29.5833H32.0859V31.2503ZM26.6699 25.8333H35.8359V16.6663H26.6699V25.8333ZM20.8359 18.3333H15.8359V15.8333H20.8359V18.3333ZM20.8359 14.5833H17.9199V12.0833H20.8359V14.5833Z" fill="#CED3D6"/>
</svg>