<svg width="50" height="50" viewBox="0 0 50 50" fill="none" xmlns="http://www.w3.org/2000/svg">
<rect width="50" height="50" rx="25" fill="#F5F6F7"/>
<path d="M31 10H19V37H31V10Z" fill="#CED3D6"/>
<path d="M34 11.5H31V35.5H34V11.5Z" fill="#CED3D6"/>
<path d="M34 35.5H37V32.5H34V35.5Z" fill="#CED3D6"/>
<path d="M37 14.5H34V32.5H37V14.5Z" fill="#CED3D6"/>
<path d="M31 38.5H34V35.5H31V38.5Z" fill="#CED3D6"/>
<path d="M31 37H19V40H31V37Z" fill="#CED3D6"/>
<path d="M37 17.5V32.5H40V17.5H37Z" fill="#CED3D6"/>
<path d="M16 35.5H19L19 11.5H16L16 35.5Z" fill="#CED3D6"/>
<path d="M16 32.5H13V35.5H16V32.5Z" fill="#CED3D6"/>
<path d="M13 32.5H16L16 14.5H13L13 32.5Z" fill="#CED3D6"/>
<path d="M19 35.5H16V38.5H19V35.5Z" fill="#CED3D6"/>
<path d="M10 17.5L10 32.5H13V17.5H10Z" fill="#CED3D6"/>
<path d="M29.5 28.75H32.5V21.25H29.5V28.75Z" fill="white"/>
<path d="M17.5 28.75H20.5V21.25H17.5V28.75Z" fill="white"/>
<path d="M31 19H28.75V18.25H21.25V19H19V31H21.25V31.75H28.75V31H31V19Z" fill="white"/>
<path d="M26.5 20.5H23.5V22H26.5V20.5Z" fill="black" fill-opacity="0.5"/>
<path d="M26.5 24.25H23.5V25.75H26.5V24.25Z" fill="black" fill-opacity="0.5"/>
<path d="M26.5 28H23.5V29.5H26.5V28Z" fill="black" fill-opacity="0.5"/>
<path d="M28 28V25.75H26.5V28H28Z" fill="black" fill-opacity="0.5"/>
<path d="M23.5 28V25.75H22V28H23.5Z" fill="black" fill-opacity="0.5"/>
<path d="M28 24.25V22H26.5V24.25H28Z" fill="black" fill-opacity="0.5"/>
<path d="M23.5 24.25V22H22V24.25H23.5Z" fill="black" fill-opacity="0.5"/>
<path d="M30.22 35.5H32.5V33.415H30.22V35.5Z" fill="white"/>
<path d="M31.72 34H34V31.915H31.72V34Z" fill="white"/>
</svg>
