<svg width="50" height="50" viewBox="0 0 50 50" fill="none" xmlns="http://www.w3.org/2000/svg">
<rect width="50" height="50" rx="25" fill="#F5F6F7"/>
<g clip-path="url(#clip0_3699_2555)">
<path fill-rule="evenodd" clip-rule="evenodd" d="M31 10H19V11.6667H16V15H13V17.5H10V32.5H13V35H16V38.3333H19V40H31V38.3333H34V35H37V32.5H40V17.5H37V15H34V11.6667H31V10Z" fill="#CED3D6"/>
<path fill-rule="evenodd" clip-rule="evenodd" d="M17.8 15V16.8H16V15H17.8ZM19.6 18.6H17.8V16.8L19.6 16.8V18.6ZM21.4 20.4645L21.4 18.6H19.6V20.4645H21.4ZM21.4 22.2645H23.2V20.4645H21.4V22.2645ZM21.4 24.1H19.6V22.2645H21.4V24.1ZM21.4 25.9H23.2V24.1H21.4V25.9ZM21.4 27.7357V25.9H19.6V27.7357H21.4ZM21.4 29.5357V27.7357H23.2V29.5357H21.4ZM19.6 31.4H21.4L21.4 29.5357H19.6V31.4ZM17.8 33.2H19.6V31.4H17.8V33.2ZM17.8 33.2H16V35H17.8V33.2ZM34 15V16.8H32.2V15H34ZM30.4 18.6V16.8L32.2 16.8V18.6H30.4ZM28.6 20.4645L28.6 18.6H30.4V20.4645H28.6ZM28.6 22.2645H26.8V20.4645H28.6V22.2645ZM28.6 24.1V22.2645H30.4V24.1H28.6ZM28.6 25.9H26.8V24.1H28.6V25.9ZM28.6 27.7357V25.9H30.4V27.7357H28.6ZM28.6 29.5357H26.8V27.7357H28.6V29.5357ZM30.4 31.4H28.6L28.6 29.5357H30.4V31.4ZM32.2 33.2H30.4V31.4H32.2V33.2ZM32.2 33.2H34V35H32.2V33.2Z" fill="white"/>
</g>
<defs>
<clipPath id="clip0_3699_2555">
<rect width="30" height="30" fill="white" transform="translate(10 10)"/>
</clipPath>
</defs>
</svg>
