<svg xmlns="http://www.w3.org/2000/svg" width="50" height="50" viewBox="0 0 50 50" fill="none">
<rect width="50" height="50" rx="25" fill="#F5F6F7"/>
<path d="M34.502 39.583H29.4951V37.7627H34.502V39.583ZM27.6758 35.9424H29.4951V37.7627H27.6748V35.9424H25.8545V34.1221H27.6758V35.9424ZM38.1445 35.9424H36.3242V37.7627H34.5039V35.9424H36.3232V34.1221H38.1445V35.9424ZM39.0557 33.667H34.0488V31.8457H29.9531V33.667H21.7607V30.0254H19.9375V26.8398H18.1182V23.6543H16.7539V20.4678H15.3867V17.2822H13.1113V13.6406H10.8359V10H16.2979V13.6406H18.5732V17.2822H20.8486V20.4678H22.2158V23.6543H23.5801V26.8398H25.3994V30.0254H37.6904V31.8457H39.0557V33.667Z" fill="#CED3D6"/>
<rect width="1.82051" height="1.82051" transform="matrix(-1 0 0 1 24.9414 30.0256)" fill="white"/>
</svg>