<svg width="50" height="50" viewBox="0 0 50 50" fill="none" xmlns="http://www.w3.org/2000/svg">
<rect width="50" height="50" rx="25" fill="#F5F6F7"/>
<path d="M18.7974 27.9326H21.73L21.73 11.8036H18.7974V27.9326Z" fill="#CED3D6"/>
<path d="M11.4663 35.264V38.1892H15.8651V35.264H11.4663Z" fill="white"/>
<path d="M12.9326 32.3302V35.2554H17.3315V32.3302H12.9326Z" fill="white"/>
<path d="M32.6685 32.3314V36.7302H38.5336V32.3314H32.6685Z" fill="white"/>
<path d="M33.4604 31.6423V32.3314H37.8593V31.6423H33.4604Z" fill="white"/>
<path d="M33.4604 36.7302V37.5073H37.8593V36.7302H33.4604Z" fill="white"/>
<path d="M21.7302 30.8651H31.9941L31.9941 10.3373H21.7302V30.8651Z" fill="#CED3D6"/>
<path d="M11.4663 35.2639H10V38.1965H11.4663V35.2639Z" fill="#CED3D6"/>
<path d="M36.3931 16.2024V27.9326H37.8593V16.2024H36.3931Z" fill="#CED3D6"/>
<path d="M37.8594 27.9326H39.3257V19.135H37.8594V27.9326Z" fill="#CED3D6"/>
<path d="M12.9326 33.7977H11.4663V35.264H12.9326V33.7977Z" fill="#CED3D6"/>
<path d="M14.3989 32.3314H12.9326V33.7977H14.3989V32.3314Z" fill="#CED3D6"/>
<path d="M14.3989 38.1965H11.4663V39.6628H14.3989V38.1965Z" fill="#CED3D6"/>
<path d="M15.8652 36.7302H14.3989V38.1965H15.8652V36.7302Z" fill="#CED3D6"/>
<path d="M17.3315 35.2639H15.8652V36.7302H17.3315V35.2639Z" fill="#CED3D6"/>
<path d="M24.6629 33.7977H17.3315V35.264H24.6629V33.7977Z" fill="#CED3D6"/>
<path d="M14.3989 25V32.3314H15.8652V25H14.3989Z" fill="#CED3D6"/>
<path d="M15.8652 25V32.3314H17.3315V25H15.8652Z" fill="white"/>
<path d="M17.3315 26.4615V33.7928H18.7978V26.4615H17.3315Z" fill="white"/>
<path d="M18.7979 27.9326V33.7928H20.2641V27.9326H18.7979Z" fill="white"/>
<path d="M20.2642 29.3989V33.7928H21.7304V29.3989H20.2642Z" fill="white"/>
<path d="M21.73 30.8652V33.7928H23.1963V30.8652H21.73Z" fill="white"/>
<path d="M23.1963 32.3315V33.7928H24.6626V32.3315H23.1963Z" fill="white"/>
<path d="M18.7978 25H17.3315V26.4663H18.7978V25Z" fill="#CED3D6"/>
<path d="M18.7979 25V13.2698H17.3316V25H18.7979Z" fill="#CED3D6"/>
<path d="M21.7304 27.9326H20.2642V29.3989H21.7304V27.9326Z" fill="#CED3D6"/>
<path d="M24.6626 30.8651H23.1963V32.3314H24.6626V30.8651Z" fill="#CED3D6"/>
<path d="M17.3315 23.5338H15.8652V25.0001H17.3315V23.5338Z" fill="#CED3D6"/>
<path d="M15.8652 19.1349H14.3989V23.5337H15.8652V19.1349Z" fill="#CED3D6"/>
<path d="M36.3929 30.8651H38.5337V30.176H36.3929V30.8651Z" fill="#CED3D6"/>
<path d="M33.4605 31.6422H37.8594V30.8651H33.4605V31.6422Z" fill="#CED3D6"/>
<path d="M33.4605 38.1965H37.8594V37.5074H33.4605V38.1965Z" fill="#CED3D6"/>
<path d="M32.6686 38.9736H38.5337V38.1965H32.6686V38.9736Z" fill="#CED3D6"/>
<path d="M38.5337 36.7302H40V32.3314H38.5337V36.7302Z" fill="#CED3D6"/>
<path d="M31.994 36.7302H32.6685V32.3314H31.994V36.7302Z" fill="#CED3D6"/>
<path d="M31.2023 36.7302H31.9941V35.2639H31.2023V36.7302Z" fill="#CED3D6"/>
<path d="M26.1289 30.8651H24.6626V33.7977H26.1289V30.8651Z" fill="#CED3D6"/>
<path d="M31.994 30.8651H26.1289V35.2639H31.994V30.8651Z" fill="#CED3D6"/>
<path d="M31.9942 30.8651H34.9268V11.8035H31.9942L31.9942 30.8651Z" fill="#CED3D6"/>
<path d="M17.3315 23.5338V16.2024H15.8653V23.5338H17.3315Z" fill="#CED3D6"/>
<path d="M34.9268 13.2698V30.8651H36.393V13.2698H34.9268Z" fill="#CED3D6"/>
<path d="M36.3931 27.9325V29.3988H37.8593V27.9325H36.3931Z" fill="#CED3D6"/>
<path d="M39.3257 36.7302H37.8594V38.1965H39.3257V36.7302Z" fill="#CED3D6"/>
<path d="M39.3257 30.8651H37.8594V32.3314H39.3257V30.8651Z" fill="#CED3D6"/>
<path d="M33.4604 30.8651H31.9941V32.3314H33.4604V30.8651Z" fill="#CED3D6"/>
<path d="M33.4604 36.7302H31.9941V38.1965H33.4604V36.7302Z" fill="#CED3D6"/>
<path d="M37.8593 35.2639H36.3931V36.7302H37.8593V35.2639Z" fill="#CED3D6"/>
</svg>
