<svg xmlns="http://www.w3.org/2000/svg" width="50" height="50" viewBox="0 0 50 50" fill="none">
<rect width="50" height="50" rx="25" fill="#F5F6F7"/>
<path d="M27.9141 12.5003H30.8301V15.4163H33.7471V18.7503H36.6641V21.6663H39.5801V25.8333H36.6641V40.4163H13.3301V25.8333H10.4141V21.6663H13.3301V18.7503H16.2471V15.4163H19.1641V12.5003H22.0801V9.58333H27.9141V12.5003ZM22.0801 18.7503H19.1641V21.6663H16.2471V25.0003H17.9141V27.0833H16.2471V29.1663H17.9141V31.2503H16.2471V33.3333H17.9141V35.4163H16.2471V37.5003H17.9141V35.4163H19.9971V37.5003H22.0801V35.4163H24.1641V37.5003H26.2471V35.4163H28.3301V37.5003H30.4141V35.4163H32.4971V37.5003H33.7471V35.4163H32.4971V33.3333H33.7471V31.2503H32.4971V29.1663H33.7471V27.0833H32.4971V25.0003H33.7471V21.6663H30.8301V18.7503H28.3301V20.8333H26.2471V18.7503H27.9141V16.6663H26.2471V18.7503H24.1641V16.6663H22.0801V18.7503ZM22.0801 35.4163H19.9971V33.3333H22.0801V35.4163ZM26.2471 35.4163H24.1641V33.3333H26.2471V35.4163ZM30.4141 35.4163H28.3301V33.3333H30.4141V35.4163ZM19.9971 33.3333H17.9141V31.2503H19.9971V33.3333ZM24.1641 33.3333H22.0801V31.2503H24.1641V33.3333ZM28.3301 33.3333H26.2471V31.2503H28.3301V33.3333ZM32.4971 33.3333H30.4141V31.2503H32.4971V33.3333ZM22.0801 31.2503H19.9971V29.1663H22.0801V31.2503ZM26.2471 31.2503H24.1641V29.1663H26.2471V31.2503ZM30.4141 31.2503H28.3301V29.1663H30.4141V31.2503ZM19.9971 29.1663H17.9141V27.0833H19.9971V29.1663ZM24.1641 29.1663H22.0801V27.0833H24.1641V29.1663ZM28.3301 29.1663H26.2471V27.0833H28.3301V29.1663ZM32.4971 29.1663H30.4141V27.0833H32.4971V29.1663ZM22.0801 27.0833H19.9971V25.0003H22.0801V27.0833ZM26.2471 27.0833H24.1641V25.0003H26.2471V27.0833ZM30.4141 27.0833H28.3301V25.0003H30.4141V27.0833ZM19.9971 25.0003H17.9141V22.9163H19.9971V25.0003ZM24.1641 25.0003H22.0801V22.9163H24.1641V25.0003ZM28.3301 25.0003H26.2471V22.9163H28.3301V25.0003ZM32.4971 25.0003H30.4141V22.9163H32.4971V25.0003ZM22.0801 22.9163H19.9971V20.8333H22.0801V22.9163ZM26.2471 22.9163H24.1641V20.8333H26.2471V22.9163ZM30.4141 22.9163H28.3301V20.8333H30.4141V22.9163ZM24.1641 20.8333H22.0801V18.7503H24.1641V20.8333Z" fill="#CED3D6"/>
</svg>