<svg width="16" height="16" viewBox="0 0 16 16" fill="none" xmlns="http://www.w3.org/2000/svg">
<path d="M11.6663 4.49967H10.333V3.99967C10.333 3.35967 9.80634 2.83301 9.16634 2.83301H2.99967C2.35967 2.83301 1.83301 3.35967 1.83301 3.99967V9.99967C1.83301 10.6397 2.35967 11.1663 2.99967 11.1663H3.18634C3.27301 12.2797 4.19967 13.1663 5.33301 13.1663C6.46634 13.1663 7.39301 12.2797 7.47967 11.1663H8.51301C8.59967 12.2797 9.52634 13.1663 10.6597 13.1663C11.793 13.1663 12.7197 12.2797 12.8063 11.1663H12.993C13.633 11.1663 14.1597 10.6397 14.1597 9.99967V6.99967C14.1597 5.61967 13.0397 4.49967 11.6597 4.49967H11.6663ZM2.83301 9.99967V3.99967C2.83301 3.90634 2.90634 3.83301 2.99967 3.83301H9.16634C9.25967 3.83301 9.33301 3.90634 9.33301 3.99967V9.29301C9.33301 9.29301 9.29967 9.33301 9.27967 9.34634C9.17967 9.43301 9.08634 9.52634 8.99967 9.62634C8.97301 9.65967 8.94634 9.68634 8.92634 9.71967C8.82634 9.85967 8.73301 9.99967 8.67301 10.1597H7.33967C7.33967 10.1597 7.33967 10.1597 7.33967 10.153C7.29301 10.0397 7.22634 9.92634 7.15967 9.82634C7.13967 9.79967 7.11967 9.77301 7.09967 9.73967C7.04634 9.65967 6.98634 9.59301 6.91967 9.51967C6.89301 9.49301 6.87301 9.46634 6.84634 9.43967C6.75967 9.35967 6.67301 9.28634 6.57967 9.21967C6.56634 9.21301 6.55967 9.19967 6.54634 9.19301C6.44634 9.12634 6.33967 9.07301 6.23301 9.01967C6.19301 8.99967 6.15301 8.98634 6.11301 8.97301C6.02634 8.93967 5.94634 8.91301 5.85967 8.89301C5.81967 8.88634 5.77967 8.87301 5.73967 8.86634C5.61301 8.83967 5.47967 8.82634 5.34634 8.82634C5.21301 8.82634 5.08634 8.83967 4.95301 8.86634C4.91301 8.87301 4.87301 8.88634 4.83301 8.89301C4.74634 8.91301 4.65967 8.93967 4.57967 8.97301C4.53967 8.98634 4.49967 8.99967 4.45967 9.01967C4.35301 9.06634 4.24634 9.12634 4.14634 9.19301C4.13301 9.19967 4.12634 9.20634 4.11301 9.21967C4.01967 9.28634 3.92634 9.35967 3.84634 9.43967C3.81967 9.46634 3.79301 9.49301 3.77301 9.51967C3.70634 9.58634 3.64634 9.65967 3.59301 9.73967C3.57301 9.76634 3.55301 9.79301 3.53301 9.82634C3.46634 9.93301 3.40634 10.0397 3.35301 10.153C3.35301 10.153 3.35301 10.153 3.35301 10.1597H3.01967C2.92634 10.1597 2.85301 10.0863 2.85301 9.99301L2.83301 9.99967ZM5.33301 12.1663C4.69301 12.1663 4.16634 11.6397 4.16634 10.9997C4.16634 10.9197 4.17301 10.8397 4.19301 10.7663C4.21967 10.6463 4.26634 10.533 4.32634 10.433C4.33301 10.413 4.34634 10.3997 4.35301 10.3797C4.41301 10.2863 4.48634 10.1997 4.57301 10.1263C4.59301 10.113 4.60634 10.0997 4.62634 10.0863C4.71301 10.0197 4.81301 9.95967 4.91967 9.91967C4.93301 9.91967 4.95301 9.90634 4.97301 9.90634C5.08634 9.86634 5.21301 9.83967 5.33967 9.83967C5.46634 9.83967 5.58634 9.86634 5.70634 9.90634C5.72634 9.90634 5.73967 9.91301 5.75967 9.91967C5.86634 9.95967 5.96634 10.0197 6.05301 10.0863C6.07301 10.0997 6.08634 10.113 6.10634 10.1263C6.19301 10.1997 6.26634 10.2863 6.32634 10.3797C6.33967 10.393 6.34634 10.413 6.35301 10.433C6.41301 10.5397 6.45967 10.6463 6.48634 10.7663C6.49967 10.8397 6.51301 10.9197 6.51301 10.9997C6.51301 11.6397 5.98634 12.1663 5.34634 12.1663H5.33301ZM10.6663 12.1663C10.0263 12.1663 9.49967 11.6397 9.49967 10.9997C9.49967 10.9197 9.50634 10.8397 9.52634 10.7663C9.54634 10.6863 9.56634 10.6063 9.59967 10.533C9.59967 10.533 9.59967 10.5263 9.59967 10.5197C9.63301 10.453 9.66634 10.3863 9.71301 10.3263C9.71967 10.313 9.73301 10.3063 9.73967 10.293C9.77967 10.2397 9.81967 10.193 9.86634 10.1463C9.87967 10.133 9.89301 10.1263 9.90634 10.113C9.95301 10.073 10.0063 10.033 10.0597 9.99967C10.073 9.99301 10.093 9.97967 10.113 9.97301C10.173 9.93967 10.2397 9.91301 10.3063 9.89301C10.333 9.88634 10.3597 9.87301 10.393 9.86634C10.4797 9.84634 10.573 9.83301 10.6663 9.83301C10.793 9.83301 10.913 9.85967 11.033 9.89967C11.053 9.89967 11.0663 9.90634 11.0863 9.91301C11.193 9.95301 11.293 10.013 11.3797 10.0797C11.3997 10.093 11.413 10.1063 11.433 10.1197C11.5197 10.193 11.593 10.2797 11.653 10.373C11.6663 10.3863 11.673 10.4063 11.6797 10.4263C11.7397 10.533 11.7863 10.6397 11.813 10.7597C11.8263 10.833 11.8397 10.913 11.8397 10.993C11.8397 11.633 11.313 12.1597 10.673 12.1597L10.6663 12.1663ZM10.333 7.49967V5.49967H11.6663C12.493 5.49967 13.1663 6.17301 13.1663 6.99967V7.49967H10.333Z" fill="#292A2B"/>
</svg>
