<svg width="16" height="16" viewBox="0 0 16 16" fill="none" xmlns="http://www.w3.org/2000/svg">
<g clip-path="url(#clip0_2001_2270)">
<path fill-rule="evenodd" clip-rule="evenodd" d="M7.33331 2.66676C7.1565 2.66676 6.98693 2.737 6.8619 2.86202C6.73688 2.98704 6.66664 3.15661 6.66664 3.33342C6.66664 3.51024 6.73688 3.6798 6.8619 3.80483C6.98693 3.92985 7.1565 4.00009 7.33331 4.00009C7.51012 4.00009 7.67969 3.92985 7.80471 3.80483C7.92974 3.6798 7.99997 3.51024 7.99997 3.33342C7.99997 3.15661 7.92974 2.98704 7.80471 2.86202C7.67969 2.737 7.51012 2.66676 7.33331 2.66676ZM5.33331 3.33342C5.3335 2.9668 5.43446 2.60729 5.62516 2.29417C5.81586 1.98105 6.08895 1.72637 6.4146 1.55796C6.74026 1.38956 7.10593 1.3139 7.47167 1.33927C7.83741 1.36463 8.18915 1.49004 8.48844 1.70178C8.78772 1.91353 9.02305 2.20347 9.1687 2.53991C9.31435 2.87636 9.36472 3.24637 9.31431 3.6095C9.26389 3.97264 9.11463 4.31493 8.88283 4.59898C8.65104 4.88302 8.34563 5.09788 7.99997 5.22009V6.18676L9.44131 6.66676H10.6666C10.8435 6.66676 11.013 6.737 11.138 6.86202C11.2631 6.98704 11.3333 7.15661 11.3333 7.33342C11.3333 7.51024 11.2631 7.6798 11.138 7.80483C11.013 7.92985 10.8435 8.00009 10.6666 8.00009H9.33331C9.26171 8.00014 9.19058 7.98866 9.12264 7.96609L7.99997 7.59142V8.66676C7.99997 8.84357 8.07021 9.01314 8.19524 9.13816C8.32026 9.26319 8.48983 9.33342 8.66664 9.33342H9.99997C10.3105 9.33342 10.6167 9.40571 10.8944 9.54457C11.1721 9.68343 11.4137 9.88503 11.6 10.1334L13 12.0001H13.3333C13.5101 12.0001 13.6797 12.0703 13.8047 12.1954C13.9297 12.3204 14 12.4899 14 12.6668C14 12.8436 13.9297 13.0131 13.8047 13.1382C13.6797 13.2632 13.5101 13.3334 13.3333 13.3334H12.6666C12.5631 13.3334 12.4611 13.3093 12.3685 13.263C12.2759 13.2168 12.1954 13.1496 12.1333 13.0668L10.5333 10.9334C10.4712 10.8506 10.3907 10.7834 10.2981 10.7371C10.2055 10.6909 10.1035 10.6668 9.99997 10.6668H8.66664C8.13621 10.6668 7.6275 10.456 7.25243 10.081C6.87735 9.7059 6.66664 9.19719 6.66664 8.66676V5.21942C6.27664 5.08154 5.93899 4.82612 5.7002 4.48835C5.46141 4.15058 5.33323 3.74708 5.33331 3.33342ZM5.33312 6.80561C5.4334 7.15981 5.22231 7.52215 4.89908 7.69833C4.65964 7.82884 4.43819 7.99188 4.24138 8.18362C3.88469 8.53111 3.62011 8.96192 3.4715 9.4372C3.3229 9.91248 3.29494 10.4173 3.39015 10.9061C3.48536 11.3948 3.70074 11.8522 4.01687 12.237C4.333 12.6217 4.73994 12.9218 5.20097 13.11C5.66201 13.2982 6.16264 13.3686 6.65772 13.315C7.1528 13.2614 7.62674 13.0854 8.03682 12.8029C8.26301 12.6471 8.46584 12.4616 8.64026 12.2521C8.87581 11.9692 9.27244 11.8326 9.60022 12.0002C9.9278 12.1677 10.0615 12.5729 9.84598 12.871C9.55701 13.2707 9.20096 13.6195 8.79208 13.9011C8.19964 14.3091 7.51495 14.5631 6.79978 14.6404C6.08461 14.7177 5.36145 14.6157 4.69554 14.3437C4.02963 14.0716 3.44191 13.6381 2.98541 13.0822C2.52891 12.5263 2.21797 11.8654 2.08066 11.1593C1.94335 10.4532 1.98397 9.72405 2.19888 9.03756C2.41378 8.35108 2.79619 7.72889 3.31163 7.22713C3.66704 6.88114 4.07798 6.59992 4.52576 6.39427C4.86068 6.24045 5.23273 6.45101 5.33312 6.80561Z" fill="black"/>
</g>
<defs>
<clipPath id="clip0_2001_2270">
<rect width="16" height="16" fill="white"/>
</clipPath>
</defs>
</svg>
