<svg width="16" height="16" viewBox="0 0 16 16" fill="none" xmlns="http://www.w3.org/2000/svg">
<path d="M6.35715 4.60683C6.35715 3.9035 6.99048 3.3335 7.77315 3.3335C8.55515 3.3335 9.18915 3.9035 9.18915 4.60683C9.18915 4.93683 9.06915 5.23816 8.86115 5.46483C8.46315 5.89816 7.86782 6.33483 7.86782 6.8975V7.08683M7.86782 7.08683C8.36097 7.07882 8.84495 7.22062 9.25582 7.4935L14.2111 10.8335C15.0818 11.4208 14.6198 12.6668 13.5311 12.6668H2.46848C1.39115 12.6668 0.921815 11.4435 1.76981 10.8468L6.50048 7.5195C6.90201 7.24074 7.37902 7.09037 7.86782 7.08683Z" stroke="black" stroke-linecap="round"/>
</svg>
