<svg width="16" height="16" viewBox="0 0 16 16" fill="none" xmlns="http://www.w3.org/2000/svg">
<path d="M9.33301 8.16699C8.83856 8.16699 8.35521 8.02037 7.94408 7.74567C7.53296 7.47096 7.21253 7.08052 7.02331 6.6237C6.83409 6.16689 6.78458 5.66422 6.88105 5.17927C6.97751 4.69431 7.21561 4.24886 7.56524 3.89923C7.91487 3.54959 8.36033 3.31149 8.84528 3.21503C9.33024 3.11857 9.8329 3.16808 10.2897 3.35729C10.7465 3.54651 11.137 3.86694 11.4117 4.27807C11.6864 4.68919 11.833 5.17254 11.833 5.66699C11.833 6.33003 11.5696 6.96592 11.1008 7.43476C10.6319 7.9036 9.99605 8.16699 9.33301 8.16699ZM9.33301 4.16699C9.03634 4.16699 8.74633 4.25497 8.49965 4.41979C8.25298 4.58461 8.06072 4.81888 7.94719 5.09297C7.83366 5.36706 7.80395 5.66866 7.86183 5.95963C7.91971 6.2506 8.06257 6.51787 8.27235 6.72765C8.48213 6.93743 8.7494 7.08029 9.04037 7.13817C9.33134 7.19605 9.63294 7.16634 9.90703 7.05281C10.1811 6.93928 10.4154 6.74702 10.5802 6.50035C10.745 6.25367 10.833 5.96367 10.833 5.66699C10.833 5.26917 10.675 4.88764 10.3937 4.60633C10.1124 4.32503 9.73083 4.16699 9.33301 4.16699Z" fill="#292A2B"/>
<path d="M14.0003 12.8337C13.8683 12.8319 13.7421 12.7787 13.6487 12.6853C13.5553 12.5919 13.5021 12.4657 13.5003 12.3337C13.5003 11.0337 12.7937 10.167 9.33366 10.167C5.87366 10.167 5.16699 11.0337 5.16699 12.3337C5.16699 12.4663 5.11431 12.5934 5.02055 12.6872C4.92678 12.781 4.7996 12.8337 4.66699 12.8337C4.53438 12.8337 4.40721 12.781 4.31344 12.6872C4.21967 12.5934 4.16699 12.4663 4.16699 12.3337C4.16699 9.16699 7.78699 9.16699 9.33366 9.16699C10.8803 9.16699 14.5003 9.16699 14.5003 12.3337C14.4986 12.4657 14.4454 12.5919 14.352 12.6853C14.2586 12.7787 14.1324 12.8319 14.0003 12.8337Z" fill="#292A2B"/>
<path d="M5.54691 8.70708H5.33357C4.80314 8.65581 4.3148 8.39592 3.97599 7.98459C3.63717 7.57326 3.47563 7.04418 3.52691 6.51375C3.57818 5.98332 3.83807 5.49498 4.2494 5.15616C4.66073 4.81735 5.18981 4.65581 5.72024 4.70708C5.78825 4.71001 5.85495 4.72679 5.91625 4.7564C5.97755 4.78601 6.03216 4.82782 6.07673 4.87928C6.12129 4.93074 6.15488 4.99076 6.17544 5.05566C6.19599 5.12056 6.20307 5.18897 6.19626 5.2567C6.18944 5.32444 6.16886 5.39007 6.13578 5.44956C6.1027 5.50906 6.05783 5.56118 6.00389 5.60273C5.94996 5.64427 5.88812 5.67436 5.82215 5.69116C5.75618 5.70796 5.68747 5.71111 5.62024 5.70042C5.4901 5.68744 5.35868 5.70082 5.23383 5.73977C5.10898 5.77871 4.99326 5.84242 4.89357 5.92708C4.79233 6.00875 4.70835 6.10976 4.64654 6.22422C4.58473 6.33868 4.54633 6.4643 4.53357 6.59375C4.51979 6.72483 4.53223 6.85734 4.57016 6.98356C4.6081 7.10978 4.67078 7.22719 4.75454 7.32895C4.8383 7.43071 4.94148 7.51478 5.05806 7.57627C5.17464 7.63775 5.30229 7.67542 5.43357 7.68708C5.6506 7.70565 5.86787 7.65425 6.05357 7.54042C6.16673 7.47058 6.303 7.44855 6.4324 7.47918C6.5618 7.50981 6.67373 7.59059 6.74357 7.70375C6.81341 7.81691 6.83544 7.95318 6.80481 8.08258C6.77418 8.21198 6.6934 8.32391 6.58024 8.39375C6.27104 8.59096 5.91356 8.69936 5.54691 8.70708Z" fill="#292A2B"/>
<path d="M2 12.334C1.86793 12.3323 1.74175 12.279 1.64836 12.1856C1.55496 12.0922 1.50173 11.9661 1.5 11.834C1.5 10.034 1.98 8.83398 4.33333 8.83398C4.46594 8.83398 4.59312 8.88666 4.68689 8.98043C4.78066 9.0742 4.83333 9.20138 4.83333 9.33398C4.83333 9.46659 4.78066 9.59377 4.68689 9.68754C4.59312 9.78131 4.46594 9.83398 4.33333 9.83398C2.76667 9.83398 2.5 10.334 2.5 11.834C2.49827 11.9661 2.44504 12.0922 2.35164 12.1856C2.25825 12.279 2.13207 12.3323 2 12.334Z" fill="#292A2B"/>
</svg>
