<svg width="16" height="16" viewBox="0 0 16 16" fill="none" xmlns="http://www.w3.org/2000/svg">
<path d="M9.66667 7.83333C9.43333 7.83333 9.23611 7.75278 9.075 7.59167C8.91389 7.43056 8.83333 7.23333 8.83333 7C8.83333 6.76667 8.91389 6.56944 9.075 6.40833C9.23611 6.24722 9.43333 6.16667 9.66667 6.16667C9.9 6.16667 10.0972 6.24722 10.2583 6.40833C10.4194 6.56944 10.5 6.76667 10.5 7C10.5 7.23333 10.4194 7.43056 10.2583 7.59167C10.0972 7.75278 9.9 7.83333 9.66667 7.83333ZM6.33333 7.83333C6.1 7.83333 5.90278 7.75278 5.74167 7.59167C5.58056 7.43056 5.5 7.23333 5.5 7C5.5 6.76667 5.58056 6.56944 5.74167 6.40833C5.90278 6.24722 6.1 6.16667 6.33333 6.16667C6.56667 6.16667 6.76389 6.24722 6.925 6.40833C7.08611 6.56944 7.16667 6.76667 7.16667 7C7.16667 7.23333 7.08611 7.43056 6.925 7.59167C6.76389 7.75278 6.56667 7.83333 6.33333 7.83333ZM8 11.3333C7.33333 11.3333 6.73056 11.15 6.19167 10.7833C5.65278 10.4167 5.25556 9.93333 5 9.33333H11C10.7444 9.93333 10.3472 10.4167 9.80833 10.7833C9.26944 11.15 8.66667 11.3333 8 11.3333ZM8 14C7.16667 14 6.38611 13.8417 5.65833 13.525C4.93056 13.2083 4.29722 12.7806 3.75833 12.2417C3.21944 11.7028 2.79167 11.0694 2.475 10.3417C2.15833 9.61389 2 8.83333 2 8C2 7.16667 2.15833 6.38611 2.475 5.65833C2.79167 4.93056 3.21944 4.29722 3.75833 3.75833C4.29722 3.21944 4.93056 2.79167 5.65833 2.475C6.38611 2.15833 7.16667 2 8 2C8.83333 2 9.61389 2.15833 10.3417 2.475C11.0694 2.79167 11.7028 3.21944 12.2417 3.75833C12.7806 4.29722 13.2083 4.93056 13.525 5.65833C13.8417 6.38611 14 7.16667 14 8C14 8.83333 13.8417 9.61389 13.525 10.3417C13.2083 11.0694 12.7806 11.7028 12.2417 12.2417C11.7028 12.7806 11.0694 13.2083 10.3417 13.525C9.61389 13.8417 8.83333 14 8 14ZM8 12.6667C9.28889 12.6667 10.3889 12.2111 11.3 11.3C12.2111 10.3889 12.6667 9.28889 12.6667 8C12.6667 6.71111 12.2111 5.61111 11.3 4.7C10.3889 3.78889 9.28889 3.33333 8 3.33333H7.8C7.73333 3.33333 7.66667 3.34444 7.6 3.36667C7.53333 3.43333 7.48889 3.50556 7.46667 3.58333C7.44444 3.66111 7.43333 3.74444 7.43333 3.83333C7.43333 4.06667 7.51389 4.26389 7.675 4.425C7.83611 4.58611 8.03333 4.66667 8.26667 4.66667C8.36667 4.66667 8.45833 4.65 8.54167 4.61667C8.625 4.58333 8.71111 4.56667 8.8 4.56667C8.93333 4.56667 9.04445 4.61667 9.13333 4.71667C9.22222 4.81667 9.26667 4.93333 9.26667 5.06667C9.26667 5.32222 9.14722 5.48611 8.90833 5.55833C8.66944 5.63056 8.45556 5.66667 8.26667 5.66667C7.76667 5.66667 7.33611 5.48611 6.975 5.125C6.61389 4.76389 6.43333 4.33333 6.43333 3.83333V3.73333C6.43333 3.7 6.43889 3.65556 6.45 3.6C5.52778 3.93333 4.77778 4.49444 4.2 5.28333C3.62222 6.07222 3.33333 6.97778 3.33333 8C3.33333 9.28889 3.78889 10.3889 4.7 11.3C5.61111 12.2111 6.71111 12.6667 8 12.6667Z" fill="black"/>
</svg>
