<svg width="16" height="16" viewBox="0 0 16 16" fill="none" xmlns="http://www.w3.org/2000/svg">
<path d="M13.1867 6.29317L11.96 2.95984C11.8826 2.73053 11.7358 2.53098 11.5399 2.38884C11.344 2.24669 11.1087 2.169 10.8667 2.1665H5.13337C4.89457 2.16704 4.66169 2.24084 4.46617 2.37794C4.27065 2.51505 4.12191 2.70885 4.04004 2.93317L2.81337 6.2665C2.61653 6.36071 2.44986 6.50795 2.33209 6.69166C2.21432 6.87538 2.15012 7.08831 2.14671 7.3065V10.3065C2.14288 10.5015 2.18857 10.6943 2.27951 10.8669C2.37045 11.0394 2.50367 11.1861 2.66671 11.2932V11.3332V12.6665C2.66671 12.8433 2.73694 13.0129 2.86197 13.1379C2.98699 13.2629 3.15656 13.3332 3.33337 13.3332H4.00004C4.17685 13.3332 4.34642 13.2629 4.47144 13.1379C4.59647 13.0129 4.66671 12.8433 4.66671 12.6665V11.4998H11.3334V12.6665C11.3334 12.8433 11.4036 13.0129 11.5286 13.1379C11.6537 13.2629 11.8232 13.3332 12 13.3332H12.6667C12.8435 13.3332 13.0131 13.2629 13.1381 13.1379C13.2631 13.0129 13.3334 12.8433 13.3334 12.6665V11.3332C13.3334 11.3332 13.3334 11.3332 13.3334 11.2932C13.4901 11.187 13.6183 11.0439 13.7067 10.8765C13.7951 10.7091 13.8409 10.5225 13.84 10.3332V7.33317C13.8379 7.11638 13.7756 6.90444 13.6603 6.72086C13.545 6.53728 13.3811 6.38924 13.1867 6.29317ZM12.8334 10.3332C12.8334 10.3774 12.8158 10.4198 12.7846 10.451C12.7533 10.4823 12.7109 10.4998 12.6667 10.4998H3.33337C3.28917 10.4998 3.24678 10.4823 3.21552 10.451C3.18427 10.4198 3.16671 10.3774 3.16671 10.3332V7.33317C3.16671 7.28897 3.18427 7.24657 3.21552 7.21532C3.24678 7.18406 3.28917 7.1665 3.33337 7.1665H12.6667C12.7109 7.1665 12.7533 7.18406 12.7846 7.21532C12.8158 7.24657 12.8334 7.28897 12.8334 7.33317V10.3332ZM4.98004 3.27317C4.99202 3.24211 5.01303 3.21535 5.04036 3.19634C5.06769 3.17733 5.10008 3.16694 5.13337 3.1665H10.8667C10.9 3.16694 10.9324 3.17733 10.9597 3.19634C10.987 3.21535 11.0081 3.24211 11.02 3.27317L11.9534 5.83317H4.04671L4.98004 3.27317Z" fill="#292A2B"/>
<path d="M5.33301 9.83301C5.88529 9.83301 6.33301 9.38529 6.33301 8.83301C6.33301 8.28072 5.88529 7.83301 5.33301 7.83301C4.78072 7.83301 4.33301 8.28072 4.33301 8.83301C4.33301 9.38529 4.78072 9.83301 5.33301 9.83301Z" fill="#292A2B"/>
<path d="M10.667 9.83301C11.2193 9.83301 11.667 9.38529 11.667 8.83301C11.667 8.28072 11.2193 7.83301 10.667 7.83301C10.1147 7.83301 9.66699 8.28072 9.66699 8.83301C9.66699 9.38529 10.1147 9.83301 10.667 9.83301Z" fill="#292A2B"/>
</svg>
