<svg width="16" height="16" viewBox="0 0 16 16" fill="none" xmlns="http://www.w3.org/2000/svg">
<path d="M12 4.5C12 4.63261 11.9473 4.75979 11.8536 4.85355C11.7598 4.94732 11.6326 5 11.5 5H10C9.86739 5 9.74021 4.94732 9.64645 4.85355C9.55268 4.75979 9.5 4.63261 9.5 4.5C9.5 4.36739 9.55268 4.24021 9.64645 4.14645C9.74021 4.05268 9.86739 4 10 4H11.5C11.6326 4 11.7598 4.05268 11.8536 4.14645C11.9473 4.24021 12 4.36739 12 4.5ZM11.5 6H10C9.86739 6 9.74021 6.05268 9.64645 6.14645C9.55268 6.24021 9.5 6.36739 9.5 6.5C9.5 6.63261 9.55268 6.75979 9.64645 6.85355C9.74021 6.94732 9.86739 7 10 7H11.5C11.6326 7 11.7598 6.94732 11.8536 6.85355C11.9473 6.75979 12 6.63261 12 6.5C12 6.36739 11.9473 6.24021 11.8536 6.14645C11.7598 6.05268 11.6326 6 11.5 6ZM4.5 5H6C6.13261 5 6.25979 4.94732 6.35355 4.85355C6.44732 4.75979 6.5 4.63261 6.5 4.5C6.5 4.36739 6.44732 4.24021 6.35355 4.14645C6.25979 4.05268 6.13261 4 6 4H4.5C4.36739 4 4.24021 4.05268 4.14645 4.14645C4.05268 4.24021 4 4.36739 4 4.5C4 4.63261 4.05268 4.75979 4.14645 4.85355C4.24021 4.94732 4.36739 5 4.5 5ZM6 6H4.5C4.36739 6 4.24021 6.05268 4.14645 6.14645C4.05268 6.24021 4 6.36739 4 6.5C4 6.63261 4.05268 6.75979 4.14645 6.85355C4.24021 6.94732 4.36739 7 4.5 7H6C6.13261 7 6.25979 6.94732 6.35355 6.85355C6.44732 6.75979 6.5 6.63261 6.5 6.5C6.5 6.36739 6.44732 6.24021 6.35355 6.14645C6.25979 6.05268 6.13261 6 6 6ZM14 3V14C14 14.1326 13.9473 14.2598 13.8536 14.3536C13.7598 14.4473 13.6326 14.5 13.5 14.5C13.3674 14.5 13.2402 14.4473 13.1464 14.3536C13.0527 14.2598 13 14.1326 13 14V13H8.5V14C8.5 14.1326 8.44732 14.2598 8.35355 14.3536C8.25979 14.4473 8.13261 14.5 8 14.5C7.86739 14.5 7.74021 14.4473 7.64645 14.3536C7.55268 14.2598 7.5 14.1326 7.5 14V13H3V14C3 14.1326 2.94732 14.2598 2.85355 14.3536C2.75979 14.4473 2.63261 14.5 2.5 14.5C2.36739 14.5 2.24021 14.4473 2.14645 14.3536C2.05268 14.2598 2 14.1326 2 14V3C2 2.73478 2.10536 2.48043 2.29289 2.29289C2.48043 2.10536 2.73478 2 3 2H13C13.2652 2 13.5196 2.10536 13.7071 2.29289C13.8946 2.48043 14 2.73478 14 3ZM7.5 12V3H3V12H7.5ZM8.5 12H13V3H8.5V12Z" fill="black"/>
</svg>
