<svg width="16" height="16" viewBox="0 0 16 16" fill="none" xmlns="http://www.w3.org/2000/svg">
<path d="M5.07262 13.5947L5.07257 13.5947C4.73491 13.2565 4.56667 12.8337 4.56667 12.3333C4.56667 12.1334 4.55721 11.9686 4.53896 11.8378C4.52201 11.7164 4.48124 11.6327 4.42437 11.5765L4.42354 11.5756C4.36561 11.517 4.27942 11.4722 4.15627 11.4474C4.02801 11.4215 3.86533 11.4078 3.66667 11.4073C3.66659 11.4073 3.66652 11.4073 3.66645 11.4073L3.66667 11.3073C3.19067 11.3073 2.794 11.1529 2.47667 10.844C2.15889 10.5351 2 10.1427 2 9.66667C2 9.19067 2.15889 8.794 2.47667 8.47667C2.79444 8.15933 3.19111 8.00044 3.66667 8L5.07262 13.5947ZM5.07262 13.5947C5.40994 13.932 5.8326 14.1 6.33333 14.1C6.83365 14.1 7.25647 13.932 7.59461 13.5948L7.59476 13.5947C7.93203 13.2569 8.1 12.8341 8.1 12.3333C8.1 12.1428 8.06677 11.9594 8.00016 11.7839L8.00011 11.7837C7.93604 11.6156 7.86581 11.4681 7.78897 11.3421M5.07262 13.5947L4.49467 11.5053C4.57111 11.5809 4.61889 11.6871 4.638 11.824C4.65711 11.9609 4.66667 12.1307 4.66667 12.3333C4.66667 12.8089 4.82556 13.2058 5.14333 13.524C5.46067 13.8413 5.85733 14 6.33333 14C6.80889 14 7.20578 13.8413 7.524 13.524C7.84133 13.2062 8 12.8093 8 12.3333C8 12.1547 7.96889 11.9833 7.90667 11.8193C7.844 11.6549 7.776 11.5127 7.70267 11.3927M7.70267 11.3927L7.7898 11.3436C7.78952 11.3431 7.78925 11.3426 7.78897 11.3421M7.70267 11.3927C7.62533 11.2553 7.59533 11.112 7.61267 10.9627C7.63 10.8133 7.69422 10.6831 7.80533 10.572L10.572 7.80533C10.6831 7.69422 10.8198 7.63222 10.982 7.61933M7.70267 11.3927L10.982 7.61933M7.78897 11.3421C7.72209 11.2227 7.69729 11.101 7.712 10.9742C7.72661 10.8483 7.78009 10.7387 7.87604 10.6427L10.6427 7.87604C10.7364 7.7824 10.8505 7.7301 10.9899 7.71902M7.78897 11.3421L10.9899 7.71902M10.9899 7.71902C11.1314 7.70781 11.254 7.73901 11.362 7.81085C11.3622 7.81097 11.3624 7.81109 11.3625 7.81121L11.418 7.728M10.9899 7.71902L11.4333 3.66676C11.4333 3.86668 11.4428 4.03146 11.461 4.16217C11.478 4.28359 11.5188 4.36734 11.5756 4.42354L11.5765 4.42437C11.6326 4.48118 11.7165 4.52199 11.8385 4.53895C11.9697 4.55722 12.1343 4.56667 12.3333 4.56667C12.8341 4.56667 13.257 4.73489 13.5947 5.07262C13.932 5.40994 14.1 5.8326 14.1 6.33333C14.1 6.83407 13.932 7.25692 13.5948 7.59466C13.2574 7.93248 12.8345 8.10047 12.3332 8.1M11.418 7.728C11.5384 7.81067 11.6764 7.87667 11.832 7.926C11.9876 7.97533 12.1547 8 12.3333 8M11.418 7.728C11.29 7.64267 11.1447 7.60644 10.982 7.61933M11.418 7.728L10.982 7.61933M12.3333 8L12.3332 8.1M12.3333 8C12.8098 8.00044 13.2067 7.84178 13.524 7.524C13.8413 7.20622 14 6.80933 14 6.33333C14 5.85733 13.8413 5.46067 13.524 5.14333C13.2062 4.82556 12.8093 4.66667 12.3333 4.66667C12.1316 4.66667 11.962 4.65711 11.8247 4.638C11.6873 4.61889 11.5809 4.57111 11.5053 4.49467L12.3332 8.1M12.3333 8V8.1C12.3333 8.1 12.3333 8.1 12.3332 8.1M12.3329 7.23333L12.3333 7.23333C12.5981 7.23333 12.8108 7.1478 12.9793 6.97929C13.1478 6.81078 13.2333 6.59809 13.2333 6.33333C13.2333 6.06858 13.1478 5.85589 12.9793 5.68738C12.8108 5.51886 12.5981 5.43333 12.3333 5.43333C12.0085 5.43333 11.7378 5.4073 11.524 5.35291L11.5238 5.35286C11.3047 5.29664 11.1168 5.19158 10.9626 5.03738C10.8084 4.88318 10.7034 4.6953 10.6471 4.47619C10.5922 4.26225 10.5662 3.99144 10.5667 3.66653M12.3329 7.23333L10.6667 3.66667M12.3329 7.23333C12.243 7.23374 12.1556 7.22132 12.0704 7.19611C11.985 7.17085 11.9015 7.13301 11.8199 7.08204C11.5436 6.90749 11.2385 6.83107 10.9081 6.85288C10.5725 6.87503 10.2786 7.01332 10.0293 7.26262L7.26262 10.0293C7.01361 10.2783 6.87344 10.5717 6.84698 10.9067M12.3329 7.23333L7.08266 11.8209M10.5667 3.66653L10.6667 3.66667M10.5667 3.66653C10.5667 3.66657 10.5667 3.66662 10.5667 3.66667H10.6667M10.5667 3.66653C10.5666 3.40184 10.4811 3.1892 10.3126 3.02071C10.1441 2.8522 9.93142 2.76667 9.66667 2.76667C9.40192 2.76667 9.18922 2.8522 9.02071 3.02071C8.8522 3.18922 8.76667 3.40191 8.76667 3.66667C8.76667 3.76352 8.77892 3.85246 8.80268 3.93404C8.82628 4.01508 8.86402 4.09653 8.91693 4.17845M10.6667 3.66667C10.6667 3.37778 10.5722 3.13889 10.3833 2.95C10.1944 2.76111 9.95556 2.66667 9.66667 2.66667C9.37778 2.66667 9.13889 2.76111 8.95 2.95C8.76111 3.13889 8.66667 3.37778 8.66667 3.66667C8.66667 3.772 8.68 3.87044 8.70667 3.962C8.73333 4.05356 8.77556 4.144 8.83333 4.23333M8.91693 4.17845C8.91679 4.17825 8.91666 4.17804 8.91652 4.17783L8.83333 4.23333M8.91693 4.17845C9.10118 4.45486 9.18012 4.76105 9.15301 5.09331M8.91693 4.17845C8.91706 4.17864 8.91718 4.17884 8.9173 4.17903L8.83333 4.23333M8.83333 4.23333L9.15301 5.09331M9.15301 5.09331C9.12655 5.42832 8.98638 5.7217 8.73738 5.97071L5.97071 8.73738C5.72141 8.98668 5.42749 9.12497 5.09192 9.14712C4.76147 9.16892 4.45646 9.09251 4.18008 8.91798M9.15301 5.09331L4.17993 8.91788C4.17998 8.91791 4.18003 8.91794 4.18008 8.91798M4.18008 8.91798C4.09851 8.86702 4.01538 8.82944 3.9306 8.80465C3.84563 8.7798 3.75767 8.76709 3.66644 8.76667M4.18008 8.91798L3.66644 8.76667M3.66644 8.76667C3.40179 8.76672 3.18918 8.85225 3.02071 9.02071C2.8522 9.18922 2.76667 9.40192 2.76667 9.66667C2.76667 9.93144 2.85214 10.1389 3.01908 10.2984C3.18732 10.4591 3.40054 10.5413 3.66667 10.5413C3.99231 10.5413 4.26439 10.5717 4.47972 10.6354L4.47991 10.6355C4.69748 10.7004 4.88403 10.8093 5.03738 10.9626C5.19233 11.1176 5.29715 11.3103 5.3531 11.5374C5.40772 11.7592 5.43378 12.0342 5.43333 12.3601M3.66644 8.76667L5.43333 12.3601M5.43333 12.3601C5.43336 12.6248 5.51883 12.832 5.68565 12.9909C5.85388 13.1513 6.06714 13.2333 6.33333 13.2333C6.59809 13.2333 6.81078 13.1478 6.97929 12.9793C7.1478 12.8108 7.23333 12.5981 7.23333 12.3333C7.23333 12.2427 7.22086 12.155 7.19602 12.0701C7.17134 11.9857 7.13377 11.9027 7.08266 11.8209M5.43333 12.3601L7.08266 11.8209M7.08266 11.8209C6.89871 11.5447 6.81991 11.2387 6.84698 10.9067M6.84698 10.9067C6.84699 10.9066 6.84699 10.9066 6.847 10.9065L6.94667 10.9147L6.84698 10.9068C6.84698 10.9068 6.84698 10.9067 6.84698 10.9067ZM4.99867 8.31267C4.86266 8.31267 4.74587 8.2729 4.64429 8.19376L7.9 3.66642C7.89953 3.85454 7.92552 4.0321 7.97876 4.19848C8.03113 4.36215 8.10113 4.50907 8.18941 4.63838L8.18936 4.63842L8.19147 4.64128C8.26973 4.7476 8.3029 4.87195 8.28784 5.02059C8.2726 5.17109 8.2172 5.29004 8.12396 5.38329L5.3321 8.17515C5.23933 8.26755 5.13005 8.31267 4.99867 8.31267Z" fill="#292A2B" stroke="#292A2B" stroke-width="0.2"/>
</svg>
