<svg width="16" height="16" viewBox="0 0 16 16" fill="none" xmlns="http://www.w3.org/2000/svg">
<g clip-path="url(#clip0_2001_2272)">
<path d="M9.06158 3.75553V1.71439C9.06158 1.41129 8.94117 1.1206 8.72684 0.906268C8.51251 0.691941 8.22182 0.571533 7.91872 0.571533H1.71415C1.41104 0.571533 1.12035 0.691941 0.906024 0.906268C0.691697 1.1206 0.571289 1.41129 0.571289 1.71439V7.91896C0.571289 8.22207 0.691697 8.51276 0.906024 8.72708C1.12035 8.94141 1.41104 9.06182 1.71415 9.06182H3.75529M8.081 6.93839H14.2856C14.2856 6.93839 15.4284 6.93839 15.4284 8.08125V14.2858C15.4284 14.2858 15.4284 15.4287 14.2856 15.4287H8.081C8.081 15.4287 6.93815 15.4287 6.93815 14.2858V8.08125C6.93815 8.08125 6.93815 6.93839 8.081 6.93839Z" stroke="black" stroke-width="1.14286" stroke-linecap="round" stroke-linejoin="round"/>
<path d="M9.89037 12.7612C9.81459 12.7612 9.74192 12.7311 9.68833 12.6775C9.63475 12.6239 9.60465 12.5512 9.60465 12.4755C9.60465 12.3997 9.63475 12.327 9.68833 12.2734C9.74192 12.2199 9.81459 12.1898 9.89037 12.1898M9.89037 12.7612C9.96614 12.7612 10.0388 12.7311 10.0924 12.6775C10.146 12.6239 10.1761 12.5512 10.1761 12.4755C10.1761 12.3997 10.146 12.327 10.0924 12.2734C10.0388 12.2199 9.96614 12.1898 9.89037 12.1898M3.68122 4.00575C3.60545 4.00575 3.53277 3.97565 3.47919 3.92207C3.42561 3.86849 3.39551 3.79582 3.39551 3.72004C3.39551 3.64426 3.42561 3.57159 3.47919 3.51801C3.53277 3.46443 3.60545 3.43433 3.68122 3.43433" fill="black"/>
<path d="M3.68122 4.00575C3.60545 4.00575 3.53277 3.97565 3.47919 3.92207C3.42561 3.86849 3.39551 3.79582 3.39551 3.72004C3.39551 3.64426 3.42561 3.57159 3.47919 3.51801C3.53277 3.46443 3.60545 3.43433 3.68122 3.43433M9.89037 12.7612C9.81459 12.7612 9.74192 12.7311 9.68833 12.6775C9.63475 12.6239 9.60465 12.5512 9.60465 12.4755C9.60465 12.3997 9.63475 12.327 9.68833 12.2734C9.74192 12.2199 9.81459 12.1898 9.89037 12.1898C9.96614 12.1898 10.0388 12.2199 10.0924 12.2734C10.146 12.327 10.1761 12.3997 10.1761 12.4755C10.1761 12.5512 10.146 12.6239 10.0924 12.6775C10.0388 12.7311 9.96614 12.7612 9.89037 12.7612Z" stroke="black" stroke-width="1.14286" stroke-linecap="round" stroke-linejoin="round"/>
<path d="M3.67969 4.00575C3.75546 4.00575 3.82814 3.97565 3.88172 3.92207C3.9353 3.86849 3.9654 3.79582 3.9654 3.72004C3.9654 3.64426 3.9353 3.57159 3.88172 3.51801C3.82814 3.46443 3.75546 3.43433 3.67969 3.43433M12.4785 10.4058C12.4028 10.4058 12.3301 10.3757 12.2765 10.3221C12.2229 10.2685 12.1928 10.1958 12.1928 10.12C12.1928 10.0443 12.2229 9.97159 12.2765 9.91801C12.3301 9.86443 12.4028 9.83433 12.4785 9.83433" stroke="black" stroke-width="1.14286" stroke-linecap="round" stroke-linejoin="round"/>
<path d="M12.4775 10.4059C12.5533 10.4059 12.626 10.3758 12.6796 10.3222C12.7332 10.2686 12.7633 10.196 12.7633 10.1202C12.7633 10.0444 12.7332 9.97174 12.6796 9.91816C12.626 9.86458 12.5533 9.83447 12.4775 9.83447" stroke="black" stroke-width="1.14286" stroke-linecap="round" stroke-linejoin="round"/>
</g>
<defs>
<clipPath id="clip0_2001_2272">
<rect width="16" height="16" fill="white"/>
</clipPath>
</defs>
</svg>
