<svg width="16" height="16" viewBox="0 0 16 16" fill="none" xmlns="http://www.w3.org/2000/svg">
<path fill-rule="evenodd" clip-rule="evenodd" d="M7.73369 1.00124C8.04915 0.991029 8.36345 1.04395 8.65791 1.15686C8.95237 1.26977 9.22098 1.44036 9.44776 1.65848C9.67455 1.87661 9.85488 2.13783 9.97803 2.42659C10.1012 2.71536 10.1646 3.02579 10.1646 3.33942C10.1646 3.65304 10.1012 3.96347 9.97803 4.25224C9.85488 4.54101 9.67455 4.80222 9.44776 5.02035C9.22098 5.23848 8.95237 5.40906 8.65791 5.52197C8.36345 5.63488 8.04915 5.6878 7.73369 5.67759C7.12289 5.65782 6.54376 5.40281 6.11873 4.96648C5.69369 4.53014 5.45605 3.94668 5.45605 3.33942C5.45605 2.73215 5.69369 2.14869 6.11873 1.71235C6.54376 1.27602 7.12289 1.02101 7.73369 1.00124ZM8.30269 2.07159C8.13164 2.00601 7.94907 1.97526 7.76582 1.9812C7.41101 1.99268 7.07461 2.14081 6.82771 2.39427C6.58081 2.64773 6.44277 2.98666 6.44277 3.33942C6.44277 3.69217 6.58081 4.0311 6.82771 4.28456C7.07461 4.53802 7.41101 4.68615 7.76582 4.69763C7.94907 4.70357 8.13164 4.67282 8.30269 4.60724C8.47374 4.54165 8.62977 4.44256 8.7615 4.31585C8.89324 4.18914 8.99799 4.03741 9.06953 3.86966C9.14107 3.70192 9.17793 3.5216 9.17793 3.33942C9.17793 3.15723 9.14107 2.97691 9.06953 2.80917C8.99799 2.64143 8.89324 2.48969 8.7615 2.36298C8.62977 2.23627 8.47374 2.13718 8.30269 2.07159Z" fill="#292A2B"/>
<path fill-rule="evenodd" clip-rule="evenodd" d="M5.09821 5.79048C5.80137 5.09176 6.75508 4.69922 7.74951 4.69922C8.74394 4.69922 9.69764 5.09176 10.4008 5.79048C11.1039 6.48913 11.4989 7.43666 11.499 8.42468M11.499 8.42468L11.5 9.81107C11.5001 9.94115 11.4482 10.0659 11.3556 10.1579C11.2631 10.25 11.1376 10.3017 11.0066 10.3017H10.046L9.63526 13.5705C9.60443 13.8159 9.39454 14 9.1457 14H6.35331C6.10447 14 5.89459 13.8159 5.86375 13.5705L5.45298 10.3017H4.49336C4.22088 10.3017 4 10.0822 4 9.81142V8.42503C4 7.43688 4.39504 6.48921 5.09821 5.79048M7.74951 5.67969C7.01677 5.67969 6.31404 5.96893 5.79592 6.48378C5.27779 6.99863 4.98671 7.69692 4.98671 8.42503V9.32118H5.88857C6.1374 9.32118 6.34729 9.50532 6.37812 9.75068L6.78889 13.0195H8.71012L9.12089 9.75068C9.15172 9.50532 9.36161 9.32118 9.61045 9.32118H10.5129L10.5123 8.42537C10.5123 7.69727 10.2212 6.99863 9.7031 6.48378C9.18497 5.96893 8.48225 5.67969 7.74951 5.67969Z" fill="#292A2B"/>
</svg>
