<svg width="16" height="16" viewBox="0 0 16 16" fill="none" xmlns="http://www.w3.org/2000/svg">
<path d="M12.667 4.1664H10.167V3.33306C10.143 3.00225 9.98961 2.69423 9.74 2.47582C9.49039 2.25741 9.16472 2.14623 8.83366 2.1664H7.16699C6.83593 2.14623 6.51026 2.25741 6.26065 2.47582C6.01104 2.69423 5.85761 3.00225 5.83366 3.33306V4.1664H3.33366C3.02478 4.16815 2.72905 4.29162 2.51063 4.51004C2.29222 4.72845 2.16874 5.02418 2.16699 5.33306V11.9997C2.16874 12.3086 2.29222 12.6043 2.51063 12.8228C2.72905 13.0412 3.02478 13.1646 3.33366 13.1664H12.667C12.9759 13.1646 13.2716 13.0412 13.49 12.8228C13.7084 12.6043 13.8319 12.3086 13.8337 11.9997V5.33306C13.8319 5.02418 13.7084 4.72845 13.49 4.51004C13.2716 4.29162 12.9759 4.16815 12.667 4.1664ZM6.83366 3.33306C6.83366 3.27973 6.96033 3.1664 7.16699 3.1664H8.83366C9.04033 3.1664 9.16699 3.27973 9.16699 3.33306V4.1664H6.83366V3.33306ZM3.33366 5.1664H12.667C12.7112 5.1664 12.7536 5.18396 12.7848 5.21521C12.8161 5.24647 12.8337 5.28886 12.8337 5.33306V7.49973H3.16699V5.33306C3.16699 5.28886 3.18455 5.24647 3.21581 5.21521C3.24706 5.18396 3.28946 5.1664 3.33366 5.1664ZM5.83366 8.49973H10.167V9.49973H5.83366V8.49973ZM12.667 12.1664H3.33366C3.28946 12.1664 3.24706 12.1488 3.21581 12.1176C3.18455 12.0863 3.16699 12.0439 3.16699 11.9997V8.49973H4.83366V9.99973C4.83539 10.1318 4.88862 10.258 4.98201 10.3514C5.07541 10.4448 5.20159 10.498 5.33366 10.4997H10.667C10.7991 10.498 10.9252 10.4448 11.0186 10.3514C11.112 10.258 11.1653 10.1318 11.167 9.99973V8.49973H12.8337V11.9997C12.8337 12.0439 12.8161 12.0863 12.7848 12.1176C12.7536 12.1488 12.7112 12.1664 12.667 12.1664Z" fill="#292A2B"/>
</svg>
