<svg width="16" height="16" viewBox="0 0 16 16" fill="none" xmlns="http://www.w3.org/2000/svg">
<path d="M4.83301 2.6665C4.34678 2.6665 3.88046 2.85966 3.53665 3.20347C3.19283 3.54729 2.99967 4.01361 2.99967 4.49984V5.39117C2.52506 5.50373 2.10232 5.77316 1.79985 6.15583C1.49739 6.53851 1.3329 7.01206 1.33301 7.49984V9.49984C1.33294 9.95726 1.50388 10.3982 1.81225 10.736C2.12062 11.0739 2.54415 11.2843 2.99967 11.3258V12.1665C2.99967 12.2991 3.05235 12.4263 3.14612 12.5201C3.23989 12.6138 3.36707 12.6665 3.49967 12.6665C3.63228 12.6665 3.75946 12.6138 3.85323 12.5201C3.947 12.4263 3.99967 12.2991 3.99967 12.1665V11.3332H11.9997V12.1665C11.9997 12.2991 12.0524 12.4263 12.1461 12.5201C12.2399 12.6138 12.3671 12.6665 12.4997 12.6665C12.6323 12.6665 12.7595 12.6138 12.8532 12.5201C12.947 12.4263 12.9997 12.2991 12.9997 12.1665V11.3258C13.4552 11.2843 13.8787 11.0739 14.1871 10.736C14.4955 10.3982 14.6664 9.95726 14.6663 9.49984V7.49984C14.6664 7.01206 14.502 6.53851 14.1995 6.15583C13.897 5.77316 13.4743 5.50373 12.9997 5.39117V4.49984C12.9997 4.01361 12.8065 3.54729 12.4627 3.20347C12.1189 2.85966 11.6526 2.6665 11.1663 2.6665H4.83301ZM12.833 10.3332H3.16634C2.70634 10.3332 2.33301 9.95984 2.33301 9.49984V7.49984C2.33301 7.19042 2.45592 6.89367 2.67472 6.67488C2.89351 6.45609 3.19026 6.33317 3.49967 6.33317C3.80909 6.33317 4.10584 6.45609 4.32463 6.67488C4.54342 6.89367 4.66634 7.19042 4.66634 7.49984V7.83317C4.66634 8.10917 4.89034 8.33317 5.16634 8.33317H10.833C10.9656 8.33317 11.0928 8.28049 11.1866 8.18672C11.2803 8.09296 11.333 7.96578 11.333 7.83317V7.49984C11.333 7.19042 11.4559 6.89367 11.6747 6.67488C11.8935 6.45609 12.1903 6.33317 12.4997 6.33317C12.8091 6.33317 13.1058 6.45609 13.3246 6.67488C13.5434 6.89367 13.6663 7.19042 13.6663 7.49984V9.49984C13.6663 9.95984 13.293 10.3332 12.833 10.3332ZM11.9997 5.39117C11.5529 5.4972 11.1514 5.74243 10.853 6.09148C10.5546 6.44052 10.3749 6.87533 10.3397 7.33317H5.65967C5.62447 6.87533 5.44472 6.44052 5.14636 6.09148C4.84799 5.74243 4.44645 5.4972 3.99967 5.39117V4.49984C3.99967 4.03984 4.37301 3.6665 4.83301 3.6665H11.1663C11.6263 3.6665 11.9997 4.03984 11.9997 4.49984V5.39117Z" fill="#292A2B"/>
</svg>
