<svg width="16" height="16" viewBox="0 0 16 16" fill="none" xmlns="http://www.w3.org/2000/svg">
<path d="M8.18366 12.6668C8.31699 12.6557 8.43088 12.6029 8.52533 12.5085C8.61977 12.4141 8.66699 12.3002 8.66699 12.1668C8.66699 12.0113 8.61699 11.8863 8.51699 11.7918C8.41699 11.6974 8.28922 11.6557 8.13366 11.6668C7.6781 11.7002 7.19477 11.5752 6.68366 11.2918C6.17255 11.0085 5.85033 10.4946 5.71699 9.75016C5.69477 9.62794 5.63644 9.52794 5.54199 9.45016C5.44755 9.37239 5.33921 9.3335 5.21699 9.3335C5.06144 9.3335 4.93366 9.39183 4.83366 9.5085C4.73366 9.62516 4.70033 9.76127 4.73366 9.91683C4.92255 10.9279 5.36699 11.6502 6.06699 12.0835C6.76699 12.5168 7.47255 12.7113 8.18366 12.6668ZM8.00033 14.6668C6.4781 14.6668 5.20866 14.1446 4.19199 13.1002C3.17533 12.0557 2.66699 10.7557 2.66699 9.20016C2.66699 8.08905 3.10866 6.88072 3.99199 5.57516C4.76628 4.43077 5.88846 3.20315 7.35853 1.89229C7.72463 1.56583 8.27602 1.56583 8.64212 1.89228C10.1122 3.20315 11.2344 4.43077 12.0087 5.57516C12.892 6.88072 13.3337 8.08905 13.3337 9.20016C13.3337 10.7557 12.8253 12.0557 11.8087 13.1002C10.792 14.1446 9.52255 14.6668 8.00033 14.6668ZM8.00033 13.3335C9.15588 13.3335 10.1114 12.9418 10.867 12.1585C11.6225 11.3752 12.0003 10.3891 12.0003 9.20016C12.0003 8.38905 11.6642 7.47239 10.992 6.45016C10.4377 5.60735 9.66257 4.70033 8.66646 3.7291C8.29533 3.36724 7.70532 3.36724 7.33419 3.7291C6.33808 4.70033 5.5629 5.60735 5.00866 6.45016C4.33644 7.47239 4.00033 8.38905 4.00033 9.20016C4.00033 10.3891 4.3781 11.3752 5.13366 12.1585C5.88921 12.9418 6.84477 13.3335 8.00033 13.3335Z" fill="black"/>
</svg>
