<svg width="16" height="16" viewBox="0 0 16 16" fill="none" xmlns="http://www.w3.org/2000/svg">
<path d="M11.5668 8.52678C11.4458 8.52723 11.3291 8.48199 11.2401 8.40012C10.3549 7.60738 9.20836 7.16905 8.02008 7.16905C6.8318 7.16905 5.68529 7.60738 4.80008 8.40012C4.75109 8.44395 4.69393 8.47769 4.63187 8.49941C4.56982 8.52112 4.50409 8.53039 4.43846 8.52667C4.37282 8.52296 4.30856 8.50633 4.24935 8.47775C4.19014 8.44917 4.13716 8.4092 4.09342 8.36012C4.00736 8.25957 3.96406 8.12934 3.97278 7.99728C3.9815 7.86521 4.04155 7.74181 4.14008 7.65345C5.20511 6.69493 6.58724 6.16455 8.02008 6.16455C9.45293 6.16455 10.8351 6.69493 11.9001 7.65345C11.9986 7.74181 12.0587 7.86521 12.0674 7.99728C12.0761 8.12934 12.0328 8.25957 11.9468 8.36012C11.898 8.41218 11.8392 8.4538 11.7739 8.48245C11.7085 8.5111 11.6381 8.52618 11.5668 8.52678Z" fill="#292A2B"/>
<path d="M13.333 6.66648C13.207 6.66584 13.0858 6.61831 12.993 6.53314C11.6453 5.2485 9.85489 4.53187 7.99301 4.53187C6.13114 4.53187 4.3407 5.2485 2.99301 6.53314C2.94713 6.58771 2.8901 6.63182 2.82577 6.66254C2.76143 6.69325 2.69127 6.70986 2.61999 6.71123C2.54871 6.7126 2.47797 6.69872 2.41249 6.67051C2.34702 6.6423 2.28834 6.60041 2.24038 6.54766C2.19243 6.49491 2.1563 6.43251 2.13444 6.36465C2.11258 6.2968 2.10548 6.22505 2.11362 6.15422C2.12176 6.0834 2.14496 6.01513 2.18165 5.95401C2.21834 5.89288 2.26767 5.84031 2.32635 5.79981C3.85686 4.35002 5.88485 3.54199 7.99301 3.54199C10.1012 3.54199 12.1292 4.35002 13.6597 5.79981C13.7326 5.86736 13.7838 5.95511 13.8066 6.05187C13.8294 6.14862 13.8229 6.24998 13.7878 6.343C13.7527 6.43602 13.6907 6.51648 13.6097 6.57409C13.5287 6.63171 13.4324 6.66388 13.333 6.66648Z" fill="#292A2B"/>
<path d="M6.25273 10.4269C6.17511 10.4269 6.09855 10.4088 6.02912 10.3741C5.9597 10.3394 5.8993 10.289 5.85273 10.2269C5.81247 10.1747 5.78307 10.115 5.76628 10.0512C5.74949 9.98748 5.74564 9.92103 5.75496 9.85577C5.76428 9.79052 5.78658 9.7278 5.82055 9.67131C5.85452 9.61482 5.89947 9.56571 5.95273 9.52688C6.54125 9.07654 7.26168 8.83252 8.00273 8.83252C8.74378 8.83252 9.46422 9.07654 10.0527 9.52688C10.1053 9.56628 10.1495 9.61564 10.183 9.67214C10.2164 9.72864 10.2384 9.79117 10.2477 9.85617C10.257 9.92117 10.2534 9.98737 10.2371 10.051C10.2208 10.1146 10.1921 10.1744 10.1527 10.2269C10.0721 10.3315 9.95381 10.4005 9.82306 10.4192C9.6923 10.4379 9.55942 10.4047 9.45273 10.3269C9.03597 10.0095 8.52658 9.83764 8.00273 9.83764C7.47888 9.83764 6.9695 10.0095 6.55273 10.3269C6.46554 10.3906 6.36069 10.4255 6.25273 10.4269Z" fill="#292A2B"/>
<path d="M8 12.4995C7.86739 12.4995 7.74022 12.4468 7.64645 12.3531C7.55268 12.2593 7.5 12.1321 7.5 11.9995C7.5 11.8669 7.55268 11.7397 7.64645 11.646C7.74022 11.5522 7.86739 11.4995 8 11.4995C8.13261 11.4995 8.25978 11.5522 8.35355 11.646C8.44732 11.7397 8.5 11.8669 8.5 11.9995C8.5 12.1321 8.44732 12.2593 8.35355 12.3531C8.25978 12.4468 8.13261 12.4995 8 12.4995Z" fill="#292A2B"/>
</svg>
